<svg width="119" height="72" viewBox="0 0 119 72" fill="none" xmlns="http://www.w3.org/2000/svg">
<path d="M56.7063 65.2582L56.9982 65.2607C57.1482 65.4025 57.2481 65.5891 57.2831 65.7925L56.7167 66.3215C55.8746 66.5991 54.8538 66.5091 53.8381 66.5049C53.2023 66.4993 52.5642 66.4938 51.9295 66.4882C51.779 66.4869 51.6274 66.4717 51.5103 66.6108C51.3942 66.5325 51.261 66.4833 51.1219 66.4671C50.9827 66.451 50.8418 66.4685 50.7108 66.5181C50.6106 66.561 50.5025 66.5827 50.3935 66.5818C50.2845 66.5808 50.1768 66.5573 50.0773 66.5126C49.9751 66.4651 49.8636 66.4407 49.7509 66.4414C49.6381 66.442 49.5269 66.4675 49.4252 66.5162C49.3709 66.5529 49.3087 66.5764 49.2436 66.5847C49.1786 66.593 49.1125 66.5858 49.0507 66.5639C48.7834 66.3971 48.5003 66.4594 48.2247 66.4559C46.7979 66.4353 45.3709 66.4437 43.9397 66.4058C43.4638 66.3923 43.0041 66.6408 42.5489 66.5094C42.1666 66.4168 41.773 66.3798 41.3801 66.3996C41.2179 66.3982 41.0425 66.3295 40.8963 66.495C40.8537 66.5174 40.8062 66.5288 40.7581 66.5284C40.7101 66.528 40.6628 66.5157 40.6206 66.4926C40.3534 66.32 40.0863 66.408 39.8104 66.4288C39.6702 66.4391 39.5001 66.5593 39.3476 66.3807C39.2937 66.3177 39.1276 66.3661 39.056 66.4824C38.9804 66.3822 38.8547 66.3151 38.7639 66.3745C38.5169 66.5356 38.2534 66.4743 37.9963 66.4732C37.1091 66.4724 36.222 66.4577 35.3326 66.4499C34.8508 66.4457 34.3557 66.3708 33.8905 66.457C33.426 66.525 32.9565 66.5523 32.4872 66.5386C32.0054 66.5425 31.5193 66.4966 31.0417 66.5399C30.7083 66.5545 30.3796 66.6249 30.0693 66.748C29.8394 66.5503 29.5502 66.645 29.2747 66.6252C28.9992 66.6055 28.68 66.5587 28.4106 66.6304C28.1394 66.6882 27.8635 66.7207 27.5863 66.7275C27.3116 66.7494 27.0151 66.6159 26.7549 66.8361C26.5952 66.8219 26.449 66.5913 26.2609 66.775C26.2025 66.8312 26.1821 66.7812 26.1347 66.7669C25.8829 66.6895 25.6321 66.6305 25.3895 66.8149C25.3543 66.8312 25.3159 66.8396 25.277 66.8392C25.2381 66.8389 25.1998 66.8299 25.1648 66.8129C24.7877 66.6347 24.3886 66.7054 23.9973 66.6939C23.6059 66.6823 23.1866 66.6868 22.7824 66.6832C22.5976 66.75 22.4571 66.9236 22.2476 66.9102C22.0762 66.9087 22.0359 66.752 21.9115 66.6756C21.7328 66.7112 21.5446 66.647 21.3316 66.7632C21.2277 66.8112 21.1128 66.8306 20.9989 66.8194C20.885 66.8082 20.7762 66.7669 20.6835 66.6997C20.3123 66.7694 19.9616 66.3459 19.5778 66.653C19.5545 66.6713 19.5014 66.6523 19.462 66.652C19.2427 66.6952 19.0389 66.5625 18.802 66.6323C18.5781 66.6995 18.3391 66.6975 18.1164 66.6263C17.6892 66.4697 17.259 66.5308 16.8294 66.5155C16.3999 66.5001 15.9423 66.5077 15.4987 66.5039C15.3829 66.5028 15.2547 66.4612 15.2133 66.6983C15.0254 66.465 14.7941 66.551 14.6164 66.4811C14.3959 66.3958 14.2118 66.5251 14.0129 66.4909C13.8139 66.4567 13.5847 66.5856 13.4639 66.3587C12.9523 66.5859 12.4533 66.4286 11.9676 66.4719C11.832 66.4846 11.7011 66.4823 11.6212 66.353C11.5057 66.3115 11.4511 66.4674 11.3759 66.4563C10.8982 66.3838 10.4479 66.6161 9.97337 66.5796C9.83679 66.5691 9.71891 66.4059 9.53933 66.5457C9.42275 66.6327 9.19928 66.4917 9.07493 66.6725C9.07485 66.6818 9.03788 66.6722 9.01819 66.672C8.10509 66.5876 7.20295 66.8392 6.28861 66.764C6.17287 66.7549 6.12955 66.6781 6.0246 66.6273C5.95325 66.682 5.87128 66.7211 5.78395 66.7423C5.69661 66.7635 5.60581 66.7662 5.51737 66.7503C5.24001 66.6796 4.97581 66.8278 4.68338 66.7593C4.37128 66.6882 4.03148 66.7385 3.70373 66.7357L2.77723 66.7276C2.46916 66.7249 2.15994 66.7222 1.85072 66.7195C1.7048 66.7182 1.54192 66.6681 1.43625 66.8317C1.25405 66.6077 1.00247 66.7688 0.71603 66.6771C0.703593 66.6423 0.660585 66.5284 0.641352 66.4761L0.128279 66.4716L0.133969 65.8196C0.329156 65.6175 0.599501 65.5642 0.876356 65.5597C1.35825 65.5512 1.84244 65.545 2.32286 65.5723C2.68404 65.594 3.01024 65.3745 3.3767 65.4541C3.48652 65.4782 3.60833 65.4561 3.64528 65.6024C3.95123 65.4487 4.22635 65.3758 4.50363 65.5879C4.6304 65.5144 4.77297 65.4723 4.91936 65.4653C5.49825 65.49 6.07767 65.4545 6.65643 65.4943C7.32316 65.5407 7.97029 65.3124 8.63444 65.3888C9.06933 65.1922 9.52924 65.3121 9.97655 65.2847C10.3671 65.2615 10.7567 65.3402 11.1506 65.1953C11.2615 65.1486 11.3839 65.1361 11.5019 65.1594C11.62 65.1827 11.7283 65.2408 11.8131 65.3262C12.0612 65.0388 12.4266 65.2447 12.7486 65.1027C13.0335 64.9767 13.3792 65.3098 13.7673 65.1695C13.7976 64.9461 13.7689 64.7186 13.6838 64.5098C13.5921 64.2773 13.4877 64.0228 13.5662 63.7837C13.302 63.4015 13.2783 62.9369 12.9873 62.5741C13.0983 62.1952 12.7342 61.8387 12.9136 61.4581C12.6493 61.2242 12.6401 60.9438 12.6657 60.666C12.5705 60.4243 12.2654 60.2236 12.5412 59.9353C12.412 59.7419 12.4446 59.4584 12.1919 59.3473C12.3817 59.1046 12.1369 58.8835 12.228 58.6712L11.9732 58.3991C12.0787 57.8603 11.8943 57.3561 11.7064 56.8541C11.6362 56.6658 11.6087 56.4976 11.7338 56.3713C11.5789 55.8059 11.231 55.3245 11.2014 54.7301C11.1747 54.5351 11.1136 54.3463 11.021 54.1726C10.7938 53.661 10.6955 53.1123 10.5426 52.5805C10.4858 52.3155 10.383 52.0625 10.2387 51.8331C10.0896 51.6089 10.0027 51.3492 9.98701 51.0804C9.97804 50.9135 9.83989 50.8185 9.85399 50.6623L9.99783 50.5037L9.63093 50.2098C9.62537 50.0511 9.66467 49.9263 9.53326 49.8545C9.82325 49.5385 9.36382 49.2299 9.54134 48.928C9.43696 48.8113 9.22601 48.8314 9.21904 48.7017C9.20547 48.3981 8.93627 48.1884 8.95394 47.8886C8.96493 47.6906 8.85274 47.5402 8.72663 47.392C8.71676 47.2226 8.72018 47.0526 8.73686 46.8837C8.76742 46.6998 8.56339 46.5891 8.59676 46.4806L9.04651 46.0397C9.11736 45.7508 9.01945 45.5565 9.19648 45.4446C9.3297 45.309 9.52412 45.4601 9.63043 45.3557C9.78932 45.1984 9.86823 45.4469 10.0146 45.3949C10.2191 45.3226 10.4713 45.4951 10.663 45.2848C10.6888 45.256 10.7788 45.2939 10.8321 45.2862C11.0144 45.2392 11.1316 45.4788 11.3013 45.4062C11.4385 45.3448 11.5619 45.2695 11.7204 45.294C11.8789 45.3185 12.0091 45.2583 12.1481 45.3892C12.263 45.4945 12.4894 45.3053 12.5238 45.345C12.6969 45.5457 12.7894 45.2964 12.9469 45.307L13.0999 45.4242C13.5129 45.217 13.9542 45.3366 14.3829 45.3195C14.8116 45.3024 15.271 45.3458 15.7137 45.3184C15.9548 45.3043 16.1762 45.4163 16.4316 45.349C16.687 45.2817 17.0108 45.339 17.2957 45.3415L19.7833 45.3632C20.0532 45.3656 20.323 45.3679 20.594 45.3703C20.7793 45.3719 20.9724 45.4095 21.1162 45.259C21.2515 45.281 21.334 45.3895 21.4822 45.3861C22.08 45.3751 22.6774 45.3966 23.2751 45.3937C23.3851 45.3946 23.4915 45.4199 23.5943 45.3189C23.669 45.2442 23.7891 45.2881 23.9034 45.3308C24.2428 45.46 24.5914 45.4608 25.0309 45.2665C25.0413 45.2666 25.0667 45.4139 25.1779 45.4137C25.2611 45.4284 25.2943 45.3418 25.3538 45.2995C25.4059 45.2999 25.4581 45.2865 25.5098 45.3367C25.5721 45.3936 25.6518 45.4276 25.7359 45.4332C25.8201 45.4388 25.9036 45.4156 25.9728 45.3674C26.0597 45.3135 26.162 45.2899 26.2637 45.3002C26.3655 45.3105 26.4609 45.3542 26.5352 45.4244C26.6729 45.4453 26.755 45.3221 26.8838 45.2966C27.1773 45.2401 27.4226 45.5329 27.6937 45.3928C27.9648 45.2528 28.2174 45.3696 28.4738 45.3232C28.5898 45.3034 28.6447 45.3838 28.724 45.454C28.9926 45.3301 29.2704 45.2271 29.5475 45.4519C29.689 45.4334 29.8029 45.2479 29.9585 45.3396C30.371 45.5865 30.8174 45.3981 31.2431 45.4574C31.3044 45.4661 31.3311 45.3319 31.4271 45.3432C32.0692 45.555 32.0968 46.2386 32.4575 46.7189C32.3658 47.0007 32.6159 47.2855 32.5656 47.6024C32.9103 47.9158 32.9898 48.3636 33.1195 48.7655C33.2999 49.3265 33.4048 49.9134 33.6503 50.4541C33.6934 50.5506 33.6614 50.643 33.6978 50.7221C33.7944 50.9337 33.7807 51.1757 33.9538 51.3729C34.127 51.5702 34.5277 52.6404 34.4815 52.8832C34.4439 53.0844 34.6825 53.2116 34.5985 53.4147C34.7904 53.5947 34.779 53.839 34.8418 54.0678C34.8957 54.2663 35.1133 54.4176 35.0485 54.6742C35.2787 54.8429 35.0666 55.1202 35.1993 55.3032C35.3561 55.5177 35.2198 55.7493 35.285 55.9792L35.5019 56.2C35.4279 56.4588 35.5623 56.7148 35.6109 56.9828C35.6309 57.0791 35.7507 57.1566 35.8149 57.2324C35.8548 57.974 36.2232 58.6189 36.3347 59.3808L36.2564 59.4681C36.4262 59.6468 36.3261 59.9691 36.5891 60.1C36.6818 60.7552 36.7724 61.3907 36.8673 62.0609C37.3311 62.0059 37.7988 62.1617 38.2581 61.9573C38.3534 61.9141 38.4897 61.9593 38.6055 61.9603L42.1957 61.9916C42.4852 61.9941 42.7749 61.977 43.0632 61.9992C43.3514 62.0214 43.5394 61.7057 43.8376 61.7743C43.9554 61.5564 44.2027 61.7427 44.3509 61.6189C44.5213 61.4768 44.7173 61.5712 44.9016 61.5554C45.0662 61.5395 45.2488 61.5943 45.374 61.4437C45.5417 61.4672 45.6892 61.6978 45.8762 61.4991C45.8956 61.4785 45.9201 61.4633 45.9472 61.455C45.9742 61.4467 46.003 61.4456 46.0306 61.4518C46.6195 61.5275 47.1904 61.2742 47.777 61.3512C48.1934 61.4058 48.5799 61.1868 49.0045 61.2368C49.4037 61.2855 49.833 61.3332 50.2137 61.2392C50.8022 61.0938 51.3829 61.1776 51.9644 61.1619C52.546 61.1461 53.1608 61.1723 53.7584 61.1706C53.9646 61.1724 54.117 61.3532 54.348 61.3031C54.4388 61.2778 54.5344 61.2738 54.627 61.2914C54.7197 61.3091 54.807 61.348 54.8822 61.4051C54.9547 61.4613 55.1078 61.4256 55.2226 61.415C55.9366 61.3529 56.4943 61.6855 57.0477 62.1143L58.1409 62.1238C58.1425 61.9431 58.0864 61.7411 58.1593 61.6155C58.2616 61.4415 58.3147 61.3215 58.1632 61.1685C58.251 61.0615 58.2466 60.897 58.3759 60.8113L58.2612 60.6875C58.4463 60.1177 58.5725 59.5305 58.6378 58.9349C58.6938 58.8949 58.787 58.8274 58.8803 58.7575C58.7995 58.6976 58.7455 58.6084 58.7299 58.509C58.7143 58.4096 58.7383 58.3081 58.7969 58.2263C58.9893 57.9466 58.9609 57.6139 59.1528 57.2635C58.2182 57.3793 57.3855 57.1056 56.5327 57.1468C56.4377 57.1518 56.344 57.1452 56.264 57.1445L56.0344 56.9108C55.9904 56.9104 55.9349 56.9099 55.8781 56.9095C55.6396 56.8946 55.4053 56.9308 55.1691 56.7979C54.9858 56.6955 54.7166 56.8854 54.5239 56.6764C54.4883 56.6379 54.3734 56.6589 54.2922 56.6744C53.7773 56.7533 53.2908 56.4966 52.7796 56.5454C52.6231 56.5602 52.5234 56.4354 52.3684 56.4086C51.6746 56.2867 50.9808 56.1556 50.2649 56.1713C50.105 56.1699 49.9238 56.239 49.7828 56.0675C49.7426 56.0419 49.6951 56.0303 49.6476 56.0347C49.6002 56.0392 49.5556 56.0593 49.5208 56.0919C49.4676 56.147 49.3972 56.1825 49.3212 56.1926C49.2452 56.2027 49.168 56.1867 49.1022 56.1473C48.9723 56.0373 48.9144 56.163 48.8381 56.1542C48.2283 56.0829 47.64 56.3407 47.0026 56.254C46.8743 56.6201 46.4988 56.5137 46.2399 56.581C45.9446 56.6591 45.662 56.7791 45.4006 56.9373C45.2373 57.05 45.0554 57.1331 44.8634 57.1828C44.5744 57.2417 44.3652 57.468 44.1217 57.6222C43.8306 57.805 43.5269 57.9645 43.2404 58.1497C42.8409 58.4045 42.4253 58.6406 42.0533 58.9373C41.7104 59.2065 41.394 59.5002 41.0751 59.8009L40.7277 59.7979C40.5951 59.733 40.7499 59.5074 40.4858 59.5143C40.7631 59.1913 40.8891 58.8229 41.3229 58.7502C41.4058 58.678 41.3852 58.5064 41.5178 58.4508C42.1304 58.1956 42.5179 57.5932 43.257 57.3078C43.6957 56.8089 44.4413 56.5722 45.1685 56.1952C44.7605 55.8291 44.8967 55.3473 44.7996 54.9295C44.6992 54.4931 44.7845 54.0132 44.7889 53.506L45.0221 53.3285C44.9613 53.2608 44.9246 53.2187 44.8753 53.165C44.9255 52.9778 45.11 52.8057 44.906 52.5665C44.8223 52.465 44.895 52.2317 44.8964 52.0719C45.0035 51.8724 45.0944 51.6752 45.2107 51.4955C45.2348 51.4548 45.2503 51.4095 45.2562 51.3626C45.2622 51.3156 45.2586 51.2679 45.2455 51.2225C45.1433 50.7166 45.1456 50.7189 45.2547 50.1593C45.282 50.0085 45.279 49.8537 45.246 49.704C45.1166 49.1319 45.1096 49.133 45.3906 48.6629C45.3704 48.3153 45.435 47.9556 45.3605 47.5971C45.3538 47.5658 45.31 47.541 45.2825 47.5142C45.495 47.3214 45.518 47.0715 45.5273 46.8028C45.5414 46.5076 45.463 46.2104 45.6138 45.9118C45.7446 45.6523 45.553 45.3159 45.7604 45.0444C45.8072 44.9822 45.762 44.8568 45.7698 44.7607C45.7716 44.558 45.7259 44.3434 45.9194 44.2026L45.7863 44.0567C45.9997 43.762 45.8405 43.4224 45.9104 43.1115C45.9445 43.0573 46.0046 43.066 46.0567 43.0664C46.1509 43.0267 46.1319 42.9512 46.1326 42.8725C46.1366 42.4092 46.3155 41.9545 46.2745 41.4746C46.2778 41.3924 46.2989 41.3119 46.3363 41.2386C46.3737 41.1654 46.4266 41.1011 46.4913 41.0503C46.3198 40.9237 46.3967 40.7425 46.3865 40.5861L46.5979 40.3783C46.6634 39.7719 46.7244 39.1586 47.3255 38.7631C47.3271 38.5743 47.3288 38.3844 47.3305 38.1945C47.3321 38.0045 47.3058 37.8294 47.4405 37.658C47.4944 37.5878 47.4424 37.4426 47.5532 37.3556C47.5765 37.3372 47.4635 37.2783 47.5191 37.1514C47.6786 36.7926 47.86 36.4456 48.0433 36.0128C48.0761 35.7062 47.9788 35.3034 48.1685 34.9298C48.1992 34.8675 48.2072 34.7425 48.1705 34.7063C47.9465 34.4924 48.1272 34.2264 48.0364 34.0102C47.8735 33.4297 47.4081 33.0121 47.2592 32.4201C47.2178 32.2553 47.0301 32.1332 46.9295 31.9783C46.7124 31.644 46.5279 31.2798 46.2501 30.996C46.0802 30.8184 46.0731 30.5705 45.9197 30.3711C45.7662 30.1717 45.5834 30.0207 45.4508 29.818C45.4165 29.7645 45.4521 29.6686 45.4532 29.5401L45.0921 29.2439C45.1705 29.0245 45.0257 28.8959 44.9597 28.7528C44.8005 28.4225 44.7747 28.0563 44.6607 27.7205C44.6395 27.677 44.6321 27.628 44.6393 27.5801C44.6466 27.5322 44.6681 27.4876 44.7012 27.4522L44.6711 26.9273C44.6804 26.7826 44.6203 26.635 44.7339 26.4958C44.8475 26.3566 44.7989 26.2149 44.6678 26.1014C44.8908 25.632 44.7412 25.1303 44.8166 24.5808L45.0107 24.5049C45.046 23.7837 45.3537 23.2895 45.6914 22.8222C45.9388 22.4769 46.1148 22.0753 46.4703 21.8167C46.5869 21.7343 46.5974 21.5954 46.6643 21.4883C46.7961 21.2483 46.9534 21.0233 47.1335 20.8171C47.3286 20.6173 47.564 20.4561 47.6799 20.1791C47.7031 20.1258 47.737 20.0779 47.7796 20.0384C47.8223 19.9989 47.8726 19.9687 47.9275 19.9496C48.1398 19.9028 48.211 19.7054 48.3694 19.606C48.6323 19.7426 48.5201 19.9953 48.5414 20.2051C48.3244 20.5183 48.0395 20.788 47.9538 21.1775C47.8947 21.4457 47.5905 21.5346 47.5059 21.8026C47.4749 21.9019 47.3651 22.0133 47.3178 22.1275C47.1809 22.4582 46.961 22.7479 46.6792 22.9686L46.6763 23.2998C46.1855 23.7994 46.1313 24.4406 46.048 25.0861C45.9761 25.1542 45.9195 25.237 45.8822 25.3287C45.8448 25.4205 45.8275 25.5192 45.8314 25.6182C45.8659 26.1814 45.7358 26.7536 45.9124 27.3562C45.7567 27.5413 45.8262 27.813 45.8112 28.0711C46.0409 28.2897 46.1193 28.5996 46.278 28.8593C46.4173 29.0922 46.3284 29.4562 46.7038 29.5776C46.7689 29.6743 46.6867 29.8091 46.7444 29.9648C46.882 30.127 47.1163 30.2136 47.2944 30.3854C47.4724 30.5573 47.4981 30.7984 47.6916 30.9194C47.8851 31.0404 47.8437 31.4118 48.1865 31.4101C48.1988 31.6665 48.3071 31.9089 48.4898 32.0892C48.6564 32.2435 48.6973 32.4674 48.7976 32.6536C48.9116 32.8608 48.8379 33.0848 48.9612 33.2828C49.0794 33.4491 49.1384 33.6503 49.1288 33.8541C49.1212 33.9351 49.2535 34.0301 49.3452 34.1479C49.3406 34.669 49.3693 35.2287 49.3205 35.7819C49.2794 36.2448 49.2196 36.7215 48.975 37.1421C48.9503 37.1847 48.9741 37.251 48.9239 37.2945C48.8737 37.3381 48.8129 37.4013 48.7452 37.4679C49.0142 37.6926 48.798 37.9189 48.6831 38.0777C48.5518 38.2584 48.4668 38.443 48.3081 38.7184C48.7212 38.6247 49.0554 38.8199 49.3771 38.5876C49.4213 38.5722 49.4684 38.5674 49.5148 38.5734C49.5612 38.5794 49.6055 38.5962 49.6443 38.6224C49.7695 38.6857 49.9072 38.7203 50.0475 38.7235C50.1877 38.7268 50.327 38.6986 50.4549 38.641C50.5595 38.6046 50.6701 38.5886 50.7808 38.5941C51.7837 38.6028 52.7866 38.6116 53.7919 38.6203C53.9297 38.627 54.0622 38.6754 54.1718 38.7592C54.3435 38.5858 54.5736 38.6353 54.7948 38.6326C54.9879 38.7795 55.1299 38.9833 55.2009 39.2152C55.1342 39.4231 55.2781 39.6606 55.3188 39.9112C55.3594 40.1617 55.4708 40.4059 55.4349 40.6708C55.6985 40.8631 55.3952 41.1118 55.492 41.3002C55.6161 41.5434 55.3923 41.8414 55.6418 42.0486L55.5319 42.1634C55.5315 42.2063 55.5149 42.2594 55.5309 42.2793C55.7775 42.5548 55.7686 42.9184 55.8549 43.2434C55.9065 43.4338 55.8364 43.644 55.9656 43.8362C56.0468 43.9528 55.8848 44.0672 55.8464 44.222C56.0354 44.3326 55.8907 44.5815 55.9858 44.7062C56.1403 44.9091 56.0536 45.0276 55.9744 45.2065C55.9158 45.3515 55.9144 45.5133 55.9705 45.6593C56.142 46.0453 56.0667 46.4419 56.0599 46.8311C56.069 47.1616 56.1483 47.4864 56.2925 47.784C56.2149 47.9061 56.1049 48.0429 56.1731 48.1906C56.3539 48.5686 56.2416 48.9684 56.2787 49.3567C56.5608 49.1577 56.5657 49.1276 56.3903 48.6558L56.5072 48.5329C56.3933 48.3095 56.3933 48.3095 56.4045 47.9529L56.6381 47.7233C56.5641 47.1783 56.8514 46.6399 56.7684 46.0682C57.0034 45.6799 56.8369 45.2511 56.9055 44.8301L57.1275 44.6004C57.1304 44.2668 57.1414 43.9391 57.1361 43.6113C57.1204 43.4081 57.1624 43.2045 57.2571 43.024C57.0782 42.8232 57.3126 42.6342 57.2762 42.4231C57.2443 42.2363 57.178 42.0006 57.3786 41.8367C57.372 41.3989 57.4338 40.9593 57.3554 40.5231C57.3477 40.4756 57.261 40.454 57.2945 40.3315C57.7106 39.9031 57.4766 39.3694 57.3873 38.8521C57.5437 38.7145 57.6884 38.5895 57.8717 38.4301L58.1461 38.4325C58.3266 38.463 58.2594 38.7311 58.4408 38.7744C58.4274 38.9286 58.428 39.0836 58.4426 39.2377C58.4724 39.4071 58.3245 39.4984 58.3058 39.6512C58.2857 39.8224 58.4684 39.9919 58.4181 40.0552C58.2823 40.2139 58.4378 40.3125 58.4275 40.434C58.3925 40.8623 58.5172 41.3046 58.3005 41.7139C58.4951 41.9739 58.4338 42.2305 58.2938 42.4875C58.2859 42.5882 58.4752 42.664 58.4006 42.7201C58.2024 42.8678 58.4998 43.0279 58.3455 43.1922C58.1912 43.3565 58.3511 43.6103 58.2731 43.795C58.1678 44.0466 58.2185 44.34 58.0451 44.5678C58.1214 44.6758 58.1689 44.8015 58.1831 44.9329C58.1974 45.0643 58.1779 45.1973 58.1266 45.3191C57.969 45.7338 57.8955 46.1757 57.9102 46.619C57.9096 46.6966 57.9388 46.7919 57.9082 46.8507C57.7555 47.0926 57.8768 47.3947 57.7719 47.6046C57.6375 47.871 57.706 48.1206 57.6737 48.3751C57.6638 48.4445 57.6207 48.4708 57.5879 48.5145C57.5153 48.6066 57.6728 48.6068 57.6752 48.5987L57.3218 49.2778C57.3529 49.4298 57.2212 49.6545 57.426 49.8184C57.3885 49.8598 57.3094 49.9078 57.3172 49.9426C57.3794 50.3821 57.1164 50.7863 57.182 51.2247C57.2011 51.2989 57.1955 51.3773 57.1662 51.4481C56.9857 51.7515 56.9067 52.1047 56.9408 52.4561C56.941 52.5112 56.932 52.566 56.9139 52.618C56.809 52.9646 56.6762 53.3178 56.7054 53.6876C56.7388 54.1071 56.5084 54.4966 56.5696 54.9083C56.3521 55.0141 56.6188 55.1149 56.5669 55.2164C56.5488 55.31 56.4107 55.3412 56.4321 55.4074C56.5817 55.652 56.6479 55.9004 56.8695 55.9904C57.2548 56.0308 57.6274 55.9402 57.9726 56.1911C58.1695 56.3341 58.4353 56.2658 58.653 56.131C59.1138 56.42 59.5296 56.1607 59.9662 56.0267C60.0447 56.1401 60.1514 56.2311 60.2758 56.2906C60.4002 56.3502 60.538 56.3763 60.6755 56.3664C61.4773 56.3329 62.2571 56.5667 63.0555 56.5239C63.3243 56.5088 63.5962 56.539 63.8662 56.524C64.0819 56.5163 64.2958 56.5648 64.487 56.6649C64.6748 56.2415 64.7259 55.8284 64.8036 55.4168C64.8813 55.0051 65.0738 54.5852 65.0173 54.155L65.2625 53.9371C65.4333 53.4753 65.3725 53.0034 65.3847 52.5356C65.3849 52.5159 65.377 52.488 65.3852 52.4788C65.6188 52.2608 65.4307 52.0403 65.36 51.7837C65.483 51.681 65.5661 51.5385 65.595 51.3809C65.6239 51.2234 65.5967 51.0606 65.5181 50.921C65.4806 50.8431 65.5302 50.7277 65.5125 50.6349C65.4382 50.2509 65.6451 49.9029 65.638 49.5276C65.6346 49.1233 65.6451 48.7169 65.6486 48.3139L65.6546 47.619L65.8984 47.1578C65.6715 46.6115 65.9161 46.06 66.0183 45.4934C65.976 45.4339 65.8894 45.4019 65.9041 45.307L66.1655 44.8159C66.0176 44.5537 65.9787 44.2439 66.0572 43.9533L66.2557 43.7685C66.3187 43.5942 66.2027 43.4773 66.1436 43.3448C66.3472 43.1149 66.2222 42.837 66.2834 42.5885C66.4836 42.3494 66.6351 42.1017 66.3665 41.826C66.5233 41.6572 66.6105 41.4354 66.6105 41.205C66.6335 40.7025 66.8055 40.2326 66.8943 39.7481C66.9441 39.4741 67.0362 39.1413 67.3078 38.941C67.3312 38.9238 67.3316 38.8752 67.3471 38.8255L67.2213 38.6449C67.4121 38.2969 67.4961 37.9004 67.4629 37.505L67.7114 37.4203C67.629 37.1821 67.8141 37.0737 67.938 36.9404C67.9015 36.3471 68.1075 35.8289 68.4157 35.293C68.441 35.1774 68.3431 34.9785 68.4579 34.8393C68.6042 34.6622 68.4912 34.469 68.5651 34.2287L68.7784 34.0696L68.7816 33.7117C69.2083 33.3888 69.0154 32.7976 69.3321 32.4703C69.2734 32.3018 69.2192 32.1404 69.0637 32.0429L68.8124 32.0407C68.2799 31.7395 67.9372 31.3312 67.5477 30.9699C67.3949 30.8272 67.2026 30.7005 66.9447 30.7816C66.9426 31.0248 66.8918 31.2676 66.9514 31.4766C67.011 31.6856 66.9239 31.8435 66.9467 32.0198C66.9701 32.2516 66.8271 32.4438 66.7917 32.6601C66.7722 32.7676 66.6738 32.8907 66.7017 33.0195C66.757 33.313 66.6262 33.5725 66.5405 33.8288C66.489 33.945 66.4615 34.0705 66.4597 34.1976C66.4709 34.4193 66.3997 34.6373 66.2598 34.8097C66.2306 34.8568 66.216 34.9115 66.2179 34.9669C66.2557 35.0101 66.2948 35.0521 66.3716 35.1373C66.0428 35.3939 66.1936 35.8886 65.8599 36.1752C65.7937 36.5893 65.6952 36.9985 65.5967 37.4018C65.4881 37.7934 65.4072 38.1921 65.3546 38.595C65.084 38.6864 65.1695 38.9779 65.0577 39.1715L65.1163 39.2357C65.0096 39.5128 64.8132 39.7253 64.7019 40C64.6119 40.2216 64.6063 40.4706 64.4969 40.6653C64.3004 41.0111 64.2944 41.4303 64.0715 41.7631C64.1308 42.0022 63.858 42.074 63.8074 42.2947C63.7517 42.5742 63.6303 42.8363 63.4533 43.0595C63.0592 43.4904 62.6765 43.9492 62.1585 44.2458C61.7121 44.2987 61.334 44.2259 61.1622 43.6048C61.1245 43.1411 61.2201 42.5386 61.0818 41.9328C60.9903 41.5312 61.0822 41.0896 61.072 40.6656C61.0632 40.3516 61.1424 40.035 60.9771 39.7243C60.8996 39.5811 60.995 39.4024 61.0583 39.3138C60.9479 38.6955 60.8659 38.1354 61.1892 37.5904C61.0914 37.5131 61.042 37.3389 61.1133 37.2631C61.2606 37.1092 61.2168 36.9455 61.2217 36.7822C61.232 36.3978 61.2284 36.012 61.2318 35.6241C61.2922 35.3455 61.5665 35.2309 61.7001 35.0491C61.7501 34.6302 61.5909 34.2976 61.4339 33.9708C61.3679 33.8324 61.3465 33.6364 61.1394 33.6045C61.1238 33.5337 61.1731 33.4554 61.1008 33.3887C61.0001 33.2828 60.929 33.1524 60.8944 33.0105C60.7882 32.7412 60.6368 32.4919 60.4468 32.2734C60.3735 32.1813 60.3699 32.0678 60.2942 31.9849C59.8567 31.9463 59.4612 32.0089 59.1007 32.3057C58.9141 32.4593 58.6517 32.5207 58.3854 32.6469C58.0317 32.696 57.6204 32.7132 57.2315 32.8176C56.8463 32.924 56.4408 32.9336 56.051 32.8455C55.6685 32.7541 55.2666 32.7471 54.8893 32.5852C54.5489 32.4397 54.2032 32.2317 53.7905 32.2756C53.6321 31.9765 53.2662 31.9699 53.0331 31.7455C52.8229 31.5433 52.4396 31.5341 52.3652 31.1605C52.0685 31.0502 51.9052 30.7836 51.6835 30.5813C51.4617 30.379 51.2374 30.1963 51.0893 29.9113C50.9631 29.6312 50.7748 29.3836 50.5386 29.1872C50.5176 29.0712 50.5683 28.9651 50.4786 28.8878C50.2683 28.7065 50.259 28.44 50.1893 28.1973C50.0612 27.7515 49.9876 27.2864 49.7382 26.8035C49.7395 26.6495 49.7253 26.4189 49.7435 26.192C49.8101 25.4687 49.5533 24.7623 49.6465 24.0404C49.6689 23.8611 49.5768 23.661 49.7566 23.5028C49.774 23.4686 49.7832 23.4308 49.7836 23.3924C49.7839 23.354 49.7753 23.3161 49.7585 23.2816C49.7043 23.1694 49.6767 23.0463 49.6778 22.9218C49.6789 22.7973 49.7086 22.6747 49.7648 22.5635C49.8558 22.3501 49.7525 22.1129 49.7277 21.9065C49.7028 21.7001 49.8303 21.5599 49.7891 21.3673C49.7658 21.1537 49.7645 20.9383 49.7854 20.7245L50.0283 20.5042C49.8917 19.566 50.2967 18.6742 50.4316 17.6828L50.6311 17.5212C50.5185 17.1496 50.8398 16.8281 50.7444 16.4798C50.892 16.2877 51.0047 16.1231 50.9811 15.9028C50.9575 15.6825 51.216 15.5342 51.2179 15.3072C51.2196 15.1219 51.1992 14.9364 51.3038 14.7543C51.6384 14.3774 51.475 13.7262 52.0803 13.3713C51.6873 13.2844 51.4617 13.1203 51.1834 13.1642C51.068 13.118 51.1584 12.9752 50.9979 12.9182C50.5874 12.7841 50.1988 12.5902 49.8447 12.3429C49.4941 12.0733 49.2152 11.7217 49.0325 11.3189C48.8446 10.9444 48.7461 10.5497 48.6045 10.0539C48.6048 10.0215 48.7515 9.9301 48.723 9.75264C48.6881 9.50679 48.6408 9.21451 48.741 9.01269C48.8483 8.79241 48.8214 8.55706 48.9334 8.33566C49.0454 8.11425 48.9751 7.80092 49.0644 7.52605C49.1465 7.2708 49.4015 7.11897 49.4176 6.86777C49.4421 6.58654 49.6232 6.40628 49.7248 6.17552C49.8134 5.97824 50.1119 5.88356 50.0194 5.59898C50.0185 5.58998 50.0198 5.58093 50.0231 5.57251C50.0264 5.56409 50.0316 5.55655 50.0383 5.55051C50.3415 5.32152 50.4904 4.97535 50.7096 4.67729C50.932 4.38485 51.1952 4.12581 51.4912 3.90809C51.8001 3.67914 52.1376 3.49215 52.4306 3.23063C52.5187 3.15382 52.6263 3.10287 52.7416 3.08344C52.8568 3.064 52.9752 3.07684 53.0836 3.12051C53.6085 2.66988 54.184 2.28192 54.7986 1.9645C54.9819 1.85308 55.1858 1.78001 55.3981 1.74969C55.5256 1.73868 55.6469 1.69016 55.7468 1.61026C56.1366 1.27777 56.6333 1.29369 57.079 1.19103C57.4643 1.10289 57.8643 1.05774 58.2554 0.959229C58.4725 0.905529 58.7187 0.963274 58.9504 0.952555C59.1312 0.942551 59.3216 1.02296 59.4944 0.86348C59.5551 0.807257 59.6915 0.83972 59.8044 0.910198C59.8806 0.966731 59.9755 0.992186 60.0698 0.981397C60.1641 0.970607 60.2507 0.924387 60.3122 0.852096C60.4688 0.824507 60.5425 1.00235 60.7269 0.981956C61.0351 0.953228 61.3453 0.953601 61.6534 0.983086C62.0539 1.01322 62.4476 1.1568 62.8377 1.18221C63.3239 1.21541 63.7621 1.43814 64.3221 1.5021L64.5456 1.77391C65.1103 1.96068 65.6372 2.10658 66.0069 2.47117C66.4249 2.88367 67.0125 3.10539 67.3782 3.67727C67.4629 3.656 67.6218 3.76046 67.7772 3.61357C67.823 3.57839 67.8782 3.55741 67.9359 3.55318C67.9935 3.54895 68.0511 3.56166 68.1017 3.58976C68.3861 3.77293 68.6915 3.69104 68.9856 3.69824C69.2981 3.69561 69.6059 3.77413 69.8789 3.9261C70.0512 4.02026 70.2352 4.09119 70.4261 4.13704C70.7889 4.23402 71.1191 4.35041 71.2639 4.75242C71.291 4.83141 71.3856 4.8693 71.4943 4.89109C71.7001 4.93343 71.9644 5.1778 72.1349 5.40862C72.1567 5.44008 72.1841 5.48085 72.2153 5.48923C72.607 5.58994 72.723 5.97897 72.9152 6.24356C73.1178 6.52562 73.4183 6.73093 73.5566 7.07265C73.6223 7.23769 73.8147 7.35288 73.9582 7.49891L73.9553 7.83361C74.1615 8.09369 74.4738 8.27709 74.5355 8.63667L74.3958 8.8509C74.5378 9.00828 74.6564 9.18521 74.748 9.37631L74.631 9.50387C74.8235 9.87386 74.7884 10.316 74.9763 10.6917C74.766 11.0281 74.8339 11.3472 75.0594 11.6538C74.8691 12.0841 75.0123 12.5348 74.953 12.9616C75.1016 13.0486 75.2388 12.9954 75.3671 13.0185L75.5898 13.2452L76.1689 13.2502L76.4066 13.4909C77.0037 13.4127 77.5175 13.7322 78.0673 13.9084C78.3734 14.0049 78.6652 14.1384 78.9819 14.221C79.3454 14.3154 79.6886 14.4754 79.9947 14.6932C80.6047 15.1363 81.1959 15.6047 81.8012 16.0525C81.9761 16.1826 81.9751 16.4339 82.1641 16.5398C82.3531 16.6457 82.4339 16.8097 82.5695 16.9394C83.0105 17.3614 83.3127 17.9014 83.7749 18.3027C83.8814 18.3915 83.9627 18.5067 84.0108 18.6368C84.0588 18.7669 84.0719 18.9073 84.0487 19.0441C84.1792 19.1645 84.3026 19.2924 84.4183 19.4272C84.5041 19.5438 84.6233 19.6861 84.6084 19.803C84.5597 20.2102 84.8225 20.4893 84.9536 20.8623C84.9317 20.9779 84.7198 21.1046 84.8724 21.2774C84.9385 21.36 84.9793 21.4601 84.9897 21.5654C85.0001 21.6708 84.9797 21.7769 84.9309 21.8709C84.7568 22.1798 84.8668 22.4413 84.9514 22.7085C85.0179 22.921 85.1484 23.0912 84.9657 23.3247C84.8895 23.4225 84.933 23.6198 84.9363 23.7716C84.9421 23.8195 84.934 23.8681 84.9131 23.9116C84.8922 23.9551 84.8593 23.9918 84.8183 24.0172L84.9261 24.1421L84.8197 24.257L84.9344 24.3831C84.8157 24.7191 84.4461 24.9915 84.6588 25.4416C84.3398 25.7666 84.4864 26.2219 84.4456 26.6489C84.2546 26.9885 84.0963 27.3454 83.973 27.715C83.8846 27.9692 83.7584 28.2087 83.5985 28.4252C83.3314 28.7703 83.1459 29.188 82.812 29.4897C82.7852 29.5126 82.7844 29.6053 82.7344 29.6257C82.3556 29.7614 82.2719 30.2008 81.9564 30.3868C81.6409 30.5728 81.3731 30.8612 81.101 31.1206C81.0436 31.164 80.9811 31.2 80.9148 31.2278C80.5656 31.4263 80.1992 31.605 79.9533 31.9063L79.6059 31.9032L79.3215 32.2378C78.9335 32.2344 78.6701 32.429 78.3923 32.5436C77.954 32.7274 77.4913 32.7917 77.0421 32.9071C76.7472 32.9832 76.4365 33.0176 76.1461 33.1204C76.0927 33.135 76.0378 33.1431 75.9826 33.1445C75.7507 33.1726 75.5527 32.8998 75.3442 33.0335C75.1357 33.1672 74.909 33.1317 74.6901 33.1274C74.5106 33.1259 74.3119 33.2017 74.1513 33.0231C74.1099 32.9993 74.0623 32.9889 74.0147 32.9933C73.9672 32.9976 73.9222 33.0165 73.8859 33.0474C73.754 33.1621 73.642 33.116 73.4863 33.044C73.2463 32.9411 72.9737 32.9931 72.7091 33.0476C72.9403 33.104 73.2484 33.0952 73.3465 33.2709C73.4446 33.4466 73.6355 33.4715 73.7303 33.6217C73.8157 33.7443 73.9417 33.8327 74.086 33.8715C74.7477 34.0904 75.1584 34.6835 75.7603 34.9911C75.7888 35.1709 75.9222 35.282 76.044 35.3931C76.2405 35.5697 76.4184 35.7636 76.6184 35.9367C76.7997 36.1148 76.9698 36.3038 77.1277 36.5029C77.2895 36.6789 77.4962 36.8076 77.7255 36.8753C77.8393 37.1149 77.8749 37.4117 78.2044 37.4771C78.2765 37.8518 78.2764 37.8518 78.6418 37.9199C78.73 38.0365 78.6593 38.176 78.6825 38.3106C78.9373 38.5711 79.164 38.8776 79.55 38.969C79.6437 39.1218 79.7236 39.2826 79.789 39.4495C79.8414 39.61 79.9442 39.7494 80.0821 39.847C80.2187 39.955 80.3302 40.0916 80.4087 40.2471C80.5647 40.5566 80.9979 40.6773 80.9699 41.0963C81.24 41.2053 81.2976 41.5139 81.5197 41.6733C81.7109 41.8289 81.8468 42.0422 81.907 42.2813C82.0655 42.3047 82.1802 42.4354 82.281 42.5648C82.4745 42.8132 82.5877 43.12 82.8791 43.2997C82.9244 43.343 82.9603 43.3949 82.9849 43.4525C83.0095 43.51 83.0222 43.572 83.0222 43.6345C83.0182 43.6912 83.0296 43.7478 83.0551 43.7985C83.0805 43.8493 83.119 43.8923 83.1667 43.923C83.6024 44.1701 83.7811 44.6639 84.1817 44.9407L84.0811 45.0557C84.0376 45.1364 84.1498 45.1535 84.1865 45.1967C84.3435 45.3776 84.5067 45.5285 84.5692 45.7965C84.6128 45.9811 84.8478 46.1279 84.8584 46.3678C84.8711 46.6366 85.2262 46.6929 85.2319 46.9663C85.5366 47.225 85.6674 47.6326 86.0014 47.8521C86.0264 48.3241 86.2359 48.7673 86.5848 49.0861C86.6124 49.1084 86.6713 49.117 86.6758 49.139C86.756 49.6296 87.1689 49.9738 87.2538 50.4621C87.2604 50.4969 87.2717 50.5318 87.2807 50.5666C87.3911 50.5841 87.4905 50.6435 87.5584 50.7323C87.6672 50.8723 87.5312 51.0576 87.67 51.2105C87.7847 51.3401 87.6776 51.5406 87.7189 51.7194C88.0641 51.9749 88.176 52.4183 88.5032 52.7501L88.4995 53.1809C88.5968 53.308 88.7223 53.3971 88.7226 53.4863C88.7266 53.9589 89.0024 54.3389 89.1261 54.7639C89.2284 55.1215 89.3853 55.4611 89.5438 55.8829C89.5573 55.9282 89.3696 55.9358 89.4259 56.1135C89.6091 56.2309 89.6413 56.5219 89.8702 56.6965C89.8095 57.2878 89.976 57.8452 90.2028 58.4031C90.1653 58.4572 90.123 58.5182 90.0855 58.5758C90.0611 58.7146 90.1994 58.7876 90.2121 58.9325C90.2376 59.1945 90.386 59.446 90.4126 59.7079C90.4539 60.0544 90.4509 60.4046 90.4035 60.7503C90.3543 61.0834 90.2195 61.4042 90.1193 61.73C90.1038 61.7808 90.0559 61.8313 90.0613 61.8777C90.1157 62.4075 89.9597 62.903 89.8164 63.3998C89.8056 63.4356 89.8306 63.4937 89.8154 63.5156C89.507 63.8175 89.595 64.2086 89.5744 64.586C89.302 64.7377 89.2331 65.0695 88.9229 65.3135C89.3109 65.3169 89.6327 65.3324 89.9525 65.3225C90.2479 65.31 90.5483 65.4018 90.8382 65.2271C90.9 65.1987 90.9674 65.1843 91.0354 65.1849C91.1035 65.1855 91.1706 65.2011 91.2319 65.2305C91.6306 65.4657 92.055 65.2794 92.461 65.3478C92.7348 65.1545 93.0408 65.2695 93.3387 65.2397C93.4546 65.2268 93.5037 65.3129 93.5809 65.3576C93.7313 65.3682 93.823 65.2231 93.9955 65.2246C94.1681 65.2261 94.3266 65.3768 94.5453 65.2653C94.7128 65.1798 94.9601 65.2515 95.1732 65.2534L97.0818 65.27C97.2937 65.2719 97.5069 65.2656 97.7187 65.2756C97.8808 65.2851 98.0668 65.2126 98.1973 65.3863C98.2271 65.4236 98.3477 65.4073 98.4208 65.3883C98.979 65.268 98.9778 65.2703 99.5998 65.3985C99.7313 65.4334 99.8695 65.4346 100.002 65.4021C100.536 65.2168 101.069 65.328 101.61 65.3501C101.886 65.3617 102.213 65.3982 102.455 65.2926C102.725 65.1791 102.972 65.2311 103.228 65.2101C103.282 65.2119 103.335 65.2028 103.385 65.1833C103.435 65.1639 103.481 65.1345 103.52 65.0969C104.015 65.2506 104.477 65.0612 105.019 65.0242C105.317 65.1855 105.713 65.1461 106.097 65.0649C106.423 64.9983 106.709 64.7761 107.077 64.9901C107.221 65.0736 107.455 65.0108 107.648 65.0067C107.695 64.9978 107.744 65.0031 107.788 65.0221C107.833 65.041 107.87 65.0727 107.896 65.1131C107.997 64.9981 108.189 65.06 108.246 64.8845C108.551 64.9254 108.854 64.8272 109.139 65.0081C109.189 65.0376 109.247 65.0502 109.305 65.0443C109.363 65.0383 109.417 65.014 109.46 64.975C109.556 64.86 109.677 64.9375 109.779 64.9048C109.927 64.8563 110.047 65.0345 110.167 64.9638C110.317 64.8747 110.463 64.9328 110.611 64.9167C110.958 64.8803 111.255 65.0115 111.535 65.1471C112.019 64.9579 112.542 65.1038 113.025 64.8868C113.238 64.064 113.244 63.9424 113.065 63.5795C113.148 63.4462 113.196 63.2941 113.205 63.1373C113.214 62.9804 113.182 62.8239 113.114 62.6823C113.185 62.5891 113.161 62.4152 113.315 62.354C113.319 61.9764 113.322 61.6105 113.325 61.2445C113.326 61.1183 113.385 60.9752 113.255 60.8709C113.178 60.81 113.235 60.726 113.217 60.6552C113.165 60.4578 113.38 60.3369 113.35 60.1247C113.326 59.9542 113.247 59.7393 113.432 59.5857C113.505 58.9516 113.641 58.3228 113.59 57.6795C113.325 57.3656 113.572 57.1002 113.682 56.8278C113.768 56.6201 113.598 56.3638 113.835 56.1956C113.757 55.8313 114.017 55.5023 113.949 55.1473C113.899 54.8874 114.156 54.702 114.051 54.4173C113.872 54.4158 113.682 54.4002 113.495 54.4125C112.598 54.4788 111.72 54.2047 110.824 54.2733C110.634 54.2867 110.485 54.0608 110.298 54.1529C110.14 54.2361 110.012 54.1585 109.869 54.1492C109.727 54.1398 109.559 54.0631 109.438 54.2138C109.391 54.2724 109.333 54.2557 109.28 54.2495C109.112 54.2329 108.938 54.2939 108.777 54.2068C108.615 54.1197 108.455 54.2909 108.275 54.2499C108.103 54.2229 107.928 54.2214 107.756 54.2454C107.64 54.2548 107.603 54.1491 107.516 54.1275C107.401 54.0941 107.368 54.2339 107.228 54.2489C107.208 54.2487 107.167 54.2148 107.131 54.1705C106.737 54.2516 106.35 54.2922 105.956 54.1521C105.852 54.1078 105.74 54.0859 105.627 54.088C105.514 54.09 105.403 54.1158 105.301 54.1638C105.228 54.2078 105.146 54.2344 105.062 54.2415C104.977 54.2486 104.891 54.236 104.812 54.2047C104.518 54.0423 104.22 54.1103 103.927 54.1031C103.653 54.1007 103.377 54.0485 103.099 54.1909C103.01 54.2282 102.913 54.247 102.816 54.2461C102.719 54.2453 102.623 54.2248 102.534 54.1859C102.188 54.0161 101.828 54.0999 101.476 54.0771C101.105 54.0519 100.724 54.1273 100.39 53.8939C100.324 54.0166 100.292 54.1554 100.3 54.2949C100.307 54.4344 100.353 54.5691 100.432 54.6842C100.582 54.9171 100.53 55.1761 100.641 55.4087C100.758 55.6314 100.832 55.8734 100.861 56.1229C100.878 56.3466 101.042 56.472 101.097 56.6671L101.091 57.3619L101.321 57.6106L101.318 57.95C101.563 58.1085 101.653 58.4162 101.642 58.6883C101.623 59.1514 101.813 59.5445 101.931 59.9648C101.97 60.0468 101.99 60.1365 101.989 60.2271C101.923 60.6087 102.146 60.9547 102.11 61.3389C102.098 61.4778 102.229 61.6318 102.295 61.7783C102.067 62.147 102.29 62.4153 102.536 62.707C102.481 63.2775 102.953 63.8063 102.692 64.543C102.599 64.6904 102.281 64.7548 102.096 64.9594C101.849 64.9572 101.694 64.8238 101.492 64.6912C101.504 64.3716 101.441 64.0536 101.307 63.763C101.213 63.5051 101.165 63.2325 101.166 62.9579C101.159 62.7565 101.119 62.5576 101.05 62.3686C100.974 62.1617 100.889 61.9479 100.939 61.7236C100.974 61.571 100.849 61.4912 100.827 61.3647C100.753 61.0097 100.695 60.6513 100.604 60.303C100.52 59.9942 100.54 59.6423 100.282 59.4362C100.232 59.2829 100.418 59.2752 100.387 59.158C100.357 59.0407 100.251 58.9865 100.186 58.8968C100.13 58.4735 99.9615 58.0621 100.081 57.6218L99.7535 57.3421C99.6613 57.0182 99.8351 56.7499 99.6052 56.5452C99.6709 56.3222 99.5685 56.1047 99.5693 55.8812C99.5711 55.6797 99.391 55.4743 99.3432 55.248C99.3298 55.1865 99.269 55.1315 99.272 55.047C99.2869 54.5363 99.1054 54.0993 98.8498 53.6592C98.6966 53.3756 98.651 53.0462 98.7212 52.7315C98.7345 52.6679 98.8218 52.6166 98.8814 52.5592L99.5149 52.5647C99.6295 52.6989 99.7797 52.8717 99.938 53.0549C100.117 52.9557 100.287 52.8784 100.48 52.9102C100.615 52.9212 100.75 52.9224 100.884 52.9137C101.212 52.9166 101.541 52.9056 101.868 52.9223C102.171 52.9423 102.422 52.6723 102.744 52.8141C102.308 52.3389 101.69 52.1679 101.264 51.7414C100.979 51.4563 100.603 51.262 100.427 50.8539C100.341 50.6551 100.122 50.5107 99.9523 50.354C99.5111 49.9471 99.2506 49.4074 98.9026 48.933C98.8817 48.5437 98.6851 48.2362 98.4199 47.9756C98.4739 47.6286 98.1931 47.413 98.0798 47.1329C98.053 47.0443 98.0039 46.964 97.937 46.9C97.5448 46.5804 97.4262 46.1126 97.2772 45.6665C97.2027 45.4435 97.0773 45.2177 97.2448 44.8671C97.2506 44.8671 97.3544 44.78 97.5037 44.662C97.4921 44.6619 97.5477 44.6624 97.6033 44.6629C97.8731 44.6652 98.1429 44.6803 98.414 44.67C98.7268 44.6542 99.0183 44.6984 99.2222 44.9527C99.3277 45.0845 99.471 44.9861 99.5838 45.0716C99.8576 45.2779 100.256 45.279 100.462 45.6109C100.483 45.6459 100.609 45.6122 100.693 45.613C100.922 45.9624 101.339 46.1131 101.636 46.4319C101.571 46.1476 101.494 45.8655 101.577 45.5778C101.049 45.1956 101.245 44.5024 100.876 44.066C100.905 43.4871 100.441 43.0129 100.542 42.4671C100.488 42.3288 100.364 42.4366 100.33 42.3216C100.383 41.7522 100.198 41.1819 100.217 40.5995C100.219 40.3783 100.164 40.1554 100.282 39.9306C100.38 39.745 100.566 39.6493 100.662 39.4706C100.747 39.3566 100.848 39.2546 100.96 39.1675L101.572 39.1728C101.965 39.3338 102.075 39.7876 102.408 40.0268C102.74 40.2659 102.742 40.7582 103.054 41.0319C103.04 41.4534 103.561 41.6827 103.434 42.1182L103.664 42.3518L103.66 42.7155L103.897 42.9052L103.891 43.6313C104.102 43.9876 104.182 44.2582 104.125 44.4326C104.167 44.5569 104.339 44.5873 104.344 44.7669C104.314 44.8072 104.269 44.8635 104.21 44.9429L104.567 45.6537C104.583 45.743 104.498 45.7689 104.426 45.8656C104.667 46.0368 104.431 46.4065 104.756 46.6005C104.794 46.3054 104.968 46.0545 104.917 45.7448C104.898 45.6207 104.972 45.4974 105.003 45.3795C105.063 45.1554 105.205 44.9447 105.16 44.686C105.133 44.5201 105.279 44.394 105.355 44.2499C105.4 44.1796 105.313 44.1731 105.28 44.079C105.398 43.89 105.335 43.5698 105.628 43.4334L105.631 43.0674C105.795 42.8951 105.929 42.6961 106.026 42.479C106.216 42.0265 106.571 41.6634 107.019 41.4638C107.264 41.3501 107.505 41.4461 107.733 41.3982C107.766 41.4211 107.802 41.4412 107.839 41.4582C108.388 41.6553 108.657 42.0514 108.778 42.6246C108.838 42.848 108.927 43.0626 109.043 43.2628C109.141 43.4467 109.127 43.5786 108.969 43.6861C109.05 43.8369 109.097 44.004 109.105 44.1751C109.112 44.3461 109.082 44.5168 109.015 44.6745C108.98 44.7402 108.962 44.8133 108.961 44.8877C108.96 44.9621 108.978 45.0355 109.011 45.1018C109.126 45.2846 109.079 45.4255 109.007 45.6206C108.924 45.862 108.958 46.1461 108.942 46.4007C108.782 46.8626 108.403 47.2404 108.357 47.892C108.758 47.1149 109.477 46.8455 109.891 46.336C110.337 46.2148 110.651 45.9025 111.068 45.8355C111.484 45.7685 111.915 45.6622 112.406 45.7696C112.656 46.0498 113.083 46.2956 112.998 46.8403L112.779 47.0539L112.775 47.6155C112.599 47.8531 112.403 48.0753 112.19 48.2799C111.982 48.468 111.788 48.6239 111.721 48.8445C111.357 49.2201 111.044 49.5845 110.687 49.8987C110.349 50.1957 110.138 50.6375 109.657 50.8337C109.416 51.179 109.137 51.5727 108.689 51.7518C108.283 51.9092 108.019 52.2533 107.649 52.455C107.45 52.5691 107.299 52.6987 107.083 52.7454C107.029 52.7577 106.968 52.7444 106.931 52.8032C107.046 52.9432 107.252 52.784 107.345 52.8925C107.438 53.001 107.618 52.7791 107.692 52.9801C107.735 52.9973 107.781 53.0033 107.827 52.9974C107.873 52.9915 107.917 52.974 107.954 52.9465C107.992 52.9063 108.035 52.8441 108.096 52.8747C108.603 53.1212 109.114 52.7759 109.621 52.888C109.693 52.9037 109.766 52.8893 109.828 52.9524C109.868 52.9918 109.921 53.0162 109.978 53.0213C110.034 53.0264 110.091 53.012 110.138 52.9806C110.271 52.9147 110.418 52.881 110.567 52.8823C110.715 52.8836 110.862 52.9198 110.994 52.988C111.082 53.0198 111.176 53.0313 111.269 53.0217C111.481 53.0398 111.694 53.0416 111.906 53.0273C112.516 52.962 113.105 53.1536 113.707 53.1855C113.951 53.1992 114.21 53.279 114.469 53.2848C114.735 53.4666 115.084 53.5334 115.232 53.7987C115.328 54.0312 115.073 54.1448 115.13 54.3098C115.142 54.4732 115.301 54.5174 115.359 54.628L115.352 55.4386L115.137 55.6487C115.336 55.8497 115.215 56.0409 115.092 56.2101L115.23 56.3607C115.016 56.5523 114.982 56.8021 114.992 57.0721C115 57.3223 114.975 57.5746 114.994 57.8238C115.004 57.9582 114.918 58.0258 114.855 58.148C114.942 58.2409 114.991 58.3627 114.993 58.4897C114.994 58.6167 114.949 58.7398 114.864 58.8349C114.845 58.9066 114.903 58.9372 114.994 59.0434C115.03 59.0889 114.82 59.0581 114.869 59.1245C114.817 59.2642 114.947 59.3013 114.982 59.3965C114.907 59.5314 114.888 59.7026 114.74 59.8276C114.765 60.071 114.736 60.3152 114.835 60.5801C114.935 60.8451 114.656 61.1403 114.727 61.4478C114.432 61.8391 114.728 62.1706 114.833 62.578C114.536 62.8407 114.43 63.2162 114.476 63.6474C114.486 63.8207 114.485 63.9944 114.472 64.1674C114.461 64.4233 114.541 64.6927 114.311 64.9351C114.649 64.938 114.947 65.075 115.226 64.8713C115.254 64.9066 115.289 64.9355 115.329 64.9559C115.368 64.9763 115.412 64.9876 115.457 64.9891C115.639 65.0057 115.797 64.8843 116.004 64.9719C116.185 65.0487 116.422 64.9963 116.634 64.9924C117.213 64.9824 117.785 65.0025 118.273 65.4468C118.314 65.8364 118.254 66.2192 117.639 66.3899C117.453 66.3883 117.133 66.4399 116.841 66.3725C116.069 66.1955 115.291 66.2721 114.515 66.2584C114.372 66.2571 114.339 66.1121 114.189 66.1328C114.033 66.377 113.681 66.0936 113.541 66.3796L113.319 66.2375C112.866 66.4559 112.391 66.3012 111.92 66.3411C111.531 66.7014 111.063 66.1159 110.633 66.4585C110.558 66.3788 110.46 66.3244 110.353 66.3027C110.246 66.281 110.135 66.2931 110.035 66.3374C109.844 66.4099 109.664 66.2902 109.464 66.4077C109.367 66.447 109.263 66.463 109.16 66.4542C109.056 66.4454 108.956 66.4123 108.868 66.3574C108.765 66.3106 108.654 66.2859 108.541 66.2849C108.428 66.2839 108.317 66.3066 108.213 66.3516C108.062 66.4109 107.9 66.4369 107.738 66.4281C107.576 66.4193 107.418 66.3758 107.274 66.3006C107.106 66.3779 106.919 66.4898 106.684 66.3476C106.598 66.2909 106.496 66.2621 106.392 66.2649C106.289 66.2677 106.189 66.302 106.105 66.3634C106.013 66.4332 105.922 66.3849 105.832 66.4003C105.654 66.4289 105.521 66.1486 105.32 66.3276C105.172 66.4595 104.982 66.3408 104.831 66.3997C104.729 66.4371 104.617 66.4361 104.516 66.397C104.334 66.3491 104.09 66.3122 103.952 66.3921C103.813 66.4719 103.68 66.3561 103.544 66.4441C103.325 66.5858 103.015 66.3665 102.8 66.5951C102.135 66.514 101.487 66.7759 100.821 66.6937C100.712 66.6811 100.676 66.5766 100.59 66.5758C100.561 66.5756 100.532 66.5672 100.523 66.5752C100.352 66.7533 100.133 66.6657 99.9348 66.6859C99.8196 66.6212 99.7793 66.4634 99.6335 66.4517C99.5581 66.4586 99.4836 66.4723 99.4107 66.4926C99.2307 66.5512 99.0711 66.6576 98.8308 66.5848C98.6875 66.5419 98.4816 66.7856 98.2948 66.5604C98.2787 66.5418 98.2195 66.5598 98.1789 66.5594C97.4741 66.6332 96.7902 66.4315 96.0872 66.4253C95.8556 66.4233 95.5989 66.501 95.3782 66.3161C95.331 66.2763 95.2102 66.3146 95.1149 66.3532C94.8128 66.4663 94.4999 66.4833 94.2085 66.3001C94.093 66.2643 94.0719 66.424 93.9655 66.4138C93.8891 66.4062 93.8114 66.4124 93.7338 66.4118C93.4258 66.4091 93.1164 66.4179 92.8073 66.4037C92.4982 66.3894 92.2382 66.5852 91.9272 66.5188C91.5735 66.4416 91.2137 66.3875 90.7835 66.3107C90.627 66.3821 90.4558 66.4149 90.284 66.4066C90.1122 66.3982 89.9449 66.3489 89.796 66.2627C89.6632 66.3577 89.4666 66.4556 89.3423 66.3653C89.2588 66.3031 89.1577 66.269 89.0535 66.2681C88.9494 66.2672 88.8477 66.2995 88.7632 66.3603C88.4744 66.4099 88.455 66.112 88.23 66.1425C88.1762 66.471 87.8375 66.5248 87.6194 66.6966C87.525 66.7699 87.3738 66.8323 87.3232 66.9257C87.1324 67.2911 86.79 67.5094 86.5303 67.8071C86.4005 67.9665 86.2313 68.0892 86.0395 68.163C85.9157 68.2015 85.8054 68.2745 85.7215 68.3734C85.4944 68.6563 85.1711 68.7994 84.8707 68.9809C84.2885 69.3338 83.6152 69.5086 83.0489 69.8986C82.9918 69.9375 82.9251 70.0249 82.8707 70.0128C82.5239 69.9426 82.335 70.219 81.9863 70.3595C81.7418 70.3523 81.4997 70.4093 81.2841 70.5248C80.9955 70.6856 80.6361 70.7253 80.3053 70.8047C80.0225 70.8612 79.7436 70.9361 79.4706 71.029C79.2103 71.1305 78.9302 71.1709 78.6519 71.147C78.4302 71.1268 78.2069 71.1606 78.0012 71.2455C77.8211 71.3158 77.5999 71.1841 77.4061 71.3562C77.3302 71.4227 77.1454 71.3643 77.0111 71.3631C76.5861 71.3594 76.1621 71.3627 75.7372 71.352C75.6813 71.3511 75.6259 71.3613 75.574 71.3819C75.5222 71.4025 75.4749 71.4332 75.435 71.4722C75.2856 71.4709 75.1952 71.3334 75.0227 71.3319C74.8501 71.3304 74.7342 71.4811 74.5786 71.394C74.423 71.307 74.2442 71.3483 74.0775 71.3445C73.4984 71.3394 72.9095 71.3968 72.3405 71.3085C71.7714 71.2201 71.1998 71.2869 70.6564 71.178C70.1431 71.0716 69.5792 71.1883 69.1094 70.8657C69.0392 70.8381 68.9631 70.8291 68.8884 70.8394C68.6568 70.8491 68.4247 70.8447 68.1936 70.8264C67.9623 70.7931 67.7399 70.6603 67.4893 70.7114C67.3523 70.4785 67.026 70.7073 66.8925 70.4745C66.4022 70.5212 65.9497 70.3505 65.485 70.2387C65.2839 70.1906 65.0624 70.2269 64.8203 70.2248L64.5443 69.8749C64.1622 69.8635 63.8573 69.8898 63.5684 69.6776C63.3739 69.5346 63.0856 69.6583 62.8439 69.618C62.7828 69.5804 62.7961 69.5203 62.7935 69.423C62.4756 69.3917 62.1625 69.3233 61.8606 69.2191C61.6469 69.1489 61.4873 68.9946 61.284 68.928C61.0774 68.87 60.8755 68.7962 60.6802 68.7073C60.4657 68.5764 60.2101 68.53 59.9632 68.5771L59.7813 68.3288L59.3863 68.3254L59.0512 67.975C58.856 68.0003 58.6575 67.9814 58.4706 67.9196C58.2837 67.8578 58.113 67.7548 57.9714 67.6181C57.7591 67.6579 57.717 67.8301 57.6777 67.956C57.5164 67.9929 57.4744 67.8883 57.3664 67.797C57.3769 67.6401 57.3783 67.4827 57.3705 67.3256C57.347 67.0938 57.4756 66.8331 57.2735 66.6298C57.448 66.5398 57.2462 66.4362 57.2757 66.3785C57.3676 66.1928 57.3303 65.962 57.4312 65.8089C57.5485 65.6338 57.4689 65.4722 57.5074 65.3103C57.4953 65.1591 57.499 65.0069 57.5183 64.8564C57.5557 64.6876 57.6624 64.5345 57.7044 64.3658C57.7692 64.1058 57.9231 63.8627 57.8699 63.5785C57.8809 63.3886 57.8259 63.1901 57.9673 63.0442C57.853 62.8707 57.6654 62.8656 57.5354 62.7567C57.4196 62.7557 57.3741 62.9256 57.2448 62.8781C57.1155 62.8306 57.0654 62.9993 56.9485 62.9913C56.9588 62.8756 56.8755 62.8563 56.8036 62.8742C56.6924 62.9147 56.5733 62.9284 56.4559 62.9141C56.3385 62.8998 56.2261 62.8579 56.1279 62.7919C56.0035 62.7074 55.871 62.7665 55.7102 62.7408L55.5281 62.5075L54.6387 62.4998C54.427 62.3335 54.1926 62.3801 53.9331 62.3882L54.0555 62.5711C54.074 62.6976 53.9627 62.7197 53.947 62.7845C53.9358 62.8798 53.9349 62.9761 53.9445 63.0717C53.9633 63.1796 53.9276 63.2858 53.9741 63.4009C54.0999 63.7124 54.2525 64.0102 54.3982 64.3115C54.4778 64.4766 54.4505 64.6895 54.6254 64.8126L54.6204 65.3917C54.7033 65.3859 54.7866 65.3866 54.8694 65.3939C55.2984 65.4764 55.7032 65.2737 56.1258 65.289L56.7063 65.2582ZM21.4311 64.9179L21.546 65.022C21.5598 65.0349 21.5723 65.0604 21.5862 65.0606C22.2035 65.0659 22.8208 65.0713 23.4392 65.0837C23.555 65.0847 23.6076 65.0191 23.6822 64.97C23.695 64.9608 23.7193 64.9703 23.783 64.9709C23.8749 65.1859 24.0889 65.0894 24.2684 65.0909C25.6179 65.1104 26.9691 65.1222 28.3218 65.1263C28.5535 65.1283 28.803 65.2011 29.0349 65.0329C29.1049 64.9826 29.2737 65.0176 29.4098 65.0744C29.7065 65.1928 30.0206 65.1631 30.3363 65.0825C30.8192 64.9738 31.3206 64.9782 31.8014 65.0953C32.0455 65.1427 32.2972 65.1334 32.5371 65.0681C32.7691 65.0215 33.0209 65.2403 33.288 65.1581C33.3205 65.1479 33.3408 65.0867 33.3721 65.0823C33.6504 65.0384 33.9274 65.0165 34.1702 65.2051C34.2874 65.0405 34.4493 65.0732 34.5975 65.0745L37.1998 65.0972C38.0487 65.1046 38.8979 65.0796 39.7476 65.1287C40.5973 65.1778 41.4501 65.0057 42.3048 65.0236C43.1594 65.0415 44.0419 65.0388 44.9071 65.0463C45.0611 65.0477 45.2151 65.049 45.3703 65.0504C45.4746 65.0513 45.544 65.1851 45.691 65.0659C45.7843 64.9914 45.9888 65.0546 46.1428 65.056C46.2972 65.0486 46.4519 65.0499 46.6061 65.06C46.9011 65.0938 47.2149 64.9692 47.4924 65.1569C47.9441 65.0288 48.3545 65.2525 48.785 65.2933C49.05 65.3188 49.3286 65.3791 49.6149 65.2171C49.7884 65.119 50.0786 65.1691 50.296 65.2161C50.9572 65.3563 51.2678 65.3404 52.0563 65.2315C52.3752 65.1903 52.7325 65.1216 53.0563 65.3178C53.1623 65.3824 53.3119 65.3594 53.4744 65.3122C53.4664 65.2425 53.467 65.1721 53.4763 65.1026C53.5408 64.8715 53.32 64.6924 53.3568 64.4541C53.4072 64.2274 53.4065 63.9924 53.3547 63.7661C53.2916 63.5687 53.3193 63.3176 53.0983 63.1604C52.9868 63.1298 52.8701 63.1238 52.7561 63.1428C52.6422 63.1618 52.5337 63.2054 52.4383 63.2705C52.3352 63.1813 52.2028 63.1335 52.0665 63.1364C51.8741 63.1644 51.6784 63.16 51.4875 63.1232C51.3142 63.0719 51.2047 63.2736 51.04 63.1761C50.8752 63.0785 50.6674 63.1334 50.481 63.1283C49.9413 63.1155 49.4005 63.105 48.8596 63.1142C48.709 63.1129 48.6289 63.0021 48.4889 62.9859C48.3718 63.1319 48.195 63.091 48.0246 63.0976C47.8392 63.1087 47.6441 63.0375 47.4683 63.1426C47.2925 63.2476 47.1633 63.1932 46.9945 63.1546C46.8254 63.1316 46.6532 63.148 46.4914 63.2024C46.2998 63.254 46.1867 63.0758 46.0293 63.0709C45.9547 63.1155 45.9273 63.209 45.8313 63.192C45.7157 63.1143 45.582 63.0678 45.4431 63.0568C45.3042 63.0459 45.1649 63.0709 45.0385 63.1295C44.9222 63.1806 44.7944 63.2223 44.7278 63.1557C44.5751 63.0038 44.4031 63.0764 44.241 63.0669C44.0382 63.046 43.8334 63.0773 43.646 63.1579C43.4507 63.2442 43.248 62.9818 43.0053 63.0469C42.9427 63.0695 42.8744 63.071 42.8108 63.0512C42.7472 63.0314 42.6918 62.9914 42.6531 62.9372C42.322 63.1787 41.9451 62.967 41.6005 63.0439C41.4252 63.084 41.328 62.943 41.1754 62.9162C41.1369 62.9483 41.0957 63.014 41.0529 63.0148C40.5536 63.022 40.0544 63.0223 39.5553 63.0202C39.4241 63.0364 39.2918 63.0016 39.1855 62.9232C39.1038 62.8553 38.9138 62.8629 38.7965 62.9059C38.3003 63.0869 37.8177 63.0456 37.3268 62.8931C37.2774 62.8717 37.2225 62.8661 37.1698 62.877C37.117 62.888 37.0689 62.9149 37.0321 62.9542L37.2879 63.502L37.1709 63.6341C37.2023 63.7502 37.3178 63.6563 37.3703 63.7436C37.3562 63.901 37.4476 64.0419 37.4975 64.1686C37.3985 64.3623 37.3101 64.5376 37.2182 64.7163C37.0549 64.7149 36.9737 64.8613 36.8687 64.9577C36.5071 64.9846 36.1538 64.9873 35.8947 64.6839C35.8815 64.4719 35.9405 64.2152 35.8386 64.0696C35.6351 63.7748 35.6632 63.4716 35.6607 63.226C35.5294 62.8774 35.2659 62.6782 35.2049 62.3626C35.2662 62.2473 35.4194 62.2023 35.4489 62.0092C35.1705 61.9268 35.4266 61.6511 35.2774 61.4865C35.1283 61.3219 35.1534 61.1055 34.9901 60.9639L35.093 60.849C35.0717 60.7782 34.9664 60.7587 34.9881 60.6639C34.9706 60.548 35.1444 60.5391 35.088 60.3672C34.7951 60.2221 34.9042 59.7992 34.6525 59.5677L34.8162 59.3954C34.4397 59.1303 34.5375 58.6841 34.4539 58.3069C34.3424 57.8102 34.3277 57.5078 34.0928 57.2185C34.1422 56.8599 33.9435 56.5327 33.9582 56.175C33.7786 56.0576 33.9614 55.8159 33.8349 55.7106C33.5669 55.494 33.5871 55.1687 33.5513 54.8974C33.4849 54.2493 33.3156 53.6161 33.0499 53.0213C32.9561 52.8477 32.895 52.6583 32.8695 52.4626C32.8616 52.0782 32.725 51.7075 32.4814 51.4099C32.361 51.2722 32.4844 51.0625 32.3034 50.9671C32.3537 50.9131 32.4293 50.8743 32.4105 50.7723C32.1371 50.5197 32.1553 50.155 32.0713 49.8242C31.9874 49.4934 31.6826 49.2417 31.7229 48.8726L31.5128 48.6599L31.518 48.0704C31.0574 47.763 31.0036 47.2899 31.0546 46.885L30.7731 46.4922C30.3475 46.5545 29.9283 46.4131 29.527 46.6076C29.3607 46.6896 29.2161 46.5296 29.0648 46.4878C28.9706 46.524 28.9313 46.6499 28.8066 46.6013C28.7687 46.5674 28.7285 46.5277 28.6918 46.4845C28.3728 46.8095 28.0694 46.4084 27.7435 46.4612C27.4176 46.5139 27.0486 46.4551 26.701 46.4683C26.3534 46.4815 26.0197 46.3662 25.7179 46.5755C25.6689 46.5297 25.611 46.4944 25.5479 46.4717C25.4848 46.4491 25.4177 46.4395 25.3507 46.4438C25.2174 46.4542 25.0809 46.4414 24.9465 46.4402C24.8122 46.4391 24.6344 46.3773 24.5275 46.5443C24.456 46.3757 24.3211 46.5691 24.2441 46.4978C24.1097 46.3739 23.9514 46.4605 23.8081 46.428C23.6648 46.3955 23.4979 46.5411 23.4715 46.5084C23.3568 46.3858 23.2198 46.4263 23.0935 46.4252C22.3419 46.4187 21.5879 46.4225 20.8387 46.394C20.6535 46.3866 20.5285 46.5071 20.3685 46.5231C20.2623 46.3507 20.0975 46.3968 19.9504 46.3955L16.2444 46.3631C16.1089 46.3619 15.937 46.4137 15.846 46.3492C15.5249 46.1217 15.1524 46.2065 14.8519 46.263C14.5998 46.3174 14.3423 46.3424 14.0845 46.3373C13.8113 46.3234 13.5243 46.4239 13.2585 46.2305C13.1974 46.2008 13.1305 46.185 13.0625 46.1844C12.9946 46.1838 12.9274 46.1984 12.8658 46.2271C12.6902 46.3159 12.4983 46.408 12.3487 46.2909C12.1992 46.1738 11.989 46.502 11.8954 46.2094C11.7425 46.208 11.5565 46.1554 11.4424 46.2228C11.3435 46.2925 11.2254 46.33 11.1044 46.3302C10.9833 46.3304 10.8652 46.2933 10.766 46.2238C10.7192 46.1907 10.6617 46.176 10.6048 46.1828C10.5478 46.1896 10.4954 46.2173 10.4576 46.2605C10.3639 46.3836 10.1823 46.2222 10.115 46.3733L10.1059 47.4064C10.2401 47.5558 10.258 47.7691 10.4275 47.854C10.4429 48.0742 10.4132 48.2974 10.4822 48.4834C10.5513 48.6693 10.6712 48.8672 10.6934 49.1014C10.7408 49.0829 10.7935 49.0836 10.8403 49.1035C10.8871 49.1234 10.9243 49.1609 10.9438 49.2078C11.0688 49.4927 11.1704 49.7889 11.1157 50.0895C11.354 50.248 11.3654 50.5399 11.5831 50.6727L11.5781 51.2518C11.8618 51.5253 11.7211 51.9804 12.027 52.2332C12.054 52.5972 12.3235 52.8972 12.2553 53.2776L12.4233 53.2791L12.5655 53.5734C12.3918 53.8371 12.519 54.115 12.4624 54.3659L12.7034 54.6228L12.7005 54.9609C13.0117 55.259 13.042 55.6438 13.0385 56.0445L13.3752 56.3497L13.2266 56.5164C13.3414 56.6332 13.3399 56.8058 13.3849 56.9591C13.4244 57.1004 13.4166 57.2509 13.3626 57.3874L13.6025 57.6443C13.6012 57.7937 13.5533 57.9693 13.6113 58.0949C13.667 58.2205 13.7297 58.3429 13.7992 58.4614L13.6881 58.5763C13.928 58.964 13.9122 59.4446 14.1332 59.8704C14.2631 60.1194 14.4314 60.4753 14.1811 60.7511C14.3061 61.0255 14.393 61.2834 14.5941 61.4728C14.4484 61.5699 14.4762 61.7034 14.5064 61.8299L14.7188 62.046C14.6956 62.4466 14.6781 62.8564 14.9402 63.2131C15.0947 63.4276 15.037 63.6772 15.05 63.909C15.301 64.0791 15.2776 64.3743 15.4148 64.577C15.2494 64.6775 15.2645 64.8131 15.2768 64.9928C15.5162 64.8999 15.5332 65.2093 15.7784 65.245C15.9137 65.4014 15.944 65.1121 16.0888 65.118C16.6341 65.1401 17.1674 64.9456 17.7193 65.0164C17.9298 65.0449 18.143 65.0467 18.3539 65.0219C18.5198 65.0002 18.6458 65.153 18.8471 65.0506C19.0146 64.9652 19.2619 65.0368 19.4738 65.0387C19.9753 65.043 20.4768 65.0393 20.9794 65.0518C21.1415 65.0666 21.3032 65.0187 21.4311 64.9179ZM54.4285 15.714C54.0356 15.7349 53.6492 15.6898 53.2556 15.8057C52.9722 15.8889 52.6428 15.8165 52.3289 15.8138C51.9621 16.1733 51.7367 16.6527 51.694 17.1645C51.674 17.3751 51.5871 17.5736 51.4458 17.731C51.5163 18.0131 51.3634 18.2816 51.2776 18.5577C51.2394 18.6395 51.2166 18.7277 51.2105 18.8177C51.2544 19.4945 50.918 20.0892 50.815 20.7404C50.8052 20.7982 50.7295 20.8485 50.7253 20.9342C50.6995 21.3625 50.793 21.7988 50.6063 22.2165C50.5414 22.3607 50.7304 22.4642 50.7185 22.6309C50.6892 23.0731 50.6853 23.5167 50.707 23.9593C50.7149 24.1053 50.5468 24.1293 50.5781 24.257C50.6094 24.3847 50.7071 24.4712 50.6908 24.6159C50.6724 24.8647 50.6945 25.1163 50.6773 25.3663C50.6481 25.7888 50.8025 26.1503 51.0009 26.5123L50.9026 26.6203C50.9462 26.6786 51.0246 26.7105 51.0168 26.8066C50.9485 27.472 51.4552 27.935 51.6227 28.5191C51.9791 28.6844 51.9561 29.0664 52.0994 29.3676C52.2904 29.5117 52.5841 29.5687 52.6184 29.8829C52.8724 29.9743 52.9068 30.2896 53.1652 30.4054L53.5254 30.4085C53.4825 30.6722 53.7183 30.7322 53.8191 30.8593C53.9879 30.8898 54.1111 30.8457 54.2412 30.9371C54.4587 31.0896 54.715 31.1868 54.9467 31.3209C55.3477 31.556 56.6921 31.7218 56.9899 31.7036C57.0252 31.6978 57.0588 31.6847 57.0887 31.665C57.4518 31.4644 57.9088 31.5251 58.2505 31.2536C58.528 31.3023 58.6938 31.0177 58.966 31.0212C59.115 31.0246 59.2616 30.9827 59.3864 30.9011C59.5111 30.8195 59.6082 30.7019 59.6649 30.564C59.738 30.4118 59.8472 30.378 60.0028 30.3284C60.3048 30.2303 60.6371 30.1092 60.8568 29.8946C61.2913 29.4687 61.8062 29.1373 62.2224 28.6938C62.2452 28.6734 62.2707 28.6561 62.2981 28.6424L62.4223 28.7442C62.6841 28.7384 62.7846 28.4995 62.9709 28.3888C63.1793 28.2655 63.3215 28.0374 63.5197 27.884C63.7179 27.7305 63.9294 27.6559 64.1148 27.5127C64.3002 27.3696 64.4422 27.1589 64.6861 27.0753C64.6489 26.4896 64.7001 25.9016 64.838 25.3312C64.9634 25.157 65.0447 24.955 65.0748 24.7426C65.3416 24.6928 65.4468 24.4481 65.6578 24.2994C65.5269 24.0377 65.5095 23.7677 65.4214 23.5086C65.3087 23.1868 65.2614 22.8457 65.2825 22.5053C65.3036 22.1649 65.3925 21.8323 65.5441 21.5268C65.6893 21.22 65.816 20.9037 66.0524 20.6197C65.7582 20.4921 65.4838 20.6066 65.2331 20.5338C65.0863 20.2418 65.0863 20.2418 64.7487 20.1647C64.4221 19.7692 63.9439 19.4836 63.7818 18.9471C63.7559 18.8658 63.6557 18.8047 63.5844 18.7404C63.3374 18.5159 63.2031 18.2448 63.2521 17.9337L63.0087 17.686C63.1436 17.2239 62.8255 16.7787 62.9137 16.3671C62.7448 15.9418 62.457 15.6022 62.7101 15.1411C62.6434 15.0815 62.5304 15.0237 62.5091 14.9506C62.404 14.5721 62.2789 14.1995 62.1343 13.8343C62.1217 13.799 62.1178 13.7613 62.1229 13.7242C62.1281 13.6871 62.1422 13.6519 62.164 13.6214C62.2946 13.5125 62.2275 13.3729 62.2517 13.2492C62.3003 12.9972 62.1144 12.7986 62.1164 12.567C61.8648 12.464 61.6725 12.606 61.4749 12.6865C61.2773 12.767 61.066 12.9528 60.848 12.9798C60.5591 13.0094 60.2762 13.0819 60.0087 13.1949C59.7332 13.3176 59.4224 13.3612 59.1502 13.492C59.0491 13.5353 58.94 13.5565 58.83 13.5541C58.7141 13.5612 58.5848 13.5207 58.4825 13.5615C58.0268 13.7521 57.554 13.785 57.0687 13.7808C56.8892 13.7792 56.7101 13.7267 56.5202 13.8536C56.4451 13.8909 56.3622 13.91 56.2782 13.9092C56.1943 13.9085 56.1118 13.888 56.0373 13.8494C55.9059 13.7746 55.753 13.7467 55.6036 13.7703C54.6502 13.7944 53.6974 13.6997 52.7673 13.4884C52.7633 13.9517 52.4626 14.2965 52.3814 14.7082C52.4549 14.7818 52.5088 14.8367 52.5628 14.8927C52.5908 14.8687 52.6143 14.8306 52.6456 14.8251C53.1201 14.7355 53.5977 14.823 54.0184 14.7919C54.2791 14.917 54.497 15.0277 54.5832 15.2393C54.6404 15.4552 54.4438 15.5508 54.4284 15.7186L54.4285 15.714ZM65.2286 30.2153L65.2255 30.5697C64.8454 30.8571 64.6656 31.2841 64.5344 31.7219C64.4828 31.9518 64.38 32.1671 64.2335 32.3517C64.078 32.5287 63.9603 32.7384 63.815 32.9271C63.5046 33.324 63.1862 33.7092 62.6196 33.7356C62.5502 33.735 62.4844 33.8409 62.433 33.8845C62.5116 34.0334 62.6264 34.156 62.638 34.2882C62.6973 34.8241 62.6089 35.3661 62.3822 35.8553C62.2129 36.1648 62.1423 36.5186 62.18 36.8693L62.3895 37.009C62.396 37.1932 62.2379 37.2602 62.2702 37.4156C62.2866 37.5696 62.2872 37.7249 62.2719 37.8789C62.2708 38.0098 62.0754 38.095 62.1588 38.2324C62.2878 38.4431 62.2643 38.619 62.1628 38.8382C62.1338 38.9085 62.1214 38.9846 62.1263 39.0605C62.1313 39.1364 62.1536 39.2102 62.1914 39.2762C62.2565 39.3921 62.293 39.5218 62.2979 39.6546C62.3028 39.7874 62.2759 39.9194 62.2195 40.0397C62.0238 40.4283 62.2738 40.851 62.0413 41.2172C62.2347 41.4865 62.105 41.7425 61.9929 41.9789C62.0457 42.0408 62.0847 42.0817 62.119 42.1271C62.1282 42.1399 62.1187 42.1642 62.1185 42.1885C61.8273 42.5056 62.1434 42.791 62.1347 43.1152C62.3231 43.0265 62.3132 42.8353 62.4241 42.7436C62.6889 42.5213 62.8142 42.2316 62.9443 41.9189C63.0742 41.566 63.2467 41.2302 63.4581 40.9192C63.6538 40.6568 63.6292 40.2906 63.8734 40.0472L63.8784 39.4681C64.1582 39.2609 64.1146 38.9479 64.1163 38.7544C64.3638 38.1312 64.7443 37.6631 64.7103 37.0443C64.7032 37.0057 64.7055 36.966 64.7171 36.9285C64.9545 36.4739 65.0759 35.9677 65.0705 35.4549C65.2411 35.285 65.1524 34.9634 65.423 34.8789L65.4316 33.8887L65.6647 33.7193C65.6666 33.5097 65.6082 33.3007 65.6846 33.1716C65.7815 33.0106 65.8157 32.8196 65.7808 32.635C65.7554 32.4843 65.9801 32.353 65.7984 32.2078C65.9896 32.0659 65.8308 31.8155 65.928 31.6912C66.0674 31.5117 65.9213 31.3958 65.9098 31.2579C65.893 31.0585 66.0679 30.9257 66.043 30.7274C66.0224 30.557 66.0587 30.3801 66.0382 30.2085C66.0288 30.0264 66.0783 29.8461 66.1794 29.6943C66.0369 29.5668 66.0409 29.3723 65.8947 29.2691C65.7254 29.1518 65.8976 28.9355 65.7508 28.7721C65.6739 29.2127 65.3963 29.5798 65.469 30.0008C65.3652 30.0845 65.2963 30.1522 65.2285 30.22L65.2286 30.2153ZM70.2869 21.2821C70.1635 21.2173 69.9077 21.1989 69.8263 20.9677C69.745 20.7365 69.5304 20.6396 69.4298 20.487L68.8936 20.4824C68.7042 20.549 68.6441 20.662 68.5036 20.7106C68.1899 20.8237 67.8796 20.8082 67.5646 20.802C67.3029 20.7997 67.0458 20.7975 66.8301 20.9543C66.7957 21.1856 66.5702 21.274 66.4599 21.4433C66.4594 21.5 66.4807 21.5732 66.4584 21.6135C66.341 21.7897 66.3138 21.9899 66.2622 22.1909C66.2279 22.3044 66.2164 22.4236 66.2283 22.5416C66.2402 22.6595 66.2752 22.774 66.3315 22.8784C66.3491 22.9338 66.3486 22.9935 66.33 23.0486C66.2793 23.239 66.2776 23.4391 66.3252 23.6303C66.3727 23.8215 66.4679 23.9976 66.6019 24.142L66.9306 24.1681L67.1311 24.4223C67.8932 24.6861 68.576 24.6225 69.2534 24.6389C69.5247 24.3424 69.9508 24.3554 70.232 24.117C70.6233 23.7463 70.6023 23.2226 70.7071 22.7614C70.833 22.2783 70.7204 21.777 70.288 21.2867L70.2869 21.2821ZM103.65 52.0229C103.715 52.2215 103.862 52.3513 103.823 52.4645C103.67 52.7423 103.462 52.8308 103.148 52.864C103.501 53.0118 103.736 52.8691 103.986 52.8331C104.284 52.8132 104.584 52.8127 104.883 52.8316C104.613 52.5583 104.56 52.2231 104.369 52.006C104.159 51.7725 104.26 51.2985 103.81 51.283L103.815 50.7595C103.311 50.5131 103.097 49.9923 102.783 49.5506C102.457 49.1195 102.201 48.6396 102.025 48.1286C101.405 47.9553 101.145 47.5187 100.899 47.0359C100.59 46.9463 100.455 46.6162 100.19 46.4263L99.9738 46.4244C99.9173 46.3832 99.8696 46.3311 99.8337 46.2711C99.7978 46.211 99.7744 46.1444 99.7649 46.0751C99.2891 46.1868 99.0097 45.6851 98.5694 45.7114C98.5156 45.6287 98.557 45.5352 98.4728 45.494C98.3998 45.4933 98.3178 45.4752 98.3015 45.6083C98.2853 45.7414 98.4586 45.7892 98.5306 45.8999L98.5276 46.2473C98.7572 46.4879 99.0414 46.6965 98.9838 47.062C99.2868 47.3785 99.6436 47.633 99.5541 48.0665C99.6933 48.311 99.909 48.4171 100.012 48.6323C100.201 49.0231 100.341 49.4459 100.698 49.7386C100.757 50.1549 101.103 50.3027 101.402 50.4941C101.464 50.534 101.565 50.5801 101.569 50.6299C101.591 50.8617 101.831 50.8523 101.939 50.9899C102.072 51.1547 102.22 51.3068 102.381 51.4443C102.683 51.7075 103.148 51.6826 103.418 52.0116C103.442 52.0396 103.534 52.0126 103.587 52.0131C103.609 52.0167 103.63 52.0216 103.651 52.0275L103.65 52.0229ZM107.549 46.0758L107.91 45.7987C107.914 45.3111 107.9 44.8859 107.921 44.4645C107.942 44.0431 107.697 43.6263 107.807 43.2601C107.672 42.9034 107.448 42.6617 107.441 42.1926C107.195 42.722 106.907 43.0531 106.648 43.4284C106.676 43.5796 106.671 43.7349 106.634 43.884C106.597 44.0332 106.529 44.1729 106.434 44.294C106.288 44.4711 106.324 44.6405 106.267 44.8856L106.053 45.0239C106.077 45.353 106.063 45.6285 105.814 45.8441C105.898 46.2178 105.607 46.5569 105.689 46.9399C105.559 47.0627 105.615 47.26 105.516 47.3854C105.486 47.4218 105.465 47.4644 105.454 47.5101C105.444 47.5558 105.444 47.6032 105.454 47.6489C105.509 47.9749 105.253 48.2553 105.33 48.5814C105.126 48.6815 105.305 48.9622 105.104 49.0647C105.144 49.1207 105.183 49.1812 105.249 49.2733C104.986 49.4065 105.121 49.6196 105.083 49.8197L105.313 49.9873C105.312 50.197 105.247 50.4072 105.323 50.5352C105.437 50.7297 105.25 50.8647 105.306 51.0239C105.313 51.0511 105.331 51.0744 105.355 51.0887C105.379 51.103 105.408 51.1072 105.436 51.1003C105.681 50.9021 105.662 50.6251 105.654 50.2984L106.022 49.9935C106.141 49.7073 106.081 49.3547 106.355 49.2019C106.378 49.0353 106.329 48.9179 106.403 48.8155C106.465 48.7812 106.557 48.8168 106.604 48.7153C106.579 48.6097 106.581 48.4992 106.612 48.395C106.642 48.2907 106.7 48.1964 106.779 48.1215C106.913 47.9695 107.027 47.8012 107.119 47.6206C107.209 47.4616 107.401 47.366 107.419 47.1727C107.449 46.8325 107.577 46.5151 107.654 46.196L107.549 46.0758ZM103.377 46.3869C103.487 45.8585 103.186 45.3903 103.053 44.8934C103.109 44.8291 103.187 44.7927 103.165 44.6628C103.1 44.5892 103.014 44.4935 102.936 44.3979C103.048 43.8707 102.7 43.4229 102.729 42.9182C102.626 42.8126 102.544 42.6895 102.485 42.5547C102.408 42.2615 102.312 41.9736 102.198 41.6928C101.99 41.2555 101.713 40.8523 101.483 40.4241C101.407 40.2833 101.357 40.1554 101.15 40.2034C101.088 40.9288 101.13 41.6593 101.275 42.3727L101.469 42.5701L101.465 43.0519C101.545 43.1291 101.668 43.188 101.677 43.2622C101.76 43.9104 102.197 44.4737 102.13 45.1553C102.124 45.2224 102.199 45.2613 102.196 45.2995C102.179 45.6468 102.432 45.9003 102.535 46.2012C102.593 46.365 102.533 46.5231 102.627 46.6838C102.877 47.0784 103.054 47.514 103.151 47.9705C103.166 48.0506 103.266 48.1163 103.318 48.1897C103.396 48.29 103.393 48.444 103.521 48.5112C103.675 48.5924 103.543 48.7673 103.713 48.7943C103.797 48.8807 103.882 48.966 103.961 49.0466L104.069 48.9399C103.874 48.8582 103.956 48.691 103.957 48.5509C103.958 48.383 103.96 48.2173 103.845 48.0774C103.747 47.9404 103.707 47.7702 103.734 47.6038C103.752 47.2681 103.516 46.9626 103.634 46.637L103.377 46.3869ZM110.734 46.8878C110.531 47.0341 110.336 47.1925 110.151 47.3622C109.906 47.5558 109.557 47.6639 109.431 48.0149C109.367 48.1297 109.261 48.2155 109.136 48.2544C108.978 48.3179 108.787 48.4297 108.808 48.665C108.82 48.8076 108.704 48.8622 108.625 48.9321C108.471 49.0668 108.346 49.2312 108.258 49.4154C108.103 49.7378 107.887 50.0268 107.62 50.2657C107.796 50.6147 107.286 50.857 107.421 51.2288C107.984 51.1932 108.207 50.6345 108.655 50.5018C108.676 50.4074 108.722 50.3202 108.788 50.249C108.854 50.1779 108.937 50.1252 109.029 50.0962C109.092 50.0761 109.15 50.0435 109.2 50.0004C109.25 49.9572 109.291 49.9044 109.32 49.8451C109.398 49.6303 109.645 49.6267 109.733 49.4514C109.84 49.2562 109.98 49.0807 110.147 48.9327C110.478 48.6136 110.808 48.2922 111.116 47.9926C111.12 47.5513 111.526 47.4402 111.695 47.1718L111.7 46.6472L110.734 46.8878ZM105.455 51.6807C105.411 51.8147 105.365 51.9892 105.451 52.0942C105.577 52.2563 105.525 52.4075 105.524 52.5581C105.443 52.6825 105.299 52.7055 105.19 52.7718C105.369 53.005 105.563 52.9696 105.76 52.9273C105.973 52.6088 106.103 52.242 106.138 51.8604C105.779 52.1526 105.749 51.659 105.46 51.6854L105.455 51.6807Z" fill="#212222"/>
</svg>
