<svg width="28" height="29" viewBox="0 0 28 29" fill="none" xmlns="http://www.w3.org/2000/svg">
<g clip-path="url(#clip0_2912_6519)">
<path d="M14.2148 8.11031L14.6513 8.54396L14.2167 8.1084L14.0859 8.2383L14.2148 8.11031Z" fill="#39B54A"/>
<path d="M7.79635 2.37742C8.5655 3.14156 9.55771 4.66984 10.5865 5.69187C11.9325 7.02912 13.342 8.06835 14.2169 8.10847C15.9475 7.66718 18.9568 4.28777 20.7547 2.50924C21.3315 1.93613 21.5623 1.38786 22.0026 1.6534L21.8411 1.49484C21.3932 1.09526 20.8212 0.859986 20.2201 0.828125H8.21169C7.61016 0.860619 7.03773 1.09578 6.58877 1.49484L6.1792 1.90174C6.66569 1.49484 7.07526 1.66104 7.79635 2.37742Z" fill="#EB48AC"/>
<path d="M20.9754 14.8267L20.8682 14.7197L20.9754 14.8267Z" fill="#39B54A"/>
<path d="M7.49061 14.791L7.45215 14.8273L7.62906 15.0031L7.45215 14.8273L7.49061 14.791Z" fill="#39B54A"/>
<path d="M27.1194 6.7405L22.0006 1.65324C21.5603 1.3877 21.0296 1.31511 20.4431 1.89777C18.6471 3.68012 15.3628 6.9621 14.2168 8.10831L14.6514 8.54388L20.9757 14.827C22.1833 13.635 25.3984 10.4523 27.1674 8.70053C27.9385 7.94212 27.5674 7.24102 27.1194 6.7405Z" fill="#FEB6C8"/>
<path d="M27.2212 21.0052C25.4291 19.2286 22.1391 15.9753 20.9757 14.8271L14.2148 21.5458C14.461 24.5413 17.776 26.1173 19.572 27.8997C20.1623 28.4862 21.566 28.2646 22.0083 27.9952L27.4347 22.6042C27.727 22.1552 27.8289 21.6127 27.2212 21.0052Z" fill="#FFF200"/>
<path d="M1.94304 21.3666C3.73325 19.5862 6.55797 16.7436 7.45211 14.8275C6.87525 13.3126 3.50827 10.2274 1.74306 8.47369C0.973907 7.70955 0.833536 7.27017 1.27388 6.77539L0.79508 7.25298C0.392579 7.69791 0.155133 8.26609 0.12207 8.8634V20.7916C0.154702 21.3896 0.392176 21.9585 0.79508 22.404L0.987369 22.595C0.702782 22.1556 1.33733 21.9684 1.94304 21.3666Z" fill="#4853E2"/>
<path d="M1.26256 8.7002C3.02777 10.4539 6.24668 13.6365 7.45233 14.8267L7.49079 14.7904L14.0863 8.23788L14.217 8.10798C13.0345 6.92739 9.79441 3.6989 8.02535 1.93374C7.30427 1.21926 6.66587 1.49435 6.17938 1.90126L1.2741 6.77456C0.826066 7.26934 0.497253 7.9437 1.26256 8.7002Z" fill="#7E5DEF"/>
<path d="M8.02517 1.93374C7.30409 1.21926 6.66569 1.49435 6.1792 1.90126C6.1792 1.90126 6.89836 1.16577 7.6579 2.2967C9.55771 4.826 12.7555 9.55603 12.7555 9.55603L13.0747 9.24273L14.0861 8.23598L14.2169 8.10607C13.0343 6.92738 9.80192 3.6989 8.02517 1.93374Z" fill="#694FC6"/>
<path d="M7.4519 14.8271C6.29817 15.9734 2.99849 19.2209 1.20829 21.009C0.600654 21.6108 0.702566 22.1553 0.990999 22.6004L6.17126 27.7411C6.65967 28.1499 7.50189 28.6963 8.22682 27.9856C10.0016 26.2224 13.7705 23.5097 14.2147 21.5401L7.62881 14.9972L7.4519 14.8271Z" fill="#52DDD2"/>
<path d="M7.4519 14.8271C6.29817 15.9734 2.99849 19.221 1.20829 21.009C0.600654 21.6108 0.702566 22.1553 0.990998 22.6004C0.990998 22.6004 0.689108 21.9585 1.89476 20.9384C4.59834 18.6459 9.26903 16.6324 9.26903 16.6324L7.62881 15.0029L7.4519 14.8271Z" fill="#52B9C6"/>
<path d="M20.4392 27.7565C18.6451 25.9741 15.3608 22.694 14.2129 21.5459C13.0303 22.7246 9.79023 25.9531 8.02309 27.7182C7.29816 28.4365 6.65785 28.1557 6.16943 27.7469L6.59439 28.1614C7.04335 28.5605 7.61578 28.7957 8.21731 28.8282H20.2238C20.8249 28.7963 21.3969 28.561 21.8448 28.1614L22.014 27.9952C21.566 28.2646 21.0333 28.3429 20.4392 27.7565Z" fill="#FEB62A"/>
</g>
<defs>
<clipPath id="clip0_2912_6519">
<rect width="28" height="28" fill="white" transform="translate(0 0.828125)"/>
</clipPath>
</defs>
</svg>
