<svg width="26" height="31" viewBox="0 0 26 31" fill="none" xmlns="http://www.w3.org/2000/svg">
<ellipse cx="12.0558" cy="3.89512" rx="3.067" ry="3.067" fill="url(#paint0_linear_2912_6551)"/>
<path d="M14.7059 20.539C13.1039 20.5112 11.5062 20.3648 9.9259 20.101C6.7779 19.575 3.6959 18.57 0.899902 17.021C0.733902 16.928 0.567902 16.834 0.399902 16.738C2.8789 14.385 4.7189 11.538 6.2739 8.51796C7.3939 6.33896 7.9739 4.90196 10.3929 3.98496C14.5989 2.39196 20.2809 3.94096 21.4769 8.67296C21.9819 10.673 22.0009 12.764 21.7139 14.799C21.4369 16.767 20.7079 20.557 20.7079 20.557C20.7079 20.557 15.4909 20.553 14.7059 20.539Z" fill="url(#paint1_linear_2912_6551)"/>
<path d="M25.669 26.9389C18.9842 32.086 9.66009 32.0448 3.021 26.8389L7.887 24.5579C8.03594 24.4874 8.18114 24.4093 8.322 24.3239L8.434 24.2539C8.474 24.2289 8.513 24.2029 8.552 24.1759C9.16602 23.752 9.66916 23.1868 10.019 22.5279C10.419 21.7729 10.551 20.9389 10.557 20.0889C10.557 19.6219 10.538 19.1549 10.526 18.6889C10.526 18.5835 10.524 18.4785 10.52 18.3739C10.516 18.0565 10.5127 17.7395 10.51 17.4229H10.517L10.708 17.5229L11.228 17.7919L14.257 18.3069L17.369 18.8369L17.44 21.2369L17.46 21.9249V22.0319L17.507 23.6189L18.654 24.0859L19.554 24.4499L25.669 26.9389Z" fill="#F2A196"/>
<path d="M17.44 21.2388C17.2245 21.3864 16.967 21.4604 16.706 21.4498C15.227 21.2908 12.342 20.1318 10.526 17.9868C10.526 17.8815 10.524 17.7765 10.52 17.6718V17.4248L10.711 17.5248L11.231 17.7938L14.26 18.3088L17.372 18.8388L17.44 21.2388Z" fill="#E88870"/>
<circle cx="8.00908" cy="14.2215" r="1.7" fill="#F2A196"/>
<circle cx="8.60869" cy="14.0213" r="1.7" fill="#E88870"/>
<path d="M19.5631 11.6472C20.7381 15.7152 18.2431 20.6342 16.7091 20.6342C14.6091 20.6342 9.50913 18.9562 8.33613 14.8882C7.16313 10.8202 8.71913 6.79622 11.8191 5.90122C14.9191 5.00622 18.3891 7.58222 19.5631 11.6472Z" fill="#F2A196"/>
<path d="M13.2467 12.4922C13.8567 12.4972 13.8567 13.4292 13.2467 13.4342H13.2187C12.6087 13.4292 12.6087 12.4972 13.2187 12.4922H13.2457H13.2467Z" fill="#00214E"/>
<path d="M18.2727 12.1084C18.8397 12.1134 18.8397 12.9784 18.2727 12.9834H18.2477C17.6817 12.9834 17.6817 12.1134 18.2477 12.1084H18.2727Z" fill="#00214E"/>
<ellipse cx="13.2457" cy="12.9713" rx="1.9" ry="1.9" stroke="white" stroke-width="0.135582"/>
<ellipse cx="18.5587" cy="12.6715" rx="1.9" ry="1.9" stroke="white" stroke-width="0.135582"/>
<path d="M15.693 6.23828C15.262 8.10828 14.323 9.69628 12.607 10.8533C10.755 12.1353 8.79999 12.7533 6.66699 13.1783C6.72099 11.8673 6.57699 10.0233 7.25299 8.85428C8.02022 7.5563 9.14082 6.50332 10.484 5.81828C11.965 5.05328 14.256 4.30328 15.92 4.83328C15.8737 5.30589 15.7979 5.77514 15.693 6.23828Z" fill="url(#paint2_linear_2912_6551)"/>
<path d="M15.8667 11.8369C15.8587 11.8709 16.6587 15.0709 16.6587 15.0709H15.4087" stroke="#00214E" stroke-width="0.135582"/>
<path d="M17.0127 10.816C17.7189 10.4551 18.5364 10.3779 19.2977 10.6" stroke="#00214E" stroke-width="0.135582"/>
<path d="M11.502 11.1825C12.4762 10.6863 13.6209 10.6496 14.625 11.0825" stroke="#00214E" stroke-width="0.135582"/>
<path d="M15.146 12.9708L16.659 12.8418" stroke="white" stroke-width="0.135582"/>
<path d="M25.668 26.939C18.9832 32.0862 9.65911 32.045 3.02002 26.839L7.88602 24.558C8.11776 24.4491 8.34017 24.3213 8.55102 24.176C8.61502 24.132 8.67902 24.086 8.74002 24.038C9.27008 23.6326 9.70636 23.1176 10.019 22.528C10.2547 22.076 10.4113 21.5869 10.482 21.082C10.5526 21.1505 10.6267 21.2152 10.704 21.276C11.3172 21.7294 11.9826 22.1075 12.686 22.402C13.0275 22.5445 13.3767 22.6677 13.732 22.771C14.8024 23.0832 15.92 23.2013 17.032 23.12C17.186 23.108 17.341 23.093 17.495 23.082L17.51 23.59V23.623L18.72 24.115L25.668 26.939Z" fill="#845161"/>
<path d="M13.2681 16.1999C13.2959 16.1562 13.3407 16.1259 13.3917 16.1164C13.4427 16.107 13.4954 16.1191 13.5371 16.1499C13.7441 16.2959 14.1241 16.6059 14.6641 16.7129C15.4001 16.8599 16.0391 16.5649 16.1911 16.7549C16.2771 16.8619 16.1721 16.9929 15.9711 17.1599C15.5459 17.4778 15.0106 17.6108 14.4861 17.5289C13.7771 17.3959 13.2461 16.5759 13.2461 16.2849C13.2458 16.2552 13.2534 16.2258 13.2681 16.1999Z" fill="white"/>
<defs>
<linearGradient id="paint0_linear_2912_6551" x1="8.98877" y1="6.96262" x2="15.1238" y2="6.96262" gradientUnits="userSpaceOnUse">
<stop stop-color="#16243F"/>
<stop offset="1" stop-color="#6878B1"/>
</linearGradient>
<linearGradient id="paint1_linear_2912_6551" x1="13.6303" y1="26.8353" x2="22.7686" y2="12.1901" gradientUnits="userSpaceOnUse">
<stop stop-color="#16243F"/>
<stop offset="1" stop-color="#6878B1"/>
</linearGradient>
<linearGradient id="paint2_linear_2912_6551" x1="9.81829" y1="16.0806" x2="14.3449" y2="9.885" gradientUnits="userSpaceOnUse">
<stop stop-color="#16243F"/>
<stop offset="1" stop-color="#6878B1"/>
</linearGradient>
</defs>
</svg>
