<svg width="29" height="30" viewBox="0 0 29 30" fill="none" xmlns="http://www.w3.org/2000/svg">
<path d="M28.4812 17.6559L25.6479 14.1143C25.5151 13.9484 25.3467 13.8146 25.1552 13.7226C24.9637 13.6306 24.7539 13.5829 24.5415 13.583H16.0415V10.7497H24.5415C26.1041 10.7497 27.3748 9.47892 27.3748 7.91634V3.66634C27.3748 2.10376 26.1041 0.833008 24.5415 0.833008H4.70814C4.49569 0.832928 4.28594 0.880634 4.09442 0.972593C3.90289 1.06455 3.73451 1.19841 3.60173 1.36426L0.768392 4.90592C0.567463 5.1573 0.458008 5.46953 0.458008 5.79134C0.458008 6.11315 0.567463 6.42539 0.768392 6.67676L3.60173 10.2184C3.73451 10.3843 3.90289 10.5181 4.09442 10.6101C4.28594 10.702 4.49569 10.7498 4.70814 10.7497H13.2081V13.583H4.70814C3.14556 13.583 1.87481 14.8538 1.87481 16.4163V20.6663C1.87481 22.2289 3.14556 23.4997 4.70814 23.4997H13.2081V29.1663H16.0415V23.4997H24.5415C24.7539 23.4998 24.9637 23.452 25.1552 23.3601C25.3467 23.2681 25.5151 23.1343 25.6479 22.9684L28.4812 19.4268C28.6822 19.1754 28.7916 18.8631 28.7916 18.5413C28.7916 18.2195 28.6822 17.9073 28.4812 17.6559ZM3.68956 5.79134L5.38814 3.66634H24.5415L24.5443 7.91634H5.38814L3.68956 5.79134ZM23.8615 20.6663H4.70814V16.4163H23.8615L25.5615 18.5413L23.8615 20.6663Z" fill="#201F27"/>
</svg>
