<svg width="18" height="24" viewBox="0 0 18 24" fill="none" xmlns="http://www.w3.org/2000/svg">
<path d="M8.99982 23.4951C10.2831 23.4951 11.3331 22.4451 11.3331 21.1618H6.66648C6.66648 22.4451 7.70482 23.4951 8.99982 23.4951ZM15.9998 16.4951V10.6618C15.9998 7.08012 14.0865 4.08178 10.7498 3.28845V2.49512C10.7498 1.52678 9.96815 0.745117 8.99982 0.745117C8.03148 0.745117 7.24982 1.52678 7.24982 2.49512V3.28845C3.90148 4.08178 1.99982 7.06845 1.99982 10.6618V16.4951L0.494816 18.0001C-0.240184 18.7351 0.273149 19.9951 1.31148 19.9951H16.6765C17.7148 19.9951 18.2398 18.7351 17.5048 18.0001L15.9998 16.4951Z" fill="#202127"/>
</svg>
