<svg width="21" height="21" viewBox="0 0 21 21" fill="none" xmlns="http://www.w3.org/2000/svg">
<path fill-rule="evenodd" clip-rule="evenodd" d="M14.3042 2.40088L18.4709 6.56755C18.8042 6.90088 18.8042 7.40088 18.4709 7.73421L7.63753 18.5675C7.47087 18.7342 7.3042 18.8175 7.0542 18.8175H2.88753C2.38753 18.8175 2.0542 18.4842 2.0542 17.9842V13.8175C2.0542 13.5675 2.13753 13.4009 2.3042 13.2342L13.1375 2.40088C13.4709 2.06755 13.9709 2.06755 14.3042 2.40088ZM3.72087 17.1509H6.72087L16.7209 7.15088L13.7209 4.15088L3.72087 14.1509V17.1509Z" fill="black"/>
<mask id="mask0_2191_42685" style="mask-type:luminance" maskUnits="userSpaceOnUse" x="2" y="2" width="17" height="17">
<path fill-rule="evenodd" clip-rule="evenodd" d="M14.3042 2.40088L18.4709 6.56755C18.8042 6.90088 18.8042 7.40088 18.4709 7.73421L7.63753 18.5675C7.47087 18.7342 7.3042 18.8175 7.0542 18.8175H2.88753C2.38753 18.8175 2.0542 18.4842 2.0542 17.9842V13.8175C2.0542 13.5675 2.13753 13.4009 2.3042 13.2342L13.1375 2.40088C13.4709 2.06755 13.9709 2.06755 14.3042 2.40088ZM3.72087 17.1509H6.72087L16.7209 7.15088L13.7209 4.15088L3.72087 14.1509V17.1509Z" fill="white"/>
</mask>
<g mask="url(#mask0_2191_42685)">
<rect x="0.387695" y="0.484375" width="20" height="20" fill="#00CFE8"/>
</g>
</svg>
