<svg width="50" height="51" viewBox="0 0 50 51" fill="none" xmlns="http://www.w3.org/2000/svg">
<circle cx="23.6119" cy="7.9517" r="4.51029" fill="url(#paint0_linear_4724_10277)"/>
<path d="M27.5089 32.4283C25.1531 32.3874 22.8035 32.1721 20.4795 31.7842C15.8501 31.0106 11.3178 29.5327 7.206 27.2547C6.96188 27.118 6.71776 26.9797 6.4707 26.8386C10.1163 23.3783 12.8222 19.1915 15.1089 14.7503C16.756 11.5459 17.6089 9.43268 21.1663 8.08415C27.3516 5.7415 35.7075 8.01945 37.4663 14.9783C38.2089 17.9194 38.2369 20.9944 37.8148 23.9871C37.4075 26.8812 36.3354 32.4547 36.3354 32.4547C36.3354 32.4547 28.6633 32.4489 27.5089 32.4283Z" fill="url(#paint1_linear_4724_10277)"/>
<path d="M43.6311 41.8398C33.8005 49.4091 20.0886 49.3486 10.3252 41.6928L17.4811 38.3384C17.7001 38.2348 17.9136 38.1199 18.1208 37.9942L18.2855 37.8913C18.3443 37.8545 18.4017 37.8163 18.459 37.7766C19.362 37.1533 20.1019 36.3221 20.6164 35.3531C21.2046 34.2428 21.3987 33.0163 21.4075 31.7663C21.4075 31.0795 21.3796 30.3928 21.362 29.7075C21.362 29.5526 21.359 29.3982 21.3531 29.2442C21.3473 28.7776 21.3424 28.3114 21.3384 27.8457H21.3487L21.6296 27.9928L22.3943 28.3884L26.8487 29.1457L31.4252 29.9251L31.5296 33.4545L31.559 34.4663V34.6236L31.6281 36.9575L33.3149 37.6442L34.6384 38.1795L43.6311 41.8398Z" fill="#F2A196"/>
<path d="M31.5295 33.4575C31.2125 33.6745 30.8339 33.7833 30.4501 33.7677C28.2751 33.5339 24.0324 31.8295 21.3619 28.6751C21.3619 28.5202 21.3589 28.3658 21.353 28.2119V27.8486L21.6339 27.9957L22.3986 28.3913L26.853 29.1486L31.4295 29.928L31.5295 33.4575Z" fill="#E88870"/>
<circle cx="17.6606" cy="23.1372" r="2.5" fill="#F2A196"/>
<circle cx="18.543" cy="22.8428" r="2.5" fill="#E88870"/>
<path d="M34.6514 19.3518C36.3794 25.3341 32.7103 32.568 30.4544 32.568C27.3661 32.568 19.8661 30.1003 18.1411 24.118C16.4161 18.1356 18.7044 12.218 23.2632 10.9018C27.822 9.5856 32.925 13.3738 34.6514 19.3518Z" fill="#F2A196"/>
<path d="M25.3634 20.5942C26.2604 20.6016 26.2604 21.9722 25.3634 21.9795H25.3222C24.4251 21.9722 24.4251 20.6016 25.3222 20.5942H25.3619H25.3634Z" fill="#00214E"/>
<path d="M32.7548 20.0298C33.5886 20.0371 33.5886 21.3092 32.7548 21.3166H32.718C31.8857 21.3166 31.8857 20.0371 32.718 20.0298H32.7548Z" fill="#00214E"/>
<ellipse cx="25.362" cy="21.299" rx="2.79412" ry="2.79412" stroke="white" stroke-width="0.135582"/>
<ellipse cx="33.175" cy="20.8576" rx="2.79412" ry="2.79412" stroke="white" stroke-width="0.135582"/>
<path d="M28.9605 11.3973C28.3267 14.1473 26.9458 16.4826 24.4223 18.184C21.6988 20.0693 18.8238 20.9782 15.687 21.6032C15.7664 19.6752 15.5547 16.9635 16.5488 15.2443C17.677 13.3355 19.325 11.7871 21.3002 10.7796C23.4782 9.65464 26.8473 8.5517 29.2944 9.33111C29.2263 10.0261 29.1148 10.7162 28.9605 11.3973Z" fill="url(#paint2_linear_4724_10277)"/>
<path d="M29.2165 19.6309C29.2047 19.6809 30.3812 24.3867 30.3812 24.3867H28.543" stroke="#00214E" stroke-width="0.135582"/>
<path d="M30.9014 18.1296C31.9399 17.5988 33.1421 17.4852 34.2617 17.8119" stroke="#00214E" stroke-width="0.135582"/>
<path d="M22.7974 18.6678C24.2301 17.938 25.9135 17.8841 27.39 18.5207" stroke="#00214E" stroke-width="0.135582"/>
<path d="M28.1558 21.2986L30.3808 21.1089" stroke="white" stroke-width="0.135582"/>
<path d="M43.6296 41.8398C33.799 49.4091 20.0871 49.3486 10.3237 41.6927L17.4796 38.3383C17.8204 38.1781 18.1475 37.9902 18.4576 37.7766C18.5517 37.7119 18.6458 37.6442 18.7355 37.5736C19.515 36.9775 20.1566 36.22 20.6164 35.353C20.963 34.6882 21.1933 33.969 21.2973 33.2266C21.4011 33.3272 21.5101 33.4224 21.6237 33.5119C22.5254 34.1786 23.504 34.7346 24.5384 35.1677C25.0406 35.3772 25.5542 35.5584 26.0767 35.7104C27.6508 36.1694 29.2943 36.3432 30.9296 36.2236C31.1561 36.206 31.384 36.1839 31.6105 36.1677L31.6326 36.9148V36.9633L33.412 37.6869L43.6296 41.8398Z" fill="#845161"/>
<path d="M25.3942 26.0474C25.4351 25.983 25.501 25.9385 25.576 25.9246C25.651 25.9106 25.7284 25.9285 25.7898 25.9738C26.0942 26.1885 26.653 26.6444 27.4471 26.8018C28.5295 27.0179 29.4692 26.5841 29.6927 26.8635C29.8192 27.0209 29.6648 27.2135 29.3692 27.4591C28.744 27.9266 27.9567 28.1222 27.1854 28.0018C26.1427 27.8062 25.3618 26.6003 25.3618 26.1724C25.3613 26.1286 25.3725 26.0854 25.3942 26.0474Z" fill="white"/>
<circle cx="39.8181" cy="40.8347" r="6.27955" fill="white"/>
<circle cx="39.8179" cy="40.8345" r="4.48539" fill="#28C76F"/>
<defs>
<linearGradient id="paint0_linear_4724_10277" x1="19.1016" y1="12.4627" x2="28.1236" y2="12.4627" gradientUnits="userSpaceOnUse">
<stop stop-color="#16243F"/>
<stop offset="1" stop-color="#6878B1"/>
</linearGradient>
<linearGradient id="paint1_linear_4724_10277" x1="25.9272" y1="41.6876" x2="39.3659" y2="20.1506" gradientUnits="userSpaceOnUse">
<stop stop-color="#16243F"/>
<stop offset="1" stop-color="#6878B1"/>
</linearGradient>
<linearGradient id="paint2_linear_4724_10277" x1="20.3213" y1="25.8713" x2="26.9781" y2="16.7601" gradientUnits="userSpaceOnUse">
<stop stop-color="#16243F"/>
<stop offset="1" stop-color="#6878B1"/>
</linearGradient>
</defs>
</svg>
