<svg width="30" height="28" viewBox="0 0 30 28" fill="none" xmlns="http://www.w3.org/2000/svg">
<path d="M14.71 2.30166C8.58605 2.86796 3.79122 8.01987 3.79122 14.2917C3.79122 15.6375 4.012 16.9318 4.41932 18.1402C4.57261 18.595 4.64925 18.8223 4.66307 18.997C4.67672 19.1695 4.66641 19.2905 4.62373 19.4582C4.58051 19.628 4.48509 19.8046 4.29426 20.1578L1.97708 24.4468C1.64656 25.0586 1.4813 25.3645 1.51829 25.6006C1.5505 25.8062 1.67153 25.9873 1.84921 26.0957C2.05322 26.2201 2.39906 26.1844 3.09073 26.1129L10.3455 25.3629C10.5651 25.3402 10.6751 25.3289 10.7752 25.3327C10.8737 25.3365 10.9432 25.3457 11.0392 25.3679C11.1369 25.3904 11.2596 25.4377 11.5052 25.5323C12.8483 26.0497 14.3074 26.3333 15.8329 26.3333C22.1099 26.3333 27.2651 21.5306 27.8243 15.3994M26.6298 3.4948C28.2895 5.15452 28.2895 7.84548 26.6298 9.5052C24.97 11.1649 22.2791 11.1649 20.6193 9.5052C18.9596 7.84548 18.9596 5.15452 20.6193 3.4948C22.2791 1.83507 24.97 1.83507 26.6298 3.4948Z" stroke="black" stroke-width="3" stroke-linecap="round" stroke-linejoin="round"/>
</svg>
