<svg width="62" height="67" viewBox="0 0 62 67" fill="none" xmlns="http://www.w3.org/2000/svg">
<path d="M53.8494 7.05957H8.04621C3.82111 7.05957 0.395996 10.4847 0.395996 14.7098V46.0953C0.395996 50.3204 3.82111 53.7455 8.04621 53.7455H53.8494C58.0745 53.7455 61.4996 50.3204 61.4996 46.0953V14.7098C61.4996 10.4847 58.0745 7.05957 53.8494 7.05957Z" fill="#201F27"/>
<path d="M58.415 25.7118C58.5683 25.4885 58.8733 25.4319 59.0966 25.5853C59.3199 25.7386 59.3765 26.044 59.2232 26.2669C53.8821 34.0424 49.8052 37.4666 46.8053 36.4054C46.2109 36.1952 45.5662 35.846 44.7747 35.3285L44.6956 35.2769C44.4275 35.0997 44.145 34.9058 43.8027 34.6648L43.6193 34.535C43.3947 34.3758 42.7252 33.8978 42.5395 33.7664L42.4028 33.67C41.4707 33.0138 40.7865 32.5672 40.1019 32.1851L40.077 32.1713C39.1842 31.675 38.378 31.3468 37.6198 31.1899C36.6374 30.9862 35.7439 31.0725 34.9027 31.4831C33.9624 31.9418 33.0754 32.8124 32.2401 34.1555L32.2146 34.1963C30.1494 37.5448 27.601 39.3017 24.6007 39.7604C23.3401 39.9533 22.0232 39.9147 20.6066 39.68L20.5275 39.6666C19.4568 39.4845 18.4044 39.2102 17.0558 38.7907L16.8756 38.7342C16.4653 38.6047 15.6228 38.335 15.4793 38.2899C12.7955 37.4451 8.89717 39.5378 3.85195 44.6739C3.66233 44.8671 3.35175 44.87 3.15853 44.6801C2.96531 44.4905 2.96237 44.1799 3.15232 43.9867C8.38291 38.6619 12.5363 36.4071 15.6787 37.3254L15.7739 37.3542C15.9386 37.4062 16.9806 37.7396 17.298 37.8387L17.4416 37.8835C18.7225 38.2794 19.7212 38.5367 20.7295 38.706L20.7671 38.7123C22.0876 38.931 23.3025 38.9669 24.4526 38.791C27.1344 38.3807 29.4164 36.8219 31.3224 33.7743L31.38 33.6814C33.1824 30.7596 35.3267 29.7128 37.8189 30.2293C38.6856 30.4092 39.5804 30.7734 40.5537 31.3141L40.6057 31.3432C41.3171 31.7417 42.02 32.2011 42.9658 32.867L43.3264 33.1224C43.6285 33.3375 44.0924 33.6683 44.2232 33.7612L44.3942 33.8818C44.7352 34.1215 45.014 34.3124 45.2785 34.486L45.3413 34.5272C46.0589 34.9944 46.6327 35.304 47.1326 35.4809C49.5093 36.3217 53.3325 33.1103 58.415 25.7118Z" fill="#575A60"/>
<path d="M43.2902 20.6455C42.5161 17.8214 39.5531 17.6121 38.1223 17.5211C35.1272 17.3148 32.0441 17.3845 29.0597 17.4513C27.8371 17.4789 26.5718 17.5062 25.3412 17.5153H25.0049C22.1539 17.5335 19.2042 17.5517 16.4628 17.9551C14.2418 18.2797 13.0833 19.9174 13.1954 22.5629C13.1954 22.8875 13.2195 23.2424 13.2328 23.6276C13.2515 24.2343 13.2728 24.9441 13.3129 25.751C13.3919 27.7352 14.8216 29.3037 16.5695 29.324C19.2149 29.324 23.1229 29.3089 24.8153 29.324H32.634H34.0515C34.54 29.324 35.0311 29.324 35.525 29.324C37.3594 29.3677 39.1933 29.2151 41.0026 28.869C42.8418 28.4747 43.3169 26.9853 43.5412 25.5808C43.7747 23.9346 43.6893 22.2504 43.2902 20.6455Z" fill="#EAF3F3"/>
<path d="M49.1841 51.3838C49.136 48.766 48.0949 47.3281 45.9034 46.861C43.0765 46.2543 39.9292 46.3483 36.9475 46.5334C35.5621 46.6213 34.1366 46.685 32.7566 46.7487C29.9323 46.8761 27.0093 47.0066 24.1851 47.3342C22.5648 47.5223 19.8527 47.8377 18.9958 50.495C18.5927 51.7417 18.2243 53.7954 18.51 55.488C18.8944 57.7631 20.3786 58.3151 21.4463 58.5214C23.726 58.9825 26.1044 58.9249 28.4028 58.8703L29.8202 58.843L32.9514 58.7974L37.6362 58.7337H38.0794C39.318 58.7186 40.7087 58.7004 42.0835 58.573C42.8656 60.3688 43.9947 62.1312 44.9664 63.0503C45.1316 63.2059 45.3628 63.2341 45.5534 63.1216C45.7437 63.009 45.8564 62.7776 45.8393 62.5346C45.7993 61.9886 45.7005 61.3061 45.5964 60.5811C45.5003 59.9228 45.3989 59.2434 45.3561 58.7155C45.3383 58.4829 45.3249 58.2432 45.3161 57.9966C45.7061 57.8829 46.0902 57.7443 46.4666 57.5811C46.9033 57.3942 47.308 57.1221 47.6625 56.7772C49.0666 55.3788 49.2161 53.1583 49.1841 51.3838Z" fill="#4E6AF0"/>
<path d="M47.8043 5.52155C47.7723 2.90372 46.7366 1.45678 44.5503 0.971436C41.7288 0.349586 38.5789 0.413287 35.5998 0.577091C34.2118 0.652926 32.7863 0.704493 31.4035 0.756061C28.5793 0.862231 25.6563 0.971432 22.8294 1.28084C21.2091 1.45678 18.497 1.75102 17.6214 4.39919C17.213 5.64288 16.8206 7.69347 17.1089 9.38915C17.4799 11.6672 18.9508 12.2315 20.0239 12.4559C22.3009 12.9322 24.6767 12.8927 26.9777 12.8563L28.3951 12.8381L31.6118 12.8169L36.2138 12.7896H36.6596C37.8955 12.7896 39.2863 12.7896 40.6637 12.6592C41.4352 14.461 42.5536 16.2325 43.5173 17.1577C43.6136 17.2499 43.7356 17.3006 43.8616 17.3003C43.946 17.3009 44.0295 17.2781 44.1046 17.2336C44.2965 17.1231 44.4113 16.8923 44.3955 16.6481C44.3581 16.1051 44.2647 15.4347 44.1633 14.6946C44.0699 14.0363 43.9764 13.3538 43.9364 12.826C43.9177 12.5924 43.907 12.3528 43.899 12.1101C44.2895 11.9973 44.6745 11.8605 45.0522 11.7006C45.4897 11.518 45.8955 11.2489 46.2508 10.9059C47.6682 9.51352 47.8257 7.2961 47.8043 5.52155Z" fill="#4E6AF0"/>
<path d="M21.6599 54.6323C21.4578 54.6323 21.2728 54.5024 21.1823 54.2971C21.0918 54.0914 21.1116 53.8454 21.2328 53.6616C21.8414 52.7515 22.9812 52.1631 23.9022 51.6989L24.2812 51.5048C24.4435 51.4181 24.6336 51.4299 24.7865 51.5361C24.9398 51.6425 25.0359 51.8291 25.042 52.0326C25.0492 52.0863 25.0599 52.1388 25.074 52.1904C25.365 52.0448 25.6666 51.8628 25.9763 51.6777C26.4055 51.4029 26.8516 51.1638 27.311 50.9618C27.4738 50.8951 27.6548 50.9221 27.7971 51.034C27.9391 51.1463 28.0245 51.3295 28.0264 51.526C28.0264 51.6656 28.0264 51.8021 28.0397 51.9325C28.3502 51.6365 28.6756 51.361 29.0141 51.1074C29.246 50.9348 29.5557 50.9931 29.7268 51.2409C29.884 51.4802 30.0292 51.7293 30.1619 51.9871L30.242 52.1388C30.7086 51.8148 31.2102 51.5609 31.7342 51.3835C31.9501 51.3134 32.1818 51.4044 32.3134 51.611C32.7139 52.2389 32.8607 52.3178 32.8874 52.3269C32.9141 52.336 33.0395 52.2541 33.133 52.2055C33.5029 51.9953 33.902 51.8588 34.3128 51.8021C34.6537 51.7736 34.9957 51.84 35.3085 51.9962C35.4874 52.0906 35.6828 52.1373 35.8798 52.1327C36.0207 52.1157 36.1617 52.1634 36.2719 52.2644C36.3821 52.3657 36.4523 52.5128 36.467 52.6727C36.4983 53.0051 36.2868 53.3036 35.9945 53.34C35.6355 53.3691 35.2757 53.2994 34.9455 53.1368C34.7874 53.05 34.6139 53.0054 34.4383 53.0064C34.1396 53.0512 33.8497 53.1541 33.5814 53.3097C32.7993 53.7192 32.3348 53.5857 31.6888 52.6818C31.2297 52.8917 30.7911 53.1559 30.3808 53.4705C30.1507 53.6428 29.8432 53.5875 29.6707 53.3431C29.5162 53.1119 29.3744 52.8695 29.2463 52.6181L29.1662 52.4694C28.7645 52.8001 28.3964 53.1805 28.0691 53.6039C27.9399 53.7802 27.7346 53.8584 27.5382 53.8066C27.3417 53.7544 27.1877 53.5812 27.1401 53.3582C27.0785 53.0585 27.0328 52.7546 27.004 52.4482C26.8358 52.5453 26.6623 52.6514 26.4861 52.7515C25.9541 53.1037 25.388 53.3849 24.7991 53.5888C24.6266 53.6394 24.4435 53.5888 24.3108 53.4544C24.1779 53.3197 24.1128 53.1189 24.1371 52.9184C23.3763 53.3067 22.5087 53.7799 22.1057 54.3926C22.0005 54.5504 21.8339 54.6398 21.6599 54.6323Z" fill="white"/>
<path d="M38.6561 53.756C38.5237 53.7557 38.3963 53.6993 38.2984 53.5983C38.1929 53.4903 38.1299 53.3389 38.1227 53.1778C38.1158 53.0167 38.1654 52.859 38.261 52.7398C38.7628 52.1119 40.0388 51.3839 40.7622 51.1988L40.893 51.1655C41.3708 51.0411 41.6351 50.9744 41.8914 51.211C42.0086 51.3187 42.0857 51.4724 42.1076 51.6417C42.6572 51.264 43.2952 51.0863 43.9361 51.1321C44.2121 51.1479 44.47 51.2929 44.6489 51.5325L44.7156 51.484C44.8491 51.3793 45.017 51.3493 45.1721 51.4021C45.3218 51.4542 45.4438 51.5783 45.5057 51.7418L45.5538 51.7721C45.6755 51.8443 45.7842 51.9423 45.8741 52.0603C46.0356 52.3142 46.0004 52.6664 45.7927 52.8727C45.5847 53.0786 45.273 53.071 45.0733 52.8551L45.0252 52.8247C44.9905 52.8005 44.9452 52.7732 44.8971 52.7368C44.5317 52.8909 44.1206 52.748 43.8934 52.3879C43.8833 52.3722 43.8715 52.3582 43.8587 52.3455C43.1796 52.2842 42.5214 52.6291 42.1209 53.2555C41.9968 53.4272 41.8001 53.5079 41.6081 53.466C41.4162 53.4244 41.2595 53.2667 41.2 53.0553C41.1362 52.8344 41.0932 52.6066 41.0719 52.3758L40.9998 52.394C40.4659 52.5305 39.3981 53.1463 39.0538 53.5679C38.9502 53.6914 38.8061 53.7596 38.6561 53.756Z" fill="white"/>
<path d="M43.6988 34.9096V34.7185C43.576 31.1299 41.4992 31.0116 39.4918 30.8994C37.3002 30.775 35.2421 30.866 33.0612 30.9601L32.239 30.9965C31.3501 31.0329 29.4762 31.0299 27.306 31.0268C23.4914 31.0268 18.7479 31.0116 17.1622 31.2301C16.3854 31.3393 15.4912 31.5334 14.7304 32.2948C13.5559 33.4869 13.4998 34.8489 13.4357 36.4202V36.5294C13.4357 36.7812 13.4091 37.036 13.393 37.2908C13.3023 38.7377 13.2008 40.3758 14.0764 41.6771C14.5857 42.4112 15.3329 42.882 16.1505 42.9845C16.1505 43.1635 16.1345 43.3364 16.1238 43.5002C16.0865 44.028 15.9957 44.7136 15.9049 45.3718C15.8088 46.0968 15.7154 46.7823 15.6834 47.3284C15.6684 47.568 15.7795 47.7955 15.9663 47.9077C16.0414 47.9493 16.1233 47.9708 16.2066 47.9714C16.3336 47.9724 16.4564 47.9217 16.5536 47.8289C17.6027 46.8127 18.8093 44.8197 19.562 42.8814C20.483 42.8419 21.4039 42.7904 22.3275 42.7388C24.2735 42.6326 26.2862 42.5204 28.2723 42.5174H29.5109C32.0415 42.5174 34.6548 42.5174 37.2121 42.214C37.455 42.1837 37.7326 42.1564 38.0316 42.1321L38.5949 42.0775C40.3567 41.9046 42.1131 41.5709 43.0501 40.3333C43.7922 39.3535 43.7735 37.0208 43.6988 34.9096Z" fill="#EAF3F3"/>
<path d="M16.6389 38.744C16.5321 38.7434 16.4277 38.7064 16.3399 38.6379C16.0972 38.4495 16.034 38.0743 16.1984 37.7976C16.8311 36.742 18.5261 35.4012 19.7621 35.2526C19.9994 35.2232 20.2252 35.377 20.3146 35.6287C20.4321 35.9606 20.5164 36.3064 20.5656 36.6601C21.0661 36.4954 21.4756 36.0847 21.6814 35.5408C21.7593 35.3072 21.9552 35.1519 22.1752 35.1495C22.3936 35.1467 22.5914 35.296 22.6744 35.5256C22.7435 35.7273 22.7892 35.9381 22.8105 36.1535C23.0326 36.0319 23.263 35.9306 23.4992 35.8502C23.7328 35.7746 23.9819 35.8881 24.1052 36.1262C24.2224 36.3719 24.295 36.6422 24.3187 36.921C24.3187 36.9877 24.3428 37.0848 24.3534 37.1303C24.4664 37.1694 24.5849 37.1858 24.7031 37.1788C24.9791 37.1773 25.2442 37.0544 25.4425 36.836C25.9986 36.3046 26.7404 36.0974 27.4499 36.2749C27.6234 36.3052 27.8023 36.3568 27.9838 36.4083C28.5044 36.5509 29.0516 36.7117 29.4146 36.4083C29.5708 36.2843 29.7737 36.2642 29.9464 36.3561C30.1193 36.4481 30.2357 36.6376 30.252 36.8536C30.2686 37.0696 30.1821 37.2792 30.0259 37.4033C29.2571 38.01 28.3736 37.7673 27.7302 37.5883C27.5647 37.5428 27.4099 37.5003 27.2818 37.4791C26.8557 37.3478 26.4003 37.4736 26.0752 37.8128C25.6929 38.1895 25.2036 38.3964 24.6978 38.3952C23.6567 38.3952 23.3818 37.8522 23.2777 37.2334C23.1575 37.2941 23.0347 37.3608 22.9066 37.4306L22.6023 37.5913C22.4622 37.6632 22.3017 37.6632 22.1619 37.5913C22.0209 37.5185 21.9149 37.3802 21.8709 37.2122C21.3546 37.7427 20.6611 37.9927 19.9703 37.8977C19.7007 37.8498 19.5063 37.5792 19.5191 37.2698C19.524 37.0368 19.5015 36.8042 19.4524 36.5782C18.6249 36.8815 17.5091 37.7582 17.0713 38.4923C16.9709 38.65 16.81 38.7437 16.6389 38.744Z" fill="#3B3B3B"/>
<path d="M33.4697 38.1435C33.2346 38.1441 33.0269 37.9697 32.958 37.7143C32.8891 37.4588 32.9756 37.1822 33.1708 37.0333C33.5261 36.7563 33.9569 36.6325 34.3853 36.6844C34.6803 36.7172 34.896 37.0151 34.8672 37.3502C34.8383 37.6851 34.5762 37.9305 34.2812 37.8978C34.1042 37.8732 33.9254 37.9239 33.7794 38.0403C33.6881 38.1101 33.58 38.1462 33.4697 38.1435Z" fill="#3B3B3B"/>
<path d="M31.3499 8.16959C30.8894 8.16413 30.4428 7.98971 30.0766 7.67211C29.7362 7.3533 29.2752 7.25593 28.8567 7.41427C28.7285 7.44461 28.5764 7.49617 28.4135 7.55078C27.7809 7.77221 26.9107 8.06949 26.1125 7.51134C25.9411 7.40245 25.8362 7.19557 25.8394 6.97261C25.8424 6.74965 25.9526 6.54642 26.1269 6.44358C26.301 6.34075 26.5108 6.3547 26.6731 6.47998C27.0628 6.74996 27.5914 6.56795 28.1039 6.39202C28.2881 6.32831 28.4616 6.26764 28.6378 6.22518C29.3374 6.00283 30.0883 6.1633 30.6692 6.65896C30.9799 6.94258 31.3958 7.02812 31.7743 6.88646C31.785 6.81518 31.7922 6.74328 31.7957 6.67109C31.8079 6.39262 31.868 6.11962 31.9718 5.86724C32.0861 5.62547 32.3293 5.5011 32.5644 5.5639C32.8036 5.62669 33.0383 5.7098 33.2665 5.81263C33.2774 5.59726 33.3124 5.38401 33.3706 5.17865C33.4419 4.94204 33.6338 4.77945 33.8538 4.76914C34.0721 4.75852 34.2742 4.90049 34.3636 5.12708C34.5945 5.65884 35.024 6.04438 35.5328 6.17664C35.5641 5.82022 35.6311 5.46895 35.733 5.13012C35.8104 4.87319 36.0283 4.70605 36.2669 4.72061C37.5082 4.79341 39.2646 6.02497 39.948 7.0351C40.1279 7.30143 40.0836 7.68303 39.8492 7.88748C39.6149 8.09194 39.2791 8.04158 39.0991 7.77525C38.6267 7.0715 37.4681 6.25854 36.6299 6.01587C36.5902 6.24338 36.5784 6.47634 36.5952 6.70749C36.623 7.01538 36.4426 7.29779 36.1761 7.36271C35.4949 7.50346 34.7934 7.30325 34.2515 6.81366C34.2157 6.98414 34.1167 7.12883 33.98 7.21013C33.8436 7.29142 33.6827 7.30173 33.5388 7.23833L33.2238 7.09576L32.8474 6.92286C32.7753 7.54774 32.5271 8.10589 31.486 8.17263L31.3499 8.16959Z" fill="white"/>
<path d="M22.6873 8.45258C22.5928 8.45167 22.5004 8.42134 22.4204 8.36462C22.2682 8.26057 22.0883 8.22174 21.9132 8.25541C21.6286 8.29212 21.3689 8.06704 21.3251 7.74519C21.2816 7.42335 21.4693 7.11971 21.7504 7.05722C22.171 6.98047 22.6022 7.07511 22.9676 7.32416C23.1737 7.46278 23.273 7.74065 23.2108 8.00334C23.1486 8.26603 22.9401 8.44955 22.7007 8.45258H22.6873Z" fill="white"/>
<path d="M16.3802 25.4599C16.2769 25.4603 16.1757 25.4266 16.0892 25.3629C15.9699 25.2752 15.8863 25.1375 15.857 24.9798C15.8273 24.8223 15.8543 24.6576 15.9317 24.5226C16.7592 23.0696 18.2114 22.3173 19.9171 22.4508C20.2078 22.4751 20.4278 22.7599 20.411 23.0909C20.411 23.1303 20.411 23.1667 20.411 23.2001C21.1824 22.469 21.8231 22.102 22.429 22.3052C22.8922 22.503 23.2488 22.9328 23.3953 23.47C24.3011 22.6692 25.2597 21.9482 26.2623 21.3133C26.4467 21.1998 26.6728 21.2198 26.8397 21.3642C27.0068 21.5089 27.0837 21.7513 27.0364 21.9837C27.0169 22.1168 27.0223 22.2533 27.0524 22.3841L27.3194 22.3173C27.581 22.2397 27.8498 22.196 28.1202 22.1869C28.8276 22.1869 29.1506 22.1869 29.3535 22.5509C29.469 22.7693 29.4762 23.0408 29.3721 23.2668C29.3454 23.3366 29.3188 23.4094 29.5216 23.6763C29.6417 23.834 29.9007 23.7734 30.4052 23.5883C30.6604 23.474 30.9316 23.4112 31.206 23.4033C31.5007 23.4218 31.7266 23.7082 31.7105 24.0433C31.6943 24.3782 31.442 24.6352 31.1473 24.6167C31.0034 24.6455 30.8622 24.6892 30.7255 24.7471C30.1916 24.9412 29.3081 25.2688 28.7021 24.468C28.4573 24.1798 28.3065 23.8052 28.275 23.4063H28.1015C27.9144 23.4151 27.7289 23.4488 27.5489 23.5064C27.2153 23.6153 26.8669 23.6532 26.5212 23.6187C26.2692 23.5801 26.076 23.3457 26.0594 23.0575C26.0546 22.9923 26.0466 22.9274 26.0354 22.8634C25.1339 23.5067 24.2666 24.2096 23.4381 24.9685C23.2952 25.0962 23.1049 25.1323 22.9333 25.065C22.7616 24.9974 22.6319 24.8354 22.5892 24.6349C22.365 23.5853 22.1434 23.4822 22.1167 23.4761C21.9886 23.4336 21.6095 23.5428 20.4697 24.7683C20.3557 24.89 20.2006 24.9485 20.0453 24.9291C19.8896 24.9103 19.7489 24.815 19.6609 24.6682C19.4868 24.3661 19.3803 24.0206 19.3512 23.6611C18.3379 23.6526 17.3884 24.2223 16.8233 25.1778C16.7269 25.3507 16.5601 25.4569 16.3802 25.4599Z" fill="#3B3B3B"/>
</svg>
