<svg width="19" height="19" viewBox="0 0 19 19" fill="none" xmlns="http://www.w3.org/2000/svg">
<path fill-rule="evenodd" clip-rule="evenodd" d="M15.0449 5.32812C15.0449 5.77812 14.7458 6.07812 14.2971 6.07812H12.0539V7.57812H14.2971C14.5215 7.57812 14.7458 7.57812 14.8953 7.80313C15.0449 8.02813 15.1197 8.25312 15.0449 8.47812L14.2971 11.4781C14.2224 11.8531 13.9233 12.0781 13.5494 12.0781H12.0539V17.3281C12.0539 17.7781 11.7548 18.0781 11.3062 18.0781H8.31519C7.86655 18.0781 7.56745 17.7781 7.56745 17.3281V12.0781H6.07196C5.62332 12.0781 5.32422 11.7781 5.32422 11.3281V8.32812C5.32422 7.87813 5.62332 7.57812 6.07196 7.57812H7.56745V6.07812C7.56745 3.60313 9.58636 1.57812 12.0539 1.57812H14.2971C14.7458 1.57812 15.0449 1.87812 15.0449 2.32812V5.32812ZM13.3251 9.07812H11.3062C10.8575 9.07812 10.5584 8.77812 10.5584 8.32812V6.07812C10.5584 5.25312 11.2314 4.57812 12.0539 4.57812H13.5494V3.07812H12.0539C10.4089 3.07812 9.06294 4.42812 9.06294 6.07812V8.32812C9.06294 8.77812 8.76384 9.07812 8.31519 9.07812H6.81971V10.5781H8.31519C8.76384 10.5781 9.06294 10.8781 9.06294 11.3281V16.5781H10.5584V11.3281C10.5584 10.8781 10.8575 10.5781 11.3062 10.5781H12.9512L13.3251 9.07812Z" fill="black"/>
<mask id="mask0_4021_1693" style="mask-type:luminance" maskUnits="userSpaceOnUse" x="5" y="1" width="11" height="18">
<path fill-rule="evenodd" clip-rule="evenodd" d="M15.0449 5.32812C15.0449 5.77812 14.7458 6.07812 14.2971 6.07812H12.0539V7.57812H14.2971C14.5215 7.57812 14.7458 7.57812 14.8953 7.80313C15.0449 8.02813 15.1197 8.25312 15.0449 8.47812L14.2971 11.4781C14.2224 11.8531 13.9233 12.0781 13.5494 12.0781H12.0539V17.3281C12.0539 17.7781 11.7548 18.0781 11.3062 18.0781H8.31519C7.86655 18.0781 7.56745 17.7781 7.56745 17.3281V12.0781H6.07196C5.62332 12.0781 5.32422 11.7781 5.32422 11.3281V8.32812C5.32422 7.87813 5.62332 7.57812 6.07196 7.57812H7.56745V6.07812C7.56745 3.60313 9.58636 1.57812 12.0539 1.57812H14.2971C14.7458 1.57812 15.0449 1.87812 15.0449 2.32812V5.32812ZM13.3251 9.07812H11.3062C10.8575 9.07812 10.5584 8.77812 10.5584 8.32812V6.07812C10.5584 5.25312 11.2314 4.57812 12.0539 4.57812H13.5494V3.07812H12.0539C10.4089 3.07812 9.06294 4.42812 9.06294 6.07812V8.32812C9.06294 8.77812 8.76384 9.07812 8.31519 9.07812H6.81971V10.5781H8.31519C8.76384 10.5781 9.06294 10.8781 9.06294 11.3281V16.5781H10.5584V11.3281C10.5584 10.8781 10.8575 10.5781 11.3062 10.5781H12.9512L13.3251 9.07812Z" fill="white"/>
</mask>
<g mask="url(#mask0_4021_1693)">
<rect x="0.824219" y="0.828125" width="18" height="18" fill="#6E6B7B"/>
</g>
</svg>
