<svg width="35" height="35" viewBox="0 0 35 35" fill="none" xmlns="http://www.w3.org/2000/svg">
<path d="M5.79167 3.66113V29.1611H4.375V31.9945H10.0417V29.1611H8.625V22.0778H27.0417C27.4174 22.0778 27.7777 21.9285 28.0434 21.6629C28.3091 21.3972 28.4583 21.0369 28.4583 20.6611V6.49447C28.4583 6.11874 28.3091 5.75841 28.0434 5.49273C27.7777 5.22705 27.4174 5.0778 27.0417 5.0778H8.625V3.66113H5.79167ZM11.4583 7.91113V10.7445H14.2917V7.91113H17.125V10.7445H19.9583V7.91113H22.7917V10.7445H25.625V13.5778H22.7917V16.4111H25.625V19.2445H22.7917V16.4111H19.9583V19.2445H17.125V16.4111H14.2917V19.2445H11.4583V16.4111H8.625V13.5778H11.4583V10.7445H8.625V7.91113H11.4583Z" fill="#201F27"/>
<path d="M11.4585 13.5785H14.2918V16.4118H11.4585V13.5785ZM17.1252 13.5785H19.9585V16.4118H17.1252V13.5785ZM14.2918 10.7451H17.1252V13.5785H14.2918V10.7451ZM19.9585 10.7451H22.7918V13.5785H19.9585V10.7451Z" fill="#201F27"/>
</svg>
