<svg width="19" height="19" viewBox="0 0 19 19" fill="none" xmlns="http://www.w3.org/2000/svg">
<path d="M12.9591 13.817C13.1122 14.2657 13.1888 14.7893 13.1888 15.2381V18.0802C13.1888 18.529 12.8826 18.8281 12.4232 18.8281C11.9639 18.8281 11.6576 18.529 11.6576 18.0802V15.1633C11.7342 14.5649 11.5045 14.1162 11.1217 13.7422C10.8921 13.5178 10.8155 13.2186 10.9686 12.9943C11.0452 12.6951 11.3514 12.5455 11.5811 12.4707C13.8012 12.2463 15.8683 11.4984 15.8683 7.98312C15.8683 7.1604 15.562 6.33767 14.9496 5.66453C14.7199 5.44016 14.7199 5.14098 14.7965 4.9166C15.0262 4.31826 15.0261 3.71991 14.873 3.12157C14.4903 3.19636 13.8778 3.42074 12.8826 4.09388C12.7294 4.24347 12.4998 4.24347 12.2701 4.16867C10.6624 3.71991 8.9016 3.71991 7.2939 4.16867C7.06423 4.24347 6.83456 4.24347 6.60489 4.09388C5.68621 3.42074 4.9972 3.19636 4.61441 3.12157C4.4613 3.71991 4.4613 4.31826 4.69097 4.9166C4.76753 5.21578 4.76753 5.51495 4.53785 5.66453C3.9254 6.33767 3.61917 7.1604 3.61917 7.98312C3.61917 11.4984 5.68621 12.2463 7.90636 12.4707C8.21259 12.4707 8.44226 12.6951 8.51881 12.9943C8.59537 13.2934 8.51881 13.5926 8.3657 13.7422C7.98292 14.1162 7.8298 14.5649 7.8298 15.0885V15.7616V15.8364V18.0054C7.8298 18.4542 7.52357 18.7533 7.06423 18.7533C6.60489 18.7533 6.29866 18.4542 6.29866 18.0054V16.7339C4.00196 17.1079 3.00672 15.8364 2.3177 15.0137C2.01148 14.6397 1.78181 14.3405 1.47558 14.2657C1.09279 14.191 0.786566 13.7422 0.93968 13.3682C1.01624 12.9943 1.47558 12.6951 1.85836 12.8447C2.62393 13.0691 3.08327 13.5926 3.54261 14.1162C4.15507 14.9389 4.69097 15.5372 6.29866 15.2381V15.1633C6.29866 14.7145 6.37522 14.191 6.52833 13.817C4.38474 13.3682 2.08803 12.022 2.08803 8.05791C2.08803 6.93602 2.47082 5.88891 3.15983 5.06619C2.8536 4.01909 2.93016 3.04678 3.3895 2.07446C3.46606 1.85009 3.61917 1.7005 3.84884 1.62571C4.15507 1.55091 5.15031 1.40133 7.21735 2.67281C8.9016 2.29884 10.6624 2.29884 12.2701 2.67281C14.2606 1.40133 15.3324 1.55091 15.6386 1.62571C15.8683 1.7005 16.0214 1.85009 16.0979 2.07446C16.4807 3.04678 16.5573 4.01909 16.3276 4.9914C17.0166 5.81412 17.3994 6.86123 17.3994 7.98312C17.3994 12.2463 14.7965 13.443 12.9591 13.817Z" fill="black"/>
<mask id="mask0_4021_1790" style="mask-type:luminance" maskUnits="userSpaceOnUse" x="0" y="1" width="18" height="18">
<path d="M12.9591 13.817C13.1122 14.2657 13.1888 14.7893 13.1888 15.2381V18.0802C13.1888 18.529 12.8826 18.8281 12.4232 18.8281C11.9639 18.8281 11.6576 18.529 11.6576 18.0802V15.1633C11.7342 14.5649 11.5045 14.1162 11.1217 13.7422C10.8921 13.5178 10.8155 13.2186 10.9686 12.9943C11.0452 12.6951 11.3514 12.5455 11.5811 12.4707C13.8012 12.2463 15.8683 11.4984 15.8683 7.98312C15.8683 7.1604 15.562 6.33767 14.9496 5.66453C14.7199 5.44016 14.7199 5.14098 14.7965 4.9166C15.0262 4.31826 15.0261 3.71991 14.873 3.12157C14.4903 3.19636 13.8778 3.42074 12.8826 4.09388C12.7294 4.24347 12.4998 4.24347 12.2701 4.16867C10.6624 3.71991 8.9016 3.71991 7.2939 4.16867C7.06423 4.24347 6.83456 4.24347 6.60489 4.09388C5.68621 3.42074 4.9972 3.19636 4.61441 3.12157C4.4613 3.71991 4.4613 4.31826 4.69097 4.9166C4.76753 5.21578 4.76753 5.51495 4.53785 5.66453C3.9254 6.33767 3.61917 7.1604 3.61917 7.98312C3.61917 11.4984 5.68621 12.2463 7.90636 12.4707C8.21259 12.4707 8.44226 12.6951 8.51881 12.9943C8.59537 13.2934 8.51881 13.5926 8.3657 13.7422C7.98292 14.1162 7.8298 14.5649 7.8298 15.0885V15.7616V15.8364V18.0054C7.8298 18.4542 7.52357 18.7533 7.06423 18.7533C6.60489 18.7533 6.29866 18.4542 6.29866 18.0054V16.7339C4.00196 17.1079 3.00672 15.8364 2.3177 15.0137C2.01148 14.6397 1.78181 14.3405 1.47558 14.2657C1.09279 14.191 0.786566 13.7422 0.93968 13.3682C1.01624 12.9943 1.47558 12.6951 1.85836 12.8447C2.62393 13.0691 3.08327 13.5926 3.54261 14.1162C4.15507 14.9389 4.69097 15.5372 6.29866 15.2381V15.1633C6.29866 14.7145 6.37522 14.191 6.52833 13.817C4.38474 13.3682 2.08803 12.022 2.08803 8.05791C2.08803 6.93602 2.47082 5.88891 3.15983 5.06619C2.8536 4.01909 2.93016 3.04678 3.3895 2.07446C3.46606 1.85009 3.61917 1.7005 3.84884 1.62571C4.15507 1.55091 5.15031 1.40133 7.21735 2.67281C8.9016 2.29884 10.6624 2.29884 12.2701 2.67281C14.2606 1.40133 15.3324 1.55091 15.6386 1.62571C15.8683 1.7005 16.0214 1.85009 16.0979 2.07446C16.4807 3.04678 16.5573 4.01909 16.3276 4.9914C17.0166 5.81412 17.3994 6.86123 17.3994 7.98312C17.3994 12.2463 14.7965 13.443 12.9591 13.817Z" fill="white"/>
</mask>
<g mask="url(#mask0_4021_1790)">
<rect x="0.149414" y="0.828125" width="18" height="18" fill="#6E6B7B"/>
</g>
</svg>
