<svg width="62" height="48" viewBox="0 0 62 48" fill="none" xmlns="http://www.w3.org/2000/svg">
<path d="M54.1762 0.87793H8.09508C3.84434 0.87793 0.398438 4.32383 0.398438 8.57457V40.1505C0.398438 44.4013 3.84434 47.8472 8.09508 47.8472H54.1762C58.427 47.8472 61.8729 44.4013 61.8729 40.1505V8.57457C61.8729 4.32383 58.427 0.87793 54.1762 0.87793Z" fill="#201F27"/>
<path d="M58.7163 5.20355C58.8159 4.94996 59.1024 4.8253 59.356 4.92496C59.6096 5.02462 59.7343 5.31078 59.6346 5.56437L59.5067 5.88901C57.4263 11.1655 55.6889 15.1395 54.292 17.8152C52.7705 20.7287 51.663 22.1477 50.6795 22.1477C50.0424 22.1477 49.6224 21.7609 49.3981 21.1165L49.3853 21.0793C49.255 20.6916 49.1965 20.2949 49.1185 19.4601L49.0741 18.9835C49.0705 18.9467 49.0672 18.9121 49.0629 18.87L49.0567 18.8105C48.9554 17.8484 48.8133 17.2771 48.5475 16.907C48.2475 16.489 47.7657 16.3578 46.897 16.589C46.1319 16.7923 45.0906 17.8175 43.7345 19.6736L43.6549 19.7831C43.0911 20.561 42.4803 21.4658 41.7057 22.6595L41.532 22.9282C41.0074 23.7419 39.7964 25.6342 39.5141 26.071L39.3915 26.2604C37.4015 29.3322 35.9868 31.3063 34.5521 32.8888C32.5378 35.1109 30.7229 36.2157 28.9757 36.0168C27.4765 35.846 26.3026 35.2303 25.3428 34.2021C24.9409 33.7716 24.579 33.2729 24.2258 32.6822L24.1995 32.6381C23.9459 32.2105 23.7143 31.7688 23.4032 31.1363L23.0305 30.3729C22.7361 29.7719 22.5408 29.394 22.3299 29.0296L22.2911 28.9635C21.9895 28.449 21.6931 28.0372 21.3747 27.7011C20.6547 26.9416 19.8068 26.5611 18.6658 26.5611C16.9623 26.5611 14.8642 28.0586 12.4253 31.1054C9.92682 34.2268 7.10406 38.9286 3.9639 45.2063C3.8422 45.4501 3.54584 45.5487 3.30212 45.4267C3.05839 45.305 2.95971 45.0083 3.08141 44.7649C9.48344 31.9668 14.6004 25.5743 18.6658 25.5743C20.0834 25.5743 21.1882 26.0703 22.0908 27.0225C22.4664 27.4186 22.8052 27.8896 23.1423 28.4638L23.1733 28.5168C23.3953 28.899 23.5956 29.2842 23.889 29.8818L24.2406 30.6028L24.3034 30.7311C24.977 32.0964 25.4408 32.8615 26.0641 33.5288C26.8673 34.3893 27.8274 34.8928 29.0875 35.0363C30.4318 35.1895 32.0004 34.2344 33.8213 32.226C35.2247 30.6778 36.6295 28.7128 38.6248 25.6292L38.7958 25.3638C39.2513 24.6557 40.4933 22.715 40.8512 22.1635L40.9854 21.9572C41.7356 20.804 42.3349 19.9199 42.8954 19.1496C44.4058 17.0732 45.5705 15.9206 46.6434 15.6351C47.8821 15.3059 48.7899 15.5529 49.3491 16.3314C49.5747 16.6456 49.7326 17.0311 49.8457 17.4975C49.9296 17.8435 49.9865 18.2155 50.0375 18.7026L50.0615 18.9397L50.1072 19.4331C50.1766 20.1627 50.2293 20.5034 50.3299 20.7915L50.3394 20.8185C50.4352 21.082 50.5259 21.1609 50.6795 21.1609C50.6966 21.1609 50.7246 21.1547 50.7647 21.1376C50.8226 21.1126 50.892 21.0701 50.971 21.0093C51.1538 20.8685 51.3689 20.6429 51.61 20.334L51.6406 20.2946C52.1419 19.6436 52.7359 18.6635 53.4171 17.3583C54.8235 14.6652 56.5908 10.6119 58.7163 5.20355Z" fill="#6F3BC2"/>
<path d="M58.7693 19.6428C58.9235 19.4181 59.2304 19.3612 59.455 19.5155C59.6797 19.6697 59.7366 19.9769 59.5823 20.2013C54.2088 28.0239 50.1072 31.469 47.0891 30.4013C46.4911 30.1898 45.8425 29.8385 45.0462 29.3178L44.9666 29.2659C44.6969 29.0876 44.4127 28.8926 44.0683 28.6501L43.8838 28.5196C43.6579 28.3594 42.9842 27.8785 42.7974 27.7463L42.6599 27.6492C41.7222 26.9891 41.0338 26.5398 40.345 26.1553L40.32 26.1415C39.4217 25.6422 38.6106 25.312 37.8479 25.1541C36.8595 24.9492 35.9606 25.036 35.1143 25.4491C34.1683 25.9106 33.2759 26.7865 32.4356 28.1377L32.4099 28.1788C30.3321 31.5476 27.7683 33.3152 24.7498 33.7766C23.4815 33.9707 22.1566 33.9319 20.7314 33.6957L20.6518 33.6822C19.5746 33.499 18.5158 33.2231 17.1591 32.8011L16.9778 32.7442C16.565 32.6139 15.7174 32.3426 15.573 32.2972C12.873 31.4472 8.95095 33.5526 3.87512 38.7199C3.68435 38.9143 3.37188 38.9173 3.17749 38.7262C2.9831 38.5354 2.98014 38.2229 3.17124 38.0285C8.43357 32.6715 12.6121 30.4029 15.7737 31.3269L15.8694 31.3558C16.0352 31.4081 17.0834 31.7436 17.4028 31.8433L17.5472 31.8883C18.8359 32.2866 19.8407 32.5455 20.8551 32.7159L20.8929 32.7221C22.2214 32.9422 23.4437 32.9783 24.6008 32.8014C27.2989 32.3886 29.5947 30.8203 31.5123 27.7542L31.5702 27.6608C33.3835 24.7212 35.5409 23.668 38.0482 24.1877C38.9201 24.3686 39.8204 24.7351 40.7996 25.2791L40.8519 25.3083C41.5676 25.7093 42.2748 26.1714 43.2263 26.8414L43.5891 27.0983C43.893 27.3147 44.3598 27.6476 44.4913 27.741L44.6634 27.8624C45.0064 28.1035 45.287 28.2956 45.5531 28.4702L45.6162 28.5117C46.3382 28.9817 46.9154 29.2932 47.4184 29.4711C49.8096 30.3171 53.6559 27.0861 58.7693 19.6428Z" fill="#E937C2"/>
</svg>
