<svg width="19" height="19" viewBox="0 0 19 19" fill="none" xmlns="http://www.w3.org/2000/svg">
<path fill-rule="evenodd" clip-rule="evenodd" d="M12.8994 1.57812H5.39941C2.92441 1.57812 0.899414 3.60313 0.899414 6.07812V13.5781C0.899414 16.0531 2.92441 18.0781 5.39941 18.0781H12.8994C15.3744 18.0781 17.3994 16.0531 17.3994 13.5781V6.07812C17.3994 3.60313 15.3744 1.57812 12.8994 1.57812ZM15.8994 13.5781C15.8994 15.2281 14.5494 16.5781 12.8994 16.5781H5.39941C3.74941 16.5781 2.39941 15.2281 2.39941 13.5781V6.07812C2.39941 4.42812 3.74941 3.07812 5.39941 3.07812H12.8994C14.5494 3.07812 15.8994 4.42812 15.8994 6.07812V13.5781ZM8.62441 6.07813C8.99941 6.00313 9.37441 6.00313 9.74941 6.07813C11.3994 6.30313 12.6744 7.57813 12.8244 9.22813C12.9744 10.2031 12.7494 11.1781 12.1494 12.0031C11.5494 12.8281 10.6494 13.3531 9.67441 13.5031C9.52441 13.5781 9.29941 13.5781 9.14941 13.5781C7.34941 13.5781 5.77441 12.2281 5.47441 10.3531C5.17441 8.32813 6.59941 6.37813 8.62441 6.07813ZM11.0244 11.1031C10.6494 11.5531 10.1244 11.9281 9.52441 12.0031C8.32441 12.1531 7.12441 11.3281 6.97441 10.1281C6.74941 8.92812 7.64941 7.72813 8.84941 7.57812H9.14941H9.44941C10.4244 7.72813 11.1744 8.47813 11.3244 9.45312C11.4744 10.0531 11.3244 10.6531 11.0244 11.1031ZM13.9774 5.50165C13.9623 5.46526 13.9494 5.43419 13.9494 5.40313C13.9494 5.32812 13.8744 5.25312 13.7994 5.17812C13.4994 4.87812 13.0494 4.87812 12.7494 5.17812C12.6744 5.25312 12.5994 5.32812 12.5994 5.40313C12.5244 5.47813 12.5244 5.62813 12.5244 5.70312C12.5244 5.85313 12.5994 6.07812 12.7494 6.22813C12.8994 6.37813 13.1244 6.45312 13.2744 6.45312C13.4244 6.45312 13.6494 6.37813 13.7994 6.22813C13.9494 6.07812 14.0244 5.92812 14.0244 5.70312C14.0244 5.61526 13.9987 5.55312 13.9774 5.50165Z" fill="black"/>
<mask id="mask0_4021_1671" style="mask-type:luminance" maskUnits="userSpaceOnUse" x="0" y="1" width="18" height="18">
<path fill-rule="evenodd" clip-rule="evenodd" d="M12.8994 1.57812H5.39941C2.92441 1.57812 0.899414 3.60313 0.899414 6.07812V13.5781C0.899414 16.0531 2.92441 18.0781 5.39941 18.0781H12.8994C15.3744 18.0781 17.3994 16.0531 17.3994 13.5781V6.07812C17.3994 3.60313 15.3744 1.57812 12.8994 1.57812ZM15.8994 13.5781C15.8994 15.2281 14.5494 16.5781 12.8994 16.5781H5.39941C3.74941 16.5781 2.39941 15.2281 2.39941 13.5781V6.07812C2.39941 4.42812 3.74941 3.07812 5.39941 3.07812H12.8994C14.5494 3.07812 15.8994 4.42812 15.8994 6.07812V13.5781ZM8.62441 6.07813C8.99941 6.00313 9.37441 6.00313 9.74941 6.07813C11.3994 6.30313 12.6744 7.57813 12.8244 9.22813C12.9744 10.2031 12.7494 11.1781 12.1494 12.0031C11.5494 12.8281 10.6494 13.3531 9.67441 13.5031C9.52441 13.5781 9.29941 13.5781 9.14941 13.5781C7.34941 13.5781 5.77441 12.2281 5.47441 10.3531C5.17441 8.32813 6.59941 6.37813 8.62441 6.07813ZM11.0244 11.1031C10.6494 11.5531 10.1244 11.9281 9.52441 12.0031C8.32441 12.1531 7.12441 11.3281 6.97441 10.1281C6.74941 8.92812 7.64941 7.72813 8.84941 7.57812H9.14941H9.44941C10.4244 7.72813 11.1744 8.47813 11.3244 9.45312C11.4744 10.0531 11.3244 10.6531 11.0244 11.1031ZM13.9774 5.50165C13.9623 5.46526 13.9494 5.43419 13.9494 5.40313C13.9494 5.32812 13.8744 5.25312 13.7994 5.17812C13.4994 4.87812 13.0494 4.87812 12.7494 5.17812C12.6744 5.25312 12.5994 5.32812 12.5994 5.40313C12.5244 5.47813 12.5244 5.62813 12.5244 5.70312C12.5244 5.85313 12.5994 6.07812 12.7494 6.22813C12.8994 6.37813 13.1244 6.45312 13.2744 6.45312C13.4244 6.45312 13.6494 6.37813 13.7994 6.22813C13.9494 6.07812 14.0244 5.92812 14.0244 5.70312C14.0244 5.61526 13.9987 5.55312 13.9774 5.50165Z" fill="white"/>
</mask>
<g mask="url(#mask0_4021_1671)">
<rect x="0.149414" y="0.828125" width="18" height="18" fill="#6E6B7B"/>
</g>
</svg>
