<svg width="19" height="19" viewBox="0 0 19 19" fill="none" xmlns="http://www.w3.org/2000/svg">
<path fill-rule="evenodd" clip-rule="evenodd" d="M3.47559 2.32812C2.20059 2.32812 1.22559 3.30312 1.22559 4.57812C1.22559 5.85313 2.20059 6.82812 3.47559 6.82812C4.75059 6.82812 5.72559 5.85313 5.72559 4.57812C5.72559 3.30312 4.75059 2.32812 3.47559 2.32812ZM7.22559 12.0781C7.22559 9.15312 9.55059 6.82812 12.4756 6.82812C15.4006 6.82812 17.7256 9.15312 17.7256 12.0781V17.3281C17.7256 17.7781 17.4256 18.0781 16.9756 18.0781H13.9756C13.5256 18.0781 13.2256 17.7781 13.2256 17.3281V12.0781C13.2256 11.6281 12.9256 11.3281 12.4756 11.3281C12.0256 11.3281 11.7256 11.6281 11.7256 12.0781V17.3281C11.7256 17.7781 11.4256 18.0781 10.9756 18.0781H7.97559C7.52559 18.0781 7.22559 17.7781 7.22559 17.3281V12.0781ZM14.7256 16.5781H16.2256V12.0781C16.2256 9.97813 14.5756 8.32812 12.4756 8.32812C10.3756 8.32812 8.72559 9.97813 8.72559 12.0781V16.5781H10.2256V12.0781C10.2256 10.8031 11.2006 9.82812 12.4756 9.82812C13.7506 9.82812 14.7256 10.8031 14.7256 12.0781V16.5781ZM1.97559 7.57812C1.52559 7.57812 1.22559 7.87813 1.22559 8.32812V17.3281C1.22559 17.7781 1.52559 18.0781 1.97559 18.0781H4.97559C5.42559 18.0781 5.72559 17.7781 5.72559 17.3281V8.32812C5.72559 7.87813 5.42559 7.57812 4.97559 7.57812H1.97559ZM4.22559 16.5781V9.07812H2.72559V16.5781H4.22559ZM2.72559 4.57812C2.72559 5.02813 3.02559 5.32812 3.47559 5.32812C3.92559 5.32812 4.22559 5.02813 4.22559 4.57812C4.22559 4.12812 3.92559 3.82812 3.47559 3.82812C3.02559 3.82812 2.72559 4.12812 2.72559 4.57812Z" fill="black"/>
<mask id="mask0_4021_1709" style="mask-type:luminance" maskUnits="userSpaceOnUse" x="1" y="2" width="17" height="17">
<path fill-rule="evenodd" clip-rule="evenodd" d="M3.47559 2.32812C2.20059 2.32812 1.22559 3.30312 1.22559 4.57812C1.22559 5.85313 2.20059 6.82812 3.47559 6.82812C4.75059 6.82812 5.72559 5.85313 5.72559 4.57812C5.72559 3.30312 4.75059 2.32812 3.47559 2.32812ZM7.22559 12.0781C7.22559 9.15312 9.55059 6.82812 12.4756 6.82812C15.4006 6.82812 17.7256 9.15312 17.7256 12.0781V17.3281C17.7256 17.7781 17.4256 18.0781 16.9756 18.0781H13.9756C13.5256 18.0781 13.2256 17.7781 13.2256 17.3281V12.0781C13.2256 11.6281 12.9256 11.3281 12.4756 11.3281C12.0256 11.3281 11.7256 11.6281 11.7256 12.0781V17.3281C11.7256 17.7781 11.4256 18.0781 10.9756 18.0781H7.97559C7.52559 18.0781 7.22559 17.7781 7.22559 17.3281V12.0781ZM14.7256 16.5781H16.2256V12.0781C16.2256 9.97813 14.5756 8.32812 12.4756 8.32812C10.3756 8.32812 8.72559 9.97813 8.72559 12.0781V16.5781H10.2256V12.0781C10.2256 10.8031 11.2006 9.82812 12.4756 9.82812C13.7506 9.82812 14.7256 10.8031 14.7256 12.0781V16.5781ZM1.97559 7.57812C1.52559 7.57812 1.22559 7.87813 1.22559 8.32812V17.3281C1.22559 17.7781 1.52559 18.0781 1.97559 18.0781H4.97559C5.42559 18.0781 5.72559 17.7781 5.72559 17.3281V8.32812C5.72559 7.87813 5.42559 7.57812 4.97559 7.57812H1.97559ZM4.22559 16.5781V9.07812H2.72559V16.5781H4.22559ZM2.72559 4.57812C2.72559 5.02813 3.02559 5.32812 3.47559 5.32812C3.92559 5.32812 4.22559 5.02813 4.22559 4.57812C4.22559 4.12812 3.92559 3.82812 3.47559 3.82812C3.02559 3.82812 2.72559 4.12812 2.72559 4.57812Z" fill="white"/>
</mask>
<g mask="url(#mask0_4021_1709)">
<rect x="0.475586" y="0.828125" width="18" height="18" fill="#6E6B7B"/>
</g>
</svg>
