<svg width="24" height="25" viewBox="0 0 24 25" fill="none" xmlns="http://www.w3.org/2000/svg">
<path d="M12 14.8281C11.6044 14.8281 11.2178 14.9454 10.8889 15.1652C10.56 15.3849 10.3036 15.6973 10.1522 16.0628C10.0009 16.4282 9.96126 16.8303 10.0384 17.2183C10.1156 17.6063 10.3061 17.9626 10.5858 18.2423C10.8655 18.522 11.2219 18.7125 11.6098 18.7897C11.9978 18.8669 12.3999 18.8273 12.7654 18.6759C13.1308 18.5245 13.4432 18.2682 13.6629 17.9393C13.8827 17.6104 14 17.2237 14 16.8281C14 16.2977 13.7893 15.789 13.4142 15.4139C13.0391 15.0388 12.5304 14.8281 12 14.8281Z" fill="#201F27"/>
<path d="M13.1111 10.4911C12.7822 10.7108 12.3956 10.8281 12 10.8281C11.4696 10.8281 10.9609 10.6174 10.5858 10.2423C10.2107 9.86727 10 9.35856 10 8.82813C10 8.43256 10.1173 8.04588 10.3371 7.71699C10.5568 7.38809 10.8692 7.13174 11.2346 6.98037C11.6001 6.82899 12.0022 6.78938 12.3902 6.86656C12.7781 6.94373 13.1345 7.13421 13.4142 7.41391C13.6939 7.69362 13.8844 8.04998 13.9616 8.43795C14.0387 8.82591 13.9991 9.22804 13.8478 9.59349C13.6964 9.95895 13.44 10.2713 13.1111 10.4911Z" fill="#201F27"/>
</svg>
