<svg width="14" height="14" viewBox="0 0 14 14" fill="none" xmlns="http://www.w3.org/2000/svg">
<path fill-rule="evenodd" clip-rule="evenodd" d="M7.00016 2.16146C3.97866 2.16146 1.66683 4.32245 1.66683 6.82812C1.66683 9.33379 3.97866 11.4948 7.00016 11.4948C7.4141 11.4948 7.81616 11.4535 8.2017 11.3758C8.28223 11.3595 8.36503 11.3583 8.44596 11.3722L11.9545 11.9728L11.2581 10.1726C11.1722 9.95033 11.2114 9.69906 11.361 9.51359C11.9784 8.74806 12.3335 7.82172 12.3335 6.82812C12.3335 4.32245 10.0217 2.16146 7.00016 2.16146ZM0.333496 6.82812C0.333496 3.44276 3.39425 0.828125 7.00016 0.828125C10.6061 0.828125 13.6668 3.44276 13.6668 6.82812C13.6668 8.01306 13.2852 9.11359 12.6353 10.037L13.622 12.5876C13.7085 12.8114 13.6681 13.0645 13.5162 13.2503C13.3642 13.436 13.1242 13.5257 12.8877 13.4853L8.34043 12.7069C7.9069 12.7865 7.45863 12.8281 7.00016 12.8281C3.39425 12.8281 0.333496 10.2135 0.333496 6.82812Z" fill="#575A60"/>
</svg>
