<svg width="21" height="21" viewBox="0 0 21 21" fill="none" xmlns="http://www.w3.org/2000/svg">
<path fill-rule="evenodd" clip-rule="evenodd" d="M13.0944 12.4731H13.7856L18.1519 16.8481L16.8481 18.1519L12.4731 13.7856V13.0944L12.2369 12.8494C11.2394 13.7069 9.94439 14.2231 8.53564 14.2231C5.39439 14.2231 2.84814 11.6769 2.84814 8.53564C2.84814 5.39439 5.39439 2.84814 8.53564 2.84814C11.6769 2.84814 14.2231 5.39439 14.2231 8.53564C14.2231 9.94439 13.7069 11.2394 12.8494 12.2369L13.0944 12.4731ZM4.59814 8.53565C4.59814 10.7144 6.35689 12.4731 8.53565 12.4731C10.7144 12.4731 12.4731 10.7144 12.4731 8.53565C12.4731 6.35689 10.7144 4.59814 8.53565 4.59814C6.35689 4.59814 4.59814 6.35689 4.59814 8.53565Z" fill="#201F27"/>
</svg>
