<svg width="14" height="15" viewBox="0 0 14 15" fill="none" xmlns="http://www.w3.org/2000/svg">
<path d="M3.20848 9.57829C3.71869 9.57677 4.20961 9.38307 4.58339 9.03579L8.23506 11.1224C8.11271 11.6005 8.16664 12.1066 8.38699 12.5482C8.60734 12.9898 8.97937 13.3373 9.43495 13.527C9.89054 13.7167 10.3992 13.736 10.8679 13.5813C11.3365 13.4266 11.7338 13.1083 11.9869 12.6847C12.2401 12.2611 12.3322 11.7604 12.2463 11.2744C12.1605 10.7884 11.9026 10.3496 11.5197 10.0383C11.1367 9.72692 10.6545 9.56391 10.1612 9.57907C9.66795 9.59422 9.19664 9.78653 8.83356 10.1208L5.18189 8.0342C5.22039 7.88837 5.24139 7.73729 5.24489 7.5862L8.83239 5.53579C9.17783 5.85007 9.62084 6.036 10.0871 6.06237C10.5534 6.08875 11.0145 5.95396 11.3932 5.68064C11.7719 5.40731 12.045 5.01207 12.1668 4.56122C12.2887 4.11038 12.2517 3.63135 12.0622 3.20452C11.8727 2.77768 11.5422 2.429 11.1261 2.21697C10.71 2.00494 10.2336 1.94246 9.77689 2.04002C9.32018 2.13758 8.91091 2.38924 8.61775 2.75278C8.32459 3.11631 8.16538 3.56961 8.16681 4.03662C8.16914 4.20462 8.19189 4.37204 8.23506 4.5342L4.91939 6.42829C4.72711 6.13082 4.46075 5.8885 4.14649 5.72512C3.83222 5.56175 3.48085 5.48294 3.12691 5.49644C2.77297 5.50995 2.42863 5.6153 2.12773 5.80214C1.82682 5.98899 1.5797 6.25091 1.41065 6.56216C1.24159 6.87341 1.15642 7.22329 1.16349 7.57741C1.17057 7.93154 1.26965 8.27773 1.45101 8.58198C1.63236 8.88623 1.88975 9.13807 2.19788 9.31274C2.50601 9.48742 2.85428 9.57893 3.20848 9.57829Z" fill="#575A60"/>
</svg>
