<svg width="19" height="19" viewBox="0 0 19 19" fill="none" xmlns="http://www.w3.org/2000/svg">
<path fill-rule="evenodd" clip-rule="evenodd" d="M14.2604 1.49437C15.9875 2.39482 17.1139 4.19573 18.0901 7.34732C19.9675 13.3504 18.3154 16.2768 12.3079 18.1528C10.731 18.603 9.45438 18.8281 8.25288 18.8281C4.87367 18.8281 2.92124 16.8021 1.56955 12.2998C-0.307786 6.29679 1.26918 3.37032 7.35176 1.56941C10.5057 0.593913 12.6834 0.593913 14.2604 1.49437ZM2.99633 11.8496C4.5733 17.1023 6.60082 18.2278 11.8574 16.652C17.1139 15.0762 18.2403 12.9752 16.7385 7.72251C15.9124 5.02115 14.9362 3.44535 13.6596 2.77001C13.0589 2.46986 12.3079 2.31978 11.4819 2.31978C10.5057 2.31978 9.30419 2.5449 7.80232 2.99513C2.54577 4.57092 1.41937 6.67198 2.99633 11.8496ZM14.1102 9.52342L12.6834 10.0487L11.9325 7.94763L13.3592 7.42236C13.7347 7.27229 13.96 6.8971 13.8098 6.44687C13.6596 6.07168 13.2841 5.84657 12.8336 5.99664L11.4068 6.52191L10.8812 5.09619C10.731 4.721 10.3555 4.49588 9.90494 4.64596C9.52947 4.79604 9.30419 5.17123 9.45438 5.62145L9.98003 7.04717L7.87741 7.79755L7.42685 6.29679C7.27666 5.9216 6.8261 5.69649 6.45063 5.84657C6.07517 5.9216 5.84989 6.37183 6.00007 6.74702L6.52573 8.17274L5.09895 8.69801C4.72348 8.84808 4.4982 9.22327 4.64839 9.6735C4.72348 9.97365 5.02386 10.1988 5.32423 10.1988C5.39932 10.1988 5.47442 10.1988 5.54951 10.1237L6.97629 9.59846L7.72722 11.6995L6.30045 12.2248C5.92498 12.3749 5.6997 12.7501 5.84989 13.2003C5.92498 13.5004 6.22535 13.7255 6.52573 13.7255C6.60082 13.7255 6.67591 13.7255 6.75101 13.6505L8.17779 13.1252L8.70344 14.551C8.77853 14.8511 9.07891 15.0762 9.37928 15.0762C9.45438 15.0762 9.52947 15.0762 9.60456 15.0012C9.98003 14.8511 10.2053 14.4759 10.0551 14.0257L9.52947 12.6L11.6321 11.8496L12.1577 13.2753C12.2328 13.5755 12.5332 13.8006 12.8336 13.8006C12.9087 13.8006 12.9838 13.8006 13.0589 13.7255C13.4343 13.5755 13.6596 13.2003 13.5094 12.7501L12.9838 11.3243L14.4106 10.7991C14.786 10.649 15.0113 10.2738 14.8611 9.82358C14.7109 9.37335 14.4856 9.37335 14.1102 9.52342ZM8.40307 9.14823L9.154 11.2493L11.2566 10.4989L10.5057 8.39786L8.40307 9.14823Z" fill="black"/>
<mask id="mask0_4021_21886" style="mask-type:luminance" maskUnits="userSpaceOnUse" x="0" y="0" width="19" height="19">
<path fill-rule="evenodd" clip-rule="evenodd" d="M14.2604 1.49437C15.9875 2.39482 17.1139 4.19573 18.0901 7.34732C19.9675 13.3504 18.3154 16.2768 12.3079 18.1528C10.731 18.603 9.45438 18.8281 8.25288 18.8281C4.87367 18.8281 2.92124 16.8021 1.56955 12.2998C-0.307786 6.29679 1.26918 3.37032 7.35176 1.56941C10.5057 0.593913 12.6834 0.593913 14.2604 1.49437ZM2.99633 11.8496C4.5733 17.1023 6.60082 18.2278 11.8574 16.652C17.1139 15.0762 18.2403 12.9752 16.7385 7.72251C15.9124 5.02115 14.9362 3.44535 13.6596 2.77001C13.0589 2.46986 12.3079 2.31978 11.4819 2.31978C10.5057 2.31978 9.30419 2.5449 7.80232 2.99513C2.54577 4.57092 1.41937 6.67198 2.99633 11.8496ZM14.1102 9.52342L12.6834 10.0487L11.9325 7.94763L13.3592 7.42236C13.7347 7.27229 13.96 6.8971 13.8098 6.44687C13.6596 6.07168 13.2841 5.84657 12.8336 5.99664L11.4068 6.52191L10.8812 5.09619C10.731 4.721 10.3555 4.49588 9.90494 4.64596C9.52947 4.79604 9.30419 5.17123 9.45438 5.62145L9.98003 7.04717L7.87741 7.79755L7.42685 6.29679C7.27666 5.9216 6.8261 5.69649 6.45063 5.84657C6.07517 5.9216 5.84989 6.37183 6.00007 6.74702L6.52573 8.17274L5.09895 8.69801C4.72348 8.84808 4.4982 9.22327 4.64839 9.6735C4.72348 9.97365 5.02386 10.1988 5.32423 10.1988C5.39932 10.1988 5.47442 10.1988 5.54951 10.1237L6.97629 9.59846L7.72722 11.6995L6.30045 12.2248C5.92498 12.3749 5.6997 12.7501 5.84989 13.2003C5.92498 13.5004 6.22535 13.7255 6.52573 13.7255C6.60082 13.7255 6.67591 13.7255 6.75101 13.6505L8.17779 13.1252L8.70344 14.551C8.77853 14.8511 9.07891 15.0762 9.37928 15.0762C9.45438 15.0762 9.52947 15.0762 9.60456 15.0012C9.98003 14.8511 10.2053 14.4759 10.0551 14.0257L9.52947 12.6L11.6321 11.8496L12.1577 13.2753C12.2328 13.5755 12.5332 13.8006 12.8336 13.8006C12.9087 13.8006 12.9838 13.8006 13.0589 13.7255C13.4343 13.5755 13.6596 13.2003 13.5094 12.7501L12.9838 11.3243L14.4106 10.7991C14.786 10.649 15.0113 10.2738 14.8611 9.82358C14.7109 9.37335 14.4856 9.37335 14.1102 9.52342ZM8.40307 9.14823L9.154 11.2493L11.2566 10.4989L10.5057 8.39786L8.40307 9.14823Z" fill="white"/>
</mask>
<g mask="url(#mask0_4021_21886)">
<rect x="0.824219" y="0.828125" width="18" height="18" fill="#6E6B7B"/>
</g>
</svg>
