<svg width="29" height="29" viewBox="0 0 29 29" fill="none" xmlns="http://www.w3.org/2000/svg">
<path d="M28.4812 17.484L25.6479 13.9424C25.5151 13.7765 25.3467 13.6427 25.1552 13.5507C24.9637 13.4588 24.7539 13.4111 24.5415 13.4111H16.0415V10.5778H24.5415C26.1041 10.5778 27.3748 9.30705 27.3748 7.74447V3.49447C27.3748 1.93188 26.1041 0.661133 24.5415 0.661133H4.70814C4.49569 0.661053 4.28594 0.708759 4.09442 0.800719C3.90289 0.892678 3.73451 1.02654 3.60173 1.19238L0.768392 4.73405C0.567463 4.98542 0.458008 5.29766 0.458008 5.61947C0.458008 5.94127 0.567463 6.25351 0.768392 6.50488L3.60173 10.0465C3.73451 10.2124 3.90289 10.3463 4.09442 10.4382C4.28594 10.5302 4.49569 10.5779 4.70814 10.5778H13.2081V13.4111H4.70814C3.14556 13.4111 1.87481 14.6819 1.87481 16.2445V20.4945C1.87481 22.057 3.14556 23.3278 4.70814 23.3278H13.2081V28.9945H16.0415V23.3278H24.5415C24.7539 23.3279 24.9637 23.2802 25.1552 23.1882C25.3467 23.0963 25.5151 22.9624 25.6479 22.7965L28.4812 19.2549C28.6822 19.0035 28.7916 18.6913 28.7916 18.3695C28.7916 18.0477 28.6822 17.7354 28.4812 17.484ZM3.68956 5.61947L5.38814 3.49447H24.5415L24.5443 7.74447H5.38814L3.68956 5.61947ZM23.8615 20.4945H4.70814V16.2445H23.8615L25.5615 18.3695L23.8615 20.4945Z" fill="#201F27"/>
</svg>
