<svg width="19" height="19" viewBox="0 0 19 19" fill="none" xmlns="http://www.w3.org/2000/svg">
<path fill-rule="evenodd" clip-rule="evenodd" d="M17.3335 2.46973C17.558 2.31889 17.9322 2.31889 18.1568 2.46973C18.3813 2.62058 18.531 2.92227 18.4561 3.22397C18.2316 4.27989 17.7077 5.2604 16.9593 6.09005V6.46717C16.9593 10.6155 15.1632 14.0849 11.9451 15.8951C10.2986 16.8756 8.50248 17.3281 6.63149 17.3281C4.7605 17.3281 2.73984 16.8002 0.868855 15.7442C0.569497 15.5934 0.419818 15.2163 0.494658 14.9146C0.569497 14.6129 0.943694 14.3866 1.24305 14.3866C2.51532 14.3866 3.78759 14.1603 4.91018 13.6324C2.14112 11.8976 1.39273 9.4841 1.31789 7.59852C1.24305 5.41124 1.99145 3.60108 2.06629 3.52566C2.14112 3.29939 2.36564 3.07312 2.665 3.07312C2.96436 3.07312 3.18888 3.14854 3.33856 3.37481C4.61083 5.18497 6.55665 6.31632 8.72699 6.46717C8.72699 5.2604 9.25087 4.12905 10.2238 3.37481C11.7954 1.94177 14.1154 2.01719 15.6122 3.37481C16.2109 3.14854 16.8097 2.84685 17.3335 2.46973ZM15.3877 6.01463C15.3877 5.78836 15.4625 5.48667 15.6122 5.33582C15.6871 5.22269 15.7619 5.12841 15.8367 5.03413C15.9116 4.93985 15.9864 4.84557 16.0613 4.73243C15.9864 4.77015 15.8929 4.789 15.7993 4.80786C15.7058 4.82671 15.6122 4.84557 15.5374 4.88328C15.3129 4.9587 15.0135 4.88328 14.789 4.65701C13.8909 3.60108 12.1696 3.45024 11.1219 4.43074C10.5231 4.9587 10.2238 5.71294 10.2238 6.46717V7.2214C10.2238 7.59852 9.84959 7.97564 9.47539 7.97564C7.00569 8.05106 4.68567 7.07056 3.0392 5.41124C2.59016 7.29683 2.44048 10.9926 6.78117 12.9536C7.00569 13.029 7.23021 13.2553 7.23021 13.557C7.23021 13.8587 7.15537 14.0849 6.85601 14.2358C6.03277 14.8392 5.1347 15.2163 4.16179 15.518C6.63149 16.1214 9.10119 15.8197 11.1967 14.6129C13.8909 13.029 15.4625 10.0875 15.4625 6.46717C15.4625 6.31632 15.4625 6.16548 15.3877 6.01463Z" fill="black"/>
<mask id="mask0_4021_21909" style="mask-type:luminance" maskUnits="userSpaceOnUse" x="0" y="2" width="19" height="16">
<path fill-rule="evenodd" clip-rule="evenodd" d="M17.3335 2.46973C17.558 2.31889 17.9322 2.31889 18.1568 2.46973C18.3813 2.62058 18.531 2.92227 18.4561 3.22397C18.2316 4.27989 17.7077 5.2604 16.9593 6.09005V6.46717C16.9593 10.6155 15.1632 14.0849 11.9451 15.8951C10.2986 16.8756 8.50248 17.3281 6.63149 17.3281C4.7605 17.3281 2.73984 16.8002 0.868855 15.7442C0.569497 15.5934 0.419818 15.2163 0.494658 14.9146C0.569497 14.6129 0.943694 14.3866 1.24305 14.3866C2.51532 14.3866 3.78759 14.1603 4.91018 13.6324C2.14112 11.8976 1.39273 9.4841 1.31789 7.59852C1.24305 5.41124 1.99145 3.60108 2.06629 3.52566C2.14112 3.29939 2.36564 3.07312 2.665 3.07312C2.96436 3.07312 3.18888 3.14854 3.33856 3.37481C4.61083 5.18497 6.55665 6.31632 8.72699 6.46717C8.72699 5.2604 9.25087 4.12905 10.2238 3.37481C11.7954 1.94177 14.1154 2.01719 15.6122 3.37481C16.2109 3.14854 16.8097 2.84685 17.3335 2.46973ZM15.3877 6.01463C15.3877 5.78836 15.4625 5.48667 15.6122 5.33582C15.6871 5.22269 15.7619 5.12841 15.8367 5.03413C15.9116 4.93985 15.9864 4.84557 16.0613 4.73243C15.9864 4.77015 15.8929 4.789 15.7993 4.80786C15.7058 4.82671 15.6122 4.84557 15.5374 4.88328C15.3129 4.9587 15.0135 4.88328 14.789 4.65701C13.8909 3.60108 12.1696 3.45024 11.1219 4.43074C10.5231 4.9587 10.2238 5.71294 10.2238 6.46717V7.2214C10.2238 7.59852 9.84959 7.97564 9.47539 7.97564C7.00569 8.05106 4.68567 7.07056 3.0392 5.41124C2.59016 7.29683 2.44048 10.9926 6.78117 12.9536C7.00569 13.029 7.23021 13.2553 7.23021 13.557C7.23021 13.8587 7.15537 14.0849 6.85601 14.2358C6.03277 14.8392 5.1347 15.2163 4.16179 15.518C6.63149 16.1214 9.10119 15.8197 11.1967 14.6129C13.8909 13.029 15.4625 10.0875 15.4625 6.46717C15.4625 6.31632 15.4625 6.16548 15.3877 6.01463Z" fill="white"/>
</mask>
<g mask="url(#mask0_4021_21909)">
<rect x="0.475586" y="0.828125" width="18" height="18" fill="#6E6B7B"/>
</g>
</svg>
