<svg width="21" height="21" viewBox="0 0 21 21" fill="none" xmlns="http://www.w3.org/2000/svg">
<path fill-rule="evenodd" clip-rule="evenodd" d="M6.22103 6.31755C6.22103 3.98421 8.05436 2.15088 10.3877 2.15088C12.721 2.15088 14.5544 3.98421 14.5544 6.31755C14.5544 8.65088 12.721 10.4842 10.3877 10.4842C8.05436 10.4842 6.22103 8.65088 6.22103 6.31755ZM17.8877 16.3175V17.9842C17.8877 18.4842 17.5544 18.8175 17.0544 18.8175C16.5544 18.8175 16.221 18.4842 16.221 17.9842V16.3175C16.221 14.9009 15.1377 13.8175 13.721 13.8175H7.05436C5.6377 13.8175 4.55436 14.9009 4.55436 16.3175V17.9842C4.55436 18.4842 4.22103 18.8175 3.72103 18.8175C3.22103 18.8175 2.8877 18.4842 2.8877 17.9842V16.3175C2.8877 13.9842 4.72103 12.1509 7.05436 12.1509H13.721C16.0544 12.1509 17.8877 13.9842 17.8877 16.3175ZM10.3877 8.81755C8.97103 8.81755 7.8877 7.73421 7.8877 6.31755C7.8877 4.90088 8.97103 3.81755 10.3877 3.81755C11.8044 3.81755 12.8877 4.90088 12.8877 6.31755C12.8877 7.73421 11.8044 8.81755 10.3877 8.81755Z" fill="black"/>
<mask id="mask0_2191_42661" style="mask-type:luminance" maskUnits="userSpaceOnUse" x="2" y="2" width="16" height="17">
<path fill-rule="evenodd" clip-rule="evenodd" d="M6.22103 6.31755C6.22103 3.98421 8.05436 2.15088 10.3877 2.15088C12.721 2.15088 14.5544 3.98421 14.5544 6.31755C14.5544 8.65088 12.721 10.4842 10.3877 10.4842C8.05436 10.4842 6.22103 8.65088 6.22103 6.31755ZM17.8877 16.3175V17.9842C17.8877 18.4842 17.5544 18.8175 17.0544 18.8175C16.5544 18.8175 16.221 18.4842 16.221 17.9842V16.3175C16.221 14.9009 15.1377 13.8175 13.721 13.8175H7.05436C5.6377 13.8175 4.55436 14.9009 4.55436 16.3175V17.9842C4.55436 18.4842 4.22103 18.8175 3.72103 18.8175C3.22103 18.8175 2.8877 18.4842 2.8877 17.9842V16.3175C2.8877 13.9842 4.72103 12.1509 7.05436 12.1509H13.721C16.0544 12.1509 17.8877 13.9842 17.8877 16.3175ZM10.3877 8.81755C8.97103 8.81755 7.8877 7.73421 7.8877 6.31755C7.8877 4.90088 8.97103 3.81755 10.3877 3.81755C11.8044 3.81755 12.8877 4.90088 12.8877 6.31755C12.8877 7.73421 11.8044 8.81755 10.3877 8.81755Z" fill="white"/>
</mask>
<g mask="url(#mask0_2191_42661)">
<rect x="0.387695" y="0.484375" width="20" height="20" fill="#3A5AFF"/>
</g>
</svg>
