<svg width="147" height="69" viewBox="0 0 147 69" fill="none" xmlns="http://www.w3.org/2000/svg">
<path d="M36.3432 43.5485H49.5432C50.0639 43.5485 50.4861 43.1264 50.4861 42.6057V42.6057C50.4861 42.085 50.0639 41.6628 49.5432 41.6628H36.3545C35.9189 41.6515 35.4004 41.479 35.4004 40.72C35.4004 39.961 35.9189 39.7884 36.3545 39.7771H49.9861C50.2622 39.7771 50.4861 39.5533 50.4861 39.2771V26.5771C50.4861 25.5371 49.6403 24.6914 48.6004 24.6914H36.3432C35.2061 24.6914 33.5146 25.4447 33.5146 27.52V40.72C33.5146 42.7952 35.2061 43.5485 36.3432 43.5485ZM35.4004 30.3485V27.52C35.4004 26.761 35.9189 26.5884 36.3432 26.5771H48.6004V37.8914H35.4004V30.3485Z" fill="#3A5AFF"/>
<path d="M38.2285 29.4057C38.2285 28.885 38.6506 28.4629 39.1714 28.4629H45.7714C46.2921 28.4629 46.7142 28.885 46.7142 29.4057V29.4057C46.7142 29.9265 46.2921 30.3486 45.7714 30.3486H39.1714C38.6506 30.3486 38.2285 29.9265 38.2285 29.4057V29.4057Z" fill="#3A5AFF"/>
<path d="M70.1477 40.1201V28.4838H74.6023C75.4432 28.4838 76.142 28.6163 76.6989 28.8815C77.2595 29.1428 77.678 29.5008 77.9545 29.9553C78.2348 30.4099 78.375 30.925 78.375 31.5008C78.375 31.9743 78.2841 32.3796 78.1023 32.7167C77.9205 33.05 77.6761 33.3209 77.3693 33.5292C77.0625 33.7375 76.7197 33.8872 76.3409 33.9781V34.0917C76.7538 34.1144 77.1496 34.2413 77.5284 34.4724C77.911 34.6997 78.2235 35.0216 78.4659 35.4383C78.7083 35.855 78.8295 36.3588 78.8295 36.9497C78.8295 37.5519 78.6837 38.0936 78.392 38.5747C78.1004 39.0519 77.661 39.4288 77.0739 39.7053C76.4867 39.9819 75.7481 40.1201 74.858 40.1201H70.1477ZM72.2557 38.3588H74.5227C75.2879 38.3588 75.839 38.2129 76.1761 37.9213C76.517 37.6258 76.6875 37.247 76.6875 36.7849C76.6875 36.4402 76.6023 36.1296 76.4318 35.8531C76.2614 35.5728 76.0189 35.3531 75.7045 35.194C75.3902 35.0311 75.0152 34.9497 74.5795 34.9497H72.2557V38.3588ZM72.2557 33.4326H74.3409C74.7045 33.4326 75.0322 33.3663 75.3239 33.2338C75.6155 33.0974 75.8447 32.9061 76.0114 32.6599C76.1818 32.4099 76.267 32.1144 76.267 31.7735C76.267 31.3228 76.108 30.9516 75.7898 30.6599C75.4754 30.3682 75.0076 30.2224 74.3864 30.2224H72.2557V33.4326ZM84.3793 40.2906C83.527 40.2906 82.7884 40.1031 82.1634 39.7281C81.5384 39.3531 81.0535 38.8285 80.7088 38.1542C80.3679 37.48 80.1974 36.6921 80.1974 35.7906C80.1974 34.8891 80.3679 34.0993 80.7088 33.4213C81.0535 32.7432 81.5384 32.2167 82.1634 31.8417C82.7884 31.4667 83.527 31.2792 84.3793 31.2792C85.2315 31.2792 85.9702 31.4667 86.5952 31.8417C87.2202 32.2167 87.7031 32.7432 88.044 33.4213C88.3887 34.0993 88.5611 34.8891 88.5611 35.7906C88.5611 36.6921 88.3887 37.48 88.044 38.1542C87.7031 38.8285 87.2202 39.3531 86.5952 39.7281C85.9702 40.1031 85.2315 40.2906 84.3793 40.2906ZM84.3906 38.6428C84.8527 38.6428 85.2391 38.516 85.5497 38.2622C85.8603 38.0046 86.0914 37.6599 86.2429 37.2281C86.3982 36.7963 86.4759 36.3152 86.4759 35.7849C86.4759 35.2508 86.3982 34.7678 86.2429 34.336C86.0914 33.9004 85.8603 33.5538 85.5497 33.2963C85.2391 33.0387 84.8527 32.9099 84.3906 32.9099C83.9171 32.9099 83.5232 33.0387 83.2088 33.2963C82.8982 33.5538 82.6652 33.9004 82.5099 34.336C82.3584 34.7678 82.2827 35.2508 82.2827 35.7849C82.2827 36.3152 82.3584 36.7963 82.5099 37.2281C82.6652 37.6599 82.8982 38.0046 83.2088 38.2622C83.5232 38.516 83.9171 38.6428 84.3906 38.6428ZM94.1136 40.2906C93.2614 40.2906 92.5227 40.1031 91.8977 39.7281C91.2727 39.3531 90.7879 38.8285 90.4432 38.1542C90.1023 37.48 89.9318 36.6921 89.9318 35.7906C89.9318 34.8891 90.1023 34.0993 90.4432 33.4213C90.7879 32.7432 91.2727 32.2167 91.8977 31.8417C92.5227 31.4667 93.2614 31.2792 94.1136 31.2792C94.9659 31.2792 95.7045 31.4667 96.3295 31.8417C96.9545 32.2167 97.4375 32.7432 97.7784 33.4213C98.1231 34.0993 98.2955 34.8891 98.2955 35.7906C98.2955 36.6921 98.1231 37.48 97.7784 38.1542C97.4375 38.8285 96.9545 39.3531 96.3295 39.7281C95.7045 40.1031 94.9659 40.2906 94.1136 40.2906ZM94.125 38.6428C94.5871 38.6428 94.9735 38.516 95.2841 38.2622C95.5947 38.0046 95.8258 37.6599 95.9773 37.2281C96.1326 36.7963 96.2102 36.3152 96.2102 35.7849C96.2102 35.2508 96.1326 34.7678 95.9773 34.336C95.8258 33.9004 95.5947 33.5538 95.2841 33.2963C94.9735 33.0387 94.5871 32.9099 94.125 32.9099C93.6515 32.9099 93.2576 33.0387 92.9432 33.2963C92.6326 33.5538 92.3996 33.9004 92.2443 34.336C92.0928 34.7678 92.017 35.2508 92.017 35.7849C92.017 36.3152 92.0928 36.7963 92.2443 37.2281C92.3996 37.6599 92.6326 38.0046 92.9432 38.2622C93.2576 38.516 93.6515 38.6428 94.125 38.6428ZM101.916 37.3815L101.911 34.8985H102.24L105.376 31.3928H107.78L103.922 35.6883H103.496L101.916 37.3815ZM100.041 40.1201V28.4838H102.098V40.1201H100.041ZM105.518 40.1201L102.678 36.1485L104.064 34.6997L107.979 40.1201H105.518ZM116.048 33.6997L114.173 33.9042C114.12 33.7148 114.027 33.5368 113.895 33.3701C113.766 33.2035 113.592 33.069 113.372 32.9667C113.152 32.8644 112.884 32.8133 112.565 32.8133C112.137 32.8133 111.777 32.9061 111.486 33.0917C111.198 33.2773 111.056 33.5178 111.06 33.8133C111.056 34.0671 111.149 34.2735 111.338 34.4326C111.531 34.5917 111.849 34.7224 112.293 34.8247L113.781 35.1428C114.607 35.3209 115.221 35.6031 115.622 35.9894C116.027 36.3758 116.232 36.8815 116.236 37.5065C116.232 38.0557 116.071 38.5406 115.753 38.961C115.438 39.3777 115.001 39.7035 114.44 39.9383C113.88 40.1731 113.236 40.2906 112.509 40.2906C111.44 40.2906 110.58 40.0671 109.929 39.6201C109.277 39.1694 108.889 38.5425 108.764 37.7394L110.77 37.5463C110.861 37.9402 111.054 38.2375 111.349 38.4383C111.645 38.6391 112.029 38.7394 112.503 38.7394C112.991 38.7394 113.384 38.6391 113.679 38.4383C113.978 38.2375 114.128 37.9894 114.128 37.694C114.128 37.444 114.031 37.2375 113.838 37.0747C113.649 36.9118 113.353 36.7868 112.952 36.6997L111.463 36.3872C110.626 36.2129 110.007 35.9194 109.605 35.5065C109.204 35.0898 109.005 34.5633 109.009 33.9269C109.005 33.3891 109.151 32.9231 109.446 32.5292C109.745 32.1315 110.16 31.8247 110.69 31.6088C111.224 31.3891 111.84 31.2792 112.537 31.2792C113.56 31.2792 114.365 31.497 114.952 31.9326C115.543 32.3682 115.908 32.9572 116.048 33.6997Z" fill="#3A5AFF"/>
<rect x="0.5" y="0.620117" width="146" height="67" rx="11.5" stroke="#EBE9F1"/>
</svg>
