<svg width="481" height="140" viewBox="0 0 481 140" fill="none" xmlns="http://www.w3.org/2000/svg">
<g clip-path="url(#clip0_2306_47077)">
<rect x="0.5" y="0.680176" width="480" height="138.88" rx="5" fill="url(#paint0_linear_2306_47077)"/>
<rect x="10" y="32.1201" width="2" height="11.4398" rx="1" fill="white"/>
<rect x="27" y="25.2559" width="2" height="18.3037" rx="1" fill="white"/>
<rect x="44" y="32.1201" width="2" height="11.4398" rx="1" fill="white"/>
<rect x="61" y="32.1201" width="2" height="11.4398" rx="1" fill="white"/>
<rect x="78" y="32.1201" width="2" height="11.4398" rx="1" fill="white"/>
<rect x="95" y="32.1201" width="2" height="11.4398" rx="1" fill="white"/>
<rect x="112" y="20.6802" width="2" height="22.8796" rx="1" fill="white"/>
<rect x="129" y="32.1201" width="2" height="11.4398" rx="1" fill="white"/>
<rect x="146" y="32.1201" width="2" height="11.4398" rx="1" fill="white"/>
<rect x="163" y="32.1201" width="2" height="11.4398" rx="1" fill="white"/>
<rect x="180" y="32.1201" width="2" height="11.4398" rx="1" fill="white"/>
<rect x="197" y="20.6802" width="2" height="22.8796" rx="1" fill="white"/>
<rect x="214" y="32.1201" width="2" height="11.4398" rx="1" fill="white"/>
<rect x="231" y="32.1201" width="2" height="11.4398" rx="1" fill="white"/>
<rect x="248" y="32.1201" width="2" height="11.4398" rx="1" fill="white"/>
<rect x="265" y="32.1201" width="2" height="11.4398" rx="1" fill="white"/>
<rect x="282" y="20.6802" width="2" height="22.8796" rx="1" fill="white"/>
<rect x="299" y="32.1201" width="2" height="11.4398" rx="1" fill="white"/>
<rect x="316" y="32.1201" width="2" height="11.4398" rx="1" fill="white"/>
<rect x="333" y="32.1201" width="2" height="11.4398" rx="1" fill="white"/>
<rect x="350" y="32.1201" width="2" height="11.4398" rx="1" fill="white"/>
<rect x="367" y="20.6802" width="2" height="22.8796" rx="1" fill="white"/>
<rect x="384" y="32.1201" width="2" height="11.4398" rx="1" fill="white"/>
<rect x="401" y="32.1201" width="2" height="11.4398" rx="1" fill="white"/>
<rect x="418" y="32.1201" width="2" height="11.4398" rx="1" fill="white"/>
<rect x="435" y="32.1201" width="2" height="11.4398" rx="1" fill="white"/>
<rect x="452" y="25.2559" width="2" height="18.3037" rx="1" fill="white"/>
<rect x="469" y="32.1201" width="2" height="11.4398" rx="1" fill="white"/>
<path d="M20.2294 62.5596V61.0368L24.2692 57.0766C24.6555 56.6865 24.9775 56.3399 25.2351 56.0368C25.4927 55.7338 25.6858 55.4403 25.8146 55.1562C25.9434 54.8721 26.0078 54.569 26.0078 54.2471C26.0078 53.8796 25.9245 53.5653 25.7578 53.3039C25.5911 53.0387 25.362 52.8342 25.0703 52.6903C24.7786 52.5463 24.4472 52.4743 24.076 52.4743C23.6934 52.4743 23.3582 52.5539 23.0703 52.713C22.7824 52.8683 22.5589 53.0899 22.3999 53.3778C22.2446 53.6656 22.1669 54.0084 22.1669 54.4062H20.1612C20.1612 53.6675 20.3298 53.0255 20.6669 52.48C21.004 51.9346 21.468 51.5122 22.0589 51.213C22.6536 50.9137 23.3355 50.7641 24.1044 50.7641C24.8847 50.7641 25.5703 50.9099 26.1612 51.2016C26.7521 51.4933 27.2105 51.8929 27.5362 52.4005C27.8658 52.9081 28.0305 53.4876 28.0305 54.1391C28.0305 54.5747 27.9472 55.0028 27.7805 55.4232C27.6139 55.8437 27.3203 56.3096 26.8999 56.8209C26.4832 57.3323 25.898 57.9516 25.1442 58.6789L23.1385 60.7187V60.7982H28.2067V62.5596H20.2294ZM34.468 62.7812C33.5324 62.7812 32.7294 62.5444 32.0589 62.0709C31.3923 61.5937 30.879 60.9062 30.5192 60.0084C30.1631 59.1069 29.9851 58.0217 29.9851 56.7528C29.9889 55.4838 30.1688 54.4043 30.5249 53.5141C30.8847 52.6202 31.398 51.9384 32.0646 51.4687C32.7351 50.999 33.5362 50.7641 34.468 50.7641C35.3999 50.7641 36.201 50.999 36.8714 51.4687C37.5419 51.9384 38.0552 52.6202 38.4112 53.5141C38.7711 54.4081 38.951 55.4876 38.951 56.7528C38.951 58.0255 38.7711 59.1126 38.4112 60.0141C38.0552 60.9118 37.5419 61.5974 36.8714 62.0709C36.2048 62.5444 35.4036 62.7812 34.468 62.7812ZM34.468 61.0028C35.1953 61.0028 35.7692 60.6448 36.1896 59.9289C36.6139 59.2092 36.826 58.1505 36.826 56.7528C36.826 55.8285 36.7294 55.052 36.5362 54.4232C36.343 53.7944 36.0703 53.3209 35.718 53.0028C35.3658 52.6808 34.9491 52.5198 34.468 52.5198C33.7446 52.5198 33.1726 52.8796 32.7521 53.5993C32.3317 54.3153 32.1196 55.3664 32.1158 56.7528C32.112 57.6808 32.2048 58.4611 32.3942 59.0937C32.5874 59.7262 32.8601 60.2035 33.2124 60.5255C33.5646 60.8437 33.9832 61.0028 34.468 61.0028Z" fill="white"/>
<path d="M104.503 62.5596V61.0368L108.543 57.0766C108.929 56.6865 109.251 56.3399 109.509 56.0368C109.766 55.7338 109.959 55.4403 110.088 55.1562C110.217 54.8721 110.281 54.569 110.281 54.2471C110.281 53.8796 110.198 53.5653 110.031 53.3039C109.865 53.0387 109.635 52.8342 109.344 52.6903C109.052 52.5463 108.721 52.4743 108.349 52.4743C107.967 52.4743 107.632 52.5539 107.344 52.713C107.056 52.8683 106.832 53.0899 106.673 53.3778C106.518 53.6656 106.44 54.0084 106.44 54.4062H104.435C104.435 53.6675 104.603 53.0255 104.94 52.48C105.277 51.9346 105.741 51.5122 106.332 51.213C106.927 50.9137 107.609 50.7641 108.378 50.7641C109.158 50.7641 109.844 50.9099 110.435 51.2016C111.026 51.4933 111.484 51.8929 111.81 52.4005C112.139 52.9081 112.304 53.4876 112.304 54.1391C112.304 54.5747 112.221 55.0028 112.054 55.4232C111.887 55.8437 111.594 56.3096 111.173 56.8209C110.757 57.3323 110.171 57.9516 109.418 58.6789L107.412 60.7187V60.7982H112.48V62.5596H104.503ZM118.486 62.7187C117.728 62.7187 117.05 62.5766 116.452 62.2925C115.853 62.0046 115.378 61.6107 115.026 61.1107C114.677 60.6107 114.491 60.0387 114.469 59.3948H116.514C116.552 59.8721 116.759 60.2622 117.134 60.5653C117.509 60.8645 117.959 61.0141 118.486 61.0141C118.899 61.0141 119.266 60.9194 119.588 60.73C119.91 60.5406 120.164 60.2774 120.349 59.9403C120.535 59.6031 120.626 59.2187 120.622 58.7868C120.626 58.3474 120.533 57.9573 120.344 57.6164C120.154 57.2755 119.895 57.0084 119.565 56.8153C119.236 56.6183 118.857 56.5198 118.429 56.5198C118.08 56.516 117.738 56.5804 117.401 56.713C117.063 56.8456 116.796 57.0198 116.599 57.2357L114.696 56.9232L115.304 50.9232H122.054V52.6846H117.048L116.713 55.7698H116.781C116.997 55.516 117.302 55.3058 117.696 55.1391C118.09 54.9687 118.522 54.8834 118.991 54.8834C119.696 54.8834 120.325 55.0501 120.878 55.3834C121.431 55.713 121.866 56.1675 122.185 56.7471C122.503 57.3266 122.662 57.9895 122.662 58.7357C122.662 59.5046 122.484 60.1903 122.128 60.7925C121.776 61.391 121.285 61.8626 120.656 62.2073C120.031 62.5482 119.308 62.7187 118.486 62.7187Z" fill="white"/>
<path d="M192.663 62.7187C191.845 62.7187 191.118 62.5785 190.482 62.2982C189.849 62.0179 189.349 61.6278 188.982 61.1278C188.614 60.6278 188.419 60.0501 188.396 59.3948H190.533C190.552 59.7092 190.656 59.9838 190.845 60.2187C191.035 60.4497 191.286 60.6296 191.601 60.7584C191.915 60.8872 192.268 60.9516 192.658 60.9516C193.074 60.9516 193.444 60.8796 193.766 60.7357C194.088 60.588 194.339 60.3834 194.521 60.1221C194.703 59.8607 194.792 59.5596 194.788 59.2187C194.792 58.8664 194.701 58.5558 194.516 58.2868C194.33 58.0179 194.061 57.8077 193.709 57.6562C193.36 57.5046 192.94 57.4289 192.447 57.4289H191.419V55.8039H192.447C192.853 55.8039 193.207 55.7338 193.51 55.5937C193.817 55.4535 194.057 55.2565 194.232 55.0028C194.406 54.7452 194.491 54.4478 194.487 54.1107C194.491 53.7812 194.417 53.4952 194.266 53.2528C194.118 53.0065 193.908 52.8153 193.635 52.6789C193.366 52.5425 193.05 52.4743 192.686 52.4743C192.33 52.4743 192 52.5387 191.697 52.6675C191.394 52.7963 191.15 52.98 190.964 53.2187C190.779 53.4535 190.68 53.7338 190.669 54.0596H188.641C188.656 53.4081 188.843 52.8361 189.203 52.3437C189.567 51.8474 190.052 51.4611 190.658 51.1846C191.264 50.9043 191.944 50.7641 192.697 50.7641C193.474 50.7641 194.148 50.9099 194.72 51.2016C195.296 51.4895 195.741 51.8778 196.055 52.3664C196.37 52.855 196.527 53.3948 196.527 53.9857C196.531 54.641 196.338 55.1903 195.947 55.6334C195.561 56.0766 195.054 56.3664 194.425 56.5028V56.5937C195.243 56.7073 195.87 57.0103 196.305 57.5028C196.745 57.9914 196.963 58.5993 196.959 59.3266C196.959 59.9781 196.773 60.5615 196.402 61.0766C196.035 61.588 195.527 61.9895 194.879 62.2812C194.235 62.5728 193.497 62.7187 192.663 62.7187ZM203.21 62.7812C202.275 62.7812 201.472 62.5444 200.801 62.0709C200.134 61.5937 199.621 60.9062 199.261 60.0084C198.905 59.1069 198.727 58.0217 198.727 56.7528C198.731 55.4838 198.911 54.4043 199.267 53.5141C199.627 52.6202 200.14 51.9384 200.807 51.4687C201.477 50.999 202.278 50.7641 203.21 50.7641C204.142 50.7641 204.943 50.999 205.614 51.4687C206.284 51.9384 206.797 52.6202 207.153 53.5141C207.513 54.4081 207.693 55.4876 207.693 56.7528C207.693 58.0255 207.513 59.1126 207.153 60.0141C206.797 60.9118 206.284 61.5974 205.614 62.0709C204.947 62.5444 204.146 62.7812 203.21 62.7812ZM203.21 61.0028C203.938 61.0028 204.511 60.6448 204.932 59.9289C205.356 59.2092 205.568 58.1505 205.568 56.7528C205.568 55.8285 205.472 55.052 205.278 54.4232C205.085 53.7944 204.813 53.3209 204.46 53.0028C204.108 52.6808 203.691 52.5198 203.21 52.5198C202.487 52.5198 201.915 52.8796 201.494 53.5993C201.074 54.3153 200.862 55.3664 200.858 56.7528C200.854 57.6808 200.947 58.4611 201.136 59.0937C201.33 59.7262 201.602 60.2035 201.955 60.5255C202.307 60.8437 202.725 61.0028 203.21 61.0028Z" fill="white"/>
<path d="M277.437 62.7187C276.619 62.7187 275.891 62.5785 275.255 62.2982C274.622 62.0179 274.122 61.6278 273.755 61.1278C273.388 60.6278 273.192 60.0501 273.17 59.3948H275.306C275.325 59.7092 275.429 59.9838 275.619 60.2187C275.808 60.4497 276.06 60.6296 276.374 60.7584C276.689 60.8872 277.041 60.9516 277.431 60.9516C277.848 60.9516 278.217 60.8796 278.539 60.7357C278.861 60.588 279.113 60.3834 279.295 60.1221C279.477 59.8607 279.566 59.5596 279.562 59.2187C279.566 58.8664 279.475 58.5558 279.289 58.2868C279.103 58.0179 278.835 57.8077 278.482 57.6562C278.134 57.5046 277.713 57.4289 277.221 57.4289H276.192V55.8039H277.221C277.626 55.8039 277.98 55.7338 278.283 55.5937C278.59 55.4535 278.831 55.2565 279.005 55.0028C279.179 54.7452 279.264 54.4478 279.261 54.1107C279.264 53.7812 279.191 53.4952 279.039 53.2528C278.891 53.0065 278.681 52.8153 278.408 52.6789C278.139 52.5425 277.823 52.4743 277.46 52.4743C277.103 52.4743 276.774 52.5387 276.471 52.6675C276.168 52.7963 275.924 52.98 275.738 53.2187C275.552 53.4535 275.454 53.7338 275.442 54.0596H273.414C273.429 53.4081 273.617 52.8361 273.977 52.3437C274.34 51.8474 274.825 51.4611 275.431 51.1846C276.037 50.9043 276.717 50.7641 277.471 50.7641C278.247 50.7641 278.922 50.9099 279.494 51.2016C280.069 51.4895 280.514 51.8778 280.829 52.3664C281.143 52.855 281.3 53.3948 281.3 53.9857C281.304 54.641 281.111 55.1903 280.721 55.6334C280.335 56.0766 279.827 56.3664 279.198 56.5028V56.5937C280.016 56.7073 280.643 57.0103 281.079 57.5028C281.518 57.9914 281.736 58.5993 281.732 59.3266C281.732 59.9781 281.547 60.5615 281.175 61.0766C280.808 61.588 280.3 61.9895 279.653 62.2812C279.009 62.5728 278.27 62.7187 277.437 62.7187ZM287.728 62.7187C286.97 62.7187 286.292 62.5766 285.694 62.2925C285.095 62.0046 284.62 61.6107 284.268 61.1107C283.919 60.6107 283.734 60.0387 283.711 59.3948H285.756C285.794 59.8721 286.001 60.2622 286.376 60.5653C286.751 60.8645 287.201 61.0141 287.728 61.0141C288.141 61.0141 288.508 60.9194 288.83 60.73C289.152 60.5406 289.406 60.2774 289.592 59.9403C289.777 59.6031 289.868 59.2187 289.864 58.7868C289.868 58.3474 289.775 57.9573 289.586 57.6164C289.397 57.2755 289.137 57.0084 288.808 56.8153C288.478 56.6183 288.099 56.5198 287.671 56.5198C287.323 56.516 286.98 56.5804 286.643 56.713C286.306 56.8456 286.039 57.0198 285.842 57.2357L283.938 56.9232L284.546 50.9232H291.296V52.6846H286.29L285.955 55.7698H286.023C286.239 55.516 286.544 55.3058 286.938 55.1391C287.332 54.9687 287.764 54.8834 288.234 54.8834C288.938 54.8834 289.567 55.0501 290.12 55.3834C290.673 55.713 291.109 56.1675 291.427 56.7471C291.745 57.3266 291.904 57.9895 291.904 58.7357C291.904 59.5046 291.726 60.1903 291.37 60.7925C291.018 61.391 290.527 61.8626 289.898 62.2073C289.273 62.5482 288.55 62.7187 287.728 62.7187Z" fill="white"/>
<path d="M357.16 60.4005V58.7243L362.097 50.9232H363.495V53.3096H362.643L359.319 58.5766V58.6675H366.211V60.4005H357.16ZM362.711 62.5596V59.8891L362.734 59.1391V50.9232H364.722V62.5596H362.711ZM372.327 62.7812C371.392 62.7812 370.589 62.5444 369.918 62.0709C369.252 61.5937 368.738 60.9062 368.379 60.0084C368.022 59.1069 367.844 58.0217 367.844 56.7528C367.848 55.4838 368.028 54.4043 368.384 53.5141C368.744 52.6202 369.257 51.9384 369.924 51.4687C370.594 50.999 371.396 50.7641 372.327 50.7641C373.259 50.7641 374.06 50.999 374.731 51.4687C375.401 51.9384 375.915 52.6202 376.271 53.5141C376.63 54.4081 376.81 55.4876 376.81 56.7528C376.81 58.0255 376.63 59.1126 376.271 60.0141C375.915 60.9118 375.401 61.5974 374.731 62.0709C374.064 62.5444 373.263 62.7812 372.327 62.7812ZM372.327 61.0028C373.055 61.0028 373.629 60.6448 374.049 59.9289C374.473 59.2092 374.685 58.1505 374.685 56.7528C374.685 55.8285 374.589 55.052 374.396 54.4232C374.202 53.7944 373.93 53.3209 373.577 53.0028C373.225 52.6808 372.808 52.5198 372.327 52.5198C371.604 52.5198 371.032 52.8796 370.612 53.5993C370.191 54.3153 369.979 55.3664 369.975 56.7528C369.971 57.6808 370.064 58.4611 370.254 59.0937C370.447 59.7262 370.719 60.2035 371.072 60.5255C371.424 60.8437 371.843 61.0028 372.327 61.0028Z" fill="white"/>
<path d="M441.933 60.4005V58.7243L446.871 50.9232H448.268V53.3096H447.416L444.092 58.5766V58.6675H450.984V60.4005H441.933ZM447.484 62.5596V59.8891L447.507 59.1391V50.9232H449.496V62.5596H447.484ZM456.845 62.7187C456.088 62.7187 455.41 62.5766 454.811 62.2925C454.213 62.0046 453.737 61.6107 453.385 61.1107C453.036 60.6107 452.851 60.0387 452.828 59.3948H454.874C454.911 59.8721 455.118 60.2622 455.493 60.5653C455.868 60.8645 456.319 61.0141 456.845 61.0141C457.258 61.0141 457.625 60.9194 457.947 60.73C458.269 60.5406 458.523 60.2774 458.709 59.9403C458.894 59.6031 458.985 59.2187 458.982 58.7868C458.985 58.3474 458.893 57.9573 458.703 57.6164C458.514 57.2755 458.254 57.0084 457.925 56.8153C457.595 56.6183 457.216 56.5198 456.788 56.5198C456.44 56.516 456.097 56.5804 455.76 56.713C455.423 56.8456 455.156 57.0198 454.959 57.2357L453.055 56.9232L453.663 50.9232H460.413V52.6846H455.408L455.072 55.7698H455.141C455.357 55.516 455.661 55.3058 456.055 55.1391C456.449 54.9687 456.881 54.8834 457.351 54.8834C458.055 54.8834 458.684 55.0501 459.237 55.3834C459.79 55.713 460.226 56.1675 460.544 56.7471C460.862 57.3266 461.021 57.9895 461.021 58.7357C461.021 59.5046 460.843 60.1903 460.487 60.7925C460.135 61.391 459.644 61.8626 459.016 62.2073C458.391 62.5482 457.667 62.7187 456.845 62.7187Z" fill="white"/>
<path d="M106.814 104.56V94.3778H110.632C111.414 94.3778 112.07 94.5136 112.601 94.7854C113.134 95.0572 113.537 95.4384 113.809 95.9289C114.084 96.4161 114.222 96.9845 114.222 97.6341C114.222 98.2871 114.082 98.8538 113.804 99.3344C113.529 99.8117 113.123 100.181 112.586 100.443C112.049 100.702 111.389 100.831 110.607 100.831H107.888V99.2996H110.359C110.816 99.2996 111.19 99.2367 111.482 99.1107C111.774 98.9814 111.989 98.7942 112.128 98.5489C112.271 98.3003 112.342 97.9954 112.342 97.6341C112.342 97.2729 112.271 96.9646 112.128 96.7094C111.986 96.4509 111.769 96.2554 111.477 96.1228C111.186 95.9869 110.809 95.9189 110.349 95.9189H108.658V104.56H106.814ZM112.074 99.9459L114.594 104.56H112.536L110.06 99.9459H112.074ZM119.061 104.709C118.316 104.709 117.669 104.545 117.122 104.217C116.576 103.888 116.151 103.429 115.85 102.839C115.551 102.249 115.402 101.56 115.402 100.771C115.402 99.9824 115.551 99.2913 115.85 98.6981C116.151 98.1048 116.576 97.6441 117.122 97.316C117.669 96.9878 118.316 96.8238 119.061 96.8238C119.807 96.8238 120.453 96.9878 121 97.316C121.547 97.6441 121.97 98.1048 122.268 98.6981C122.57 99.2913 122.72 99.9824 122.72 100.771C122.72 101.56 122.57 102.249 122.268 102.839C121.97 103.429 121.547 103.888 121 104.217C120.453 104.545 119.807 104.709 119.061 104.709ZM119.071 103.267C119.476 103.267 119.814 103.156 120.085 102.934C120.357 102.708 120.559 102.407 120.692 102.029C120.828 101.651 120.896 101.23 120.896 100.766C120.896 100.299 120.828 99.8763 120.692 99.4985C120.559 99.1173 120.357 98.8141 120.085 98.5887C119.814 98.3633 119.476 98.2506 119.071 98.2506C118.657 98.2506 118.312 98.3633 118.037 98.5887C117.765 98.8141 117.562 99.1173 117.426 99.4985C117.293 99.8763 117.227 100.299 117.227 100.766C117.227 101.23 117.293 101.651 117.426 102.029C117.562 102.407 117.765 102.708 118.037 102.934C118.312 103.156 118.657 103.267 119.071 103.267ZM129.115 101.348V96.9232H130.915V104.56H129.17V103.202H129.09C128.918 103.63 128.635 103.98 128.24 104.251C127.849 104.523 127.367 104.659 126.793 104.659C126.293 104.659 125.85 104.548 125.466 104.326C125.085 104.101 124.787 103.774 124.571 103.347C124.356 102.916 124.248 102.395 124.248 101.785V96.9232H126.048V101.507C126.048 101.991 126.18 102.375 126.445 102.66C126.711 102.945 127.059 103.088 127.489 103.088C127.755 103.088 128.011 103.023 128.26 102.894C128.509 102.765 128.712 102.573 128.872 102.317C129.034 102.059 129.115 101.736 129.115 101.348ZM134.565 100.085V104.56H132.766V96.9232H134.486V98.2208H134.575C134.751 97.7932 135.031 97.4535 135.415 97.2016C135.803 96.9497 136.282 96.8238 136.852 96.8238C137.379 96.8238 137.838 96.9365 138.229 97.1618C138.624 97.3872 138.929 97.7137 139.144 98.1412C139.363 98.5688 139.471 99.0875 139.467 99.6974V104.56H137.668V99.9758C137.668 99.4653 137.535 99.066 137.27 98.7776C137.008 98.4893 136.645 98.3451 136.181 98.3451C135.866 98.3451 135.586 98.4147 135.341 98.5539C135.099 98.6898 134.908 98.887 134.769 99.1455C134.633 99.404 134.565 99.7172 134.565 100.085ZM144.131 104.694C143.531 104.694 142.994 104.54 142.52 104.231C142.046 103.923 141.671 103.476 141.396 102.889C141.121 102.302 140.984 101.59 140.984 100.751C140.984 99.9028 141.123 99.1869 141.401 98.6036C141.683 98.017 142.062 97.5745 142.54 97.2762C143.017 96.9746 143.549 96.8238 144.136 96.8238C144.583 96.8238 144.951 96.9 145.239 97.0525C145.528 97.2016 145.756 97.3822 145.925 97.5944C146.094 97.8032 146.225 98.0004 146.318 98.186H146.393V94.3778H148.197V104.56H146.427V103.356H146.318C146.225 103.542 146.091 103.739 145.915 103.948C145.74 104.154 145.508 104.329 145.219 104.475C144.931 104.621 144.568 104.694 144.131 104.694ZM144.633 103.217C145.014 103.217 145.339 103.114 145.607 102.909C145.876 102.7 146.079 102.41 146.219 102.039C146.358 101.668 146.427 101.235 146.427 100.741C146.427 100.248 146.358 99.8183 146.219 99.4537C146.083 99.0892 145.881 98.8058 145.612 98.6036C145.347 98.4014 145.021 98.3003 144.633 98.3003C144.232 98.3003 143.897 98.4047 143.628 98.6135C143.36 98.8224 143.158 99.1107 143.022 99.4786C142.886 99.8465 142.818 100.267 142.818 100.741C142.818 101.219 142.886 101.645 143.022 102.019C143.161 102.39 143.365 102.684 143.633 102.899C143.905 103.111 144.238 103.217 144.633 103.217Z" fill="white"/>
<path d="M105.81 107.344H149.197V108.298H105.81V107.344Z" fill="white"/>
<path d="M163.868 94.3778V104.56H162.024V96.1725H161.964L159.583 97.6938V96.0035L162.113 94.3778H163.868ZM170.63 93.9005L167.349 106.091H165.773L169.054 93.9005H170.63ZM171.574 102.67V101.204L175.895 94.3778H177.118V96.4658H176.372L173.464 101.074V101.154H179.494V102.67H171.574ZM176.432 104.56V102.223L176.452 101.567V94.3778H178.192V104.56H176.432Z" fill="white"/>
<g filter="url(#filter0_d_2306_47077)">
<path d="M220.5 92.7024C220.5 85.4438 226.384 79.5596 233.643 79.5596H247.357C254.616 79.5596 260.5 85.4438 260.5 92.7024V106.417C260.5 113.675 254.616 119.56 247.357 119.56H233.643C226.384 119.56 220.5 113.675 220.5 106.417V92.7024Z" stroke="white" stroke-width="2"/>
</g>
<path d="M260.5 106.417C260.5 113.675 254.616 119.56 247.357 119.56H233.643C226.384 119.56 220.5 113.675 220.5 106.417V92.7024C220.5 85.4438 226.384 79.5596 233.643 79.5596" stroke="url(#paint1_linear_2306_47077)" stroke-width="2"/>
<mask id="mask0_2306_47077" style="mask-type:alpha" maskUnits="userSpaceOnUse" x="228" y="87" width="25" height="25">
<path fill-rule="evenodd" clip-rule="evenodd" d="M228.5 99.5596C228.5 92.9322 233.873 87.5596 240.5 87.5596C247.127 87.5596 252.5 92.9322 252.5 99.5596C252.5 106.187 247.127 111.56 240.5 111.56C233.873 111.56 228.5 106.187 228.5 99.5596ZM237.5 95.5596C237.5 95.0073 237.948 94.5596 238.5 94.5596C239.052 94.5596 239.5 95.0073 239.5 95.5596V103.56C239.5 104.112 239.052 104.56 238.5 104.56C237.948 104.56 237.5 104.112 237.5 103.56V95.5596ZM242.5 94.5596C241.948 94.5596 241.5 95.0073 241.5 95.5596V103.56C241.5 104.112 241.948 104.56 242.5 104.56C243.052 104.56 243.5 104.112 243.5 103.56V95.5596C243.5 95.0073 243.052 94.5596 242.5 94.5596Z" fill="white"/>
</mask>
<g mask="url(#mask0_2306_47077)">
<rect x="228.5" y="87.5596" width="24" height="24" fill="white"/>
</g>
<path d="M302.002 104.56V94.3778H305.82C306.603 94.3778 307.259 94.5136 307.789 94.7854C308.323 95.0572 308.726 95.4384 308.997 95.9289C309.272 96.4161 309.41 96.9845 309.41 97.6341C309.41 98.2871 309.271 98.8538 308.992 99.3344C308.717 99.8117 308.311 100.181 307.774 100.443C307.237 100.702 306.578 100.831 305.796 100.831H303.076V99.2996H305.547C306.004 99.2996 306.379 99.2367 306.671 99.1107C306.962 98.9814 307.178 98.7942 307.317 98.5489C307.459 98.3003 307.531 97.9954 307.531 97.6341C307.531 97.2729 307.459 96.9646 307.317 96.7094C307.174 96.4509 306.957 96.2554 306.666 96.1228C306.374 95.9869 305.998 95.9189 305.537 95.9189H303.847V104.56H302.002ZM307.262 99.9459L309.783 104.56H307.725L305.249 99.9459H307.262ZM314.3 104.709C313.534 104.709 312.873 104.55 312.316 104.231C311.762 103.91 311.336 103.456 311.038 102.869C310.74 102.279 310.591 101.585 310.591 100.786C310.591 100.001 310.74 99.3112 311.038 98.718C311.34 98.1214 311.761 97.6573 312.301 97.3259C312.841 96.9912 313.476 96.8238 314.205 96.8238C314.676 96.8238 315.12 96.9 315.537 97.0525C315.958 97.2016 316.33 97.4336 316.651 97.7485C316.976 98.0634 317.231 98.4644 317.417 98.9516C317.602 99.4355 317.695 100.012 317.695 100.682V101.234H311.436V100.021H315.97C315.967 99.6758 315.892 99.3692 315.746 99.1008C315.6 98.829 315.397 98.6152 315.135 98.4594C314.876 98.3037 314.575 98.2258 314.23 98.2258C313.862 98.2258 313.539 98.3153 313.26 98.4942C312.982 98.6699 312.765 98.9019 312.609 99.1903C312.457 99.4753 312.379 99.7885 312.376 100.13V101.189C312.376 101.633 312.457 102.014 312.619 102.332C312.782 102.647 313.009 102.889 313.3 103.058C313.592 103.224 313.933 103.307 314.324 103.307C314.586 103.307 314.823 103.27 315.035 103.197C315.247 103.121 315.431 103.01 315.587 102.864C315.743 102.718 315.861 102.538 315.94 102.322L317.621 102.511C317.515 102.955 317.312 103.343 317.014 103.675C316.719 104.003 316.341 104.258 315.881 104.44C315.42 104.619 314.893 104.709 314.3 104.709ZM323.846 99.578V101.06H319.262V99.578H323.846ZM325.739 104.56V96.9232H327.484V98.1959H327.564C327.703 97.7551 327.942 97.4154 328.28 97.1768C328.621 96.9348 329.01 96.8138 329.448 96.8138C329.547 96.8138 329.658 96.8188 329.781 96.8287C329.907 96.8354 330.011 96.847 330.094 96.8635V98.5191C330.018 98.4926 329.897 98.4694 329.731 98.4495C329.569 98.4263 329.412 98.4147 329.259 98.4147C328.931 98.4147 328.636 98.4859 328.374 98.6285C328.116 98.7677 327.912 98.9616 327.763 99.2101C327.613 99.4587 327.539 99.7454 327.539 100.07V104.56H325.739ZM334.356 104.709C333.591 104.709 332.929 104.55 332.373 104.231C331.819 103.91 331.393 103.456 331.095 102.869C330.797 102.279 330.647 101.585 330.647 100.786C330.647 100.001 330.797 99.3112 331.095 98.718C331.396 98.1214 331.817 97.6573 332.358 97.3259C332.898 96.9912 333.533 96.8238 334.262 96.8238C334.732 96.8238 335.176 96.9 335.594 97.0525C336.015 97.2016 336.386 97.4336 336.708 97.7485C337.033 98.0634 337.288 98.4644 337.473 98.9516C337.659 99.4355 337.752 100.012 337.752 100.682V101.234H331.493V100.021H336.027C336.023 99.6758 335.949 99.3692 335.803 99.1008C335.657 98.829 335.453 98.6152 335.191 98.4594C334.933 98.3037 334.631 98.2258 334.287 98.2258C333.919 98.2258 333.596 98.3153 333.317 98.4942C333.039 98.6699 332.822 98.9019 332.666 99.1903C332.513 99.4753 332.435 99.7885 332.432 100.13V101.189C332.432 101.633 332.513 102.014 332.676 102.332C332.838 102.647 333.065 102.889 333.357 103.058C333.649 103.224 333.99 103.307 334.381 103.307C334.643 103.307 334.88 103.27 335.092 103.197C335.304 103.121 335.488 103.01 335.644 102.864C335.8 102.718 335.917 102.538 335.997 102.322L337.677 102.511C337.571 102.955 337.369 103.343 337.071 103.675C336.776 104.003 336.398 104.258 335.937 104.44C335.476 104.619 334.949 104.709 334.356 104.709ZM342.605 104.709C341.843 104.709 341.188 104.541 340.642 104.207C340.098 103.872 339.679 103.409 339.384 102.82C339.092 102.226 338.946 101.543 338.946 100.771C338.946 99.9956 339.095 99.3112 339.394 98.718C339.692 98.1214 340.113 97.6573 340.656 97.3259C341.203 96.9912 341.85 96.8238 342.595 96.8238C343.215 96.8238 343.764 96.9381 344.241 97.1668C344.722 97.3922 345.104 97.712 345.389 98.1263C345.674 98.5373 345.837 99.0179 345.877 99.5681H344.156C344.087 99.2002 343.921 98.8936 343.659 98.6483C343.401 98.3998 343.054 98.2755 342.62 98.2755C342.252 98.2755 341.929 98.3749 341.651 98.5738C341.372 98.7693 341.155 99.051 340.999 99.4189C340.847 99.7868 340.771 100.228 340.771 100.741C340.771 101.262 340.847 101.709 340.999 102.084C341.152 102.455 341.366 102.742 341.641 102.944C341.919 103.143 342.246 103.242 342.62 103.242C342.885 103.242 343.122 103.192 343.331 103.093C343.543 102.99 343.721 102.843 343.863 102.65C344.006 102.458 344.103 102.225 344.156 101.949H345.877C345.834 102.49 345.674 102.969 345.399 103.386C345.124 103.801 344.75 104.125 344.276 104.361C343.802 104.593 343.245 104.709 342.605 104.709ZM350.685 104.709C349.94 104.709 349.293 104.545 348.746 104.217C348.2 103.888 347.775 103.429 347.474 102.839C347.175 102.249 347.026 101.56 347.026 100.771C347.026 99.9824 347.175 99.2913 347.474 98.6981C347.775 98.1048 348.2 97.6441 348.746 97.316C349.293 96.9878 349.94 96.8238 350.685 96.8238C351.431 96.8238 352.077 96.9878 352.624 97.316C353.171 97.6441 353.594 98.1048 353.892 98.6981C354.194 99.2913 354.344 99.9824 354.344 100.771C354.344 101.56 354.194 102.249 353.892 102.839C353.594 103.429 353.171 103.888 352.624 104.217C352.077 104.545 351.431 104.709 350.685 104.709ZM350.695 103.267C351.1 103.267 351.438 103.156 351.71 102.934C351.981 102.708 352.183 102.407 352.316 102.029C352.452 101.651 352.52 101.23 352.52 100.766C352.52 100.299 352.452 99.8763 352.316 99.4985C352.183 99.1173 351.981 98.8141 351.71 98.5887C351.438 98.3633 351.1 98.2506 350.695 98.2506C350.281 98.2506 349.936 98.3633 349.661 98.5887C349.389 98.8141 349.186 99.1173 349.05 99.4985C348.917 99.8763 348.851 100.299 348.851 100.766C348.851 101.23 348.917 101.651 349.05 102.029C349.186 102.407 349.389 102.708 349.661 102.934C349.936 103.156 350.281 103.267 350.695 103.267ZM355.872 104.56V96.9232H357.617V98.1959H357.697C357.836 97.7551 358.074 97.4154 358.412 97.1768C358.754 96.9348 359.143 96.8138 359.581 96.8138C359.68 96.8138 359.791 96.8188 359.914 96.8287C360.04 96.8354 360.144 96.847 360.227 96.8635V98.5191C360.151 98.4926 360.03 98.4694 359.864 98.4495C359.702 98.4263 359.544 98.4147 359.392 98.4147C359.064 98.4147 358.769 98.4859 358.507 98.6285C358.248 98.7677 358.045 98.9616 357.895 99.2101C357.746 99.4587 357.672 99.7454 357.672 100.07V104.56H355.872ZM363.942 104.694C363.342 104.694 362.805 104.54 362.331 104.231C361.857 103.923 361.483 103.476 361.208 102.889C360.933 102.302 360.795 101.59 360.795 100.751C360.795 99.9028 360.934 99.1869 361.213 98.6036C361.494 98.017 361.874 97.5745 362.351 97.2762C362.828 96.9746 363.36 96.8238 363.947 96.8238C364.395 96.8238 364.762 96.9 365.051 97.0525C365.339 97.2016 365.568 97.3822 365.737 97.5944C365.906 97.8032 366.037 98.0004 366.13 98.186H366.204V94.3778H368.009V104.56H366.239V103.356H366.13C366.037 103.542 365.903 103.739 365.727 103.948C365.551 104.154 365.319 104.329 365.031 104.475C364.743 104.621 364.38 104.694 363.942 104.694ZM364.444 103.217C364.825 103.217 365.15 103.114 365.419 102.909C365.687 102.7 365.891 102.41 366.03 102.039C366.169 101.668 366.239 101.235 366.239 100.741C366.239 100.248 366.169 99.8183 366.03 99.4537C365.894 99.0892 365.692 98.8058 365.424 98.6036C365.158 98.4014 364.832 98.3003 364.444 98.3003C364.043 98.3003 363.708 98.4047 363.44 98.6135C363.172 98.8224 362.969 99.1107 362.833 99.4786C362.698 99.8465 362.63 100.267 362.63 100.741C362.63 101.219 362.698 101.645 362.833 102.019C362.973 102.39 363.176 102.684 363.445 102.899C363.717 103.111 364.05 103.217 364.444 103.217Z" fill="white"/>
<path d="M300.998 107.344H369.008V108.298H300.998V107.344Z" fill="white"/>
<path d="M403.991 104.56H400.54V94.3778H404.06C405.071 94.3778 405.94 94.5816 406.665 94.9893C407.395 95.3936 407.955 95.9753 408.346 96.7343C408.737 97.4933 408.932 98.4014 408.932 99.4587C408.932 100.519 408.735 101.431 408.341 102.193C407.95 102.955 407.385 103.54 406.646 103.948C405.91 104.356 405.025 104.56 403.991 104.56ZM402.385 102.964H403.901C404.61 102.964 405.202 102.834 405.676 102.576C406.15 102.314 406.506 101.925 406.745 101.408C406.984 100.887 407.103 100.238 407.103 99.4587C407.103 98.6798 406.984 98.0335 406.745 97.5198C406.506 97.0028 406.153 96.6166 405.686 96.3614C405.222 96.1029 404.645 95.9736 403.956 95.9736H402.385V102.964ZM413.986 104.709C413.22 104.709 412.559 104.55 412.002 104.231C411.449 103.91 411.023 103.456 410.725 102.869C410.426 102.279 410.277 101.585 410.277 100.786C410.277 100.001 410.426 99.3112 410.725 98.718C411.026 98.1214 411.447 97.6573 411.987 97.3259C412.528 96.9912 413.162 96.8238 413.892 96.8238C414.362 96.8238 414.806 96.9 415.224 97.0525C415.645 97.2016 416.016 97.4336 416.338 97.7485C416.662 98.0634 416.918 98.4644 417.103 98.9516C417.289 99.4355 417.382 100.012 417.382 100.682V101.234H411.122V100.021H415.657C415.653 99.6758 415.579 99.3692 415.433 99.1008C415.287 98.829 415.083 98.6152 414.821 98.4594C414.563 98.3037 414.261 98.2258 413.916 98.2258C413.549 98.2258 413.225 98.3153 412.947 98.4942C412.669 98.6699 412.451 98.9019 412.296 99.1903C412.143 99.4753 412.065 99.7885 412.062 100.13V101.189C412.062 101.633 412.143 102.014 412.306 102.332C412.468 102.647 412.695 102.889 412.987 103.058C413.278 103.224 413.62 103.307 414.011 103.307C414.273 103.307 414.51 103.27 414.722 103.197C414.934 103.121 415.118 103.01 415.274 102.864C415.429 102.718 415.547 102.538 415.627 102.322L417.307 102.511C417.201 102.955 416.999 103.343 416.701 103.675C416.406 104.003 416.028 104.258 415.567 104.44C415.106 104.619 414.579 104.709 413.986 104.709ZM420.704 94.3778V104.56H418.904V94.3778H420.704ZM425.935 104.709C425.17 104.709 424.508 104.55 423.952 104.231C423.398 103.91 422.972 103.456 422.674 102.869C422.376 102.279 422.226 101.585 422.226 100.786C422.226 100.001 422.376 99.3112 422.674 98.718C422.976 98.1214 423.396 97.6573 423.937 97.3259C424.477 96.9912 425.112 96.8238 425.841 96.8238C426.311 96.8238 426.756 96.9 427.173 97.0525C427.594 97.2016 427.965 97.4336 428.287 97.7485C428.612 98.0634 428.867 98.4644 429.052 98.9516C429.238 99.4355 429.331 100.012 429.331 100.682V101.234H423.072V100.021H427.606C427.602 99.6758 427.528 99.3692 427.382 99.1008C427.236 98.829 427.032 98.6152 426.771 98.4594C426.512 98.3037 426.21 98.2258 425.866 98.2258C425.498 98.2258 425.175 98.3153 424.896 98.4942C424.618 98.6699 424.401 98.9019 424.245 99.1903C424.092 99.4753 424.015 99.7885 424.011 100.13V101.189C424.011 101.633 424.092 102.014 424.255 102.332C424.417 102.647 424.644 102.889 424.936 103.058C425.228 103.224 425.569 103.307 425.96 103.307C426.222 103.307 426.459 103.27 426.671 103.197C426.883 103.121 427.067 103.01 427.223 102.864C427.379 102.718 427.496 102.538 427.576 102.322L429.256 102.511C429.15 102.955 428.948 103.343 428.65 103.675C428.355 104.003 427.977 104.258 427.516 104.44C427.056 104.619 426.529 104.709 425.935 104.709ZM434.667 96.9232V98.3153H430.277V96.9232H434.667ZM431.361 95.0937H433.16V102.263C433.16 102.505 433.197 102.69 433.27 102.82C433.346 102.945 433.445 103.032 433.568 103.078C433.691 103.124 433.826 103.148 433.976 103.148C434.088 103.148 434.191 103.139 434.284 103.123C434.38 103.106 434.453 103.091 434.503 103.078L434.806 104.485C434.71 104.518 434.572 104.555 434.393 104.594C434.218 104.634 434.002 104.657 433.747 104.664C433.296 104.677 432.89 104.609 432.529 104.46C432.168 104.308 431.881 104.072 431.669 103.754C431.46 103.436 431.357 103.038 431.361 102.561V95.0937ZM439.47 104.709C438.705 104.709 438.044 104.55 437.487 104.231C436.933 103.91 436.507 103.456 436.209 102.869C435.911 102.279 435.762 101.585 435.762 100.786C435.762 100.001 435.911 99.3112 436.209 98.718C436.511 98.1214 436.932 97.6573 437.472 97.3259C438.012 96.9912 438.647 96.8238 439.376 96.8238C439.847 96.8238 440.291 96.9 440.708 97.0525C441.129 97.2016 441.501 97.4336 441.822 97.7485C442.147 98.0634 442.402 98.4644 442.588 98.9516C442.773 99.4355 442.866 100.012 442.866 100.682V101.234H436.607V100.021H441.141C441.138 99.6758 441.063 99.3692 440.917 99.1008C440.771 98.829 440.568 98.6152 440.306 98.4594C440.047 98.3037 439.746 98.2258 439.401 98.2258C439.033 98.2258 438.71 98.3153 438.431 98.4942C438.153 98.6699 437.936 98.9019 437.78 99.1903C437.628 99.4753 437.55 99.7885 437.546 100.13V101.189C437.546 101.633 437.628 102.014 437.79 102.332C437.952 102.647 438.179 102.889 438.471 103.058C438.763 103.224 439.104 103.307 439.495 103.307C439.757 103.307 439.994 103.27 440.206 103.197C440.418 103.121 440.602 103.01 440.758 102.864C440.914 102.718 441.032 102.538 441.111 102.322L442.791 102.511C442.685 102.955 442.483 103.343 442.185 103.675C441.89 104.003 441.512 104.258 441.051 104.44C440.591 104.619 440.064 104.709 439.47 104.709Z" fill="white"/>
<path d="M399.536 107.344H443.463V108.298H399.536V107.344Z" fill="white"/>
</g>
<rect x="1" y="1.18018" width="479" height="137.88" rx="4.5" stroke="black" stroke-opacity="0.1"/>
<defs>
<filter id="filter0_d_2306_47077" x="215.5" y="76.5596" width="50" height="50" filterUnits="userSpaceOnUse" color-interpolation-filters="sRGB">
<feFlood flood-opacity="0" result="BackgroundImageFix"/>
<feColorMatrix in="SourceAlpha" type="matrix" values="0 0 0 0 0 0 0 0 0 0 0 0 0 0 0 0 0 0 127 0" result="hardAlpha"/>
<feOffset dy="2"/>
<feGaussianBlur stdDeviation="2"/>
<feColorMatrix type="matrix" values="0 0 0 0 1 0 0 0 0 1 0 0 0 0 1 0 0 0 0.200393 0"/>
<feBlend mode="normal" in2="BackgroundImageFix" result="effect1_dropShadow_2306_47077"/>
<feBlend mode="normal" in="SourceGraphic" in2="effect1_dropShadow_2306_47077" result="shape"/>
</filter>
<linearGradient id="paint0_linear_2306_47077" x1="-227.524" y1="68.3874" x2="-156.729" y2="319.331" gradientUnits="userSpaceOnUse">
<stop stop-color="#A2D249"/>
<stop offset="1" stop-color="#388D44"/>
</linearGradient>
<linearGradient id="paint1_linear_2306_47077" x1="200.5" y1="99.5596" x2="240.5" y2="139.56" gradientUnits="userSpaceOnUse">
<stop stop-color="#FF4B4B"/>
<stop offset="1" stop-color="#F73467"/>
</linearGradient>
<clipPath id="clip0_2306_47077">
<rect x="0.5" y="0.680176" width="480" height="138.88" rx="5" fill="white"/>
</clipPath>
</defs>
</svg>
