<svg width="136" height="69" viewBox="0 0 136 69" fill="none" xmlns="http://www.w3.org/2000/svg">
<path d="M44 41.1196C47.771 41.1196 49.657 41.1196 50.828 39.9476C52 38.7766 52 36.8906 52 33.1196C52 29.3486 52 27.4626 50.828 26.2916C49.657 25.1196 47.771 25.1196 44 25.1196H40C36.229 25.1196 34.343 25.1196 33.172 26.2916C32 27.4626 32 29.3486 32 33.1196C32 36.8906 32 38.7766 33.172 39.9476C33.825 40.6016 34.7 40.8906 36 41.0176" stroke="#3A5AFF" stroke-width="2.1" stroke-linecap="round" stroke-linejoin="round"/>
<path d="M45.207 28.9124C45.1139 28.8192 45.0032 28.7453 44.8815 28.695C44.7597 28.6446 44.6292 28.6189 44.4974 28.6191C44.3656 28.6194 44.2352 28.6457 44.1136 28.6966C43.9921 28.7474 43.8817 28.8218 43.789 28.9154L39.239 33.5124C38.9635 33.7906 38.7758 34.1435 38.699 34.5274L38.519 35.4234C38.4866 35.5849 38.4947 35.7519 38.5424 35.9095C38.5901 36.0672 38.6759 36.2106 38.7924 36.327C38.9089 36.4435 39.0523 36.5294 39.2099 36.5771C39.3675 36.6248 39.5345 36.6328 39.696 36.6004L40.592 36.4204C40.9759 36.3437 41.3288 36.1559 41.607 35.8804L46.204 31.3304C46.2976 31.2377 46.372 31.1274 46.4229 31.0058C46.4737 30.8843 46.5 30.7538 46.5003 30.6221C46.5006 30.4903 46.4748 30.3598 46.4245 30.238C46.3741 30.1162 46.3002 30.0056 46.207 29.9124L45.207 28.9124V28.9124Z" stroke="#3A5AFF" stroke-width="2" stroke-linecap="round" stroke-linejoin="round"/>
<path d="M42.105 31.2246L43.8949 33.0146" stroke="#3A5AFF" stroke-width="2"/>
<path d="M44.0002 41.1196C42.7642 41.1196 41.4022 41.6196 40.1592 42.2646C38.1612 43.3016 37.1622 43.8206 36.6702 43.4896C36.1782 43.1596 36.2712 42.1346 36.4582 40.0856L36.5002 39.6196" stroke="#3A5AFF" stroke-width="2.1" stroke-linecap="round"/>
<rect x="46" y="15.1196" width="25" height="16" rx="8" fill="#FF3742"/>
<path d="M54.7813 19.0103C55.1927 19.0103 55.5885 19.0793 55.9688 19.2173C56.3516 19.3553 56.6927 19.5754 56.9922 19.8774C57.2943 20.1795 57.5326 20.5806 57.707 21.0806C57.8841 21.578 57.974 22.1886 57.9766 22.9126C57.9766 23.5923 57.8997 24.1991 57.7461 24.7329C57.5951 25.2642 57.3776 25.716 57.0938 26.0884C56.8099 26.4608 56.4674 26.7446 56.0664 26.9399C55.6654 27.1326 55.2174 27.229 54.7227 27.229C54.1888 27.229 53.7174 27.1261 53.3086 26.9204C52.8997 26.7121 52.5703 26.4295 52.3203 26.0728C52.0729 25.7134 51.9232 25.3097 51.8711 24.8618H53.5391C53.6042 25.1535 53.7409 25.38 53.9492 25.5415C54.1576 25.7004 54.4154 25.7798 54.7227 25.7798C55.2435 25.7798 55.6393 25.5532 55.9102 25.1001C56.181 24.6444 56.3177 24.0207 56.3203 23.229H56.2656C56.1458 23.4634 55.9844 23.6652 55.7813 23.8345C55.5781 24.0011 55.3451 24.13 55.082 24.2212C54.8216 24.3123 54.5443 24.3579 54.25 24.3579C53.7786 24.3579 53.3581 24.2472 52.9883 24.0259C52.6185 23.8045 52.3268 23.4998 52.1133 23.1118C51.8997 22.7238 51.793 22.2811 51.793 21.7837C51.7904 21.2472 51.9141 20.7694 52.1641 20.3501C52.4141 19.9308 52.763 19.6027 53.2109 19.3657C53.6615 19.1261 54.1849 19.0076 54.7813 19.0103ZM54.793 20.3384C54.5299 20.3384 54.2956 20.4009 54.0898 20.5259C53.8867 20.6509 53.7253 20.8188 53.6055 21.0298C53.4883 21.2407 53.431 21.4764 53.4336 21.7368C53.4336 21.9998 53.4909 22.2368 53.6055 22.4478C53.7227 22.6561 53.8815 22.8228 54.082 22.9478C54.2852 23.0701 54.5169 23.1313 54.7773 23.1313C54.9727 23.1313 55.1536 23.0949 55.3203 23.022C55.487 22.9491 55.6315 22.8488 55.7539 22.7212C55.8789 22.591 55.9766 22.4412 56.0469 22.272C56.1172 22.1027 56.1523 21.923 56.1523 21.7329C56.1497 21.4803 56.0898 21.2485 55.9727 21.0376C55.8555 20.8267 55.694 20.6574 55.4883 20.5298C55.2826 20.4022 55.0508 20.3384 54.793 20.3384ZM62.043 19.0103C62.4544 19.0103 62.8503 19.0793 63.2305 19.2173C63.6133 19.3553 63.9544 19.5754 64.2539 19.8774C64.556 20.1795 64.7943 20.5806 64.9688 21.0806C65.1458 21.578 65.2357 22.1886 65.2383 22.9126C65.2383 23.5923 65.1615 24.1991 65.0078 24.7329C64.8568 25.2642 64.6393 25.716 64.3555 26.0884C64.0716 26.4608 63.7292 26.7446 63.3281 26.9399C62.9271 27.1326 62.4792 27.229 61.9844 27.229C61.4505 27.229 60.9792 27.1261 60.5703 26.9204C60.1615 26.7121 59.832 26.4295 59.582 26.0728C59.3346 25.7134 59.1849 25.3097 59.1328 24.8618H60.8008C60.8659 25.1535 61.0026 25.38 61.2109 25.5415C61.4193 25.7004 61.6771 25.7798 61.9844 25.7798C62.5052 25.7798 62.901 25.5532 63.1719 25.1001C63.4427 24.6444 63.5794 24.0207 63.582 23.229H63.5273C63.4076 23.4634 63.2461 23.6652 63.043 23.8345C62.8398 24.0011 62.6068 24.13 62.3438 24.2212C62.0833 24.3123 61.806 24.3579 61.5117 24.3579C61.0404 24.3579 60.6198 24.2472 60.25 24.0259C59.8802 23.8045 59.5885 23.4998 59.375 23.1118C59.1615 22.7238 59.0547 22.2811 59.0547 21.7837C59.0521 21.2472 59.1758 20.7694 59.4258 20.3501C59.6758 19.9308 60.0247 19.6027 60.4727 19.3657C60.9232 19.1261 61.4466 19.0076 62.043 19.0103ZM62.0547 20.3384C61.7917 20.3384 61.5573 20.4009 61.3516 20.5259C61.1484 20.6509 60.987 20.8188 60.8672 21.0298C60.75 21.2407 60.6927 21.4764 60.6953 21.7368C60.6953 21.9998 60.7526 22.2368 60.8672 22.4478C60.9844 22.6561 61.1432 22.8228 61.3438 22.9478C61.5469 23.0701 61.7786 23.1313 62.0391 23.1313C62.2344 23.1313 62.4154 23.0949 62.582 23.022C62.7487 22.9491 62.8932 22.8488 63.0156 22.7212C63.1406 22.591 63.2383 22.4412 63.3086 22.272C63.3789 22.1027 63.4141 21.923 63.4141 21.7329C63.4115 21.4803 63.3516 21.2485 63.2344 21.0376C63.1172 20.8267 62.9557 20.6574 62.75 20.5298C62.5443 20.4022 62.3125 20.3384 62.0547 20.3384Z" fill="white"/>
<path d="M80.108 32.4094H77.983C77.9223 32.0609 77.8106 31.7522 77.6477 31.4833C77.4848 31.2105 77.2822 30.9795 77.0398 30.7901C76.7973 30.6007 76.5208 30.4586 76.2102 30.3639C75.9034 30.2655 75.572 30.2162 75.2159 30.2162C74.5833 30.2162 74.0227 30.3753 73.5341 30.6935C73.0455 31.0079 72.6629 31.47 72.3864 32.0799C72.1098 32.6859 71.9716 33.4264 71.9716 34.3014C71.9716 35.1916 72.1098 35.9416 72.3864 36.5514C72.6667 37.1575 73.0492 37.6158 73.5341 37.9264C74.0227 38.2333 74.5814 38.3867 75.2102 38.3867C75.5587 38.3867 75.8845 38.3412 76.1875 38.2503C76.4943 38.1556 76.7689 38.0174 77.0114 37.8355C77.2576 37.6537 77.464 37.4302 77.6307 37.1651C77.8011 36.8999 77.9186 36.5969 77.983 36.256L80.108 36.2674C80.0284 36.8204 79.8561 37.3393 79.5909 37.8242C79.3295 38.309 78.9867 38.7371 78.5625 39.1083C78.1383 39.4757 77.642 39.7636 77.0739 39.9719C76.5057 40.1764 75.875 40.2787 75.1818 40.2787C74.1591 40.2787 73.2462 40.042 72.4432 39.5685C71.6402 39.095 71.0076 38.4113 70.5455 37.5174C70.0833 36.6234 69.8523 35.5514 69.8523 34.3014C69.8523 33.0477 70.0852 31.9757 70.5511 31.0855C71.017 30.1916 71.6515 29.5079 72.4545 29.0344C73.2576 28.5609 74.1667 28.3242 75.1818 28.3242C75.8295 28.3242 76.4318 28.4151 76.9886 28.5969C77.5455 28.7787 78.0417 29.0458 78.4773 29.398C78.9129 29.7465 79.2708 30.1746 79.5511 30.6821C79.8352 31.1859 80.0208 31.7617 80.108 32.4094ZM84.0043 35.006V40.1196H81.9474V28.4833H83.9588V32.8753H84.0611C84.2656 32.3829 84.5819 31.9946 85.0099 31.7105C85.4418 31.4227 85.991 31.2787 86.6577 31.2787C87.2637 31.2787 87.7921 31.4056 88.2429 31.6594C88.6937 31.9132 89.0421 32.2844 89.2884 32.773C89.5384 33.2617 89.6634 33.8583 89.6634 34.5628V40.1196H87.6065V34.881C87.6065 34.2939 87.455 33.8374 87.152 33.5117C86.8527 33.1821 86.4323 33.0174 85.8906 33.0174C85.527 33.0174 85.2012 33.0969 84.9134 33.256C84.6293 33.4113 84.4058 33.6367 84.2429 33.9321C84.0838 34.2276 84.0043 34.5855 84.0043 35.006ZM94.2713 40.2958C93.7183 40.2958 93.2202 40.1973 92.777 40.0003C92.3376 39.7996 91.9891 39.5041 91.7315 39.1139C91.4777 38.7238 91.3509 38.2427 91.3509 37.6708C91.3509 37.1783 91.4418 36.7711 91.6236 36.4492C91.8054 36.1272 92.0535 35.8696 92.3679 35.6764C92.6823 35.4833 93.0365 35.3374 93.4304 35.2389C93.8281 35.1367 94.2391 35.0628 94.6634 35.0174C95.1747 34.9643 95.5895 34.917 95.9077 34.8753C96.2259 34.8299 96.4569 34.7617 96.6009 34.6708C96.7486 34.5761 96.8224 34.4302 96.8224 34.2333V34.1992C96.8224 33.7711 96.6955 33.4397 96.4418 33.2049C96.188 32.97 95.8224 32.8526 95.3452 32.8526C94.8414 32.8526 94.4418 32.9624 94.1463 33.1821C93.8546 33.4018 93.6577 33.6613 93.5554 33.9605L91.6349 33.6878C91.7865 33.1575 92.0365 32.7143 92.3849 32.3583C92.7334 31.9984 93.1596 31.7295 93.6634 31.5514C94.1671 31.3696 94.724 31.2787 95.3338 31.2787C95.7543 31.2787 96.1728 31.328 96.5895 31.4264C97.0062 31.5249 97.3868 31.6878 97.7315 31.9151C98.0762 32.1386 98.3527 32.4435 98.5611 32.8299C98.7732 33.2162 98.8793 33.6992 98.8793 34.2787V40.1196H96.902V38.9208H96.8338C96.7088 39.1632 96.5327 39.3905 96.3054 39.6026C96.0819 39.8109 95.7997 39.9795 95.4588 40.1083C95.1217 40.2333 94.7259 40.2958 94.2713 40.2958ZM94.8054 38.7844C95.2183 38.7844 95.5762 38.703 95.8793 38.5401C96.1823 38.3734 96.4152 38.1537 96.5781 37.881C96.7448 37.6083 96.8281 37.3109 96.8281 36.9889V35.9605C96.7637 36.0136 96.6539 36.0628 96.4986 36.1083C96.3471 36.1537 96.1766 36.1935 95.9872 36.2276C95.7978 36.2617 95.6103 36.292 95.4247 36.3185C95.2391 36.345 95.0781 36.3677 94.9418 36.3867C94.6349 36.4283 94.3603 36.4965 94.1179 36.5912C93.8755 36.6859 93.6842 36.8185 93.544 36.9889C93.4039 37.1556 93.3338 37.3715 93.3338 37.6367C93.3338 38.0155 93.4721 38.3014 93.7486 38.4946C94.0251 38.6878 94.3774 38.7844 94.8054 38.7844ZM105.305 31.3924V32.9833H100.288V31.3924H105.305ZM101.527 29.3014H103.584V37.4946C103.584 37.7711 103.625 37.9833 103.709 38.131C103.796 38.2749 103.91 38.3734 104.05 38.4264C104.19 38.4795 104.345 38.506 104.516 38.506C104.644 38.506 104.762 38.4965 104.868 38.4776C104.978 38.4586 105.061 38.4416 105.118 38.4264L105.464 40.0344C105.355 40.0723 105.197 40.1139 104.993 40.1594C104.792 40.2049 104.546 40.2314 104.254 40.2389C103.739 40.2541 103.275 40.1764 102.862 40.006C102.449 39.8318 102.122 39.5628 101.879 39.1992C101.641 38.8355 101.523 38.381 101.527 37.8355V29.3014Z" fill="#3A5AFF"/>
<rect x="0.5" y="0.619629" width="135" height="67" rx="11.5" stroke="#EBE9F1"/>
</svg>
