<svg width="262" height="33" viewBox="0 0 262 33" fill="none" xmlns="http://www.w3.org/2000/svg">
<g filter="url(#filter0_d_2306_48750)">
<rect x="11.5" y="7.23828" width="18" height="18" rx="9" fill="#93CD85"/>
</g>
<path d="M51.608 14.5281H49.483C49.4223 14.1796 49.3106 13.8709 49.1477 13.6019C48.9848 13.3292 48.7822 13.0981 48.5398 12.9087C48.2973 12.7193 48.0208 12.5773 47.7102 12.4826C47.4034 12.3841 47.072 12.3349 46.7159 12.3349C46.0833 12.3349 45.5227 12.494 45.0341 12.8121C44.5455 13.1265 44.1629 13.5887 43.8864 14.1985C43.6098 14.8046 43.4716 15.5451 43.4716 16.4201C43.4716 17.3103 43.6098 18.0603 43.8864 18.6701C44.1667 19.2762 44.5492 19.7345 45.0341 20.0451C45.5227 20.3519 46.0814 20.5053 46.7102 20.5053C47.0587 20.5053 47.3845 20.4599 47.6875 20.369C47.9943 20.2743 48.2689 20.136 48.5114 19.9542C48.7576 19.7724 48.964 19.5489 49.1307 19.2837C49.3011 19.0186 49.4186 18.7156 49.483 18.3746L51.608 18.386C51.5284 18.939 51.3561 19.458 51.0909 19.9428C50.8295 20.4277 50.4867 20.8557 50.0625 21.2269C49.6383 21.5943 49.142 21.8822 48.5739 22.0906C48.0057 22.2951 47.375 22.3974 46.6818 22.3974C45.6591 22.3974 44.7462 22.1606 43.9432 21.6871C43.1402 21.2137 42.5076 20.5299 42.0455 19.636C41.5833 18.7421 41.3523 17.6701 41.3523 16.4201C41.3523 15.1663 41.5852 14.0943 42.0511 13.2042C42.517 12.3103 43.1515 11.6265 43.9545 11.1531C44.7576 10.6796 45.6667 10.4428 46.6818 10.4428C47.3295 10.4428 47.9318 10.5337 48.4886 10.7156C49.0455 10.8974 49.5417 11.1644 49.9773 11.5167C50.4129 11.8652 50.7708 12.2932 51.0511 12.8008C51.3352 13.3046 51.5208 13.8803 51.608 14.5281ZM55.5043 17.1246V22.2383H53.4474V10.6019H55.4588V14.994H55.5611C55.7656 14.5015 56.0819 14.1133 56.5099 13.8292C56.9418 13.5413 57.491 13.3974 58.1577 13.3974C58.7637 13.3974 59.2921 13.5243 59.7429 13.7781C60.1937 14.0318 60.5421 14.4031 60.7884 14.8917C61.0384 15.3803 61.1634 15.9769 61.1634 16.6815V22.2383H59.1065V16.9996C59.1065 16.4125 58.955 15.9561 58.652 15.6303C58.3527 15.3008 57.9323 15.136 57.3906 15.136C57.027 15.136 56.7012 15.2156 56.4134 15.3746C56.1293 15.5299 55.9058 15.7553 55.7429 16.0508C55.5838 16.3462 55.5043 16.7042 55.5043 17.1246ZM65.7713 22.4144C65.2183 22.4144 64.7202 22.3159 64.277 22.119C63.8376 21.9182 63.4891 21.6228 63.2315 21.2326C62.9777 20.8424 62.8509 20.3614 62.8509 19.7894C62.8509 19.297 62.9418 18.8898 63.1236 18.5678C63.3054 18.2459 63.5535 17.9883 63.8679 17.7951C64.1823 17.6019 64.5365 17.4561 64.9304 17.3576C65.3281 17.2553 65.7391 17.1815 66.1634 17.136C66.6747 17.083 67.0895 17.0356 67.4077 16.994C67.7259 16.9485 67.9569 16.8803 68.1009 16.7894C68.2486 16.6947 68.3224 16.5489 68.3224 16.3519V16.3178C68.3224 15.8898 68.1955 15.5584 67.9418 15.3235C67.688 15.0887 67.3224 14.9712 66.8452 14.9712C66.3414 14.9712 65.9418 15.0811 65.6463 15.3008C65.3546 15.5205 65.1577 15.7799 65.0554 16.0792L63.1349 15.8065C63.2865 15.2762 63.5365 14.833 63.8849 14.4769C64.2334 14.1171 64.6596 13.8481 65.1634 13.6701C65.6671 13.4883 66.224 13.3974 66.8338 13.3974C67.2543 13.3974 67.6728 13.4466 68.0895 13.5451C68.5062 13.6436 68.8868 13.8065 69.2315 14.0337C69.5762 14.2572 69.8527 14.5621 70.0611 14.9485C70.2732 15.3349 70.3793 15.8178 70.3793 16.3974V22.2383H68.402V21.0394H68.3338C68.2088 21.2818 68.0327 21.5091 67.8054 21.7212C67.5819 21.9296 67.2997 22.0981 66.9588 22.2269C66.6217 22.3519 66.2259 22.4144 65.7713 22.4144ZM66.3054 20.9031C66.7183 20.9031 67.0762 20.8216 67.3793 20.6587C67.6823 20.4921 67.9152 20.2724 68.0781 19.9996C68.2448 19.7269 68.3281 19.4296 68.3281 19.1076V18.0792C68.2637 18.1322 68.1539 18.1815 67.9986 18.2269C67.8471 18.2724 67.6766 18.3121 67.4872 18.3462C67.2978 18.3803 67.1103 18.4106 66.9247 18.4371C66.7391 18.4637 66.5781 18.4864 66.4418 18.5053C66.1349 18.547 65.8603 18.6152 65.6179 18.7099C65.3755 18.8046 65.1842 18.9371 65.044 19.1076C64.9039 19.2743 64.8338 19.4902 64.8338 19.7553C64.8338 20.1341 64.9721 20.4201 65.2486 20.6133C65.5251 20.8065 65.8774 20.9031 66.3054 20.9031ZM72.4474 25.511V13.511H74.4702V14.9542H74.5895C74.6955 14.7421 74.8452 14.5167 75.0384 14.2781C75.2315 14.0356 75.4929 13.8292 75.8224 13.6587C76.152 13.4845 76.5724 13.3974 77.0838 13.3974C77.758 13.3974 78.366 13.5697 78.9077 13.9144C79.4531 14.2553 79.8849 14.761 80.2031 15.4315C80.5251 16.0981 80.6861 16.9163 80.6861 17.886C80.6861 18.8443 80.5289 19.6587 80.2145 20.3292C79.9001 20.9996 79.4721 21.511 78.9304 21.8633C78.3887 22.2156 77.7751 22.3917 77.0895 22.3917C76.5895 22.3917 76.1747 22.3084 75.8452 22.1417C75.5156 21.975 75.2505 21.7743 75.0497 21.5394C74.8527 21.3008 74.6993 21.0754 74.5895 20.8633H74.5043V25.511H72.4474ZM74.4645 17.8746C74.4645 18.439 74.544 18.9334 74.7031 19.3576C74.866 19.7818 75.099 20.1133 75.402 20.3519C75.7088 20.5868 76.08 20.7042 76.5156 20.7042C76.9702 20.7042 77.3509 20.583 77.6577 20.3406C77.9645 20.0943 78.1955 19.7591 78.3509 19.3349C78.5099 18.9068 78.5895 18.4201 78.5895 17.8746C78.5895 17.333 78.5118 16.8519 78.3565 16.4315C78.2012 16.011 77.9702 15.6815 77.6634 15.4428C77.3565 15.2042 76.974 15.0849 76.5156 15.0849C76.0762 15.0849 75.7031 15.2004 75.3963 15.4315C75.0895 15.6625 74.8565 15.9864 74.6974 16.4031C74.5421 16.8197 74.4645 17.3103 74.4645 17.8746ZM86.8054 13.511V15.1019H81.7884V13.511H86.8054ZM83.027 11.4201H85.0838V19.6133C85.0838 19.8898 85.1255 20.1019 85.2088 20.2496C85.2959 20.3936 85.4096 20.4921 85.5497 20.5451C85.6899 20.5981 85.8452 20.6246 86.0156 20.6246C86.1444 20.6246 86.2618 20.6152 86.3679 20.5962C86.4777 20.5773 86.5611 20.5603 86.6179 20.5451L86.9645 22.1531C86.8546 22.1909 86.6974 22.2326 86.4929 22.2781C86.2921 22.3235 86.0459 22.35 85.7543 22.3576C85.2391 22.3728 84.7751 22.2951 84.3622 22.1246C83.9493 21.9504 83.6217 21.6815 83.3793 21.3178C83.1406 20.9542 83.0232 20.4996 83.027 19.9542V11.4201ZM92.2955 22.4087C91.4205 22.4087 90.6648 22.2269 90.0284 21.8633C89.3958 21.4959 88.9091 20.9769 88.5682 20.3065C88.2273 19.6322 88.0568 18.8387 88.0568 17.9258C88.0568 17.0281 88.2273 16.2402 88.5682 15.5621C88.9129 14.8803 89.3939 14.35 90.0114 13.9712C90.6288 13.5887 91.3542 13.3974 92.1875 13.3974C92.7254 13.3974 93.233 13.4845 93.7102 13.6587C94.1913 13.8292 94.6155 14.0943 94.983 14.4542C95.3542 14.814 95.6458 15.2724 95.858 15.8292C96.0701 16.3822 96.1761 17.0413 96.1761 17.8065V18.4371H89.0227V17.0508H94.2045C94.2008 16.6568 94.1155 16.3065 93.9489 15.9996C93.7822 15.689 93.5492 15.4447 93.25 15.2667C92.9545 15.0887 92.6098 14.9996 92.2159 14.9996C91.7955 14.9996 91.4261 15.1019 91.108 15.3065C90.7898 15.5072 90.5417 15.7724 90.3636 16.1019C90.1894 16.4277 90.1004 16.7856 90.0966 17.1758V18.386C90.0966 18.8936 90.1894 19.3292 90.375 19.6928C90.5606 20.0527 90.8201 20.3292 91.1534 20.5224C91.4867 20.7118 91.8769 20.8065 92.3239 20.8065C92.6231 20.8065 92.8939 20.7648 93.1364 20.6815C93.3788 20.5943 93.589 20.4674 93.767 20.3008C93.9451 20.1341 94.0795 19.9277 94.1705 19.6815L96.0909 19.8974C95.9697 20.4049 95.7386 20.8481 95.3977 21.2269C95.0606 21.6019 94.6288 21.8936 94.1023 22.1019C93.5758 22.3065 92.9735 22.4087 92.2955 22.4087ZM97.9162 22.2383V13.511H99.9105V14.9656H100.001C100.161 14.4618 100.433 14.0735 100.82 13.8008C101.21 13.5243 101.655 13.386 102.155 13.386C102.268 13.386 102.395 13.3917 102.536 13.4031C102.679 13.4106 102.799 13.4239 102.893 13.4428V15.3349C102.806 15.3046 102.668 15.2781 102.479 15.2553C102.293 15.2288 102.113 15.2156 101.939 15.2156C101.564 15.2156 101.227 15.297 100.928 15.4599C100.632 15.619 100.399 15.8406 100.229 16.1246C100.058 16.4087 99.973 16.7364 99.973 17.1076V22.2383H97.9162ZM112.939 10.6019V22.2383H110.831V12.6531H110.763L108.041 14.3917V12.4599L110.933 10.6019H112.939Z" fill="#201F27"/>
<path d="M240.611 13.9012C240.282 14.121 239.896 14.2383 239.5 14.2383C238.97 14.2383 238.461 14.0276 238.086 13.6525C237.711 13.2774 237.5 12.7687 237.5 12.2383C237.5 11.8427 237.617 11.456 237.837 11.1271C238.057 10.7982 238.369 10.5419 238.735 10.3905C239.1 10.2391 239.502 10.1995 239.89 10.2767C240.278 10.3539 240.635 10.5444 240.914 10.8241C241.194 11.1038 241.384 11.4601 241.462 11.8481C241.539 12.2361 241.499 12.6382 241.348 13.0036C241.196 13.3691 240.94 13.6815 240.611 13.9012Z" fill="#575A60"/>
<path d="M239.5 18.2383C239.104 18.2383 238.718 18.3556 238.389 18.5753C238.06 18.7951 237.804 19.1075 237.652 19.4729C237.501 19.8384 237.461 20.2405 237.538 20.6285C237.616 21.0164 237.806 21.3728 238.086 21.6525C238.365 21.9322 238.722 22.1227 239.11 22.1999C239.498 22.277 239.9 22.2374 240.265 22.086C240.631 21.9347 240.943 21.6783 241.163 21.3494C241.383 21.0205 241.5 20.6338 241.5 20.2383C241.5 19.7078 241.289 19.1991 240.914 18.8241C240.539 18.449 240.03 18.2383 239.5 18.2383Z" fill="#575A60"/>
<defs>
<filter id="filter0_d_2306_48750" x="6.5" y="4.23828" width="28" height="28" filterUnits="userSpaceOnUse" color-interpolation-filters="sRGB">
<feFlood flood-opacity="0" result="BackgroundImageFix"/>
<feColorMatrix in="SourceAlpha" type="matrix" values="0 0 0 0 0 0 0 0 0 0 0 0 0 0 0 0 0 0 127 0" result="hardAlpha"/>
<feOffset dy="2"/>
<feGaussianBlur stdDeviation="2"/>
<feColorMatrix type="matrix" values="0 0 0 0 0.156863 0 0 0 0 0.780392 0 0 0 0 0.435294 0 0 0 0.4 0"/>
<feBlend mode="normal" in2="BackgroundImageFix" result="effect1_dropShadow_2306_48750"/>
<feBlend mode="normal" in="SourceGraphic" in2="effect1_dropShadow_2306_48750" result="shape"/>
</filter>
</defs>
</svg>
