<svg width="262" height="33" viewBox="0 0 262 33" fill="none" xmlns="http://www.w3.org/2000/svg">
<g filter="url(#filter0_d_2306_48778)">
<rect x="11.5" y="7.11914" width="18" height="18" rx="9" fill="#2DB6F5"/>
</g>
<path d="M51.608 14.4089H49.483C49.4223 14.0604 49.3106 13.7517 49.1477 13.4828C48.9848 13.21 48.7822 12.979 48.5398 12.7896C48.2973 12.6002 48.0208 12.4582 47.7102 12.3635C47.4034 12.265 47.072 12.2157 46.7159 12.2157C46.0833 12.2157 45.5227 12.3748 45.0341 12.693C44.5455 13.0074 44.1629 13.4695 43.8864 14.0794C43.6098 14.6854 43.4716 15.426 43.4716 16.301C43.4716 17.1911 43.6098 17.9411 43.8864 18.551C44.1667 19.157 44.5492 19.6154 45.0341 19.926C45.5227 20.2328 46.0814 20.3862 46.7102 20.3862C47.0587 20.3862 47.3845 20.3407 47.6875 20.2498C47.9943 20.1551 48.2689 20.0169 48.5114 19.835C48.7576 19.6532 48.964 19.4297 49.1307 19.1646C49.3011 18.8994 49.4186 18.5964 49.483 18.2555L51.608 18.2669C51.5284 18.8199 51.3561 19.3388 51.0909 19.8237C50.8295 20.3085 50.4867 20.7366 50.0625 21.1078C49.6383 21.4752 49.142 21.7631 48.5739 21.9714C48.0057 22.176 47.375 22.2782 46.6818 22.2782C45.6591 22.2782 44.7462 22.0415 43.9432 21.568C43.1402 21.0945 42.5076 20.4108 42.0455 19.5169C41.5833 18.6229 41.3523 17.551 41.3523 16.301C41.3523 15.0472 41.5852 13.9752 42.0511 13.085C42.517 12.1911 43.1515 11.5074 43.9545 11.0339C44.7576 10.5604 45.6667 10.3237 46.6818 10.3237C47.3295 10.3237 47.9318 10.4146 48.4886 10.5964C49.0455 10.7782 49.5417 11.0453 49.9773 11.3975C50.4129 11.746 50.7708 12.1741 51.0511 12.6816C51.3352 13.1854 51.5208 13.7612 51.608 14.4089ZM55.5043 17.0055V22.1191H53.4474V10.4828H55.4588V14.8748H55.5611C55.7656 14.3824 56.0819 13.9941 56.5099 13.71C56.9418 13.4222 57.491 13.2782 58.1577 13.2782C58.7637 13.2782 59.2921 13.4051 59.7429 13.6589C60.1937 13.9127 60.5421 14.2839 60.7884 14.7725C61.0384 15.2612 61.1634 15.8578 61.1634 16.5623V22.1191H59.1065V16.8805C59.1065 16.2934 58.955 15.8369 58.652 15.5112C58.3527 15.1816 57.9323 15.0169 57.3906 15.0169C57.027 15.0169 56.7012 15.0964 56.4134 15.2555C56.1293 15.4108 55.9058 15.6362 55.7429 15.9316C55.5838 16.2271 55.5043 16.585 55.5043 17.0055ZM65.7713 22.2953C65.2183 22.2953 64.7202 22.1968 64.277 21.9998C63.8376 21.7991 63.4891 21.5036 63.2315 21.1135C62.9777 20.7233 62.8509 20.2422 62.8509 19.6703C62.8509 19.1779 62.9418 18.7707 63.1236 18.4487C63.3054 18.1267 63.5535 17.8691 63.8679 17.676C64.1823 17.4828 64.5365 17.3369 64.9304 17.2385C65.3281 17.1362 65.7391 17.0623 66.1634 17.0169C66.6747 16.9638 67.0895 16.9165 67.4077 16.8748C67.7259 16.8294 67.9569 16.7612 68.1009 16.6703C68.2486 16.5756 68.3224 16.4297 68.3224 16.2328V16.1987C68.3224 15.7707 68.1955 15.4392 67.9418 15.2044C67.688 14.9695 67.3224 14.8521 66.8452 14.8521C66.3414 14.8521 65.9418 14.9619 65.6463 15.1816C65.3546 15.4013 65.1577 15.6608 65.0554 15.96L63.1349 15.6873C63.2865 15.157 63.5365 14.7138 63.8849 14.3578C64.2334 13.9979 64.6596 13.729 65.1634 13.551C65.6671 13.3691 66.224 13.2782 66.8338 13.2782C67.2543 13.2782 67.6728 13.3275 68.0895 13.426C68.5062 13.5244 68.8868 13.6873 69.2315 13.9146C69.5762 14.1381 69.8527 14.443 70.0611 14.8294C70.2732 15.2157 70.3793 15.6987 70.3793 16.2782V22.1191H68.402V20.9203H68.3338C68.2088 21.1627 68.0327 21.39 67.8054 21.6021C67.5819 21.8104 67.2997 21.979 66.9588 22.1078C66.6217 22.2328 66.2259 22.2953 65.7713 22.2953ZM66.3054 20.7839C66.7183 20.7839 67.0762 20.7025 67.3793 20.5396C67.6823 20.3729 67.9152 20.1532 68.0781 19.8805C68.2448 19.6078 68.3281 19.3104 68.3281 18.9885V17.96C68.2637 18.0131 68.1539 18.0623 67.9986 18.1078C67.8471 18.1532 67.6766 18.193 67.4872 18.2271C67.2978 18.2612 67.1103 18.2915 66.9247 18.318C66.7391 18.3445 66.5781 18.3672 66.4418 18.3862C66.1349 18.4279 65.8603 18.496 65.6179 18.5907C65.3755 18.6854 65.1842 18.818 65.044 18.9885C64.9039 19.1551 64.8338 19.371 64.8338 19.6362C64.8338 20.015 64.9721 20.301 65.2486 20.4941C65.5251 20.6873 65.8774 20.7839 66.3054 20.7839ZM72.4474 25.3919V13.3919H74.4702V14.835H74.5895C74.6955 14.6229 74.8452 14.3975 75.0384 14.1589C75.2315 13.9165 75.4929 13.71 75.8224 13.5396C76.152 13.3654 76.5724 13.2782 77.0838 13.2782C77.758 13.2782 78.366 13.4506 78.9077 13.7953C79.4531 14.1362 79.8849 14.6419 80.2031 15.3123C80.5251 15.979 80.6861 16.7972 80.6861 17.7669C80.6861 18.7252 80.5289 19.5396 80.2145 20.21C79.9001 20.8805 79.4721 21.3919 78.9304 21.7441C78.3887 22.0964 77.7751 22.2725 77.0895 22.2725C76.5895 22.2725 76.1747 22.1892 75.8452 22.0225C75.5156 21.8559 75.2505 21.6551 75.0497 21.4203C74.8527 21.1816 74.6993 20.9563 74.5895 20.7441H74.5043V25.3919H72.4474ZM74.4645 17.7555C74.4645 18.3199 74.544 18.8142 74.7031 19.2385C74.866 19.6627 75.099 19.9941 75.402 20.2328C75.7088 20.4676 76.08 20.585 76.5156 20.585C76.9702 20.585 77.3509 20.4638 77.6577 20.2214C77.9645 19.9752 78.1955 19.64 78.3509 19.2157C78.5099 18.7877 78.5895 18.301 78.5895 17.7555C78.5895 17.2138 78.5118 16.7328 78.3565 16.3123C78.2012 15.8919 77.9702 15.5623 77.6634 15.3237C77.3565 15.085 76.974 14.9657 76.5156 14.9657C76.0762 14.9657 75.7031 15.0813 75.3963 15.3123C75.0895 15.5434 74.8565 15.8672 74.6974 16.2839C74.5421 16.7006 74.4645 17.1911 74.4645 17.7555ZM86.8054 13.3919V14.9828H81.7884V13.3919H86.8054ZM83.027 11.301H85.0838V19.4941C85.0838 19.7707 85.1255 19.9828 85.2088 20.1305C85.2959 20.2744 85.4096 20.3729 85.5497 20.426C85.6899 20.479 85.8452 20.5055 86.0156 20.5055C86.1444 20.5055 86.2618 20.496 86.3679 20.4771C86.4777 20.4582 86.5611 20.4411 86.6179 20.426L86.9645 22.0339C86.8546 22.0718 86.6974 22.1135 86.4929 22.1589C86.2921 22.2044 86.0459 22.2309 85.7543 22.2385C85.2391 22.2536 84.7751 22.176 84.3622 22.0055C83.9493 21.8313 83.6217 21.5623 83.3793 21.1987C83.1406 20.835 83.0232 20.3805 83.027 19.835V11.301ZM92.2955 22.2896C91.4205 22.2896 90.6648 22.1078 90.0284 21.7441C89.3958 21.3767 88.9091 20.8578 88.5682 20.1873C88.2273 19.5131 88.0568 18.7195 88.0568 17.8066C88.0568 16.9089 88.2273 16.121 88.5682 15.443C88.9129 14.7612 89.3939 14.2309 90.0114 13.8521C90.6288 13.4695 91.3542 13.2782 92.1875 13.2782C92.7254 13.2782 93.233 13.3654 93.7102 13.5396C94.1913 13.71 94.6155 13.9752 94.983 14.335C95.3542 14.6949 95.6458 15.1532 95.858 15.71C96.0701 16.2631 96.1761 16.9222 96.1761 17.6873V18.318H89.0227V16.9316H94.2045C94.2008 16.5377 94.1155 16.1873 93.9489 15.8805C93.7822 15.5699 93.5492 15.3256 93.25 15.1475C92.9545 14.9695 92.6098 14.8805 92.2159 14.8805C91.7955 14.8805 91.4261 14.9828 91.108 15.1873C90.7898 15.3881 90.5417 15.6532 90.3636 15.9828C90.1894 16.3085 90.1004 16.6665 90.0966 17.0566V18.2669C90.0966 18.7744 90.1894 19.21 90.375 19.5737C90.5606 19.9335 90.8201 20.21 91.1534 20.4032C91.4867 20.5926 91.8769 20.6873 92.3239 20.6873C92.6231 20.6873 92.8939 20.6457 93.1364 20.5623C93.3788 20.4752 93.589 20.3483 93.767 20.1816C93.9451 20.015 94.0795 19.8085 94.1705 19.5623L96.0909 19.7782C95.9697 20.2858 95.7386 20.729 95.3977 21.1078C95.0606 21.4828 94.6288 21.7744 94.1023 21.9828C93.5758 22.1873 92.9735 22.2896 92.2955 22.2896ZM97.9162 22.1191V13.3919H99.9105V14.8464H100.001C100.161 14.3426 100.433 13.9544 100.82 13.6816C101.21 13.4051 101.655 13.2669 102.155 13.2669C102.268 13.2669 102.395 13.2725 102.536 13.2839C102.679 13.2915 102.799 13.3047 102.893 13.3237V15.2157C102.806 15.1854 102.668 15.1589 102.479 15.1362C102.293 15.1097 102.113 15.0964 101.939 15.0964C101.564 15.0964 101.227 15.1779 100.928 15.3407C100.632 15.4998 100.399 15.7214 100.229 16.0055C100.058 16.2896 99.973 16.6172 99.973 16.9885V22.1191H97.9162ZM108.206 22.1191V20.5964L112.246 16.6362C112.632 16.246 112.954 15.8994 113.212 15.5964C113.469 15.2934 113.662 14.9998 113.791 14.7157C113.92 14.4316 113.984 14.1286 113.984 13.8066C113.984 13.4392 113.901 13.1248 113.734 12.8635C113.568 12.5983 113.339 12.3938 113.047 12.2498C112.755 12.1059 112.424 12.0339 112.053 12.0339C111.67 12.0339 111.335 12.1135 111.047 12.2725C110.759 12.4279 110.536 12.6494 110.376 12.9373C110.221 13.2252 110.143 13.568 110.143 13.9657H108.138C108.138 13.2271 108.306 12.585 108.643 12.0396C108.981 11.4941 109.445 11.0718 110.036 10.7725C110.63 10.4733 111.312 10.3237 112.081 10.3237C112.861 10.3237 113.547 10.4695 114.138 10.7612C114.729 11.0529 115.187 11.4525 115.513 11.96C115.842 12.4676 116.007 13.0472 116.007 13.6987C116.007 14.1343 115.924 14.5623 115.757 14.9828C115.59 15.4032 115.297 15.8691 114.876 16.3805C114.46 16.8919 113.875 17.5112 113.121 18.2385L111.115 20.2782V20.3578H116.183V22.1191H108.206Z" fill="#201F27"/>
<path d="M240.611 13.7821C240.282 14.0018 239.896 14.1191 239.5 14.1191C238.97 14.1191 238.461 13.9084 238.086 13.5334C237.711 13.1583 237.5 12.6496 237.5 12.1191C237.5 11.7236 237.617 11.3369 237.837 11.008C238.057 10.6791 238.369 10.4228 238.735 10.2714C239.1 10.12 239.502 10.0804 239.89 10.1576C240.278 10.2347 240.635 10.4252 240.914 10.7049C241.194 10.9846 241.384 11.341 241.462 11.729C241.539 12.1169 241.499 12.5191 241.348 12.8845C241.196 13.25 240.94 13.5623 240.611 13.7821Z" fill="#575A60"/>
<path d="M239.5 18.1191C239.104 18.1191 238.718 18.2364 238.389 18.4562C238.06 18.676 237.804 18.9883 237.652 19.3538C237.501 19.7192 237.461 20.1214 237.538 20.5093C237.616 20.8973 237.806 21.2536 238.086 21.5334C238.365 21.8131 238.722 22.0035 239.11 22.0807C239.498 22.1579 239.9 22.1183 240.265 21.9669C240.631 21.8155 240.943 21.5592 241.163 21.2303C241.383 20.9014 241.5 20.5147 241.5 20.1191C241.5 19.5887 241.289 19.08 240.914 18.7049C240.539 18.3299 240.03 18.1191 239.5 18.1191Z" fill="#575A60"/>
<defs>
<filter id="filter0_d_2306_48778" x="6.5" y="4.11914" width="28" height="28" filterUnits="userSpaceOnUse" color-interpolation-filters="sRGB">
<feFlood flood-opacity="0" result="BackgroundImageFix"/>
<feColorMatrix in="SourceAlpha" type="matrix" values="0 0 0 0 0 0 0 0 0 0 0 0 0 0 0 0 0 0 127 0" result="hardAlpha"/>
<feOffset dy="2"/>
<feGaussianBlur stdDeviation="2"/>
<feColorMatrix type="matrix" values="0 0 0 0 0 0 0 0 0 0.811765 0 0 0 0 0.909804 0 0 0 0.4 0"/>
<feBlend mode="normal" in2="BackgroundImageFix" result="effect1_dropShadow_2306_48778"/>
<feBlend mode="normal" in="SourceGraphic" in2="effect1_dropShadow_2306_48778" result="shape"/>
</filter>
</defs>
</svg>
