<svg width="315" height="182" viewBox="0 0 315 182" fill="none" xmlns="http://www.w3.org/2000/svg">
<g clip-path="url(#clip0_2306_50733)">
<line x1="0.5" y1="-4.68213" x2="0.499974" y2="598.318" stroke="#EBE9F1"/>
<line x1="58.5" y1="-4.68213" x2="58.5" y2="598.318" stroke="#EBE9F1"/>
<line x1="116.5" y1="-4.68213" x2="116.5" y2="598.318" stroke="#EBE9F1"/>
<line x1="174.5" y1="-4.68213" x2="174.5" y2="598.318" stroke="#EBE9F1"/>
<line x1="232.5" y1="-4.68213" x2="232.5" y2="598.318" stroke="#EBE9F1"/>
<line x1="290.5" y1="-4.68213" x2="290.5" y2="598.318" stroke="#EBE9F1"/>
<line x1="546" y1="53.8179" x2="-4.37113e-08" y2="53.8178" stroke="#EBE9F1"/>
<line x1="546" y1="111.818" x2="-4.37113e-08" y2="111.818" stroke="#EBE9F1"/>
<line x1="546" y1="169.818" x2="-4.37113e-08" y2="169.818" stroke="#EBE9F1"/>
<path d="M-6.67773 211.706L31.2622 191.462C47.3128 182.897 62.1009 172.152 75.2054 159.533L93.3068 142.102C107.008 128.909 124.014 119.655 142.534 115.317V115.317C175.381 107.624 209.928 116.066 235.524 138.043L242.401 143.947C258.303 157.6 277.416 166.985 297.943 171.219L382.765 188.714" stroke="#C1A46A" stroke-width="3" stroke-dasharray="6 6"/>
<path d="M382.766 311.707L289.793 283.011C253.838 271.914 226.376 242.712 217.505 206.144L187.776 83.597C179.07 47.7084 132.991 37.3808 109.8 66.1204V66.1204V66.1204C69.4013 115.021 9.35589 143.433 -54.0732 143.661L-82.3413 143.763" stroke="#94CD85" stroke-width="3" stroke-dasharray="6 6"/>
<rect x="133" y="16.3179" width="114" height="22" rx="8" fill="#F7F7F7"/>
<rect x="137" y="22.3179" width="10" height="10" rx="5" fill="#94CD85"/>
<path d="M154.022 26.0444C153.989 25.7343 153.849 25.4928 153.603 25.32C153.359 25.1472 153.042 25.0608 152.651 25.0608C152.377 25.0608 152.141 25.1022 151.945 25.1851C151.748 25.2679 151.598 25.3804 151.494 25.5224C151.39 25.6645 151.336 25.8266 151.334 26.0089C151.334 26.1604 151.368 26.2918 151.437 26.4031C151.508 26.5144 151.604 26.6091 151.725 26.6872C151.845 26.7629 151.979 26.8269 152.126 26.879C152.273 26.931 152.421 26.9748 152.57 27.0103L153.251 27.1808C153.526 27.2447 153.79 27.3311 154.043 27.44C154.299 27.5489 154.528 27.6862 154.729 27.852C154.932 28.0177 155.093 28.2177 155.212 28.4521C155.33 28.6865 155.389 28.9611 155.389 29.276C155.389 29.7021 155.28 30.0773 155.063 30.4017C154.845 30.7236 154.53 30.9758 154.118 31.1581C153.708 31.338 153.212 31.428 152.63 31.428C152.064 31.428 151.573 31.3404 151.156 31.1652C150.742 30.99 150.418 30.7343 150.183 30.3981C149.951 30.062 149.826 29.6524 149.807 29.1694H151.103C151.122 29.4227 151.2 29.6334 151.337 29.8015C151.475 29.9696 151.653 30.0951 151.874 30.178C152.096 30.2608 152.345 30.3022 152.619 30.3022C152.906 30.3022 153.157 30.2596 153.372 30.1744C153.59 30.0868 153.76 29.9661 153.884 29.8122C154.007 29.6559 154.069 29.4736 154.072 29.2653C154.069 29.0759 154.014 28.9197 153.905 28.7966C153.796 28.6711 153.643 28.5669 153.447 28.4841C153.253 28.3988 153.025 28.3231 152.765 28.2568L151.938 28.0437C151.339 27.8898 150.865 27.6566 150.517 27.3441C150.171 27.0293 149.999 26.6114 149.999 26.0906C149.999 25.6621 150.115 25.2869 150.347 24.9649C150.581 24.6429 150.899 24.3932 151.302 24.2156C151.704 24.0357 152.16 23.9457 152.669 23.9457C153.185 23.9457 153.637 24.0357 154.026 24.2156C154.416 24.3932 154.723 24.6406 154.945 24.9578C155.168 25.2727 155.283 25.6349 155.29 26.0444H154.022ZM158.722 31.4244C158.175 31.4244 157.703 31.3108 157.305 31.0835C156.91 30.8539 156.605 30.5295 156.392 30.1105C156.179 29.6891 156.073 29.1931 156.073 28.6226C156.073 28.0615 156.179 27.5691 156.392 27.1453C156.608 26.7191 156.908 26.3877 157.294 26.151C157.68 25.9119 158.133 25.7923 158.654 25.7923C158.99 25.7923 159.308 25.8468 159.606 25.9557C159.907 26.0622 160.172 26.2279 160.401 26.4528C160.633 26.6777 160.816 26.9642 160.948 27.3122C161.081 27.6578 161.147 28.0698 161.147 28.548V28.9422H156.676V28.0757H159.915C159.913 27.8295 159.859 27.6105 159.755 27.4187C159.651 27.2246 159.505 27.0719 159.318 26.9606C159.134 26.8494 158.918 26.7937 158.672 26.7937C158.409 26.7937 158.178 26.8576 157.98 26.9855C157.781 27.111 157.626 27.2767 157.514 27.4826C157.405 27.6862 157.35 27.91 157.347 28.1538V28.9102C157.347 29.2274 157.405 29.4997 157.521 29.727C157.637 29.9519 157.8 30.1247 158.008 30.2454C158.216 30.3638 158.46 30.423 158.74 30.423C158.927 30.423 159.096 30.3969 159.247 30.3449C159.399 30.2904 159.53 30.2111 159.642 30.1069C159.753 30.0028 159.837 29.8737 159.894 29.7199L161.094 29.8548C161.018 30.172 160.874 30.449 160.661 30.6858C160.45 30.9201 160.18 31.1024 159.851 31.2326C159.522 31.3605 159.146 31.4244 158.722 31.4244ZM164.45 31.4244C163.903 31.4244 163.43 31.3108 163.033 31.0835C162.637 30.8539 162.333 30.5295 162.12 30.1105C161.907 29.6891 161.8 29.1931 161.8 28.6226C161.8 28.0615 161.907 27.5691 162.12 27.1453C162.335 26.7191 162.636 26.3877 163.022 26.151C163.408 25.9119 163.861 25.7923 164.382 25.7923C164.718 25.7923 165.035 25.8468 165.334 25.9557C165.634 26.0622 165.9 26.2279 166.129 26.4528C166.361 26.6777 166.543 26.9642 166.676 27.3122C166.809 27.6578 166.875 28.0698 166.875 28.548V28.9422H162.404V28.0757H165.643C165.64 27.8295 165.587 27.6105 165.483 27.4187C165.379 27.2246 165.233 27.0719 165.046 26.9606C164.861 26.8494 164.646 26.7937 164.4 26.7937C164.137 26.7937 163.906 26.8576 163.707 26.9855C163.508 27.111 163.353 27.2767 163.242 27.4826C163.133 27.6862 163.078 27.91 163.075 28.1538V28.9102C163.075 29.2274 163.133 29.4997 163.249 29.727C163.365 29.9519 163.527 30.1247 163.736 30.2454C163.944 30.3638 164.188 30.423 164.467 30.423C164.654 30.423 164.824 30.3969 164.975 30.3449C165.127 30.2904 165.258 30.2111 165.369 30.1069C165.481 30.0028 165.565 29.8737 165.621 29.7199L166.822 29.8548C166.746 30.172 166.601 30.449 166.388 30.6858C166.178 30.9201 165.908 31.1024 165.579 31.2326C165.25 31.3605 164.873 31.4244 164.45 31.4244ZM169.048 28.1218V31.3179H167.762V25.8633H168.991V26.7902H169.055C169.181 26.4848 169.381 26.2421 169.655 26.0622C169.932 25.8823 170.274 25.7923 170.681 25.7923C171.058 25.7923 171.386 25.8728 171.665 26.0338C171.947 26.1948 172.165 26.428 172.319 26.7334C172.475 27.0388 172.552 27.4093 172.549 27.8449V31.3179H171.264V28.0437C171.264 27.6791 171.169 27.3939 170.98 27.1879C170.793 26.9819 170.534 26.879 170.202 26.879C169.977 26.879 169.777 26.9287 169.602 27.0281C169.429 27.1252 169.293 27.266 169.194 27.4507C169.097 27.6353 169.048 27.8591 169.048 28.1218ZM178.699 25.8633V26.8576H175.475V25.8633H178.699ZM176.281 31.3179V25.3484C176.281 24.9815 176.357 24.6761 176.508 24.4322C176.662 24.1884 176.868 24.0061 177.126 23.8853C177.384 23.7646 177.671 23.7042 177.986 23.7042C178.208 23.7042 178.406 23.722 178.579 23.7575C178.752 23.793 178.879 23.825 178.962 23.8534L178.707 24.8477C178.652 24.8311 178.583 24.8146 178.501 24.798C178.418 24.779 178.325 24.7696 178.224 24.7696C177.985 24.7696 177.815 24.8276 177.716 24.9436C177.619 25.0572 177.57 25.2206 177.57 25.4336V31.3179H176.281ZM179.506 31.3179V25.8633H180.753V26.7724H180.809C180.909 26.4575 181.079 26.2149 181.321 26.0444C181.565 25.8716 181.843 25.7852 182.155 25.7852C182.226 25.7852 182.306 25.7888 182.393 25.7959C182.483 25.8006 182.558 25.8089 182.617 25.8207V27.0032C182.563 26.9843 182.476 26.9677 182.358 26.9535C182.242 26.937 182.129 26.9287 182.02 26.9287C181.786 26.9287 181.575 26.9796 181.388 27.0814C181.204 27.1808 181.058 27.3193 180.952 27.4968C180.845 27.6744 180.792 27.8792 180.792 28.1112V31.3179H179.506ZM185.426 31.4244C184.893 31.4244 184.431 31.3072 184.041 31.0728C183.65 30.8385 183.347 30.5106 183.132 30.0892C182.919 29.6678 182.812 29.1754 182.812 28.6119C182.812 28.0485 182.919 27.5549 183.132 27.1311C183.347 26.7073 183.65 26.3782 184.041 26.1439C184.431 25.9095 184.893 25.7923 185.426 25.7923C185.958 25.7923 186.42 25.9095 186.811 26.1439C187.201 26.3782 187.503 26.7073 187.716 27.1311C187.932 27.5549 188.039 28.0485 188.039 28.6119C188.039 29.1754 187.932 29.6678 187.716 30.0892C187.503 30.5106 187.201 30.8385 186.811 31.0728C186.42 31.3072 185.958 31.4244 185.426 31.4244ZM185.433 30.3946C185.722 30.3946 185.963 30.3153 186.157 30.1566C186.351 29.9957 186.496 29.7802 186.59 29.5103C186.688 29.2405 186.736 28.9398 186.736 28.6084C186.736 28.2745 186.688 27.9727 186.59 27.7028C186.496 27.4306 186.351 27.2139 186.157 27.053C185.963 26.892 185.722 26.8115 185.433 26.8115C185.137 26.8115 184.891 26.892 184.694 27.053C184.5 27.2139 184.354 27.4306 184.257 27.7028C184.163 27.9727 184.115 28.2745 184.115 28.6084C184.115 28.9398 184.163 29.2405 184.257 29.5103C184.354 29.7802 184.5 29.9957 184.694 30.1566C184.891 30.3153 185.137 30.3946 185.433 30.3946ZM188.93 31.3179V25.8633H190.159V26.7902H190.223C190.337 26.4777 190.525 26.2338 190.788 26.0586C191.05 25.8811 191.364 25.7923 191.729 25.7923C192.098 25.7923 192.409 25.8823 192.663 26.0622C192.918 26.2397 193.098 26.4824 193.202 26.7902H193.259C193.38 26.4871 193.584 26.2457 193.87 26.0657C194.159 25.8834 194.501 25.7923 194.896 25.7923C195.398 25.7923 195.808 25.9509 196.125 26.2682C196.442 26.5854 196.601 27.0482 196.601 27.6566V31.3179H195.312V27.8555C195.312 27.517 195.222 27.2696 195.042 27.1133C194.862 26.9547 194.642 26.8754 194.381 26.8754C194.071 26.8754 193.829 26.9725 193.653 27.1666C193.481 27.3584 193.394 27.6081 193.394 27.9159V31.3179H192.134V27.8022C192.134 27.5205 192.048 27.2956 191.878 27.1275C191.71 26.9594 191.49 26.8754 191.217 26.8754C191.033 26.8754 190.865 26.9227 190.713 27.0174C190.562 27.1098 190.441 27.2412 190.351 27.4116C190.261 27.5797 190.216 27.7762 190.216 28.0011V31.3179H188.93ZM202.709 25.8633V26.8576H199.574V25.8633H202.709ZM200.348 24.5565H201.633V29.6772C201.633 29.8501 201.659 29.9826 201.711 30.075C201.766 30.1649 201.837 30.2265 201.924 30.2596C202.012 30.2928 202.109 30.3093 202.216 30.3093C202.296 30.3093 202.37 30.3034 202.436 30.2916C202.504 30.2798 202.557 30.2691 202.592 30.2596L202.809 31.2646C202.74 31.2883 202.642 31.3143 202.514 31.3427C202.388 31.3711 202.235 31.3877 202.052 31.3924C201.73 31.4019 201.44 31.3534 201.182 31.2468C200.924 31.1379 200.719 30.9699 200.568 30.7426C200.419 30.5153 200.345 30.2312 200.348 29.8903V24.5565ZM204.987 28.1218V31.3179H203.702V24.0451H204.959V26.7902H205.023C205.15 26.4824 205.348 26.2397 205.616 26.0622C205.885 25.8823 206.229 25.7923 206.645 25.7923C207.024 25.7923 207.354 25.8716 207.636 26.0302C207.918 26.1888 208.136 26.4209 208.29 26.7263C208.446 27.0316 208.524 27.4045 208.524 27.8449V31.3179H207.238V28.0437C207.238 27.6768 207.144 27.3915 206.954 27.1879C206.767 26.9819 206.505 26.879 206.166 26.879C205.939 26.879 205.735 26.9287 205.555 27.0281C205.378 27.1252 205.238 27.266 205.136 27.4507C205.037 27.6353 204.987 27.8591 204.987 28.1218ZM212.049 31.4244C211.502 31.4244 211.03 31.3108 210.632 31.0835C210.237 30.8539 209.933 30.5295 209.72 30.1105C209.506 29.6891 209.4 29.1931 209.4 28.6226C209.4 28.0615 209.506 27.5691 209.72 27.1453C209.935 26.7191 210.236 26.3877 210.622 26.151C211.007 25.9119 211.461 25.7923 211.982 25.7923C212.318 25.7923 212.635 25.8468 212.933 25.9557C213.234 26.0622 213.499 26.2279 213.729 26.4528C213.961 26.6777 214.143 26.9642 214.276 27.3122C214.408 27.6578 214.475 28.0698 214.475 28.548V28.9422H210.004V28.0757H213.242C213.24 27.8295 213.187 27.6105 213.082 27.4187C212.978 27.2246 212.833 27.0719 212.646 26.9606C212.461 26.8494 212.246 26.7937 211.999 26.7937C211.737 26.7937 211.506 26.8576 211.307 26.9855C211.108 27.111 210.953 27.2767 210.842 27.4826C210.733 27.6862 210.677 27.91 210.675 28.1538V28.9102C210.675 29.2274 210.733 29.4997 210.849 29.727C210.965 29.9519 211.127 30.1247 211.335 30.2454C211.544 30.3638 211.788 30.423 212.067 30.423C212.254 30.423 212.423 30.3969 212.575 30.3449C212.726 30.2904 212.858 30.2111 212.969 30.1069C213.08 30.0028 213.164 29.8737 213.221 29.7199L214.421 29.8548C214.346 30.172 214.201 30.449 213.988 30.6858C213.777 30.9201 213.507 31.1024 213.178 31.2326C212.849 31.3605 212.473 31.4244 212.049 31.4244ZM220.405 25.8633V26.8576H217.181V25.8633H220.405ZM217.987 31.3179V25.3484C217.987 24.9815 218.063 24.6761 218.214 24.4322C218.368 24.1884 218.574 24.0061 218.832 23.8853C219.09 23.7646 219.377 23.7042 219.692 23.7042C219.914 23.7042 220.112 23.722 220.285 23.7575C220.457 23.793 220.585 23.825 220.668 23.8534L220.412 24.8477C220.358 24.8311 220.289 24.8146 220.206 24.798C220.124 24.779 220.031 24.7696 219.929 24.7696C219.69 24.7696 219.521 24.8276 219.422 24.9436C219.325 25.0572 219.276 25.2206 219.276 25.4336V31.3179H217.987ZM222.596 31.428C222.25 31.428 221.939 31.3664 221.662 31.2433C221.388 31.1178 221.17 30.9332 221.009 30.6893C220.85 30.4455 220.771 30.1448 220.771 29.7873C220.771 29.4796 220.828 29.2251 220.941 29.0238C221.055 28.8226 221.21 28.6616 221.406 28.5409C221.603 28.4201 221.824 28.329 222.071 28.2674C222.319 28.2035 222.576 28.1574 222.841 28.129C223.161 28.0958 223.42 28.0662 223.619 28.0402C223.818 28.0118 223.962 27.9691 224.052 27.9123C224.144 27.8531 224.191 27.762 224.191 27.6389V27.6176C224.191 27.3501 224.111 27.1429 223.953 26.9961C223.794 26.8494 223.566 26.776 223.267 26.776C222.952 26.776 222.703 26.8446 222.518 26.9819C222.336 27.1192 222.213 27.2814 222.149 27.4684L220.948 27.298C221.043 26.9665 221.199 26.6896 221.417 26.467C221.635 26.2421 221.901 26.074 222.216 25.9628C222.531 25.8491 222.879 25.7923 223.26 25.7923C223.523 25.7923 223.785 25.8231 224.045 25.8846C224.305 25.9462 224.543 26.048 224.759 26.19C224.974 26.3297 225.147 26.5203 225.277 26.7618C225.41 27.0032 225.476 27.3051 225.476 27.6673V31.3179H224.24V30.5686H224.198C224.12 30.7201 224.009 30.8621 223.867 30.9947C223.728 31.1249 223.551 31.2303 223.338 31.3108C223.128 31.3889 222.88 31.428 222.596 31.428ZM222.93 30.4834C223.188 30.4834 223.412 30.4325 223.601 30.3307C223.79 30.2265 223.936 30.0892 224.038 29.9187C224.142 29.7483 224.194 29.5624 224.194 29.3612V28.7184C224.154 28.7516 224.085 28.7824 223.988 28.8108C223.893 28.8392 223.787 28.864 223.669 28.8853C223.55 28.9066 223.433 28.9256 223.317 28.9422C223.201 28.9587 223.1 28.9729 223.015 28.9848C222.823 29.0108 222.652 29.0534 222.5 29.1126C222.349 29.1718 222.229 29.2547 222.142 29.3612C222.054 29.4654 222.01 29.6003 222.01 29.766C222.01 30.0028 222.097 30.1815 222.269 30.3022C222.442 30.423 222.662 30.4834 222.93 30.4834ZM226.569 31.3179V25.8633H227.815V26.7724H227.872C227.971 26.4575 228.142 26.2149 228.383 26.0444C228.627 25.8716 228.905 25.7852 229.218 25.7852C229.289 25.7852 229.368 25.7888 229.456 25.7959C229.546 25.8006 229.62 25.8089 229.68 25.8207V27.0032C229.625 26.9843 229.539 26.9677 229.42 26.9535C229.304 26.937 229.192 26.9287 229.083 26.9287C228.849 26.9287 228.638 26.9796 228.451 27.0814C228.266 27.1808 228.121 27.3193 228.014 27.4968C227.907 27.6744 227.854 27.8792 227.854 28.1112V31.3179H226.569ZM230.334 31.3179V25.8633H231.562V26.7902H231.626C231.74 26.4777 231.928 26.2338 232.191 26.0586C232.454 25.8811 232.767 25.7923 233.132 25.7923C233.501 25.7923 233.812 25.8823 234.066 26.0622C234.321 26.2397 234.501 26.4824 234.606 26.7902H234.662C234.783 26.4871 234.987 26.2457 235.273 26.0657C235.562 25.8834 235.904 25.7923 236.299 25.7923C236.801 25.7923 237.211 25.9509 237.528 26.2682C237.845 26.5854 238.004 27.0482 238.004 27.6566V31.3179H236.715V27.8555C236.715 27.517 236.625 27.2696 236.445 27.1133C236.265 26.9547 236.045 26.8754 235.785 26.8754C235.474 26.8754 235.232 26.9725 235.057 27.1666C234.884 27.3584 234.797 27.6081 234.797 27.9159V31.3179H233.537V27.8022C233.537 27.5205 233.451 27.2956 233.281 27.1275C233.113 26.9594 232.893 26.8754 232.62 26.8754C232.436 26.8754 232.268 26.9227 232.116 27.0174C231.965 27.1098 231.844 27.2412 231.754 27.4116C231.664 27.5797 231.619 27.7762 231.619 28.0011V31.3179H230.334Z" fill="#201F27"/>
<rect x="133" y="84.3179" width="101" height="22" rx="8" fill="#F7F7F7"/>
<rect x="137" y="90.3179" width="10" height="10" rx="5" fill="#C1A46A"/>
<path d="M150.203 99.3179V92.0451H152.931C153.489 92.0451 153.958 92.1493 154.337 92.3576C154.718 92.566 155.006 92.8524 155.2 93.217C155.396 93.5792 155.494 93.9912 155.494 94.4528C155.494 94.9192 155.396 95.3335 155.2 95.6957C155.003 96.0579 154.713 96.3432 154.33 96.5515C153.946 96.7575 153.474 96.8605 152.913 96.8605H151.105V95.7774H152.735C153.062 95.7774 153.329 95.7206 153.538 95.6069C153.746 95.4933 153.9 95.337 153.999 95.1382C154.101 94.9393 154.152 94.7109 154.152 94.4528C154.152 94.1948 154.101 93.9675 153.999 93.771C153.9 93.5745 153.745 93.4218 153.534 93.3129C153.326 93.2016 153.057 93.146 152.728 93.146H151.521V99.3179H150.203ZM157.854 99.428C157.508 99.428 157.197 99.3664 156.92 99.2433C156.645 99.1178 156.428 98.9332 156.267 98.6893C156.108 98.4455 156.029 98.1448 156.029 97.7873C156.029 97.4796 156.085 97.2251 156.199 97.0238C156.313 96.8226 156.468 96.6616 156.664 96.5409C156.861 96.4201 157.082 96.329 157.328 96.2674C157.577 96.2035 157.834 96.1574 158.099 96.129C158.419 96.0958 158.678 96.0662 158.877 96.0402C159.076 96.0118 159.22 95.9691 159.31 95.9123C159.402 95.8531 159.448 95.762 159.448 95.6389V95.6176C159.448 95.3501 159.369 95.1429 159.21 94.9961C159.052 94.8494 158.823 94.776 158.525 94.776C158.21 94.776 157.96 94.8446 157.776 94.9819C157.594 95.1192 157.47 95.2814 157.407 95.4684L156.206 95.298C156.301 94.9665 156.457 94.6896 156.675 94.467C156.893 94.2421 157.159 94.074 157.474 93.9628C157.789 93.8491 158.137 93.7923 158.518 93.7923C158.781 93.7923 159.042 93.8231 159.303 93.8846C159.563 93.9462 159.801 94.048 160.017 94.19C160.232 94.3297 160.405 94.5203 160.535 94.7618C160.668 95.0032 160.734 95.3051 160.734 95.6673V99.3179H159.498V98.5686H159.456C159.377 98.7201 159.267 98.8621 159.125 98.9947C158.986 99.1249 158.809 99.2303 158.596 99.3108C158.385 99.3889 158.138 99.428 157.854 99.428ZM158.188 98.4834C158.446 98.4834 158.67 98.4325 158.859 98.3307C159.048 98.2265 159.194 98.0892 159.296 97.9187C159.4 97.7483 159.452 97.5624 159.452 97.3612V96.7184C159.412 96.7516 159.343 96.7824 159.246 96.8108C159.151 96.8392 159.045 96.864 158.926 96.8853C158.808 96.9066 158.691 96.9256 158.575 96.9422C158.459 96.9587 158.358 96.9729 158.273 96.9848C158.081 97.0108 157.91 97.0534 157.758 97.1126C157.607 97.1718 157.487 97.2547 157.399 97.3612C157.312 97.4654 157.268 97.6003 157.268 97.766C157.268 98.0028 157.354 98.1815 157.527 98.3022C157.7 98.423 157.92 98.4834 158.188 98.4834ZM166.138 95.3051L164.966 95.4329C164.933 95.3146 164.875 95.2033 164.792 95.0991C164.711 94.995 164.602 94.9109 164.465 94.847C164.328 94.7831 164.16 94.7511 163.961 94.7511C163.693 94.7511 163.468 94.8091 163.286 94.9251C163.106 95.0411 163.017 95.1915 163.02 95.3761C163.017 95.5347 163.075 95.6638 163.194 95.7632C163.314 95.8626 163.513 95.9443 163.79 96.0082L164.721 96.2071C165.237 96.3183 165.62 96.4947 165.871 96.7362C166.125 96.9777 166.252 97.2937 166.255 97.6843C166.252 98.0276 166.152 98.3307 165.953 98.5934C165.756 98.8539 165.483 99.0575 165.133 99.2042C164.782 99.351 164.38 99.4244 163.925 99.4244C163.258 99.4244 162.72 99.2847 162.313 99.0054C161.906 98.7236 161.663 98.3318 161.585 97.8299L162.839 97.7092C162.895 97.9554 163.016 98.1413 163.201 98.2667C163.385 98.3922 163.626 98.4549 163.922 98.4549C164.227 98.4549 164.472 98.3922 164.657 98.2667C164.844 98.1413 164.937 97.9862 164.937 97.8015C164.937 97.6453 164.877 97.5163 164.756 97.4145C164.638 97.3127 164.453 97.2345 164.202 97.1801L163.272 96.9848C162.749 96.8759 162.362 96.6924 162.111 96.4343C161.86 96.1739 161.735 95.8449 161.738 95.4471C161.735 95.111 161.827 94.8198 162.011 94.5736C162.198 94.325 162.457 94.1332 162.789 93.9983C163.123 93.861 163.507 93.7923 163.943 93.7923C164.582 93.7923 165.085 93.9284 165.452 94.2007C165.822 94.4729 166.05 94.8411 166.138 95.3051ZM171.426 95.3051L170.254 95.4329C170.221 95.3146 170.163 95.2033 170.08 95.0991C170 94.995 169.891 94.9109 169.753 94.847C169.616 94.7831 169.448 94.7511 169.249 94.7511C168.982 94.7511 168.757 94.8091 168.574 94.9251C168.394 95.0411 168.306 95.1915 168.308 95.3761C168.306 95.5347 168.364 95.6638 168.482 95.7632C168.603 95.8626 168.802 95.9443 169.079 96.0082L170.009 96.2071C170.525 96.3183 170.909 96.4947 171.16 96.7362C171.413 96.9777 171.541 97.2937 171.543 97.6843C171.541 98.0276 171.44 98.3307 171.241 98.5934C171.045 98.8539 170.771 99.0575 170.421 99.2042C170.071 99.351 169.668 99.4244 169.214 99.4244C168.546 99.4244 168.009 99.2847 167.601 99.0054C167.194 98.7236 166.951 98.3318 166.873 97.8299L168.127 97.7092C168.184 97.9554 168.304 98.1413 168.489 98.2667C168.674 98.3922 168.914 98.4549 169.21 98.4549C169.515 98.4549 169.76 98.3922 169.945 98.2667C170.132 98.1413 170.226 97.9862 170.226 97.8015C170.226 97.6453 170.165 97.5163 170.044 97.4145C169.926 97.3127 169.741 97.2345 169.491 97.1801L168.56 96.9848C168.037 96.8759 167.65 96.6924 167.399 96.4343C167.148 96.1739 167.024 95.8449 167.026 95.4471C167.024 95.111 167.115 94.8198 167.299 94.5736C167.486 94.325 167.746 94.1332 168.077 93.9983C168.411 93.861 168.796 93.7923 169.231 93.7923C169.87 93.7923 170.374 93.9284 170.741 94.2007C171.11 94.4729 171.338 94.8411 171.426 95.3051ZM172.403 99.3179V93.8633H173.689V99.3179H172.403ZM173.049 93.0892C172.846 93.0892 172.671 93.0217 172.524 92.8868C172.377 92.7495 172.304 92.5849 172.304 92.3932C172.304 92.199 172.377 92.0345 172.524 91.8995C172.671 91.7622 172.846 91.6936 173.049 91.6936C173.255 91.6936 173.431 91.7622 173.575 91.8995C173.722 92.0345 173.795 92.199 173.795 92.3932C173.795 92.5849 173.722 92.7495 173.575 92.8868C173.431 93.0217 173.255 93.0892 173.049 93.0892ZM176.096 96.1218V99.3179H174.811V93.8633H176.039V94.7902H176.103C176.229 94.4848 176.429 94.2421 176.703 94.0622C176.98 93.8823 177.322 93.7923 177.73 93.7923C178.106 93.7923 178.434 93.8728 178.713 94.0338C178.995 94.1948 179.213 94.428 179.367 94.7334C179.523 95.0388 179.6 95.4093 179.597 95.8449V99.3179H178.312V96.0437C178.312 95.6791 178.217 95.3939 178.028 95.1879C177.841 94.9819 177.582 94.879 177.25 94.879C177.025 94.879 176.825 94.9287 176.65 95.0281C176.477 95.1252 176.341 95.266 176.242 95.4507C176.145 95.6353 176.096 95.8591 176.096 96.1218ZM183.076 101.477C182.615 101.477 182.218 101.414 181.887 101.289C181.555 101.166 181.289 101 181.088 100.792C180.887 100.583 180.747 100.352 180.669 100.099L181.826 99.8186C181.879 99.9251 181.954 100.03 182.054 100.135C182.153 100.241 182.287 100.329 182.455 100.397C182.625 100.468 182.84 100.504 183.098 100.504C183.462 100.504 183.764 100.415 184.003 100.238C184.242 100.062 184.362 99.7736 184.362 99.3711V98.3378H184.298C184.232 98.4703 184.135 98.6065 184.007 98.7461C183.881 98.8858 183.714 99.003 183.506 99.0977C183.3 99.1924 183.041 99.2397 182.728 99.2397C182.309 99.2397 181.929 99.1415 181.588 98.945C181.25 98.7461 180.98 98.4502 180.779 98.0572C180.58 97.6619 180.481 97.1671 180.481 96.5728C180.481 95.9739 180.58 95.4684 180.779 95.0565C180.98 94.6422 181.251 94.3285 181.592 94.1155C181.933 93.9 182.313 93.7923 182.732 93.7923C183.052 93.7923 183.314 93.8468 183.52 93.9557C183.729 94.0622 183.894 94.1912 184.017 94.3427C184.141 94.4919 184.234 94.6327 184.298 94.7653H184.369V93.8633H185.637V99.4066C185.637 99.873 185.526 100.259 185.303 100.564C185.08 100.87 184.776 101.098 184.39 101.25C184.004 101.401 183.566 101.477 183.076 101.477ZM183.087 98.2312C183.359 98.2312 183.591 98.1649 183.783 98.0324C183.975 97.8998 184.12 97.7092 184.22 97.4606C184.319 97.212 184.369 96.9138 184.369 96.5657C184.369 96.2225 184.319 95.9218 184.22 95.6638C184.123 95.4057 183.978 95.2057 183.787 95.0636C183.597 94.9192 183.364 94.847 183.087 94.847C182.801 94.847 182.562 94.9216 182.37 95.0707C182.178 95.2199 182.034 95.4246 181.937 95.6851C181.839 95.9431 181.791 96.2367 181.791 96.5657C181.791 96.8995 181.839 97.1919 181.937 97.4429C182.036 97.6915 182.182 97.8856 182.373 98.0253C182.567 98.1626 182.805 98.2312 183.087 98.2312ZM191.758 93.8633V94.8576H188.623V93.8633H191.758ZM189.397 92.5565H190.682V97.6772C190.682 97.8501 190.709 97.9826 190.761 98.075C190.815 98.1649 190.886 98.2265 190.974 98.2596C191.061 98.2928 191.158 98.3093 191.265 98.3093C191.345 98.3093 191.419 98.3034 191.485 98.2916C191.554 98.2798 191.606 98.2691 191.641 98.2596L191.858 99.2646C191.789 99.2883 191.691 99.3143 191.563 99.3427C191.438 99.3711 191.284 99.3877 191.101 99.3924C190.78 99.4019 190.49 99.3534 190.231 99.2468C189.973 99.1379 189.769 98.9699 189.617 98.7426C189.468 98.5153 189.395 98.2312 189.397 97.8903V92.5565ZM194.036 96.1218V99.3179H192.751V92.0451H194.008V94.7902H194.072C194.2 94.4824 194.397 94.2397 194.665 94.0622C194.935 93.8823 195.278 93.7923 195.695 93.7923C196.073 93.7923 196.404 93.8716 196.685 94.0302C196.967 94.1888 197.185 94.4209 197.339 94.7263C197.495 95.0316 197.573 95.4045 197.573 95.8449V99.3179H196.288V96.0437C196.288 95.6768 196.193 95.3915 196.004 95.1879C195.817 94.9819 195.554 94.879 195.215 94.879C194.988 94.879 194.784 94.9287 194.604 95.0281C194.427 95.1252 194.287 95.266 194.185 95.4507C194.086 95.6353 194.036 95.8591 194.036 96.1218ZM198.684 99.3179V93.8633H199.93V94.7724H199.987C200.086 94.4575 200.257 94.2149 200.498 94.0444C200.742 93.8716 201.02 93.7852 201.333 93.7852C201.404 93.7852 201.483 93.7888 201.571 93.7959C201.661 93.8006 201.735 93.8089 201.794 93.8207V95.0032C201.74 94.9843 201.653 94.9677 201.535 94.9535C201.419 94.937 201.307 94.9287 201.198 94.9287C200.963 94.9287 200.753 94.9796 200.566 95.0814C200.381 95.1808 200.235 95.3193 200.129 95.4968C200.022 95.6744 199.969 95.8792 199.969 96.1112V99.3179H198.684ZM204.603 99.4244C204.07 99.4244 203.609 99.3072 203.218 99.0728C202.827 98.8385 202.524 98.5106 202.309 98.0892C202.096 97.6678 201.989 97.1754 201.989 96.6119C201.989 96.0485 202.096 95.5549 202.309 95.1311C202.524 94.7073 202.827 94.3782 203.218 94.1439C203.609 93.9095 204.07 93.7923 204.603 93.7923C205.136 93.7923 205.597 93.9095 205.988 94.1439C206.379 94.3782 206.68 94.7073 206.894 95.1311C207.109 95.5549 207.217 96.0485 207.217 96.6119C207.217 97.1754 207.109 97.6678 206.894 98.0892C206.68 98.5106 206.379 98.8385 205.988 99.0728C205.597 99.3072 205.136 99.4244 204.603 99.4244ZM204.61 98.3946C204.899 98.3946 205.14 98.3153 205.335 98.1566C205.529 97.9957 205.673 97.7802 205.768 97.5103C205.865 97.2405 205.913 96.9398 205.913 96.6084C205.913 96.2745 205.865 95.9727 205.768 95.7028C205.673 95.4306 205.529 95.2139 205.335 95.053C205.14 94.892 204.899 94.8115 204.61 94.8115C204.314 94.8115 204.068 94.892 203.872 95.053C203.677 95.2139 203.532 95.4306 203.435 95.7028C203.34 95.9727 203.293 96.2745 203.293 96.6084C203.293 96.9398 203.34 97.2405 203.435 97.5103C203.532 97.7802 203.677 97.9957 203.872 98.1566C204.068 98.3153 204.314 98.3946 204.61 98.3946ZM211.584 97.0238V93.8633H212.87V99.3179H211.623V98.3484H211.567C211.443 98.6538 211.241 98.9036 210.959 99.0977C210.68 99.2918 210.336 99.3889 209.926 99.3889C209.568 99.3889 209.252 99.3096 208.978 99.151C208.706 98.99 208.492 98.7568 208.339 98.4514C208.185 98.1436 208.108 97.7719 208.108 97.3363V93.8633H209.393V97.1375C209.393 97.4831 209.488 97.7577 209.677 97.9613C209.867 98.1649 210.115 98.2667 210.423 98.2667C210.613 98.2667 210.796 98.2206 210.974 98.1282C211.151 98.0359 211.297 97.8986 211.41 97.7163C211.526 97.5316 211.584 97.3008 211.584 97.0238ZM216.364 101.477C215.902 101.477 215.506 101.414 215.174 101.289C214.843 101.166 214.577 101 214.375 100.792C214.174 100.583 214.034 100.352 213.956 100.099L215.114 99.8186C215.166 99.9251 215.242 100.03 215.341 100.135C215.441 100.241 215.574 100.329 215.742 100.397C215.913 100.468 216.127 100.504 216.385 100.504C216.75 100.504 217.052 100.415 217.291 100.238C217.53 100.062 217.649 99.7736 217.649 99.3711V98.3378H217.586C217.519 98.4703 217.422 98.6065 217.294 98.7461C217.169 98.8858 217.002 99.003 216.794 99.0977C216.588 99.1924 216.328 99.2397 216.016 99.2397C215.597 99.2397 215.217 99.1415 214.876 98.945C214.537 98.7461 214.268 98.4502 214.066 98.0572C213.867 97.6619 213.768 97.1671 213.768 96.5728C213.768 95.9739 213.867 95.4684 214.066 95.0565C214.268 94.6422 214.539 94.3285 214.88 94.1155C215.22 93.9 215.6 93.7923 216.019 93.7923C216.339 93.7923 216.602 93.8468 216.808 93.9557C217.016 94.0622 217.182 94.1912 217.305 94.3427C217.428 94.4919 217.522 94.6327 217.586 94.7653H217.657V93.8633H218.924V99.4066C218.924 99.873 218.813 100.259 218.59 100.564C218.368 100.87 218.064 101.098 217.678 101.25C217.292 101.401 216.854 101.477 216.364 101.477ZM216.375 98.2312C216.647 98.2312 216.879 98.1649 217.071 98.0324C217.262 97.8998 217.408 97.7092 217.507 97.4606C217.607 97.212 217.657 96.9138 217.657 96.5657C217.657 96.2225 217.607 95.9218 217.507 95.6638C217.41 95.4057 217.266 95.2057 217.074 95.0636C216.885 94.9192 216.652 94.847 216.375 94.847C216.088 94.847 215.849 94.9216 215.657 95.0707C215.465 95.2199 215.321 95.4246 215.224 95.6851C215.127 95.9431 215.078 96.2367 215.078 96.5657C215.078 96.8995 215.127 97.1919 215.224 97.4429C215.323 97.6915 215.469 97.8856 215.661 98.0253C215.855 98.1626 216.093 98.2312 216.375 98.2312ZM221.327 96.1218V99.3179H220.042V92.0451H221.299V94.7902H221.363C221.491 94.4824 221.688 94.2397 221.956 94.0622C222.226 93.8823 222.569 93.7923 222.986 93.7923C223.364 93.7923 223.695 93.8716 223.976 94.0302C224.258 94.1888 224.476 94.4209 224.63 94.7263C224.786 95.0316 224.864 95.4045 224.864 95.8449V99.3179H223.579V96.0437C223.579 95.6768 223.484 95.3915 223.295 95.1879C223.108 94.9819 222.845 94.879 222.506 94.879C222.279 94.879 222.075 94.9287 221.895 95.0281C221.718 95.1252 221.578 95.266 221.476 95.4507C221.377 95.6353 221.327 95.8591 221.327 96.1218Z" fill="#201F27"/>
<rect x="10" y="132.318" width="67" height="34" rx="8" fill="#EBE9F1"/>
<path d="M31.6092 145.472L32.8447 146.707L31.6092 145.472ZM32.4037 144.385L29.0629 147.725C28.8903 147.898 28.7726 148.117 28.7246 148.356L28.416 149.901L29.9607 149.592C30.1998 149.544 30.4192 149.427 30.5918 149.254L33.9326 145.913C34.033 145.813 34.1126 145.694 34.167 145.563C34.2213 145.432 34.2492 145.291 34.2492 145.149C34.2492 145.007 34.2213 144.866 34.167 144.735C34.1126 144.604 34.033 144.485 33.9326 144.385C33.8322 144.284 33.713 144.204 33.5819 144.15C33.4507 144.096 33.3101 144.068 33.1681 144.068C33.0262 144.068 32.8856 144.096 32.7544 144.15C32.6233 144.204 32.5041 144.284 32.4037 144.385V144.385Z" stroke="#201F27" stroke-width="1.4" stroke-linecap="round" stroke-linejoin="round"/>
<path d="M33.083 151.068V152.818C33.083 153.127 32.9601 153.424 32.7413 153.643C32.5225 153.861 32.2258 153.984 31.9163 153.984H25.4997C25.1903 153.984 24.8935 153.861 24.6747 153.643C24.4559 153.424 24.333 153.127 24.333 152.818V146.401C24.333 146.092 24.4559 145.795 24.6747 145.576C24.8935 145.357 25.1903 145.234 25.4997 145.234H27.2497" stroke="#201F27" stroke-width="1.4" stroke-linecap="round" stroke-linejoin="round"/>
<path d="M43.1634 153.318V144.591H49.0441V146.112H45.0086V148.191H48.7416V149.713H45.0086V151.797H49.0612V153.318H43.1634ZM52.6489 153.424C52.1518 153.424 51.7015 153.297 51.2981 153.041C50.8975 152.782 50.5793 152.403 50.3435 151.903C50.1106 151.4 49.9941 150.784 49.9941 150.054C49.9941 149.304 50.1149 148.68 50.3563 148.183C50.5978 147.683 50.9188 147.309 51.3194 147.062C51.7228 146.812 52.1646 146.687 52.6447 146.687C53.0112 146.687 53.3166 146.75 53.5609 146.875C53.808 146.997 54.0069 147.15 54.1575 147.335C54.3109 147.517 54.4274 147.696 54.5069 147.872H54.5623V144.591H56.3734V153.318H54.5836V152.27H54.5069C54.4217 152.451 54.3009 152.632 54.1447 152.811C53.9913 152.987 53.791 153.133 53.5438 153.25C53.2995 153.366 53.0012 153.424 52.6489 153.424ZM53.2242 151.98C53.5168 151.98 53.764 151.9 53.9657 151.741C54.1702 151.579 54.3265 151.353 54.4345 151.064C54.5452 150.774 54.6006 150.434 54.6006 150.045C54.6006 149.656 54.5467 149.318 54.4387 149.031C54.3308 148.744 54.1745 148.522 53.97 148.366C53.7654 148.21 53.5168 148.132 53.2242 148.132C52.9259 148.132 52.6745 148.213 52.47 148.375C52.2654 148.537 52.1106 148.761 52.0055 149.048C51.9004 149.335 51.8478 149.667 51.8478 150.045C51.8478 150.426 51.9004 150.762 52.0055 151.055C52.1134 151.345 52.2683 151.572 52.47 151.737C52.6745 151.899 52.9259 151.98 53.2242 151.98ZM57.6259 153.318V146.772H59.4413V153.318H57.6259ZM58.5378 145.929C58.268 145.929 58.0364 145.839 57.8432 145.66C57.6529 145.478 57.5577 145.261 57.5577 145.008C57.5577 144.758 57.6529 144.544 57.8432 144.365C58.0364 144.183 58.268 144.092 58.5378 144.092C58.8077 144.092 59.0378 144.183 59.2282 144.365C59.4214 144.544 59.518 144.758 59.518 145.008C59.518 145.261 59.4214 145.478 59.2282 145.66C59.0378 145.839 58.8077 145.929 58.5378 145.929ZM64.137 146.772V148.136H60.1952V146.772H64.137ZM61.0901 145.204H62.9054V151.307C62.9054 151.474 62.931 151.605 62.9822 151.699C63.0333 151.789 63.1043 151.853 63.1952 151.89C63.289 151.927 63.3969 151.946 63.5191 151.946C63.6043 151.946 63.6895 151.939 63.7748 151.924C63.86 151.907 63.9253 151.895 63.9708 151.886L64.2563 153.237C64.1654 153.265 64.0375 153.298 63.8728 153.335C63.708 153.375 63.5077 153.399 63.2719 153.407C62.8344 153.424 62.4509 153.366 62.1214 153.233C61.7947 153.099 61.5404 152.892 61.3586 152.61C61.1768 152.329 61.0873 151.974 61.0901 151.545V145.204Z" fill="#201F27"/>
</g>
<rect x="0.5" y="1.05957" width="314" height="180" stroke="#EBE9F1"/>
<defs>
<clipPath id="clip0_2306_50733">
<rect y="0.55957" width="315" height="181" fill="white"/>
</clipPath>
</defs>
</svg>
