<svg width="313" height="195" viewBox="0 0 313 195" fill="none" xmlns="http://www.w3.org/2000/svg">
<g clip-path="url(#clip0_2306_50786)">
<g clip-path="url(#clip1_2306_50786)">
<g opacity="0.12">
<line x1="26.5" y1="-145.961" x2="26.5" y2="171.039" stroke="#201F27"/>
</g>
<g opacity="0.12">
<line x1="82.5" y1="-145.961" x2="82.5" y2="171.039" stroke="#201F27"/>
</g>
<g opacity="0.12">
<line x1="138.5" y1="-145.961" x2="138.5" y2="171.039" stroke="#201F27"/>
</g>
<g opacity="0.12">
<line x1="194.5" y1="-145.961" x2="194.5" y2="171.039" stroke="#201F27"/>
</g>
<g opacity="0.12">
<line x1="250.5" y1="-145.961" x2="250.5" y2="171.039" stroke="#201F27"/>
</g>
<g opacity="0.12">
<line x1="306.5" y1="-145.961" x2="306.5" y2="171.039" stroke="#201F27"/>
</g>
<path d="M23.9873 185.889V187.051C23.9873 187.607 23.932 188.083 23.8213 188.477C23.7139 188.867 23.5576 189.185 23.3525 189.429C23.1475 189.673 22.9017 189.852 22.6152 189.966C22.332 190.08 22.0146 190.137 21.6631 190.137C21.3831 190.137 21.1227 190.101 20.8818 190.029C20.6442 189.958 20.4294 189.845 20.2373 189.692C20.0452 189.539 19.8809 189.342 19.7441 189.102C19.6107 188.857 19.5065 188.566 19.4316 188.228C19.36 187.889 19.3242 187.497 19.3242 187.051V185.889C19.3242 185.329 19.3796 184.857 19.4902 184.473C19.6009 184.085 19.7588 183.771 19.9639 183.53C20.1689 183.286 20.4131 183.109 20.6963 182.998C20.9827 182.887 21.3018 182.832 21.6533 182.832C21.9365 182.832 22.1969 182.868 22.4346 182.939C22.6755 183.008 22.8903 183.117 23.0791 183.267C23.2712 183.416 23.4339 183.612 23.5674 183.853C23.7041 184.09 23.8083 184.378 23.8799 184.717C23.9515 185.052 23.9873 185.443 23.9873 185.889ZM22.8105 187.217V185.713C22.8105 185.43 22.7943 185.181 22.7617 184.966C22.7292 184.748 22.6803 184.564 22.6152 184.414C22.5534 184.261 22.4753 184.137 22.3809 184.043C22.2865 183.945 22.179 183.875 22.0586 183.833C21.9382 183.787 21.8031 183.765 21.6533 183.765C21.471 183.765 21.3083 183.8 21.165 183.872C21.0218 183.94 20.9014 184.051 20.8037 184.204C20.7061 184.357 20.6312 184.559 20.5791 184.81C20.5303 185.057 20.5059 185.358 20.5059 185.713V187.217C20.5059 187.503 20.5221 187.756 20.5547 187.974C20.5872 188.192 20.6361 188.379 20.7012 188.535C20.7663 188.688 20.8444 188.815 20.9355 188.916C21.0299 189.014 21.1374 189.085 21.2578 189.131C21.3815 189.176 21.5166 189.199 21.6631 189.199C21.8486 189.199 22.013 189.163 22.1562 189.092C22.2995 189.02 22.4199 188.906 22.5176 188.75C22.6152 188.59 22.6885 188.384 22.7373 188.13C22.7861 187.876 22.8105 187.572 22.8105 187.217ZM29.75 182.905V190.039H28.5732V184.302L26.8301 184.893V183.921L29.6084 182.905H29.75Z" fill="#575A60"/>
<path d="M79.9873 185.889V187.051C79.9873 187.607 79.932 188.083 79.8213 188.477C79.7139 188.867 79.5576 189.185 79.3525 189.429C79.1475 189.673 78.9017 189.852 78.6152 189.966C78.332 190.08 78.0146 190.137 77.6631 190.137C77.3831 190.137 77.1227 190.101 76.8818 190.029C76.6442 189.958 76.4294 189.845 76.2373 189.692C76.0452 189.539 75.8809 189.342 75.7441 189.102C75.6107 188.857 75.5065 188.566 75.4316 188.228C75.36 187.889 75.3242 187.497 75.3242 187.051V185.889C75.3242 185.329 75.3796 184.857 75.4902 184.473C75.6009 184.085 75.7588 183.771 75.9639 183.53C76.1689 183.286 76.4131 183.109 76.6963 182.998C76.9827 182.887 77.3018 182.832 77.6533 182.832C77.9365 182.832 78.1969 182.868 78.4346 182.939C78.6755 183.008 78.8903 183.117 79.0791 183.267C79.2712 183.416 79.4339 183.612 79.5674 183.853C79.7041 184.09 79.8083 184.378 79.8799 184.717C79.9515 185.052 79.9873 185.443 79.9873 185.889ZM78.8105 187.217V185.713C78.8105 185.43 78.7943 185.181 78.7617 184.966C78.7292 184.748 78.6803 184.564 78.6152 184.414C78.5534 184.261 78.4753 184.137 78.3809 184.043C78.2865 183.945 78.179 183.875 78.0586 183.833C77.9382 183.787 77.8031 183.765 77.6533 183.765C77.471 183.765 77.3083 183.8 77.165 183.872C77.0218 183.94 76.9014 184.051 76.8037 184.204C76.7061 184.357 76.6312 184.559 76.5791 184.81C76.5303 185.057 76.5059 185.358 76.5059 185.713V187.217C76.5059 187.503 76.5221 187.756 76.5547 187.974C76.5872 188.192 76.6361 188.379 76.7012 188.535C76.7663 188.688 76.8444 188.815 76.9355 188.916C77.0299 189.014 77.1374 189.085 77.2578 189.131C77.3815 189.176 77.5166 189.199 77.6631 189.199C77.8486 189.199 78.013 189.163 78.1562 189.092C78.2995 189.02 78.4199 188.906 78.5176 188.75C78.6152 188.59 78.6885 188.384 78.7373 188.13C78.7861 187.876 78.8105 187.572 78.8105 187.217ZM87.3027 189.102V190.039H82.5371V189.233L84.8516 186.709C85.1055 186.423 85.3057 186.175 85.4521 185.967C85.5986 185.758 85.7012 185.571 85.7598 185.405C85.8216 185.236 85.8525 185.072 85.8525 184.912C85.8525 184.688 85.8102 184.491 85.7256 184.321C85.6442 184.149 85.5238 184.014 85.3643 183.916C85.2048 183.815 85.0111 183.765 84.7832 183.765C84.5195 183.765 84.2982 183.822 84.1191 183.936C83.9401 184.049 83.805 184.207 83.7139 184.409C83.6227 184.608 83.5771 184.836 83.5771 185.093H82.4004C82.4004 184.679 82.4948 184.302 82.6836 183.96C82.8724 183.615 83.1458 183.341 83.5039 183.14C83.862 182.935 84.2933 182.832 84.7979 182.832C85.2731 182.832 85.6768 182.912 86.0088 183.071C86.3408 183.231 86.5931 183.457 86.7656 183.75C86.9414 184.043 87.0293 184.39 87.0293 184.79C87.0293 185.011 86.9935 185.231 86.9219 185.449C86.8503 185.667 86.7477 185.885 86.6143 186.104C86.484 186.318 86.3294 186.535 86.1504 186.753C85.9714 186.968 85.7744 187.186 85.5596 187.407L84.0215 189.102H87.3027Z" fill="#575A60"/>
<path d="M135.987 185.889V187.051C135.987 187.607 135.932 188.083 135.821 188.477C135.714 188.867 135.558 189.185 135.353 189.429C135.147 189.673 134.902 189.852 134.615 189.966C134.332 190.08 134.015 190.137 133.663 190.137C133.383 190.137 133.123 190.101 132.882 190.029C132.644 189.958 132.429 189.845 132.237 189.692C132.045 189.539 131.881 189.342 131.744 189.102C131.611 188.857 131.507 188.566 131.432 188.228C131.36 187.889 131.324 187.497 131.324 187.051V185.889C131.324 185.329 131.38 184.857 131.49 184.473C131.601 184.085 131.759 183.771 131.964 183.53C132.169 183.286 132.413 183.109 132.696 182.998C132.983 182.887 133.302 182.832 133.653 182.832C133.937 182.832 134.197 182.868 134.435 182.939C134.675 183.008 134.89 183.117 135.079 183.267C135.271 183.416 135.434 183.612 135.567 183.853C135.704 184.09 135.808 184.378 135.88 184.717C135.951 185.052 135.987 185.443 135.987 185.889ZM134.811 187.217V185.713C134.811 185.43 134.794 185.181 134.762 184.966C134.729 184.748 134.68 184.564 134.615 184.414C134.553 184.261 134.475 184.137 134.381 184.043C134.286 183.945 134.179 183.875 134.059 183.833C133.938 183.787 133.803 183.765 133.653 183.765C133.471 183.765 133.308 183.8 133.165 183.872C133.022 183.94 132.901 184.051 132.804 184.204C132.706 184.357 132.631 184.559 132.579 184.81C132.53 185.057 132.506 185.358 132.506 185.713V187.217C132.506 187.503 132.522 187.756 132.555 187.974C132.587 188.192 132.636 188.379 132.701 188.535C132.766 188.688 132.844 188.815 132.936 188.916C133.03 189.014 133.137 189.085 133.258 189.131C133.382 189.176 133.517 189.199 133.663 189.199C133.849 189.199 134.013 189.163 134.156 189.092C134.299 189.02 134.42 188.906 134.518 188.75C134.615 188.59 134.688 188.384 134.737 188.13C134.786 187.876 134.811 187.572 134.811 187.217ZM139.919 185.952H140.622C140.896 185.952 141.122 185.905 141.301 185.811C141.483 185.716 141.618 185.586 141.706 185.42C141.794 185.254 141.838 185.063 141.838 184.849C141.838 184.624 141.797 184.432 141.716 184.272C141.638 184.11 141.517 183.984 141.354 183.896C141.195 183.809 140.992 183.765 140.744 183.765C140.536 183.765 140.347 183.807 140.178 183.892C140.012 183.973 139.88 184.09 139.782 184.243C139.685 184.393 139.636 184.572 139.636 184.78H138.454C138.454 184.403 138.553 184.067 138.752 183.774C138.951 183.481 139.221 183.252 139.562 183.086C139.908 182.917 140.295 182.832 140.725 182.832C141.184 182.832 141.584 182.909 141.926 183.062C142.271 183.211 142.539 183.436 142.731 183.735C142.924 184.035 143.02 184.406 143.02 184.849C143.02 185.05 142.972 185.256 142.878 185.464C142.784 185.672 142.644 185.863 142.458 186.035C142.272 186.204 142.041 186.343 141.765 186.45C141.488 186.554 141.167 186.606 140.803 186.606H139.919V185.952ZM139.919 186.87V186.226H140.803C141.219 186.226 141.574 186.274 141.867 186.372C142.163 186.47 142.404 186.605 142.59 186.777C142.775 186.947 142.91 187.14 142.995 187.358C143.083 187.576 143.127 187.808 143.127 188.052C143.127 188.384 143.067 188.68 142.946 188.94C142.829 189.198 142.661 189.416 142.443 189.595C142.225 189.774 141.97 189.909 141.677 190C141.387 190.091 141.071 190.137 140.729 190.137C140.424 190.137 140.131 190.094 139.851 190.01C139.571 189.925 139.32 189.8 139.099 189.634C138.877 189.465 138.701 189.255 138.571 189.004C138.444 188.75 138.381 188.457 138.381 188.125H139.558C139.558 188.337 139.606 188.524 139.704 188.687C139.805 188.846 139.945 188.971 140.124 189.062C140.306 189.154 140.515 189.199 140.749 189.199C140.996 189.199 141.21 189.155 141.389 189.067C141.568 188.979 141.704 188.849 141.799 188.677C141.896 188.504 141.945 188.296 141.945 188.052C141.945 187.775 141.892 187.55 141.784 187.378C141.677 187.205 141.524 187.078 141.325 186.997C141.127 186.912 140.892 186.87 140.622 186.87H139.919Z" fill="#575A60"/>
<path d="M191.987 185.889V187.051C191.987 187.607 191.932 188.083 191.821 188.477C191.714 188.867 191.558 189.185 191.353 189.429C191.147 189.673 190.902 189.852 190.615 189.966C190.332 190.08 190.015 190.137 189.663 190.137C189.383 190.137 189.123 190.101 188.882 190.029C188.644 189.958 188.429 189.845 188.237 189.692C188.045 189.539 187.881 189.342 187.744 189.102C187.611 188.857 187.507 188.566 187.432 188.228C187.36 187.889 187.324 187.497 187.324 187.051V185.889C187.324 185.329 187.38 184.857 187.49 184.473C187.601 184.085 187.759 183.771 187.964 183.53C188.169 183.286 188.413 183.109 188.696 182.998C188.983 182.887 189.302 182.832 189.653 182.832C189.937 182.832 190.197 182.868 190.435 182.939C190.675 183.008 190.89 183.117 191.079 183.267C191.271 183.416 191.434 183.612 191.567 183.853C191.704 184.09 191.808 184.378 191.88 184.717C191.951 185.052 191.987 185.443 191.987 185.889ZM190.811 187.217V185.713C190.811 185.43 190.794 185.181 190.762 184.966C190.729 184.748 190.68 184.564 190.615 184.414C190.553 184.261 190.475 184.137 190.381 184.043C190.286 183.945 190.179 183.875 190.059 183.833C189.938 183.787 189.803 183.765 189.653 183.765C189.471 183.765 189.308 183.8 189.165 183.872C189.022 183.94 188.901 184.051 188.804 184.204C188.706 184.357 188.631 184.559 188.579 184.81C188.53 185.057 188.506 185.358 188.506 185.713V187.217C188.506 187.503 188.522 187.756 188.555 187.974C188.587 188.192 188.636 188.379 188.701 188.535C188.766 188.688 188.844 188.815 188.936 188.916C189.03 189.014 189.137 189.085 189.258 189.131C189.382 189.176 189.517 189.199 189.663 189.199C189.849 189.199 190.013 189.163 190.156 189.092C190.299 189.02 190.42 188.906 190.518 188.75C190.615 188.59 190.688 188.384 190.737 188.13C190.786 187.876 190.811 187.572 190.811 187.217ZM199.435 187.505V188.442H194.308L194.269 187.734L197.335 182.93H198.277L197.257 184.678L195.494 187.505H199.435ZM198.546 182.93V190.039H197.369V182.93H198.546Z" fill="#575A60"/>
<path d="M247.987 185.889V187.051C247.987 187.607 247.932 188.083 247.821 188.477C247.714 188.867 247.558 189.185 247.353 189.429C247.147 189.673 246.902 189.852 246.615 189.966C246.332 190.08 246.015 190.137 245.663 190.137C245.383 190.137 245.123 190.101 244.882 190.029C244.644 189.958 244.429 189.845 244.237 189.692C244.045 189.539 243.881 189.342 243.744 189.102C243.611 188.857 243.507 188.566 243.432 188.228C243.36 187.889 243.324 187.497 243.324 187.051V185.889C243.324 185.329 243.38 184.857 243.49 184.473C243.601 184.085 243.759 183.771 243.964 183.53C244.169 183.286 244.413 183.109 244.696 182.998C244.983 182.887 245.302 182.832 245.653 182.832C245.937 182.832 246.197 182.868 246.435 182.939C246.675 183.008 246.89 183.117 247.079 183.267C247.271 183.416 247.434 183.612 247.567 183.853C247.704 184.09 247.808 184.378 247.88 184.717C247.951 185.052 247.987 185.443 247.987 185.889ZM246.811 187.217V185.713C246.811 185.43 246.794 185.181 246.762 184.966C246.729 184.748 246.68 184.564 246.615 184.414C246.553 184.261 246.475 184.137 246.381 184.043C246.286 183.945 246.179 183.875 246.059 183.833C245.938 183.787 245.803 183.765 245.653 183.765C245.471 183.765 245.308 183.8 245.165 183.872C245.022 183.94 244.901 184.051 244.804 184.204C244.706 184.357 244.631 184.559 244.579 184.81C244.53 185.057 244.506 185.358 244.506 185.713V187.217C244.506 187.503 244.522 187.756 244.555 187.974C244.587 188.192 244.636 188.379 244.701 188.535C244.766 188.688 244.844 188.815 244.936 188.916C245.03 189.014 245.137 189.085 245.258 189.131C245.382 189.176 245.517 189.199 245.663 189.199C245.849 189.199 246.013 189.163 246.156 189.092C246.299 189.02 246.42 188.906 246.518 188.75C246.615 188.59 246.688 188.384 246.737 188.13C246.786 187.876 246.811 187.572 246.811 187.217ZM251.772 186.733L250.835 186.504L251.221 182.93H255.054V183.926H252.197L252.002 185.669C252.113 185.604 252.266 185.54 252.461 185.479C252.656 185.413 252.879 185.381 253.13 185.381C253.465 185.381 253.765 185.436 254.028 185.547C254.295 185.654 254.521 185.812 254.707 186.021C254.893 186.226 255.034 186.476 255.132 186.772C255.229 187.065 255.278 187.396 255.278 187.764C255.278 188.092 255.229 188.4 255.132 188.687C255.037 188.973 254.894 189.225 254.702 189.443C254.51 189.661 254.268 189.832 253.975 189.956C253.685 190.076 253.341 190.137 252.944 190.137C252.648 190.137 252.363 190.094 252.09 190.01C251.82 189.922 251.577 189.793 251.362 189.624C251.147 189.451 250.975 189.24 250.845 188.989C250.715 188.735 250.64 188.444 250.62 188.115H251.772C251.802 188.346 251.865 188.543 251.963 188.706C252.064 188.866 252.197 188.988 252.363 189.072C252.529 189.157 252.721 189.199 252.939 189.199C253.138 189.199 253.309 189.165 253.452 189.097C253.595 189.025 253.714 188.924 253.809 188.794C253.906 188.66 253.978 188.504 254.023 188.325C254.072 188.146 254.097 187.948 254.097 187.729C254.097 187.521 254.069 187.331 254.014 187.158C253.962 186.986 253.882 186.836 253.774 186.709C253.67 186.582 253.538 186.484 253.379 186.416C253.219 186.344 253.035 186.309 252.827 186.309C252.547 186.309 252.332 186.349 252.183 186.431C252.036 186.512 251.899 186.613 251.772 186.733Z" fill="#575A60"/>
<path d="M303.987 185.889V187.051C303.987 187.607 303.932 188.083 303.821 188.477C303.714 188.867 303.558 189.185 303.353 189.429C303.147 189.673 302.902 189.852 302.615 189.966C302.332 190.08 302.015 190.137 301.663 190.137C301.383 190.137 301.123 190.101 300.882 190.029C300.644 189.958 300.429 189.845 300.237 189.692C300.045 189.539 299.881 189.342 299.744 189.102C299.611 188.857 299.507 188.566 299.432 188.228C299.36 187.889 299.324 187.497 299.324 187.051V185.889C299.324 185.329 299.38 184.857 299.49 184.473C299.601 184.085 299.759 183.771 299.964 183.53C300.169 183.286 300.413 183.109 300.696 182.998C300.983 182.887 301.302 182.832 301.653 182.832C301.937 182.832 302.197 182.868 302.435 182.939C302.675 183.008 302.89 183.117 303.079 183.267C303.271 183.416 303.434 183.612 303.567 183.853C303.704 184.09 303.808 184.378 303.88 184.717C303.951 185.052 303.987 185.443 303.987 185.889ZM302.811 187.217V185.713C302.811 185.43 302.794 185.181 302.762 184.966C302.729 184.748 302.68 184.564 302.615 184.414C302.553 184.261 302.475 184.137 302.381 184.043C302.286 183.945 302.179 183.875 302.059 183.833C301.938 183.787 301.803 183.765 301.653 183.765C301.471 183.765 301.308 183.8 301.165 183.872C301.022 183.94 300.901 184.051 300.804 184.204C300.706 184.357 300.631 184.559 300.579 184.81C300.53 185.057 300.506 185.358 300.506 185.713V187.217C300.506 187.503 300.522 187.756 300.555 187.974C300.587 188.192 300.636 188.379 300.701 188.535C300.766 188.688 300.844 188.815 300.936 188.916C301.03 189.014 301.137 189.085 301.258 189.131C301.382 189.176 301.517 189.199 301.663 189.199C301.849 189.199 302.013 189.163 302.156 189.092C302.299 189.02 302.42 188.906 302.518 188.75C302.615 188.59 302.688 188.384 302.737 188.13C302.786 187.876 302.811 187.572 302.811 187.217ZM310.092 182.886H310.238V183.848H310.155C309.735 183.848 309.372 183.913 309.066 184.043C308.764 184.173 308.515 184.352 308.319 184.58C308.124 184.808 307.978 185.075 307.88 185.381C307.785 185.684 307.738 186.006 307.738 186.348V187.466C307.738 187.749 307.769 188 307.831 188.218C307.893 188.433 307.979 188.613 308.09 188.76C308.204 188.903 308.334 189.012 308.48 189.087C308.627 189.162 308.785 189.199 308.954 189.199C309.13 189.199 309.289 189.163 309.433 189.092C309.576 189.017 309.698 188.914 309.799 188.784C309.9 188.654 309.976 188.499 310.028 188.32C310.08 188.141 310.106 187.946 310.106 187.734C310.106 187.533 310.08 187.344 310.028 187.168C309.979 186.989 309.906 186.833 309.809 186.699C309.711 186.562 309.589 186.457 309.442 186.382C309.299 186.304 309.133 186.265 308.944 186.265C308.71 186.265 308.497 186.32 308.305 186.431C308.116 186.541 307.963 186.686 307.846 186.865C307.732 187.041 307.67 187.228 307.66 187.427L307.211 187.28C307.237 186.978 307.304 186.706 307.411 186.465C307.522 186.224 307.667 186.019 307.846 185.85C308.025 185.68 308.231 185.552 308.466 185.464C308.703 185.373 308.964 185.327 309.247 185.327C309.592 185.327 309.892 185.392 310.146 185.522C310.399 185.653 310.609 185.83 310.775 186.055C310.945 186.276 311.07 186.53 311.151 186.816C311.236 187.1 311.278 187.396 311.278 187.705C311.278 188.047 311.226 188.366 311.122 188.662C311.018 188.955 310.865 189.212 310.663 189.434C310.465 189.655 310.222 189.827 309.936 189.951C309.652 190.075 309.33 190.137 308.969 190.137C308.588 190.137 308.248 190.063 307.948 189.917C307.652 189.771 307.4 189.569 307.191 189.312C306.986 189.054 306.83 188.758 306.723 188.423C306.615 188.088 306.562 187.733 306.562 187.358V186.87C306.562 186.33 306.63 185.82 306.767 185.342C306.903 184.86 307.113 184.435 307.396 184.067C307.683 183.7 308.049 183.411 308.495 183.203C308.941 182.992 309.473 182.886 310.092 182.886Z" fill="#575A60"/>
</g>
<g clip-path="url(#clip2_2306_50786)">
<rect x="2" y="22.0391" width="102" height="32" rx="16" fill="#ECEFF1"/>
<path d="M61.7657 36.858C61.7373 36.5715 61.6154 36.349 61.3999 36.1903C61.1845 36.0317 60.8921 35.9524 60.5228 35.9524C60.2719 35.9524 60.06 35.9879 59.8871 36.0589C59.7143 36.1276 59.5817 36.2235 59.4894 36.3466C59.3995 36.4697 59.3545 36.6094 59.3545 36.7656C59.3497 36.8958 59.377 37.0095 59.4362 37.1065C59.4977 37.2036 59.5817 37.2876 59.6883 37.3587C59.7948 37.4273 59.9179 37.4877 60.0576 37.5398C60.1973 37.5895 60.3464 37.6321 60.505 37.6676L61.1585 37.8239C61.4757 37.8949 61.7669 37.9896 62.032 38.108C62.2972 38.2263 62.5268 38.3719 62.721 38.5447C62.9151 38.7176 63.0654 38.9212 63.1719 39.1555C63.2808 39.3899 63.3365 39.6586 63.3389 39.9616C63.3365 40.4067 63.2228 40.7926 62.9979 41.1193C62.7754 41.4437 62.4534 41.6958 62.032 41.8757C61.613 42.0533 61.1076 42.142 60.5157 42.142C59.9286 42.142 59.4172 42.0521 58.9816 41.8722C58.5484 41.6922 58.2098 41.4259 57.966 41.0732C57.7245 40.718 57.5978 40.2789 57.586 39.7557H59.0739C59.0905 39.9995 59.1603 40.2031 59.2835 40.3665C59.4089 40.5275 59.5758 40.6494 59.7842 40.7322C59.9949 40.8127 60.2328 40.853 60.4979 40.853C60.7584 40.853 60.9844 40.8151 61.1762 40.7393C61.3703 40.6636 61.5207 40.5582 61.6272 40.4233C61.7337 40.2884 61.787 40.1333 61.787 39.9581C61.787 39.7947 61.7385 39.6574 61.6414 39.5462C61.5467 39.4349 61.407 39.3402 61.2224 39.2621C61.0401 39.1839 60.8164 39.1129 60.5512 39.049L59.7593 38.8501C59.1461 38.701 58.662 38.4678 58.3069 38.1506C57.9518 37.8333 57.7754 37.406 57.7778 36.8686C57.7754 36.4283 57.8926 36.0436 58.1293 35.7145C58.3684 35.3854 58.6963 35.1286 59.113 34.9439C59.5297 34.7592 60.0031 34.6669 60.5335 34.6669C61.0732 34.6669 61.5443 34.7592 61.9468 34.9439C62.3516 35.1286 62.6665 35.3854 62.8914 35.7145C63.1163 36.0436 63.2323 36.4247 63.2394 36.858H61.7657ZM67.046 36.5845V37.7209H63.7612V36.5845H67.046ZM64.5069 35.2777H66.0197V40.3629C66.0197 40.5026 66.041 40.6115 66.0836 40.6896C66.1262 40.7654 66.1854 40.8187 66.2612 40.8494C66.3393 40.8802 66.4293 40.8956 66.5311 40.8956C66.6021 40.8956 66.6731 40.8897 66.7441 40.8778C66.8152 40.8636 66.8696 40.853 66.9075 40.8459L67.1454 41.9716C67.0697 41.9953 66.9631 42.0225 66.8258 42.0533C66.6885 42.0864 66.5216 42.1065 66.3251 42.1136C65.9605 42.1278 65.6409 42.0793 65.3663 41.968C65.094 41.8568 64.8822 41.6839 64.7306 41.4496C64.5791 41.2152 64.5046 40.9193 64.5069 40.5618V35.2777ZM70.2586 42.1456C69.6976 42.1456 69.2146 42.032 68.8098 41.8047C68.4073 41.575 68.0972 41.2507 67.8794 40.8317C67.6616 40.4103 67.5527 39.9119 67.5527 39.3366C67.5527 38.7756 67.6616 38.2831 67.8794 37.8594C68.0972 37.4356 68.4038 37.1054 68.7991 36.8686C69.1968 36.6319 69.6632 36.5135 70.1983 36.5135C70.5581 36.5135 70.8931 36.5715 71.2032 36.6875C71.5157 36.8011 71.788 36.9728 72.02 37.2024C72.2544 37.4321 72.4367 37.7209 72.5669 38.0689C72.6971 38.4145 72.7622 38.8194 72.7622 39.2834V39.6989H68.1564V38.7614H71.3382C71.3382 38.5436 71.2908 38.3506 71.1961 38.1825C71.1014 38.0144 70.97 37.883 70.802 37.7884C70.6362 37.6913 70.4433 37.6428 70.2231 37.6428C69.9935 37.6428 69.7899 37.696 69.6123 37.8026C69.4371 37.9067 69.2998 38.0476 69.2004 38.2251C69.101 38.4003 69.0501 38.5956 69.0477 38.8111V39.7024C69.0477 39.9723 69.0974 40.2055 69.1968 40.402C69.2986 40.5985 69.4419 40.75 69.6265 40.8565C69.8112 40.9631 70.0302 41.0163 70.2835 41.0163C70.4516 41.0163 70.6055 40.9927 70.7451 40.9453C70.8848 40.898 71.0044 40.8269 71.1038 40.7322C71.2032 40.6375 71.279 40.5215 71.3311 40.3842L72.7302 40.4766C72.6592 40.8127 72.5136 41.1063 72.2934 41.3572C72.0756 41.6058 71.7939 41.8 71.4483 41.9396C71.105 42.0769 70.7084 42.1456 70.2586 42.1456ZM78.4881 36.5845L76.5812 42.0391H74.8766L72.9697 36.5845H74.5677L75.7005 40.4872H75.7573L76.8866 36.5845H78.4881ZM81.3723 42.1456C80.8112 42.1456 80.3283 42.032 79.9234 41.8047C79.521 41.575 79.2108 41.2507 78.993 40.8317C78.7752 40.4103 78.6663 39.9119 78.6663 39.3366C78.6663 38.7756 78.7752 38.2831 78.993 37.8594C79.2108 37.4356 79.5174 37.1054 79.9128 36.8686C80.3105 36.6319 80.7769 36.5135 81.3119 36.5135C81.6718 36.5135 82.0068 36.5715 82.3169 36.6875C82.6294 36.8011 82.9017 36.9728 83.1337 37.2024C83.368 37.4321 83.5503 37.7209 83.6805 38.0689C83.8107 38.4145 83.8759 38.8194 83.8759 39.2834V39.6989H79.27V38.7614H82.4518C82.4518 38.5436 82.4045 38.3506 82.3098 38.1825C82.2151 38.0144 82.0837 37.883 81.9156 37.7884C81.7499 37.6913 81.557 37.6428 81.3368 37.6428C81.1072 37.6428 80.9036 37.696 80.726 37.8026C80.5508 37.9067 80.4135 38.0476 80.3141 38.2251C80.2146 38.4003 80.1637 38.5956 80.1614 38.8111V39.7024C80.1614 39.9723 80.2111 40.2055 80.3105 40.402C80.4123 40.5985 80.5555 40.75 80.7402 40.8565C80.9249 40.9631 81.1438 41.0163 81.3972 41.0163C81.5652 41.0163 81.7191 40.9927 81.8588 40.9453C81.9985 40.898 82.118 40.8269 82.2175 40.7322C82.3169 40.6375 82.3927 40.5215 82.4447 40.3842L83.8439 40.4766C83.7729 40.8127 83.6273 41.1063 83.4071 41.3572C83.1893 41.6058 82.9076 41.8 82.5619 41.9396C82.2187 42.0769 81.8221 42.1456 81.3723 42.1456ZM86.1758 38.8857V42.0391H84.6631V36.5845H86.1048V37.5469H86.1687C86.2895 37.2296 86.4919 36.9787 86.776 36.794C87.0601 36.607 87.4045 36.5135 87.8094 36.5135C88.1882 36.5135 88.5184 36.5964 88.8001 36.7621C89.0819 36.9278 89.3008 37.1645 89.4571 37.4723C89.6133 37.7777 89.6915 38.1423 89.6915 38.5661V42.0391H88.1787V38.8359C88.1811 38.5021 88.0958 38.2417 87.923 38.0547C87.7502 37.8653 87.5123 37.7706 87.2092 37.7706C87.0056 37.7706 86.8257 37.8144 86.6695 37.902C86.5156 37.9896 86.3948 38.1174 86.3072 38.2855C86.222 38.4512 86.1782 38.6513 86.1758 38.8857Z" fill="#201F27"/>
<path d="M14.0801 35.6392L18.0801 39.6392L22.0801 35.6392H14.0801Z" fill="#575A60"/>
<rect x="126" y="22.0391" width="125" height="32" rx="16" fill="#ECEFF1"/>
<rect x="145.172" y="34.439" width="1.5" height="8" fill="#575A60"/>
<rect x="141.922" y="39.189" width="1.5" height="8" transform="rotate(-90 141.922 39.189)" fill="#575A60"/>
<path d="M165.321 34.7663V42.0391H163.993L160.828 37.4616H160.775V42.0391H159.238V34.7663H160.587L163.726 39.3402H163.79V34.7663H165.321ZM168.848 42.1456C168.287 42.1456 167.804 42.032 167.4 41.8047C166.997 41.575 166.687 41.2507 166.469 40.8317C166.251 40.4103 166.143 39.9119 166.143 39.3366C166.143 38.7756 166.251 38.2831 166.469 37.8594C166.687 37.4356 166.994 37.1054 167.389 36.8686C167.787 36.6319 168.253 36.5135 168.788 36.5135C169.148 36.5135 169.483 36.5715 169.793 36.6875C170.106 36.8011 170.378 36.9728 170.61 37.2024C170.844 37.4321 171.027 37.7209 171.157 38.0689C171.287 38.4145 171.352 38.8194 171.352 39.2834V39.6989H166.746V38.7614H169.928C169.928 38.5436 169.881 38.3506 169.786 38.1825C169.691 38.0144 169.56 37.883 169.392 37.7884C169.226 37.6913 169.033 37.6428 168.813 37.6428C168.583 37.6428 168.38 37.696 168.202 37.8026C168.027 37.9067 167.89 38.0476 167.79 38.2251C167.691 38.4003 167.64 38.5956 167.638 38.8111V39.7024C167.638 39.9723 167.687 40.2055 167.787 40.402C167.888 40.5985 168.032 40.75 168.216 40.8565C168.401 40.9631 168.62 41.0163 168.873 41.0163C169.041 41.0163 169.195 40.9927 169.335 40.9453C169.475 40.898 169.594 40.8269 169.694 40.7322C169.793 40.6375 169.869 40.5215 169.921 40.3842L171.32 40.4766C171.249 40.8127 171.103 41.1063 170.883 41.3572C170.665 41.6058 170.384 41.8 170.038 41.9396C169.695 42.0769 169.298 42.1456 168.848 42.1456ZM173.176 42.0391L171.692 36.5845H173.222L174.068 40.2493H174.117L174.998 36.5845H176.5L177.395 40.228H177.441L178.272 36.5845H179.799L178.318 42.0391H176.717L175.779 38.6087H175.712L174.774 42.0391H173.176ZM182.549 42.0391V34.7663H187.449V36.0341H184.087V37.767H187.197V39.0348H184.087V40.7713H187.464V42.0391H182.549ZM193.529 36.5845L191.622 42.0391H189.917L188.01 36.5845H189.608L190.741 40.4872H190.798L191.927 36.5845H193.529ZM196.413 42.1456C195.852 42.1456 195.369 42.032 194.964 41.8047C194.562 41.575 194.251 41.2507 194.034 40.8317C193.816 40.4103 193.707 39.9119 193.707 39.3366C193.707 38.7756 193.816 38.2831 194.034 37.8594C194.251 37.4356 194.558 37.1054 194.953 36.8686C195.351 36.6319 195.818 36.5135 196.353 36.5135C196.712 36.5135 197.047 36.5715 197.358 36.6875C197.67 36.8011 197.942 36.9728 198.174 37.2024C198.409 37.4321 198.591 37.7209 198.721 38.0689C198.851 38.4145 198.916 38.8194 198.916 39.2834V39.6989H194.311V38.7614H197.492C197.492 38.5436 197.445 38.3506 197.35 38.1825C197.256 38.0144 197.124 37.883 196.956 37.7884C196.791 37.6913 196.598 37.6428 196.377 37.6428C196.148 37.6428 195.944 37.696 195.767 37.8026C195.591 37.9067 195.454 38.0476 195.355 38.2251C195.255 38.4003 195.204 38.5956 195.202 38.8111V39.7024C195.202 39.9723 195.252 40.2055 195.351 40.402C195.453 40.5985 195.596 40.75 195.781 40.8565C195.965 40.9631 196.184 41.0163 196.438 41.0163C196.606 41.0163 196.76 40.9927 196.899 40.9453C197.039 40.898 197.159 40.8269 197.258 40.7322C197.358 40.6375 197.433 40.5215 197.485 40.3842L198.885 40.4766C198.813 40.8127 198.668 41.1063 198.448 41.3572C198.23 41.6058 197.948 41.8 197.603 41.9396C197.259 42.0769 196.863 42.1456 196.413 42.1456ZM201.216 38.8857V42.0391H199.704V36.5845H201.145V37.5469H201.209C201.33 37.2296 201.533 36.9787 201.817 36.794C202.101 36.607 202.445 36.5135 202.85 36.5135C203.229 36.5135 203.559 36.5964 203.841 36.7621C204.122 36.9278 204.341 37.1645 204.498 37.4723C204.654 37.7777 204.732 38.1423 204.732 38.5661V42.0391H203.219V38.8359C203.222 38.5021 203.136 38.2417 202.964 38.0547C202.791 37.8653 202.553 37.7706 202.25 37.7706C202.046 37.7706 201.866 37.8144 201.71 37.902C201.556 37.9896 201.435 38.1174 201.348 38.2855C201.263 38.4512 201.219 38.6513 201.216 38.8857ZM208.626 36.5845V37.7209H205.341V36.5845H208.626ZM206.087 35.2777H207.599V40.3629C207.599 40.5026 207.621 40.6115 207.663 40.6896C207.706 40.7654 207.765 40.8187 207.841 40.8494C207.919 40.8802 208.009 40.8956 208.111 40.8956C208.182 40.8956 208.253 40.8897 208.324 40.8778C208.395 40.8636 208.449 40.853 208.487 40.8459L208.725 41.9716C208.649 41.9953 208.543 42.0225 208.406 42.0533C208.268 42.0864 208.101 42.1065 207.905 42.1136C207.54 42.1278 207.221 42.0793 206.946 41.968C206.674 41.8568 206.462 41.6839 206.31 41.4496C206.159 41.2152 206.084 40.9193 206.087 40.5618V35.2777ZM211.554 42.0391V34.7663H214.466C215.001 34.7663 215.447 34.8456 215.805 35.0043C216.162 35.1629 216.431 35.383 216.611 35.6648C216.791 35.9441 216.881 36.2661 216.881 36.6307C216.881 36.9148 216.824 37.1645 216.71 37.38C216.597 37.593 216.44 37.7682 216.241 37.9055C216.045 38.0405 215.82 38.1364 215.567 38.1932V38.2642C215.844 38.276 216.103 38.3542 216.344 38.4986C216.588 38.643 216.786 38.8454 216.938 39.1058C217.089 39.3639 217.165 39.6716 217.165 40.0291C217.165 40.415 217.069 40.7595 216.877 41.0625C216.688 41.3632 216.407 41.6011 216.036 41.7763C215.664 41.9515 215.206 42.0391 214.661 42.0391H211.554ZM213.092 40.782H214.345C214.774 40.782 215.086 40.7003 215.283 40.5369C215.479 40.3712 215.577 40.151 215.577 39.8764C215.577 39.6752 215.529 39.4976 215.432 39.3438C215.335 39.1899 215.196 39.0691 215.016 38.9815C214.839 38.8939 214.627 38.8501 214.381 38.8501H213.092V40.782ZM213.092 37.8097H214.232C214.442 37.8097 214.629 37.773 214.793 37.6996C214.958 37.6238 215.089 37.5173 215.183 37.38C215.28 37.2427 215.329 37.0781 215.329 36.8864C215.329 36.6236 215.235 36.4117 215.048 36.2507C214.864 36.0897 214.601 36.0092 214.26 36.0092H213.092V37.8097ZM219.45 34.7663V42.0391H217.937V34.7663H219.45ZM222.926 42.1456C222.374 42.1456 221.897 42.0284 221.495 41.794C221.095 41.5573 220.786 41.2282 220.568 40.8068C220.35 40.383 220.241 39.8918 220.241 39.3331C220.241 38.7696 220.35 38.2772 220.568 37.8558C220.786 37.4321 221.095 37.103 221.495 36.8686C221.897 36.6319 222.374 36.5135 222.926 36.5135C223.478 36.5135 223.953 36.6319 224.354 36.8686C224.756 37.103 225.066 37.4321 225.284 37.8558C225.502 38.2772 225.611 38.7696 225.611 39.3331C225.611 39.8918 225.502 40.383 225.284 40.8068C225.066 41.2282 224.756 41.5573 224.354 41.794C223.953 42.0284 223.478 42.1456 222.926 42.1456ZM222.933 40.9737C223.184 40.9737 223.394 40.9027 223.562 40.7607C223.73 40.6162 223.856 40.4197 223.942 40.1712C224.029 39.9226 224.073 39.6397 224.073 39.3224C224.073 39.0052 224.029 38.7223 223.942 38.4737C223.856 38.2251 223.73 38.0286 223.562 37.8842C223.394 37.7398 223.184 37.6676 222.933 37.6676C222.68 37.6676 222.467 37.7398 222.294 37.8842C222.123 38.0286 221.994 38.2251 221.907 38.4737C221.822 38.7223 221.779 39.0052 221.779 39.3224C221.779 39.6397 221.822 39.9226 221.907 40.1712C221.994 40.4197 222.123 40.6162 222.294 40.7607C222.467 40.9027 222.68 40.9737 222.933 40.9737ZM228.859 42.1456C228.3 42.1456 227.82 42.0272 227.417 41.7905C227.017 41.5514 226.709 41.2199 226.494 40.7962C226.281 40.3724 226.174 39.8847 226.174 39.3331C226.174 38.7744 226.282 38.2843 226.497 37.8629C226.715 37.4392 227.024 37.1089 227.424 36.8722C227.824 36.633 228.3 36.5135 228.852 36.5135C229.328 36.5135 229.744 36.5999 230.102 36.7727C230.459 36.9455 230.742 37.1882 230.95 37.5007C231.159 37.8132 231.274 38.1802 231.295 38.6016H229.867C229.827 38.3293 229.721 38.1103 229.548 37.9446C229.377 37.7765 229.154 37.6925 228.877 37.6925C228.642 37.6925 228.437 37.7564 228.262 37.8842C228.089 38.0097 227.954 38.1932 227.857 38.4347C227.76 38.6761 227.712 38.9685 227.712 39.3118C227.712 39.6598 227.759 39.9557 227.854 40.1996C227.951 40.4434 228.087 40.6293 228.262 40.7571C228.437 40.8849 228.642 40.9489 228.877 40.9489C229.049 40.9489 229.204 40.9134 229.342 40.8423C229.481 40.7713 229.596 40.6683 229.686 40.5334C229.779 40.3961 229.839 40.2315 229.867 40.0398H231.295C231.271 40.4564 231.158 40.8234 230.954 41.1406C230.753 41.4555 230.475 41.7017 230.119 41.8793C229.764 42.0568 229.344 42.1456 228.859 42.1456ZM233.434 40.4695L233.438 38.6548H233.658L235.405 36.5845H237.142L234.794 39.326H234.436L233.434 40.4695ZM232.063 42.0391V34.7663H233.576V42.0391H232.063ZM235.473 42.0391L233.867 39.6634L234.876 38.5945L237.245 42.0391H235.473Z" fill="#201F27"/>
<rect x="2" y="62.0391" width="249" height="48" rx="4" fill="#499C60"/>
<g style="mix-blend-mode:multiply">
<path d="M2 66.0391C2 63.8299 3.79086 62.0391 6 62.0391H247C249.209 62.0391 251 63.8299 251 66.0391V106.039C251 108.248 249.209 110.039 247 110.039H6.00001C3.79087 110.039 2 108.248 2 106.039V66.0391Z" fill="#499C60"/>
</g>
<g style="mix-blend-mode:multiply">
<path d="M2 66.0391C2 63.8299 3.79086 62.0391 6 62.0391H186.587V110.039H5.99999C3.79086 110.039 2 108.248 2 106.039V66.0391Z" fill="#499C60"/>
</g>
<path d="M13.1818 90.0391H10.7173V82.7663H13.2315C13.9536 82.7663 14.5739 82.9119 15.0923 83.2031C15.6132 83.492 16.0133 83.9074 16.2926 84.4496C16.572 84.9917 16.7116 85.6404 16.7116 86.3956C16.7116 87.1532 16.5708 87.8042 16.2891 88.3487C16.0097 88.8932 15.6061 89.3111 15.0781 89.6023C14.5526 89.8935 13.9205 90.0391 13.1818 90.0391ZM12.0348 88.8991H13.1179C13.6245 88.8991 14.0471 88.8068 14.3857 88.6222C14.7242 88.4351 14.9787 88.157 15.1491 87.7876C15.3196 87.416 15.4048 86.9519 15.4048 86.3956C15.4048 85.8393 15.3196 85.3776 15.1491 85.0107C14.9787 84.6413 14.7266 84.3655 14.3928 84.1832C14.0613 83.9986 13.6494 83.9062 13.157 83.9062H12.0348V88.8991ZM20.1214 90.1456C19.5745 90.1456 19.1022 90.032 18.7045 89.8047C18.3091 89.575 18.0049 89.2507 17.7918 88.8317C17.5788 88.4103 17.4722 87.9143 17.4722 87.3438C17.4722 86.7827 17.5788 86.2902 17.7918 85.8665C18.0073 85.4403 18.3079 85.1089 18.6938 84.8722C19.0797 84.633 19.5331 84.5135 20.0539 84.5135C20.3901 84.5135 20.7073 84.5679 21.0056 84.6768C21.3063 84.7834 21.5714 84.9491 21.8011 85.174C22.0331 85.3989 22.2154 85.6854 22.3479 86.0334C22.4805 86.379 22.5468 86.791 22.5468 87.2692V87.6634H18.0759V86.7969H21.3146C21.3122 86.5507 21.2589 86.3317 21.1548 86.1399C21.0506 85.9458 20.905 85.7931 20.718 85.6818C20.5333 85.5705 20.3179 85.5149 20.0717 85.5149C19.8089 85.5149 19.5781 85.5788 19.3792 85.7067C19.1803 85.8321 19.0253 85.9979 18.914 86.2038C18.8051 86.4074 18.7495 86.6312 18.7471 86.875V87.6314C18.7471 87.9486 18.8051 88.2209 18.9211 88.4482C19.0371 88.6731 19.1993 88.8459 19.4076 88.9666C19.6159 89.085 19.8598 89.1442 20.1391 89.1442C20.3262 89.1442 20.4954 89.1181 20.6469 89.0661C20.7985 89.0116 20.9299 88.9323 21.0411 88.8281C21.1524 88.724 21.2364 88.5949 21.2933 88.4411L22.4935 88.576C22.4178 88.8932 22.2734 89.1702 22.0603 89.407C21.8496 89.6413 21.5797 89.8236 21.2506 89.9538C20.9216 90.0817 20.5451 90.1456 20.1214 90.1456ZM27.7454 86.0263L26.5735 86.1541C26.5404 86.0357 26.4824 85.9245 26.3995 85.8203C26.319 85.7161 26.2101 85.6321 26.0728 85.5682C25.9355 85.5043 25.7674 85.4723 25.5686 85.4723C25.3011 85.4723 25.0761 85.5303 24.8939 85.6463C24.7139 85.7623 24.6252 85.9126 24.6275 86.0973C24.6252 86.2559 24.6832 86.3849 24.8015 86.4844C24.9223 86.5838 25.1211 86.6655 25.3981 86.7294L26.3285 86.9283C26.8446 87.0395 27.2281 87.2159 27.4791 87.4574C27.7324 87.6989 27.8602 88.0149 27.8626 88.4055C27.8602 88.7488 27.7596 89.0518 27.5608 89.3146C27.3643 89.575 27.0908 89.7786 26.7404 89.9254C26.3901 90.0722 25.9876 90.1456 25.5331 90.1456C24.8654 90.1456 24.328 90.0059 23.9208 89.7266C23.5136 89.4448 23.271 89.053 23.1929 88.5511L24.4464 88.4304C24.5032 88.6766 24.624 88.8625 24.8086 88.9879C24.9933 89.1134 25.2336 89.1761 25.5295 89.1761C25.8349 89.1761 26.0799 89.1134 26.2646 88.9879C26.4516 88.8625 26.5451 88.7074 26.5451 88.5227C26.5451 88.3665 26.4848 88.2375 26.364 88.1357C26.2457 88.0339 26.061 87.9557 25.8101 87.9013L24.8797 87.706C24.3565 87.5971 23.9694 87.4136 23.7184 87.1555C23.4675 86.8951 23.3432 86.5661 23.3456 86.1683C23.3432 85.8321 23.4343 85.541 23.619 85.2947C23.806 85.0462 24.0653 84.8544 24.3967 84.7195C24.7305 84.5821 25.1152 84.5135 25.5508 84.5135C26.19 84.5135 26.6931 84.6496 27.0601 84.9219C27.4294 85.1941 27.6578 85.5623 27.7454 86.0263ZM31.1019 90.1456C30.5574 90.1456 30.0898 90.026 29.6992 89.7869C29.3109 89.5478 29.0114 89.2176 28.8007 88.7962C28.5924 88.3724 28.4882 87.8847 28.4882 87.3331C28.4882 86.7791 28.5948 86.2902 28.8078 85.8665C29.0209 85.4403 29.3216 85.1089 29.7098 84.8722C30.1005 84.633 30.5621 84.5135 31.0948 84.5135C31.5375 84.5135 31.9293 84.5952 32.2702 84.7585C32.6135 84.9195 32.8869 85.148 33.0905 85.4439C33.2941 85.7375 33.4101 86.0807 33.4385 86.4737H32.2098C32.1601 86.2109 32.0417 85.992 31.8547 85.8168C31.6701 85.6392 31.4227 85.5504 31.1125 85.5504C30.8498 85.5504 30.6189 85.6214 30.4201 85.7635C30.2212 85.9032 30.0661 86.1044 29.9549 86.3672C29.846 86.63 29.7915 86.9448 29.7915 87.3118C29.7915 87.6835 29.846 88.0031 29.9549 88.2706C30.0638 88.5357 30.2165 88.7405 30.413 88.8849C30.6118 89.027 30.845 89.098 31.1125 89.098C31.3019 89.098 31.4712 89.0625 31.6203 88.9915C31.7719 88.9181 31.8985 88.8127 32.0003 88.6754C32.1021 88.5381 32.172 88.3712 32.2098 88.1747H33.4385C33.4078 88.5606 33.2941 88.9027 33.0976 89.201C32.9011 89.4969 32.6336 89.7289 32.2951 89.897C31.9565 90.0627 31.5588 90.1456 31.1019 90.1456ZM34.2941 90.0391V84.5845H35.5406V85.4936H35.5974C35.6968 85.1787 35.8673 84.9361 36.1087 84.7656C36.3526 84.5928 36.6308 84.5064 36.9433 84.5064C37.0143 84.5064 37.0936 84.5099 37.1812 84.517C37.2711 84.5218 37.3457 84.5301 37.4049 84.5419V85.7244C37.3505 85.7055 37.264 85.6889 37.1457 85.6747C37.0297 85.6581 36.9172 85.6499 36.8083 85.6499C36.5739 85.6499 36.3632 85.7008 36.1762 85.8026C35.9915 85.902 35.846 86.0405 35.7394 86.218C35.6329 86.3956 35.5796 86.6004 35.5796 86.8324V90.0391H34.2941ZM38.0589 90.0391V84.5845H39.3445V90.0391H38.0589ZM38.7053 83.8104C38.5017 83.8104 38.3265 83.7429 38.1797 83.608C38.0329 83.4706 37.9595 83.3061 37.9595 83.1143C37.9595 82.9202 38.0329 82.7557 38.1797 82.6207C38.3265 82.4834 38.5017 82.4148 38.7053 82.4148C38.9112 82.4148 39.0864 82.4834 39.2308 82.6207C39.3776 82.7557 39.451 82.9202 39.451 83.1143C39.451 83.3061 39.3776 83.4706 39.2308 83.608C39.0864 83.7429 38.9112 83.8104 38.7053 83.8104ZM40.4664 92.0845V84.5845H41.7306V85.4865H41.8051C41.8714 85.3539 41.9649 85.2131 42.0857 85.0639C42.2064 84.9124 42.3698 84.7834 42.5757 84.6768C42.7817 84.5679 43.0445 84.5135 43.3641 84.5135C43.7855 84.5135 44.1655 84.6212 44.504 84.8366C44.8449 85.0497 45.1148 85.3658 45.3137 85.7848C45.5149 86.2015 45.6155 86.7128 45.6155 87.3189C45.6155 87.9179 45.5173 88.4268 45.3208 88.8459C45.1243 89.2649 44.8568 89.5845 44.5182 89.8047C44.1797 90.0249 43.7962 90.1349 43.3676 90.1349C43.0551 90.1349 42.7959 90.0829 42.5899 89.9787C42.384 89.8745 42.2183 89.7491 42.0928 89.6023C41.9697 89.4531 41.8738 89.3123 41.8051 89.1797H41.7519V92.0845H40.4664ZM41.727 87.3118C41.727 87.6645 41.7767 87.9735 41.8762 88.2386C41.978 88.5038 42.1236 88.7109 42.313 88.8601C42.5047 89.0069 42.7367 89.0803 43.009 89.0803C43.2931 89.0803 43.531 89.0045 43.7228 88.853C43.9145 88.6991 44.0589 88.4896 44.156 88.2244C44.2554 87.9569 44.3051 87.6527 44.3051 87.3118C44.3051 86.9732 44.2566 86.6726 44.1596 86.4098C44.0625 86.147 43.9181 85.9411 43.7263 85.7919C43.5346 85.6428 43.2954 85.5682 43.009 85.5682C42.7344 85.5682 42.5012 85.6404 42.3094 85.7848C42.1176 85.9292 41.9721 86.1316 41.8726 86.392C41.7756 86.6525 41.727 86.959 41.727 87.3118ZM49.2401 84.5845V85.5788H46.1044V84.5845H49.2401ZM46.8786 83.2777H48.1641V88.3984C48.1641 88.5713 48.1901 88.7038 48.2422 88.7962C48.2967 88.8861 48.3677 88.9477 48.4553 88.9808C48.5429 89.014 48.6399 89.0305 48.7465 89.0305C48.827 89.0305 48.9004 89.0246 48.9667 89.0128C49.0353 89.0009 49.0874 88.9903 49.1229 88.9808L49.3395 89.9858C49.2709 90.0095 49.1726 90.0355 49.0448 90.0639C48.9193 90.0923 48.7654 90.1089 48.5831 90.1136C48.2612 90.1231 47.9712 90.0746 47.7131 89.968C47.4551 89.8591 47.2503 89.6911 47.0988 89.4638C46.9496 89.2365 46.8762 88.9524 46.8786 88.6115V83.2777ZM50.1152 90.0391V84.5845H51.4007V90.0391H50.1152ZM50.7615 83.8104C50.5579 83.8104 50.3827 83.7429 50.2359 83.608C50.0892 83.4706 50.0158 83.3061 50.0158 83.1143C50.0158 82.9202 50.0892 82.7557 50.2359 82.6207C50.3827 82.4834 50.5579 82.4148 50.7615 82.4148C50.9675 82.4148 51.1427 82.4834 51.2871 82.6207C51.4339 82.7557 51.5072 82.9202 51.5072 83.1143C51.5072 83.3061 51.4339 83.4706 51.2871 83.608C51.1427 83.7429 50.9675 83.8104 50.7615 83.8104ZM54.9019 90.1456C54.3692 90.1456 53.9076 90.0284 53.5169 89.794C53.1263 89.5597 52.8233 89.2318 52.6078 88.8104C52.3948 88.389 52.2882 87.8965 52.2882 87.3331C52.2882 86.7696 52.3948 86.276 52.6078 85.8523C52.8233 85.4285 53.1263 85.0994 53.5169 84.8651C53.9076 84.6307 54.3692 84.5135 54.9019 84.5135C55.4346 84.5135 55.8962 84.6307 56.2868 84.8651C56.6775 85.0994 56.9793 85.4285 57.1924 85.8523C57.4078 86.276 57.5155 86.7696 57.5155 87.3331C57.5155 87.8965 57.4078 88.389 57.1924 88.8104C56.9793 89.2318 56.6775 89.5597 56.2868 89.794C55.8962 90.0284 55.4346 90.1456 54.9019 90.1456ZM54.909 89.1158C55.1978 89.1158 55.4393 89.0365 55.6334 88.8778C55.8275 88.7169 55.972 88.5014 56.0667 88.2315C56.1637 87.9616 56.2123 87.661 56.2123 87.3295C56.2123 86.9957 56.1637 86.6939 56.0667 86.424C55.972 86.1518 55.8275 85.9351 55.6334 85.7741C55.4393 85.6132 55.1978 85.5327 54.909 85.5327C54.6131 85.5327 54.3668 85.6132 54.1703 85.7741C53.9762 85.9351 53.8306 86.1518 53.7336 86.424C53.6389 86.6939 53.5915 86.9957 53.5915 87.3295C53.5915 87.661 53.6389 87.9616 53.7336 88.2315C53.8306 88.5014 53.9762 88.7169 54.1703 88.8778C54.3668 89.0365 54.6131 89.1158 54.909 89.1158ZM59.6921 86.843V90.0391H58.4066V84.5845H59.6353V85.5114H59.6992C59.8247 85.206 60.0247 84.9633 60.2994 84.7834C60.5763 84.6035 60.9184 84.5135 61.3256 84.5135C61.7021 84.5135 62.0299 84.594 62.3093 84.755C62.591 84.916 62.8088 85.1491 62.9627 85.4545C63.119 85.7599 63.1959 86.1304 63.1935 86.5661V90.0391H61.908V86.7649C61.908 86.4003 61.8133 86.1151 61.6239 85.9091C61.4369 85.7031 61.1777 85.6001 60.8462 85.6001C60.6213 85.6001 60.4213 85.6499 60.2461 85.7493C60.0733 85.8464 59.9371 85.9872 59.8377 86.1719C59.7406 86.3565 59.6921 86.5803 59.6921 86.843Z" fill="white"/>
<path d="M201.265 86.4027C201.265 87.1863 201.119 87.8575 200.825 88.4162C200.534 88.9725 200.136 89.3987 199.632 89.6946C199.13 89.9905 198.561 90.1385 197.924 90.1385C197.287 90.1385 196.716 89.9905 196.212 89.6946C195.71 89.3963 195.312 88.969 195.019 88.4126C194.728 87.8539 194.582 87.1839 194.582 86.4027C194.582 85.6191 194.728 84.9491 195.019 84.3928C195.312 83.834 195.71 83.4067 196.212 83.1108C196.716 82.8149 197.287 82.6669 197.924 82.6669C198.561 82.6669 199.13 82.8149 199.632 83.1108C200.136 83.4067 200.534 83.834 200.825 84.3928C201.119 84.9491 201.265 85.6191 201.265 86.4027ZM199.941 86.4027C199.941 85.8511 199.854 85.3859 199.682 85.0071C199.511 84.6259 199.274 84.3383 198.971 84.1442C198.668 83.9477 198.319 83.8494 197.924 83.8494C197.528 83.8494 197.179 83.9477 196.876 84.1442C196.573 84.3383 196.335 84.6259 196.162 85.0071C195.992 85.3859 195.907 85.8511 195.907 86.4027C195.907 86.9543 195.992 87.4207 196.162 87.8018C196.335 88.1806 196.573 88.4683 196.876 88.6648C197.179 88.8589 197.528 88.956 197.924 88.956C198.319 88.956 198.668 88.8589 198.971 88.6648C199.274 88.4683 199.511 88.1806 199.682 87.8018C199.854 87.4207 199.941 86.9543 199.941 86.4027ZM205.731 87.745V84.5845H207.016V90.0391H205.77V89.0696H205.713C205.59 89.375 205.387 89.6248 205.106 89.8189C204.826 90.013 204.482 90.1101 204.072 90.1101C203.715 90.1101 203.399 90.0308 203.124 89.8722C202.852 89.7112 202.639 89.478 202.485 89.1726C202.331 88.8648 202.254 88.4931 202.254 88.0575V84.5845H203.54V87.8587C203.54 88.2043 203.634 88.4789 203.824 88.6825C204.013 88.8861 204.262 88.9879 204.569 88.9879C204.759 88.9879 204.942 88.9418 205.12 88.8494C205.297 88.7571 205.443 88.6198 205.557 88.4375C205.673 88.2528 205.731 88.022 205.731 87.745ZM210.862 84.5845V85.5788H207.726V84.5845H210.862ZM208.5 83.2777H209.786V88.3984C209.786 88.5713 209.812 88.7038 209.864 88.7962C209.918 88.8861 209.989 88.9477 210.077 88.9808C210.165 89.014 210.262 89.0305 210.368 89.0305C210.449 89.0305 210.522 89.0246 210.588 89.0128C210.657 89.0009 210.709 88.9903 210.745 88.9808L210.961 89.9858C210.893 90.0095 210.794 90.0355 210.666 90.0639C210.541 90.0923 210.387 90.1089 210.205 90.1136C209.883 90.1231 209.593 90.0746 209.335 89.968C209.077 89.8591 208.872 89.6911 208.72 89.4638C208.571 89.2365 208.498 88.9524 208.5 88.6115V83.2777ZM213.14 82.7663V90.0391H211.854V82.7663H213.14ZM214.261 90.0391V84.5845H215.547V90.0391H214.261ZM214.908 83.8104C214.704 83.8104 214.529 83.7429 214.382 83.608C214.235 83.4706 214.162 83.3061 214.162 83.1143C214.162 82.9202 214.235 82.7557 214.382 82.6207C214.529 82.4834 214.704 82.4148 214.908 82.4148C215.114 82.4148 215.289 82.4834 215.433 82.6207C215.58 82.7557 215.654 82.9202 215.654 83.1143C215.654 83.3061 215.58 83.4706 215.433 83.608C215.289 83.7429 215.114 83.8104 214.908 83.8104ZM217.954 86.843V90.0391H216.669V84.5845H217.898V85.5114H217.962C218.087 85.206 218.287 84.9633 218.562 84.7834C218.839 84.6035 219.181 84.5135 219.588 84.5135C219.964 84.5135 220.292 84.594 220.572 84.755C220.853 84.916 221.071 85.1491 221.225 85.4545C221.381 85.7599 221.458 86.1304 221.456 86.5661V90.0391H220.17V86.7649C220.17 86.4003 220.076 86.1151 219.886 85.9091C219.699 85.7031 219.44 85.6001 219.109 85.6001C218.884 85.6001 218.684 85.6499 218.508 85.7493C218.336 85.8464 218.199 85.9872 218.1 86.1719C218.003 86.3565 217.954 86.5803 217.954 86.843ZM224.977 90.1456C224.431 90.1456 223.958 90.032 223.561 89.8047C223.165 89.575 222.861 89.2507 222.648 88.8317C222.435 88.4103 222.328 87.9143 222.328 87.3438C222.328 86.7827 222.435 86.2902 222.648 85.8665C222.863 85.4403 223.164 85.1089 223.55 84.8722C223.936 84.633 224.389 84.5135 224.91 84.5135C225.246 84.5135 225.563 84.5679 225.862 84.6768C226.162 84.7834 226.427 84.9491 226.657 85.174C226.889 85.3989 227.071 85.6854 227.204 86.0334C227.337 86.379 227.403 86.791 227.403 87.2692V87.6634H222.932V86.7969H226.171C226.168 86.5507 226.115 86.3317 226.011 86.1399C225.907 85.9458 225.761 85.7931 225.574 85.6818C225.389 85.5705 225.174 85.5149 224.928 85.5149C224.665 85.5149 224.434 85.5788 224.235 85.7067C224.036 85.8321 223.881 85.9979 223.77 86.2038C223.661 86.4074 223.606 86.6312 223.603 86.875V87.6314C223.603 87.9486 223.661 88.2209 223.777 88.4482C223.893 88.6731 224.055 88.8459 224.264 88.9666C224.472 89.085 224.716 89.1442 224.995 89.1442C225.182 89.1442 225.351 89.1181 225.503 89.0661C225.655 89.0116 225.786 88.9323 225.897 88.8281C226.008 88.724 226.092 88.5949 226.149 88.4411L227.35 88.576C227.274 88.8932 227.129 89.1702 226.916 89.407C226.706 89.6413 226.436 89.8236 226.107 89.9538C225.778 90.0817 225.401 90.1456 224.977 90.1456ZM233.312 90.0391L234.506 82.7663H235.5L234.307 90.0391H233.312ZM230.035 88.1641L230.202 87.1697H235.798L235.631 88.1641H230.035ZM230.756 90.0391L231.949 82.7663H232.943L231.75 90.0391H230.756ZM230.457 85.6357L230.621 84.6413H236.217L236.054 85.6357H230.457ZM239.75 82.7663V90.0391H238.433V84.0483H238.39L236.689 85.1349V83.9276L238.497 82.7663H239.75Z" fill="white"/>
<rect x="127" y="114.039" width="180" height="48" rx="4" fill="#94CD85"/>
<path d="M138.182 142.039H135.717V134.766H138.232C138.954 134.766 139.574 134.912 140.092 135.203C140.613 135.492 141.013 135.907 141.293 136.45C141.572 136.992 141.712 137.64 141.712 138.396C141.712 139.153 141.571 139.804 141.289 140.349C141.01 140.893 140.606 141.311 140.078 141.602C139.553 141.893 138.92 142.039 138.182 142.039ZM137.035 140.899H138.118C138.625 140.899 139.047 140.807 139.386 140.622C139.724 140.435 139.979 140.157 140.149 139.788C140.32 139.416 140.405 138.952 140.405 138.396C140.405 137.839 140.32 137.378 140.149 137.011C139.979 136.641 139.727 136.366 139.393 136.183C139.061 135.999 138.649 135.906 138.157 135.906H137.035V140.899ZM145.121 142.146C144.575 142.146 144.102 142.032 143.704 141.805C143.309 141.575 143.005 141.251 142.792 140.832C142.579 140.41 142.472 139.914 142.472 139.344C142.472 138.783 142.579 138.29 142.792 137.866C143.007 137.44 143.308 137.109 143.694 136.872C144.08 136.633 144.533 136.513 145.054 136.513C145.39 136.513 145.707 136.568 146.006 136.677C146.306 136.783 146.571 136.949 146.801 137.174C147.033 137.399 147.215 137.685 147.348 138.033C147.481 138.379 147.547 138.791 147.547 139.269V139.663H143.076V138.797H146.315C146.312 138.551 146.259 138.332 146.155 138.14C146.051 137.946 145.905 137.793 145.718 137.682C145.533 137.571 145.318 137.515 145.072 137.515C144.809 137.515 144.578 137.579 144.379 137.707C144.18 137.832 144.025 137.998 143.914 138.204C143.805 138.407 143.749 138.631 143.747 138.875V139.631C143.747 139.949 143.805 140.221 143.921 140.448C144.037 140.673 144.199 140.846 144.408 140.967C144.616 141.085 144.86 141.144 145.139 141.144C145.326 141.144 145.495 141.118 145.647 141.066C145.798 141.012 145.93 140.932 146.041 140.828C146.152 140.724 146.236 140.595 146.293 140.441L147.494 140.576C147.418 140.893 147.273 141.17 147.06 141.407C146.85 141.641 146.58 141.824 146.251 141.954C145.922 142.082 145.545 142.146 145.121 142.146ZM152.745 138.026L151.574 138.154C151.54 138.036 151.482 137.924 151.4 137.82C151.319 137.716 151.21 137.632 151.073 137.568C150.936 137.504 150.767 137.472 150.569 137.472C150.301 137.472 150.076 137.53 149.894 137.646C149.714 137.762 149.625 137.913 149.628 138.097C149.625 138.256 149.683 138.385 149.802 138.484C149.922 138.584 150.121 138.665 150.398 138.729L151.329 138.928C151.845 139.04 152.228 139.216 152.479 139.457C152.732 139.699 152.86 140.015 152.863 140.406C152.86 140.749 152.76 141.052 152.561 141.315C152.364 141.575 152.091 141.779 151.74 141.925C151.39 142.072 150.988 142.146 150.533 142.146C149.865 142.146 149.328 142.006 148.921 141.727C148.514 141.445 148.271 141.053 148.193 140.551L149.446 140.43C149.503 140.677 149.624 140.862 149.809 140.988C149.993 141.113 150.234 141.176 150.53 141.176C150.835 141.176 151.08 141.113 151.265 140.988C151.452 140.862 151.545 140.707 151.545 140.523C151.545 140.366 151.485 140.237 151.364 140.136C151.246 140.034 151.061 139.956 150.81 139.901L149.88 139.706C149.356 139.597 148.969 139.414 148.718 139.156C148.467 138.895 148.343 138.566 148.346 138.168C148.343 137.832 148.434 137.541 148.619 137.295C148.806 137.046 149.065 136.854 149.397 136.719C149.731 136.582 150.115 136.513 150.551 136.513C151.19 136.513 151.693 136.65 152.06 136.922C152.429 137.194 152.658 137.562 152.745 138.026ZM156.102 142.146C155.557 142.146 155.09 142.026 154.699 141.787C154.311 141.548 154.011 141.218 153.801 140.796C153.592 140.372 153.488 139.885 153.488 139.333C153.488 138.779 153.595 138.29 153.808 137.866C154.021 137.44 154.322 137.109 154.71 136.872C155.1 136.633 155.562 136.513 156.095 136.513C156.537 136.513 156.929 136.595 157.27 136.759C157.613 136.92 157.887 137.148 158.091 137.444C158.294 137.737 158.41 138.081 158.439 138.474H157.21C157.16 138.211 157.042 137.992 156.855 137.817C156.67 137.639 156.423 137.55 156.113 137.55C155.85 137.55 155.619 137.621 155.42 137.763C155.221 137.903 155.066 138.104 154.955 138.367C154.846 138.63 154.792 138.945 154.792 139.312C154.792 139.683 154.846 140.003 154.955 140.271C155.064 140.536 155.216 140.741 155.413 140.885C155.612 141.027 155.845 141.098 156.113 141.098C156.302 141.098 156.471 141.062 156.62 140.991C156.772 140.918 156.899 140.813 157 140.675C157.102 140.538 157.172 140.371 157.21 140.175H158.439C158.408 140.561 158.294 140.903 158.098 141.201C157.901 141.497 157.634 141.729 157.295 141.897C156.957 142.063 156.559 142.146 156.102 142.146ZM159.294 142.039V136.585H160.541V137.494H160.597C160.697 137.179 160.867 136.936 161.109 136.766C161.353 136.593 161.631 136.506 161.943 136.506C162.014 136.506 162.094 136.51 162.181 136.517C162.271 136.522 162.346 136.53 162.405 136.542V137.724C162.35 137.705 162.264 137.689 162.146 137.675C162.03 137.658 161.917 137.65 161.808 137.65C161.574 137.65 161.363 137.701 161.176 137.803C160.992 137.902 160.846 138.04 160.739 138.218C160.633 138.396 160.58 138.6 160.58 138.832V142.039H159.294ZM163.059 142.039V136.585H164.344V142.039H163.059ZM163.705 135.81C163.502 135.81 163.326 135.743 163.18 135.608C163.033 135.471 162.96 135.306 162.96 135.114C162.96 134.92 163.033 134.756 163.18 134.621C163.326 134.483 163.502 134.415 163.705 134.415C163.911 134.415 164.086 134.483 164.231 134.621C164.378 134.756 164.451 134.92 164.451 135.114C164.451 135.306 164.378 135.471 164.231 135.608C164.086 135.743 163.911 135.81 163.705 135.81ZM165.466 144.085V136.585H166.731V137.487H166.805C166.871 137.354 166.965 137.213 167.086 137.064C167.206 136.912 167.37 136.783 167.576 136.677C167.782 136.568 168.044 136.513 168.364 136.513C168.785 136.513 169.165 136.621 169.504 136.837C169.845 137.05 170.115 137.366 170.314 137.785C170.515 138.201 170.616 138.713 170.616 139.319C170.616 139.918 170.517 140.427 170.321 140.846C170.124 141.265 169.857 141.585 169.518 141.805C169.18 142.025 168.796 142.135 168.368 142.135C168.055 142.135 167.796 142.083 167.59 141.979C167.384 141.875 167.218 141.749 167.093 141.602C166.97 141.453 166.874 141.312 166.805 141.18H166.752V144.085H165.466ZM166.727 139.312C166.727 139.665 166.777 139.973 166.876 140.239C166.978 140.504 167.124 140.711 167.313 140.86C167.505 141.007 167.737 141.08 168.009 141.08C168.293 141.08 168.531 141.004 168.723 140.853C168.915 140.699 169.059 140.49 169.156 140.224C169.255 139.957 169.305 139.653 169.305 139.312C169.305 138.973 169.257 138.673 169.16 138.41C169.062 138.147 168.918 137.941 168.726 137.792C168.535 137.643 168.295 137.568 168.009 137.568C167.734 137.568 167.501 137.64 167.309 137.785C167.118 137.929 166.972 138.132 166.873 138.392C166.776 138.652 166.727 138.959 166.727 139.312ZM174.24 136.585V137.579H171.104V136.585H174.24ZM171.879 135.278H173.164V140.398C173.164 140.571 173.19 140.704 173.242 140.796C173.297 140.886 173.368 140.948 173.455 140.981C173.543 141.014 173.64 141.031 173.746 141.031C173.827 141.031 173.9 141.025 173.967 141.013C174.035 141.001 174.087 140.99 174.123 140.981L174.34 141.986C174.271 142.009 174.173 142.036 174.045 142.064C173.919 142.092 173.765 142.109 173.583 142.114C173.261 142.123 172.971 142.075 172.713 141.968C172.455 141.859 172.25 141.691 172.099 141.464C171.95 141.237 171.876 140.952 171.879 140.612V135.278ZM175.115 142.039V136.585H176.401V142.039H175.115ZM175.762 135.81C175.558 135.81 175.383 135.743 175.236 135.608C175.089 135.471 175.016 135.306 175.016 135.114C175.016 134.92 175.089 134.756 175.236 134.621C175.383 134.483 175.558 134.415 175.762 134.415C175.967 134.415 176.143 134.483 176.287 134.621C176.434 134.756 176.507 134.92 176.507 135.114C176.507 135.306 176.434 135.471 176.287 135.608C176.143 135.743 175.967 135.81 175.762 135.81ZM179.902 142.146C179.369 142.146 178.908 142.028 178.517 141.794C178.126 141.56 177.823 141.232 177.608 140.81C177.395 140.389 177.288 139.897 177.288 139.333C177.288 138.77 177.395 138.276 177.608 137.852C177.823 137.429 178.126 137.099 178.517 136.865C178.908 136.631 179.369 136.513 179.902 136.513C180.435 136.513 180.896 136.631 181.287 136.865C181.677 137.099 181.979 137.429 182.192 137.852C182.408 138.276 182.516 138.77 182.516 139.333C182.516 139.897 182.408 140.389 182.192 140.81C181.979 141.232 181.677 141.56 181.287 141.794C180.896 142.028 180.435 142.146 179.902 142.146ZM179.909 141.116C180.198 141.116 180.439 141.036 180.633 140.878C180.828 140.717 180.972 140.501 181.067 140.232C181.164 139.962 181.212 139.661 181.212 139.33C181.212 138.996 181.164 138.694 181.067 138.424C180.972 138.152 180.828 137.935 180.633 137.774C180.439 137.613 180.198 137.533 179.909 137.533C179.613 137.533 179.367 137.613 179.17 137.774C178.976 137.935 178.831 138.152 178.734 138.424C178.639 138.694 178.592 138.996 178.592 139.33C178.592 139.661 178.639 139.962 178.734 140.232C178.831 140.501 178.976 140.717 179.17 140.878C179.367 141.036 179.613 141.116 179.909 141.116ZM184.692 138.843V142.039H183.407V136.585H184.635V137.511H184.699C184.825 137.206 185.025 136.963 185.299 136.783C185.576 136.603 185.918 136.513 186.326 136.513C186.702 136.513 187.03 136.594 187.309 136.755C187.591 136.916 187.809 137.149 187.963 137.455C188.119 137.76 188.196 138.13 188.194 138.566V142.039H186.908V138.765C186.908 138.4 186.813 138.115 186.624 137.909C186.437 137.703 186.178 137.6 185.846 137.6C185.621 137.6 185.421 137.65 185.246 137.749C185.073 137.846 184.937 137.987 184.838 138.172C184.741 138.357 184.692 138.58 184.692 138.843Z" fill="white"/>
</g>
</g>
<defs>
<clipPath id="clip0_2306_50786">
<rect width="312" height="194" fill="white" transform="translate(0.5 0.55957)"/>
</clipPath>
<clipPath id="clip1_2306_50786">
<rect width="664" height="194" fill="white" transform="translate(2 1.03906)"/>
</clipPath>
<clipPath id="clip2_2306_50786">
<rect width="615" height="158" fill="white" transform="translate(1 22.0391)"/>
</clipPath>
</defs>
</svg>
