<svg width="30" height="30" viewBox="2 3 20 20" fill="none" xmlns="http://www.w3.org/2000/svg">
<g opacity="1">
<path d="M19 20.7281H5C4.50451 20.7281 4.1 20.3236 4.1 19.8281V5.82812C4.1 5.33264 4.50451 4.92813 5 4.92813H19C19.4955 4.92813 19.9 5.33264 19.9 5.82812V19.8281C19.9 20.3236 19.4955 20.7281 19 20.7281Z" stroke="#3A5AFF" stroke-width="2.2"/>
<path d="M13.553 12.4859L10.0002 10.7094C9.75318 10.586 9.45286 10.6861 9.32936 10.933L7.32874 14.9334C7.20518 15.1805 7.30539 15.481 7.55253 15.6044L8.44781 16.0515C8.6948 16.1749 8.99502 16.0747 9.11846 15.8278L10.447 13.1699L13.9998 14.9463C14.2468 15.0698 14.5471 14.9697 14.6706 14.7227L16.6712 10.7223C16.7948 10.4752 16.6946 10.1748 16.4474 10.0513L15.5521 9.60419C15.3052 9.48084 15.0049 9.58101 14.8815 9.82796L13.553 12.4859Z" fill="#3A5AFF"/>
</g>
</svg>
