<svg width="24" height="22" viewBox="0 0 24 22" fill="none" xmlns="http://www.w3.org/2000/svg">
<path d="M14 17.8281C17.771 17.8281 19.657 17.8281 20.828 16.6561C22 15.4851 22 13.5991 22 9.82812C22 6.05712 22 4.17112 20.828 3.00012C19.657 1.82812 17.771 1.82813 14 1.82813H10C6.229 1.82813 4.343 1.82812 3.172 3.00012C2 4.17112 2 6.05712 2 9.82812C2 13.5991 2 15.4851 3.172 16.6561C3.825 17.3101 4.7 17.5991 6 17.7261" stroke="#3A5AFF" stroke-width="2.1" stroke-linecap="round" stroke-linejoin="round"/>
<path d="M15.207 5.62142C15.1139 5.52819 15.0032 5.45428 14.8815 5.40395C14.7597 5.35362 14.6292 5.32785 14.4974 5.32813C14.3656 5.32841 14.2352 5.35473 14.1136 5.40557C13.9921 5.45642 13.8817 5.5308 13.789 5.62442L9.23901 10.2214C8.96354 10.4996 8.77579 10.8525 8.69901 11.2364L8.51901 12.1324C8.48665 12.2939 8.49467 12.4609 8.54236 12.6185C8.59006 12.7762 8.67595 12.9196 8.79241 13.036C8.90886 13.1525 9.05228 13.2384 9.20991 13.2861C9.36755 13.3338 9.53452 13.3418 9.69601 13.3094L10.592 13.1294C10.9759 13.0526 11.3288 12.8649 11.607 12.5894L16.204 8.03942C16.2976 7.94669 16.372 7.83637 16.4229 7.7148C16.4737 7.59324 16.5 7.46282 16.5003 7.33104C16.5006 7.19927 16.4748 7.06874 16.4245 6.94696C16.3741 6.82518 16.3002 6.71454 16.207 6.62142L15.207 5.62142V5.62142Z" stroke="#3A5AFF" stroke-width="2" stroke-linecap="round" stroke-linejoin="round"/>
<path d="M12.0938 7.92188L13.9059 9.73407" stroke="#3A5AFF" stroke-width="2"/>
<path d="M14.0002 17.8281C12.7642 17.8281 11.4022 18.3281 10.1592 18.9731C8.16124 20.0101 7.16224 20.5291 6.67024 20.1981C6.17824 19.8681 6.27124 18.8431 6.45824 16.7941L6.50024 16.3281" stroke="#3A5AFF" stroke-width="2.1" stroke-linecap="round"/>
</svg>
