<svg width="24" height="24" viewBox="0 0 24 24" fill="none" xmlns="http://www.w3.org/2000/svg">
<g opacity="0.6">
<path d="M13.8856 18.3787C17.4411 18.3787 19.2193 18.3787 20.3234 17.2737C21.4284 16.1696 21.4284 14.3913 21.4284 10.8358C21.4284 7.28031 21.4284 5.50208 20.3234 4.398C19.2193 3.29297 17.4411 3.29297 13.8856 3.29297H10.1141C6.55863 3.29297 4.7804 3.29297 3.67632 4.398C2.57129 5.50208 2.57129 7.28031 2.57129 10.8358C2.57129 14.3913 2.57129 16.1696 3.67632 17.2737C4.292 17.8903 5.117 18.1628 6.34272 18.2825" stroke="#575A60" stroke-width="2.1" stroke-linecap="round" stroke-linejoin="round"/>
<path d="M9.83648 11.5859L13.2294 13.563M13.2244 8.10857L9.83648 10.0857M16.0013 7.35845C16.0013 8.18152 15.3341 8.84874 14.511 8.84874C13.688 8.84874 13.0207 8.18152 13.0207 7.35845C13.0207 6.53539 13.688 5.86816 14.511 5.86816C15.3341 5.86816 16.0013 6.53539 16.0013 7.35845ZM10.0402 10.8358C10.0402 11.6589 9.37293 12.3261 8.54986 12.3261C7.7268 12.3261 7.05957 11.6589 7.05957 10.8358C7.05957 10.0127 7.7268 9.34551 8.54986 9.34551C9.37293 9.34551 10.0402 10.0127 10.0402 10.8358ZM16.0013 14.3131C16.0013 15.1362 15.3341 15.8034 14.511 15.8034C13.688 15.8034 13.0207 15.1362 13.0207 14.3131C13.0207 13.4901 13.688 12.8229 14.511 12.8229C15.3341 12.8229 16.0013 13.4901 16.0013 14.3131Z" stroke="#575A60" stroke-width="1.7" stroke-linecap="round" stroke-linejoin="round"/>
<path d="M13.8854 18.3786C12.72 18.3786 11.4358 18.8501 10.2639 19.4582C8.38003 20.436 7.43811 20.9253 6.97423 20.6132C6.51034 20.3021 6.59803 19.3356 6.77434 17.4037L6.81394 16.9644" stroke="#575A60" stroke-width="2.1" stroke-linecap="round"/>
</g>
</svg>
