<svg width="18" height="18" viewBox="0 0 18 18" fill="none" xmlns="http://www.w3.org/2000/svg">
<path d="M12.4287 0.256836H5.57157C2.73528 0.256836 0.428711 2.56341 0.428711 5.39969V16.5425C0.428711 16.7699 0.519017 16.9879 0.679762 17.1486C0.840508 17.3094 1.05853 17.3997 1.28585 17.3997H12.4287C15.265 17.3997 17.5716 15.0931 17.5716 12.2568V5.39969C17.5716 2.56341 15.265 0.256836 12.4287 0.256836ZM15.8573 12.2568C15.8573 14.1477 14.3196 15.6854 12.4287 15.6854H2.143V5.39969C2.143 3.50884 3.68071 1.97112 5.57157 1.97112H12.4287C14.3196 1.97112 15.8573 3.50884 15.8573 5.39969V12.2568Z" fill="#3A5AFF"/>
<path d="M4.71436 6.75684C4.71436 6.48069 4.93821 6.25684 5.21436 6.25684H12.7858C13.0619 6.25684 13.2858 6.48069 13.2858 6.75684V7.47112C13.2858 7.74726 13.0619 7.97112 12.7858 7.97112H5.21435C4.93821 7.97112 4.71436 7.74726 4.71436 7.47112V6.75684ZM4.71436 10.1854C4.71436 9.90927 4.93821 9.68541 5.21436 9.68541H10.2144C10.4905 9.68541 10.7144 9.90927 10.7144 10.1854V10.8997C10.7144 11.1758 10.4905 11.3997 10.2144 11.3997H5.21436C4.93821 11.3997 4.71436 11.1758 4.71436 10.8997V10.1854Z" fill="#3A5AFF"/>
</svg>
