<svg width="20" height="20" viewBox="0 0 20 20" fill="none" xmlns="http://www.w3.org/2000/svg">
<path d="M17.2981 18.4531L2.70192 18.4531M17.2981 18.4531C18.0309 18.4531 18.625 17.8612 18.625 17.1311V10.3037C18.625 9.63982 18.3744 9.00027 17.9228 8.51206L11.9517 2.05552C10.9006 0.918995 9.09939 0.918991 8.0483 2.05552L2.07715 8.51203C1.62565 9.00023 1.375 9.63978 1.375 10.3036L1.375 17.1311C1.375 17.8612 1.96908 18.4531 2.70192 18.4531M17.2981 18.4531H11.9904M2.70192 18.4531L8.00961 18.4531M11.9904 18.4531H8.00961M11.9904 18.4531C12.3568 18.4531 12.6538 18.1572 12.6538 17.7921L12.6538 11.8432C12.6538 11.4781 12.3568 11.1822 11.9904 11.1822L8.00962 11.1821C7.6432 11.1821 7.34615 11.4781 7.34615 11.8431L7.34615 17.7921C7.34615 18.1572 7.6432 18.4531 8.00961 18.4531" stroke="#3A5AFF" stroke-width="2.2" stroke-linecap="round" stroke-linejoin="round"/>
</svg>
