<svg width="20" height="18" viewBox="0 0 20 17" fill="none" xmlns="http://www.w3.org/2000/svg">
<path d="M14.2859 16.1134L18.5716 8.82771L14.2859 1.54199H5.71442L1.42871 8.82771L5.71442 16.1134H14.2859Z" stroke="#575A60AA" stroke-width="2.2" stroke-linejoin="round"/>
<path d="M10.0003 11.1579C10.6175 11.1579 11.2094 10.9128 11.6458 10.4764C12.0822 10.04 12.3274 9.44808 12.3274 8.83091C12.3274 8.21375 12.0822 7.62187 11.6458 7.18547C11.2094 6.74907 10.6175 6.50391 10.0003 6.50391C9.38319 6.50391 8.7913 6.74907 8.35491 7.18547C7.91851 7.62187 7.67334 8.21375 7.67334 8.83091C7.67334 9.44808 7.91851 10.04 8.35491 10.4764C8.7913 10.9128 9.38319 11.1579 10.0003 11.1579Z" stroke="#575A60AA" stroke-width="2.2" stroke-linejoin="round"/>
</svg>
