<svg width="18" height="16" viewBox="0 0 18 16" fill="none" xmlns="http://www.w3.org/2000/svg">
<path fill-rule="evenodd" clip-rule="evenodd" d="M1.01147 0.242004C1.12347 0.215513 1.24004 0.214911 1.35231 0.240243L8.99987 1.98011L16.6466 0.260079C16.7569 0.236391 16.8711 0.237657 16.9809 0.26379C17.0909 0.28999 17.1937 0.340529 17.2817 0.411669L17.2836 0.413228C17.3728 0.483723 17.445 0.573411 17.4948 0.675631C17.5446 0.777746 17.5707 0.890093 17.5713 1.00368L17.5712 12.9192L17.5713 12.9246C17.5756 13.0996 17.5191 13.2707 17.4115 13.4087C17.3038 13.5467 17.1517 13.6431 16.9809 13.6816L9.19061 15.4344H8.80967L1.01939 13.6816C0.848629 13.6431 0.69647 13.5467 0.588816 13.4087C0.481161 13.2707 0.424729 13.0996 0.429006 12.9246L0.429072 1.00267L0.428939 0.997266C0.42611 0.882153 0.449579 0.767912 0.49756 0.663238C0.545541 0.558563 0.616769 0.466214 0.705823 0.393219C0.794877 0.320224 0.89941 0.268507 1.01147 0.242004ZM16.0573 12.3136V1.9489L9.75713 3.36644V13.7312L16.0573 12.3136ZM8.24315 3.36644L1.94298 1.9489V12.3136L8.24315 13.7312V3.36644Z" fill="#fff" stroke="#fff" stroke-width="0.25"/>
</svg>
